<svg width="140" height="22" viewBox="0 0 140 22" fill="none" xmlns="http://www.w3.org/2000/svg">
<path fill-rule="evenodd" clip-rule="evenodd" d="M5.97146 19.6213C6.04418 18.985 6.06842 13.9953 6.06842 10.8399V5.55529C4.23214 5.55529 0.759563 5.67851 0 5.75124V2.34937C1.10096 2.49683 6.89667 2.59582 7.16737 2.59582H9.29657C9.76119 2.59582 15.0923 2.49885 16.2922 2.35341V5.75326C15.8276 5.68053 11.3025 5.55731 10.2258 5.55731V11.2318C10.2258 14.7549 10.3511 19.1345 10.3995 19.6234H5.97146V19.6213Z" fill="#1A1A18"/>
<path fill-rule="evenodd" clip-rule="evenodd" d="M22.3084 13.3369C22.3084 15.4156 22.3831 19.1346 22.4074 19.6235H18.2479C18.2742 18.7164 18.2964 13.85 18.2964 13.3106V11.0602C18.2964 10.6946 18.2459 5.43418 18.2217 4.94531H22.4053C22.3811 5.31297 22.3084 8.59162 22.3084 11.0844V13.3348V13.3369Z" fill="#1A1A18"/>
<path fill-rule="evenodd" clip-rule="evenodd" d="M25.0757 18.9629C25.514 17.9609 30.5765 3.94337 31.4572 1.88892H31.6289C32.8026 3.94337 36.8408 11.1612 37.5762 12.4077C38.5054 10.9895 42.6143 3.96963 43.5678 2.42829H43.7395C45.0849 5.38775 49.7837 16.8135 50.616 18.672L46.8263 20.3346C46.0667 18.4276 43.1799 10.5491 42.885 9.91281C42.3477 10.6966 38.7276 16.6156 37.2368 18.769H37.0893C35.3762 16.0035 32.637 11.0623 32.1461 10.0583H32.0976C31.7057 11.2077 29.1381 19.2558 28.7483 20.3326L25.0797 18.9609L25.0757 18.9629Z" fill="#1A1A18"/>
<path fill-rule="evenodd" clip-rule="evenodd" d="M63.971 19.876C63.3104 19.876 55.0664 19.6295 54.1129 19.6295C54.1856 18.3326 54.1856 13.0985 54.1856 12.5349V9.25624C54.1856 8.86434 54.1351 2.96965 54.1108 2.35755C55.1633 2.35755 62.6478 1.99191 63.4801 1.91919L63.5791 5.07461C62.7468 5.07461 58.7106 5.19783 58.2945 5.19783V9.65017C58.7611 9.65017 61.6479 9.52896 62.7731 9.42997L62.8458 12.5127C62.26 12.5127 58.8096 12.4157 58.2965 12.4157V16.5994C58.9066 16.5994 62.3812 16.6499 63.8741 16.5266L63.973 19.878L63.971 19.876Z" fill="#1A1A18"/>
<path fill-rule="evenodd" clip-rule="evenodd" d="M68.2033 16.8195C70.5749 16.672 73.3385 15.7912 73.3385 14.3489C73.3385 13.5651 72.8233 13.151 70.9163 12.0742C69.1548 11.0702 67.4902 9.94504 67.4902 7.98755C67.4902 5.29675 71.1345 2.55748 76.1727 1.92114L76.7605 5.12504C74.3384 5.22201 71.9648 6.00581 71.9648 7.42393C71.9648 8.25622 73.1142 8.81983 74.4859 9.55313C75.9788 10.3612 77.8615 11.3147 77.8615 13.4439C77.8615 16.0114 75.1727 19.1184 68.8599 20.0719L68.1993 16.8175L68.2033 16.8195Z" fill="#1A1A18"/>
<path fill-rule="evenodd" clip-rule="evenodd" d="M79.332 18.7285C81.1178 17.8477 82.9016 16.4053 82.9016 12.149V8.33296C82.9016 7.91682 82.8248 2.95138 82.7763 2.36353H87.1559C87.1075 2.80391 87.0327 5.44622 87.0347 8.38145V12.1974C87.0367 17.5305 84.6631 20.2698 81.338 21.9566L79.332 18.7285Z" fill="#E3000F"/>
<path fill-rule="evenodd" clip-rule="evenodd" d="M101.004 1.97559C106.288 1.97559 109.981 5.10878 109.983 10.6863C109.983 14.1852 107.416 20.0314 99.8078 20.0293C94.305 20.0031 90.9517 16.3346 90.9517 11.5893C90.9517 6.81982 94.5697 1.97559 101.004 1.97559ZM100.272 16.8739C102.573 16.8739 105.361 15.0881 105.383 10.8075C105.408 7.06425 103.254 5.131 100.662 5.131C97.7998 5.131 95.5252 7.55312 95.5272 11.3449C95.5272 14.7932 97.509 16.8739 100.274 16.8739H100.272Z" fill="#E3000F"/>
<path fill-rule="evenodd" clip-rule="evenodd" d="M113.971 19.787C114.094 18.4416 114.092 11.054 114.092 10.5894V7.87437C114.092 7.14107 114.092 2.88469 113.967 2.37158C116.658 2.37158 118.199 2.44633 119.862 2.61602C124.902 3.15539 125.586 5.13712 125.586 6.50676C125.586 7.41177 125.098 9.0016 122.506 10.1995V10.3228C124.195 10.6177 126.346 11.8156 126.346 14.1145C126.346 16.9285 122.653 19.7648 115.486 19.787H113.969H113.971ZM118.005 9.78338C119.742 9.7349 121.478 8.48849 121.478 6.79967C121.478 4.98965 119.302 4.67047 118.005 4.69471V9.78338ZM118.007 17.2437C119.89 17.1204 122.092 15.973 122.092 14.26C122.092 12.6459 120.28 11.6904 118.005 11.7894V17.2437H118.007Z" fill="#E3000F"/>
<path fill-rule="evenodd" clip-rule="evenodd" d="M130.336 16.8295C132.707 16.682 135.473 15.8033 135.473 14.3589C135.473 13.5771 134.958 13.161 133.051 12.0842C131.289 11.0802 129.625 9.95505 129.625 7.99756C129.625 5.30676 133.269 2.56749 138.307 1.93115L138.895 5.13707C136.473 5.23404 134.101 6.01582 134.101 7.43394C134.101 8.26623 135.253 8.82984 136.622 9.56314C138.115 10.3692 139.998 11.3247 140 13.4519C140 16.0194 137.309 19.1264 130.998 20.0799L130.338 16.8255L130.336 16.8295Z" fill="#E3000F"/>
<path fill-rule="evenodd" clip-rule="evenodd" d="M18.2437 2.0686C18.2437 0.925212 19.1689 0 20.3123 0C21.4556 0 22.3808 0.927232 22.3829 2.0686C22.3829 3.21198 21.4577 4.13921 20.3143 4.13719C19.1709 4.13719 18.2457 3.20996 18.2457 2.0686H18.2437Z" fill="#E3000F"/>
</svg>
