<?xml version="1.0" encoding="utf-8" standalone="yes"?>
<!DOCTYPE svg PUBLIC "-//W3C//DTD SVG 1.1//EN" "http://www.w3.org/Graphics/SVG/1.1/DTD/svg11.dtd">
<svg width="780" height="828" viewBox="0 0 780 828" style="fill:none;stroke:none;fill-rule:evenodd;clip-rule:evenodd;stroke-linecap:round;stroke-linejoin:round;stroke-miterlimit:1.5;" version="1.1" xmlns="http://www.w3.org/2000/svg" xmlns:xlink="http://www.w3.org/1999/xlink"><style class="text-font-style fontImports" data-font-family="Shantell Sans">@import url('https://fonts.googleapis.com/css2?family=Shantell+Sans:wght@300..800&amp;display=block');</style><g id="items" style="isolation: isolate"><g id="blend" style="mix-blend-mode: normal"><g id="g-root-cp_1_g-1_1q7l6qj1jjuolq-fill" data-item-order="-535814" transform="translate(83.9429931640625, 182)"><g id="cp_1_g-1_1q7l6qj1jjuolq-fill" stroke="none" fill="#1ac3fb"><g><path d="M 215.349 94L 10 94C 28.9676 77.3931 53.7714 66.9398 84.4115 62.64L 84.4115 24C 84.4115 19.8933 85.622 16.5333 88.0429 13.92C 90.4638 11.3067 93.5764 10 97.3808 10L 134.214 10C 137.672 10 140.612 11.3067 143.033 13.92C 145.454 16.5333 146.664 19.8933 146.664 24L 146.664 63.76C 170.528 67.8667 190.414 75.7067 206.323 87.28C 209.482 89.4565 212.49 91.6965 215.349 94Z"></path></g></g></g><g id="g-root-cp_2_g-2_1hby6hn1jjuq68-fill" data-item-order="-535810" transform="translate(47.87199401855469, 350)"><g id="cp_2_g-2_1hby6hn1jjuq68-fill" stroke="none" fill="#43dd93"><g><path d="M 266.171 94L 52.4877 94C 40.2869 85.6356 30.6153 75.7423 23.4729 64.32C 14.7822 49.5263 10.2912 31.4196 10 10L 94.2532 10C 94.9883 17.0582 97.5064 23.2182 101.8074 28.48C 106.9951 34.4533 115.468 39.8667 127.227 44.72C 138.986 49.2 154.895 54.24 174.954 59.84C 205.389 66.56 230.117 74.5867 249.138 83.92C 255.373 86.9792 261.051 90.3392 266.171 94Z"></path></g></g></g><g id="g-root-cp_3_g-3_18gxnbv1jjunt6-fill" data-item-order="-535806" transform="translate(47.85600280761719, 266)"><g id="cp_3_g-3_18gxnbv1jjunt6-fill" stroke="none" fill="#a6da37"><g><path d="M 213.209 93.245C 213.751 93.5375 214.345 93.7873 214.973 94C 217.553 94.8732 220.713 95.12 223.216 95.12L 281.837 95.12C 283.634 95.12 285.258 94.7467 286.709 94C 287.772 93.4534 288.741 92.7067 289.618 91.76C 291.693 89.1467 292.73 86.3466 292.73 83.36C 292.385 69.92 287.889 56.1067 279.242 41.92C 272.555 30.1895 263.286 19.5495 251.436 10L 46.0868 10C 43.6449 12.138 41.2997 14.378 39.0512 16.72C 19.6837 37.2533 10 62.2667 10 91.76C 10 92.5107 10.0051 93.2573 10.0152 94L 94.2683 94C 94.1168 92.5448 94.041 91.0515 94.041 89.52C 94.041 75.7067 99.0558 65.44 109.0853 58.72C 119.115 52 132.603 48.64 149.549 48.64C 165.458 48.64 178.601 52.3733 188.976 59.84C 199.352 66.9333 205.404 75.3333 207.133 85.04C 207.7 88.2197 210.442 91.7517 213.209 93.245Z"></path></g></g></g><g id="g-root-cp_4_g-4_141457f1jjuolg-fill" data-item-order="-535802" transform="translate(90.3590087890625, 434)"><g id="cp_4_g-4_141457f1jjuolg-fill" stroke="none" fill="#ffe711"><g><path d="M 223.683 10C 234.184 17.508 242.34 26.2814 248.152 36.32C 257.145 50.88 261.641 69.36 261.641 91.76C 261.641 92.5096 261.635 93.2563 261.623 94L 177.568 94C 177.226 85.0648 174.124 77.7848 168.262 72.16C 162.382 66.1867 152.871 60.7733 139.729 55.92C 126.933 51.0667 109.6405 45.84 87.8521 40.24C 61.9135 34.2667 39.9522 26.6133 21.9681 17.28C 17.7398 14.9978 13.7504 12.5711 10 10L 223.683 10Z"></path></g></g></g><g id="g-root-cp_5_g-5_qpnmu31jjuq6e-fill" data-item-order="-535798" transform="translate(38, 513.52001953125)"><g id="cp_5_g-5_qpnmu31jjuq6e-fill" stroke="none" fill="#f79438"><g><path d="M 12.6221 14.48C 12.7786 14.2908 12.9422 14.1042 13.1128 13.92C 15.5337 11.3067 18.3005 10 21.4131 10L 76.9217 10C 81.4177 10 86.0576 11.1039 88.4786 13.3438C 88.9603 13.7153 89.4182 14.0903 89.853 14.48C 91.6029 16.0486 92.9792 17.8569 94.041 20.6405C 96.4619 26.9872 100.2662 33.1471 105.4539 39.1205C 110.987 45.0938 118.423 50.1338 127.761 54.2405C 137.099 57.9738 148.685 59.8405 162.519 59.8405C 184.999 59.8405 201.772 55.9205 212.84 48.0805C 224.253 40.2405 229.959 29.6005 229.959 16.1605C 229.959 15.5941 229.948 15.0341 229.927 14.4805L 313.982 14.4805C 313.647 35.222 308.638 53.702 298.956 69.9205C 292.286 80.8437 283.782 90.3636 273.442 98.4805L 49.4052 98.4805C 39.0416 90.0332 30.7484 80.5132 24.5256 69.9205C 15.5336 54.6138 10.6917 38.5605 10 21.7605C 10 19.0193 10.8741 16.5922 12.6221 14.48Z"></path></g></g></g><g id="g-root-cp_6_g-6_qpnmu31jjuq6g-fill" data-item-order="-535794" transform="translate(77.40499877929688, 602)"><g id="cp_6_g-6_qpnmu31jjuq6g-fill" stroke="none" fill="#fb6762"><g><path d="M 94.5811 90.08C 97.0021 92.6934 100.1147 94 103.919 94L 140.752 94C 144.21 94 147.15 92.6934 149.571 90.08C 151.992 87.4667 153.202 84.1067 153.202 80L 153.202 41.36C 177.757 38 199.027 31.28 217.011 21.2C 223.152 17.8229 228.828 14.0895 234.037 10L 10 10C 14.6119 13.7591 19.6339 17.3058 25.0658 20.64C 42.704 31.0933 64.6653 38 90.9497 41.36L 90.9497 80C 90.9497 84.1067 92.1602 87.4667 94.5811 90.08Z"></path></g></g></g><g id="g-root-cp_1_text-1_maglsr1jjunsy-fill" data-item-order="-535785" transform="translate(446, 122)"></g><g id="g-root-cp_2_text-2_8z03ff1jjupdw-fill" data-item-order="-535769" transform="translate(446, 218)"></g><g id="g-root-cp_3_text-3_3d36j1jjuq6m-fill" data-item-order="-535755" transform="translate(446, 338)"></g><g id="g-root-cp_4_text-4_1upa44b1jjunm0-fill" data-item-order="-535741" transform="translate(446, 434)"></g><g id="g-root-cp_5_text-5_1q9glzv1jjuoea-fill" data-item-order="-535727" transform="translate(446, 554)"></g><g id="g-root-cp_6_text-6_1hdtlqz1jjup70-fill" data-item-order="-535713" transform="translate(446, 650)"></g><g id="g-root-ic_edit_1cy06sb1jk0b2c-fill" data-item-order="0" transform="translate(386, 344)"></g><g id="g-root-tx_coversnu_v6q6aj1jjp2q3-fill" data-item-order="0" transform="translate(458, 278)"><g id="tx_coversnu_v6q6aj1jjp2q3-fill" stroke="none" fill="#73f5b7"><g><text style="font: 15px &quot;Shantell Sans&quot;, cursive; white-space: pre;" font-size="15px" font-family="'Shantell Sans', cursive"><tspan x="12" y="28.77" dominant-baseline="ideographic">Covers numerical and data </tspan><tspan x="12" y="46.77" dominant-baseline="ideographic">interpretation skills</tspan></text></g></g></g><g id="g-root-tx_examines_zs61cr1jk7abk-fill" data-item-order="0" transform="translate(458, 710)"><g id="tx_examines_zs61cr1jk7abk-fill" stroke="none" fill="#fb6762"><g><text style="font: 15px &quot;Shantell Sans&quot;, cursive; white-space: pre;" font-size="15px" font-family="'Shantell Sans', cursive"><tspan x="12" y="28.77" dominant-baseline="ideographic">Examines understanding of </tspan><tspan x="12" y="46.77" dominant-baseline="ideographic">economic trends and news</tspan></text></g></g></g><g id="g-root-tx_assesses_4j6ogr1jk0b9f-fill" data-item-order="0" transform="translate(458, 374)"><g id="tx_assesses_4j6ogr1jk0b9f-fill" stroke="none" fill="#a6da37"><g><text style="font: 15px &quot;Shantell Sans&quot;, cursive; white-space: pre;" font-size="15px" font-family="'Shantell Sans', cursive"><tspan x="12" y="28.77" dominant-baseline="ideographic">Assesses proficiency in written </tspan><tspan x="12" y="46.77" dominant-baseline="ideographic">and spoken English</tspan></text></g></g></g><g id="g-root-tx_quantita_18i6onv1jjp156-fill" data-item-order="0" transform="translate(458, 218)"><g id="tx_quantita_18i6onv1jjp156-fill" stroke="none" fill="#43dd93"><g><text style="font: bold 20px &quot;Shantell Sans&quot;, cursive; white-space: pre;" font-weight="bold" font-size="20px" font-family="'Shantell Sans', cursive"><tspan x="12" y="34.75" dominant-baseline="ideographic">Quantitative Aptitude </tspan><tspan x="12" y="58.75" dominant-baseline="ideographic">/ DI</tspan></text></g></g></g><g id="g-root-ic_inte_v7z7mj1jjrw25-fill" data-item-order="0" transform="translate(386, 440)"></g><g id="g-root-ic_app_hvw50b1jjp158-fill" data-item-order="0" transform="translate(386, 224)"></g><g id="g-root-tx_generalb_1upwriz1jjrv9f-fill" data-item-order="0" transform="translate(458, 434)"><g id="tx_generalb_1upwriz1jjrv9f-fill" stroke="none" fill="#ffe711"><g><text style="font: bold 20px &quot;Shantell Sans&quot;, cursive; white-space: pre;" font-weight="bold" font-size="20px" font-family="'Shantell Sans', cursive"><tspan x="12" y="34.75" dominant-baseline="ideographic">General / Banking </tspan><tspan x="12" y="58.75" dominant-baseline="ideographic">Awareness</tspan></text></g></g></g><g id="g-root-tx_testskno_18jfpzv1jjruh8-fill" data-item-order="0" transform="translate(458, 494)"><g id="tx_testskno_18jfpzv1jjruh8-fill" stroke="none" fill="#ffe711"><g><text style="font: 15px &quot;Shantell Sans&quot;, cursive; white-space: pre;" font-size="15px" font-family="'Shantell Sans', cursive"><tspan x="12" y="28.77" dominant-baseline="ideographic">Tests knowledge of current </tspan><tspan x="12" y="46.77" dominant-baseline="ideographic">events and banking</tspan></text></g></g></g><g id="g-root-tx_focuseso_mbpjyz1jjupzc-fill" data-item-order="0" transform="translate(458, 158)"><g id="tx_focuseso_mbpjyz1jjupzc-fill" stroke="none" fill="#1ac3fb"><g><text style="font: 15px &quot;Shantell Sans&quot;, cursive; white-space: pre;" font-size="15px" font-family="'Shantell Sans', cursive"><tspan x="12" y="28.77" dominant-baseline="ideographic">Focuses on logical and </tspan><tspan x="12" y="46.77" dominant-baseline="ideographic">analytical skills</tspan></text></g></g></g><g id="g-root-ic_3_hx56cb1jk0b9n-fill" data-item-order="0" transform="translate(386, 560)"></g><g id="g-root-tx_reasonin_zn62cb1jjuoef-fill" data-item-order="0" transform="translate(458, 122)"><g id="tx_reasonin_zn62cb1jjuoef-fill" stroke="none" fill="#1ac3fb"><g><text style="font: bold 20px &quot;Shantell Sans&quot;, cursive; white-space: pre;" font-weight="bold" font-size="20px" font-family="'Shantell Sans', cursive"><tspan x="12" y="34.75" dominant-baseline="ideographic">Reasoning Ability</tspan></text></g></g></g><g id="g-root-tx_computer_18jfpzv1jk0b9l-fill" data-item-order="0" transform="translate(458, 554)"><g id="tx_computer_18jfpzv1jk0b9l-fill" stroke="none" fill="#f79438"><g><text style="font: bold 20px &quot;Shantell Sans&quot;, cursive; white-space: pre;" font-weight="bold" font-size="20px" font-family="'Shantell Sans', cursive"><tspan x="12" y="34.75" dominant-baseline="ideographic">Computer Aptitude</tspan></text></g></g></g><g id="g-root-ic_1_90vior1jjuoeh-fill" data-item-order="0" transform="translate(386, 128)"></g><g id="g-root-tx_evaluate_v8lopn1jk09oq-fill" data-item-order="0" transform="translate(458, 590)"><g id="tx_evaluate_v8lopn1jk09oq-fill" stroke="none" fill="#f79438"><g><text style="font: 15px &quot;Shantell Sans&quot;, cursive; white-space: pre;" font-size="15px" font-family="'Shantell Sans', cursive"><tspan x="12" y="28.77" dominant-baseline="ideographic">Evaluates basic computer </tspan><tspan x="12" y="46.77" dominant-baseline="ideographic">knowledge and skills</tspan></text></g></g></g><g id="g-root-ic_2_dl2iqj1jk7cp5-fill" data-item-order="0" transform="translate(386, 656)"></g><g id="g-root-tx_1lpwvl71pdrsw4-fill" data-item-order="0" transform="translate(92, 38)"><g id="tx_1lpwvl71pdrsw4-fill" stroke="none" fill="#ffffff"><g><text style="font: 30px &quot;Shantell Sans&quot;, cursive; white-space: pre;" font-size="30px" font-family="'Shantell Sans', cursive"><tspan x="42.19" y="47.55" dominant-baseline="ideographic">Top Scoring Areas in Banking Exam</tspan></text></g></g></g><g id="g-root-tx_economic_18n6kij1jk7bwv-fill" data-item-order="0" transform="translate(458, 650)"><g id="tx_economic_18n6kij1jk7bwv-fill" stroke="none" fill="#fb6762"><g><text style="font: bold 20px &quot;Shantell Sans&quot;, cursive; white-space: pre;" font-weight="bold" font-size="20px" font-family="'Shantell Sans', cursive"><tspan x="12" y="34.75" dominant-baseline="ideographic">Economic Awareness </tspan><tspan x="12" y="58.75" dominant-baseline="ideographic">&amp; Current Affairs</tspan></text></g></g></g><g id="g-root-tx_englishl_hun6u31jk09oi-fill" data-item-order="0" transform="translate(458, 338)"><g id="tx_englishl_hun6u31jk09oi-fill" stroke="none" fill="#a6da37"><g><text style="font: bold 20px &quot;Shantell Sans&quot;, cursive; white-space: pre;" font-weight="bold" font-size="20px" font-family="'Shantell Sans', cursive"><tspan x="12" y="34.75" dominant-baseline="ideographic">English Language</tspan></text></g></g></g><g id="g-root-cp_1_g-1_1q7l6qj1jjuolq-stroke" data-item-order="-535814" transform="translate(83.9429931640625, 182)"><g id="cp_1_g-1_1q7l6qj1jjuolq-stroke" fill="none" stroke-linecap="round" stroke-linejoin="round" stroke-miterlimit="4" stroke="#2c2c2c" stroke-width="2"><g><path d="M 215.3488 94L 10 94C 28.9676 77.3931 53.7714 66.9398 84.4115 62.64L 84.4115 24C 84.4115 19.8933 85.622 16.5333 88.0429 13.92C 90.4638 11.3067 93.5764 10 97.3808 10L 134.2136 10C 137.672 10 140.6117 11.3067 143.0327 13.92C 145.4536 16.5333 146.6641 19.8933 146.6641 24L 146.6641 63.76C 170.5276 67.8667 190.4138 75.7067 206.3228 87.28C 209.4817 89.4565 212.4904 91.6965 215.3488 94Z"></path></g></g></g><g id="g-root-cp_2_g-2_1hby6hn1jjuq68-stroke" data-item-order="-535810" transform="translate(47.87199401855469, 350)"><g id="cp_2_g-2_1hby6hn1jjuq68-stroke" fill="none" stroke-linecap="round" stroke-linejoin="round" stroke-miterlimit="4" stroke="#2c2c2c" stroke-width="2"><g><path d="M 266.1706 94L 52.4877 94C 40.2869 85.6356 30.6153 75.7423 23.4729 64.32C 14.7822 49.5263 10.2912 31.4196 10 10L 94.2532 10C 94.9883 17.0582 97.5064 23.2182 101.8074 28.48C 106.9951 34.4533 115.4683 39.8667 127.2272 44.72C 138.986 49.2 154.895 54.24 174.9541 59.84C 205.3887 66.56 230.1168 74.5867 249.1384 83.92C 255.3731 86.9792 261.0505 90.3392 266.1706 94Z"></path></g></g></g><g id="g-root-cp_3_g-3_18gxnbv1jjunt6-stroke" data-item-order="-535806" transform="translate(47.85600280761719, 266)"><g id="cp_3_g-3_18gxnbv1jjunt6-stroke" fill="none" stroke-linecap="round" stroke-linejoin="round" stroke-miterlimit="4" stroke="#2c2c2c" stroke-width="2"><g><path d="M 213.2087 93.245C 213.7505 93.5375 214.3446 93.7873 214.973 94C 217.5531 94.8732 220.7126 95.12 223.2157 95.12L 281.8369 95.12C 283.6339 95.12 285.2581 94.7467 286.7093 94C 287.7717 93.4534 288.7407 92.7067 289.6177 91.76C 291.6928 89.1467 292.7304 86.3466 292.7304 83.36C 292.3845 69.92 287.8885 56.1067 279.2423 41.92C 272.5551 30.1895 263.2862 19.5495 251.4356 10L 46.0868 10C 43.6449 12.138 41.2997 14.378 39.0512 16.72C 19.6837 37.2533 10 62.2667 10 91.76C 10 92.5107 10.0051 93.2573 10.0152 94L 94.2683 94C 94.1168 92.5448 94.041 91.0515 94.041 89.52C 94.041 75.7067 99.0558 65.44 109.0853 58.72C 119.1149 52 132.603 48.64 149.5495 48.64C 165.4585 48.64 178.6007 52.3733 188.9761 59.84C 199.3515 66.9333 205.4039 75.3333 207.1331 85.04C 207.6996 88.2197 210.4419 91.7517 213.2087 93.245Z"></path></g></g></g><g id="g-root-cp_4_g-4_141457f1jjuolg-stroke" data-item-order="-535802" transform="translate(90.3590087890625, 434)"><g id="cp_4_g-4_141457f1jjuolg-stroke" fill="none" stroke-linecap="round" stroke-linejoin="round" stroke-miterlimit="4" stroke="#2c2c2c" stroke-width="2"><g><path d="M 223.6829 10C 234.1837 17.508 242.3402 26.2814 248.1525 36.32C 257.1445 50.88 261.6405 69.36 261.6405 91.76C 261.6405 92.5096 261.6345 93.2563 261.6225 94L 177.5678 94C 177.2257 85.0648 174.1237 77.7848 168.2617 72.16C 162.3823 66.1867 152.8715 60.7733 139.7292 55.92C 126.9329 51.0667 109.6405 45.84 87.8521 40.24C 61.9135 34.2667 39.9522 26.6133 21.9681 17.28C 17.7398 14.9978 13.7504 12.5711 10 10L 223.6829 10Z"></path></g></g></g><g id="g-root-cp_5_g-5_qpnmu31jjuq6e-stroke" data-item-order="-535798" transform="translate(38, 513.52001953125)"><g id="cp_5_g-5_qpnmu31jjuq6e-stroke" fill="none" stroke-linecap="round" stroke-linejoin="round" stroke-miterlimit="4" stroke="#2c2c2c" stroke-width="2"><g><path d="M 12.6221 14.48C 12.7786 14.2908 12.9422 14.1042 13.1128 13.92C 15.5337 11.3067 18.3005 10 21.4131 10L 76.9217 10C 81.4177 10 86.0576 11.1039 88.4786 13.3438C 88.9603 13.7153 89.4182 14.0903 89.853 14.48C 91.6029 16.0486 92.9792 17.8569 94.041 20.6405C 96.4619 26.9872 100.2662 33.1471 105.4539 39.1205C 110.9875 45.0938 118.4232 50.1338 127.7611 54.2405C 137.099 57.9738 148.6849 59.8405 162.5188 59.8405C 184.9989 59.8405 201.7725 55.9205 212.8396 48.0805C 224.2526 40.2405 229.9591 29.6005 229.9591 16.1605C 229.9591 15.5941 229.9485 15.0341 229.9273 14.4805L 313.982 14.4805C 313.6468 35.222 308.638 53.702 298.9556 69.9205C 292.2863 80.8437 283.7819 90.3636 273.4423 98.4805L 49.4052 98.4805C 39.0416 90.0332 30.7484 80.5132 24.5256 69.9205C 15.5336 54.6138 10.6917 38.5605 10 21.7605C 10 19.0193 10.8741 16.5922 12.6221 14.48Z"></path></g></g></g><g id="g-root-cp_6_g-6_qpnmu31jjuq6g-stroke" data-item-order="-535794" transform="translate(77.40499877929688, 602)"><g id="cp_6_g-6_qpnmu31jjuq6g-stroke" fill="none" stroke-linecap="round" stroke-linejoin="round" stroke-miterlimit="4" stroke="#2c2c2c" stroke-width="2"><g><path d="M 94.5811 90.08C 97.0021 92.6934 100.1147 94 103.919 94L 140.7518 94C 144.2103 94 147.15 92.6934 149.5709 90.08C 151.9918 87.4667 153.2023 84.1067 153.2023 80L 153.2023 41.36C 177.7575 38 199.0271 31.28 217.0112 21.2C 223.1523 17.8229 228.8276 14.0895 234.037 10L 10 10C 14.6119 13.7591 19.6339 17.3058 25.0658 20.64C 42.704 31.0933 64.6653 38 90.9497 41.36L 90.9497 80C 90.9497 84.1067 92.1602 87.4667 94.5811 90.08Z"></path></g></g></g><g id="g-root-cp_1_text-1_maglsr1jjunsy-stroke" data-item-order="-535785" transform="translate(446, 122)"><g id="cp_1_text-1_maglsr1jjunsy-stroke" fill="none" stroke-linecap="round" stroke-linejoin="round" stroke-miterlimit="4" stroke="#1ac3fb" stroke-width="2"><g><path d="M 10 10L 10 82"></path></g></g></g><g id="g-root-cp_2_text-2_8z03ff1jjupdw-stroke" data-item-order="-535769" transform="translate(446, 218)"><g id="cp_2_text-2_8z03ff1jjupdw-stroke" fill="none" stroke-linecap="round" stroke-linejoin="round" stroke-miterlimit="4" stroke="#43dd93" stroke-width="2"><g><path d="M 10 10L 10 106"></path></g></g></g><g id="g-root-cp_3_text-3_3d36j1jjuq6m-stroke" data-item-order="-535755" transform="translate(446, 338)"><g id="cp_3_text-3_3d36j1jjuq6m-stroke" fill="none" stroke-linecap="round" stroke-linejoin="round" stroke-miterlimit="4" stroke="#a6da37" stroke-width="2"><g><path d="M 10 10L 10 82"></path></g></g></g><g id="g-root-cp_4_text-4_1upa44b1jjunm0-stroke" data-item-order="-535741" transform="translate(446, 434)"><g id="cp_4_text-4_1upa44b1jjunm0-stroke" fill="none" stroke-linecap="round" stroke-linejoin="round" stroke-miterlimit="4" stroke="#ffe711" stroke-width="2"><g><path d="M 10 10L 10 106"></path></g></g></g><g id="g-root-cp_5_text-5_1q9glzv1jjuoea-stroke" data-item-order="-535727" transform="translate(446, 554)"><g id="cp_5_text-5_1q9glzv1jjuoea-stroke" fill="none" stroke-linecap="round" stroke-linejoin="round" stroke-miterlimit="4" stroke="#f79438" stroke-width="2"><g><path d="M 10 10L 10 82"></path></g></g></g><g id="g-root-cp_6_text-6_1hdtlqz1jjup70-stroke" data-item-order="-535713" transform="translate(446, 650)"><g id="cp_6_text-6_1hdtlqz1jjup70-stroke" fill="none" stroke-linecap="round" stroke-linejoin="round" stroke-miterlimit="4" stroke="#fb6762" stroke-width="2"><g><path d="M 10 10L 10 106"></path></g></g></g><g id="g-root-ic_edit_1cy06sb1jk0b2c-stroke" data-item-order="0" transform="translate(386, 344)"><g id="ic_edit_1cy06sb1jk0b2c-stroke" fill="none" stroke-linecap="round" stroke-linejoin="round" stroke-miterlimit="4" stroke="#a6da37" stroke-width="2"><g><path d="M 32 47L 13 47C 11.895431 47 11 46.104568 11 45L 11 13C 11 11.895431 11.895431 11 13 11L 43 11C 44.104568 11 45 11.895431 45 13L 45 33M 41.400002 54.599998L 33 57L 35.400002 48.599998L 49.757999 34.242001C 51.414852 32.585144 54.101143 32.585144 55.757999 34.241997C 57.414852 35.898853 57.414852 38.585144 55.757999 40.241997ZM 47.958 36.042L 53.958 42.042M 35.400002 48.599998L 41.400002 54.599998M 22 19L 36 19M 18 25L 36 25M 18 31L 36 31M 18 37L 31 37"></path></g></g></g><g id="g-root-tx_coversnu_v6q6aj1jjp2q3-stroke" data-item-order="0" transform="translate(458, 278)"></g><g id="g-root-tx_examines_zs61cr1jk7abk-stroke" data-item-order="0" transform="translate(458, 710)"></g><g id="g-root-tx_assesses_4j6ogr1jk0b9f-stroke" data-item-order="0" transform="translate(458, 374)"></g><g id="g-root-tx_quantita_18i6onv1jjp156-stroke" data-item-order="0" transform="translate(458, 218)"></g><g id="g-root-ic_inte_v7z7mj1jjrw25-stroke" data-item-order="0" transform="translate(386, 440)"><g id="ic_inte_v7z7mj1jjrw25-stroke" fill="none" stroke-linecap="round" stroke-linejoin="round" stroke-miterlimit="4" stroke="#ffe711" stroke-width="2"><g><path d="M 33.017998 56.981998C 21.018 40.982002 21.018 24.021999 33.017998 11.022M 13.804 45L 35.006001 45M 13.804 23L 35.006001 23M 11.03 33L 35.006001 33M 49.007999 33L 49.007999 51M 57.007999 19L 49.007999 33L 41.007999 19M 41.007999 35L 57.007999 35M 41.007999 41L 57.007999 41M 34 57C 21.297451 57 11 46.702549 11 34C 11 21.297451 21.297451 11 34 11L 35 11L 35 57Z"></path></g></g></g><g id="g-root-ic_app_hvw50b1jjp158-stroke" data-item-order="0" transform="translate(386, 224)"><g id="ic_app_hvw50b1jjp158-stroke" fill="none" stroke-linecap="round" stroke-linejoin="round" stroke-miterlimit="4" stroke="#43dd93" stroke-width="2"><g><path d="M 26.007999 48L 18.007999 40M 18.007999 48L 26.007999 40M 22.007999 19L 22.007999 29M 27.007999 24L 17.007999 24M 41.007999 24L 51.007999 24M 41.007999 46L 51.007999 46M 41.007999 46L 51.007999 46M 41.007999 42L 51.007999 42M 34.007999 12L 34.007999 56M 12.007999 34L 56.007999 34M 18.007999 12L 50.007999 12C 50.007999 12 56.007999 12 56.007999 18L 56.007999 50C 56.007999 50 56.007999 56 50.007999 56L 18.007999 56C 18.007999 56 12.007999 56 12.007999 50L 12.007999 18C 12.007999 18 12.007999 12 18.007999 12"></path></g></g></g><g id="g-root-tx_generalb_1upwriz1jjrv9f-stroke" data-item-order="0" transform="translate(458, 434)"></g><g id="g-root-tx_testskno_18jfpzv1jjruh8-stroke" data-item-order="0" transform="translate(458, 494)"></g><g id="g-root-tx_focuseso_mbpjyz1jjupzc-stroke" data-item-order="0" transform="translate(458, 158)"></g><g id="g-root-ic_3_hx56cb1jk0b9n-stroke" data-item-order="0" transform="translate(386, 560)"><g id="ic_3_hx56cb1jk0b9n-stroke" fill="none" stroke-linecap="round" stroke-linejoin="round" stroke-miterlimit="4" stroke="#f79438" stroke-width="2"><g><path d="M 15 12L 53 12C 53 12 57 12 57 16L 57 52C 57 52 57 56 53 56L 15 56C 15 56 11 56 11 52L 11 16C 11 16 11 12 15 12M 11 22L 57 22M 18 16.5C 18.276142 16.5 18.5 16.723858 18.5 17C 18.5 17.276142 18.276142 17.5 18 17.5C 17.723858 17.5 17.5 17.276142 17.5 17C 17.5 16.723858 17.723858 16.5 18 16.5M 24 16.5C 24.276142 16.5 24.5 16.723858 24.5 17C 24.5 17.276142 24.276142 17.5 24 17.5C 23.723858 17.5 23.5 17.276142 23.5 17C 23.5 16.723858 23.723858 16.5 24 16.5M 30 16.5C 30.276142 16.5 30.5 16.723858 30.5 17C 30.5 17.276142 30.276142 17.5 30 17.5C 29.723858 17.5 29.5 17.276142 29.5 17C 29.5 16.723858 29.723858 16.5 30 16.5M 21.164 46.596001L 28.334 30.822001L 35.503998 46.596001M 23.119999 42.293999L 33.548 42.293999M 39.674 37.992001L 48.278 37.992001M 43.976002 33.690002L 43.976002 42.293999"></path></g></g></g><g id="g-root-tx_reasonin_zn62cb1jjuoef-stroke" data-item-order="0" transform="translate(458, 122)"></g><g id="g-root-tx_computer_18jfpzv1jk0b9l-stroke" data-item-order="0" transform="translate(458, 554)"></g><g id="g-root-ic_1_90vior1jjuoeh-stroke" data-item-order="0" transform="translate(386, 128)"><g id="ic_1_90vior1jjuoeh-stroke" fill="none" stroke-linecap="round" stroke-linejoin="round" stroke-miterlimit="4" stroke="#1ac3fb" stroke-width="2"><g><path d="M 19.350719 56.5L 19.350719 43.970001C 16.587181 41.409798 14.65988 38.075798 13.82048 34.4034C 12.9811 30.731001 13.26862 26.89068 14.64554 23.384159C 16.02244 19.87764 18.424721 16.8678 21.538681 14.7477C 24.652641 12.6276 28.33354 11.495768 32.1008 11.500012C 46.378799 11.500012 49.4608 23.25602 54.5508 36.459999C 54.638 36.687401 54.668598 36.9324 54.639999 37.174202C 54.611401 37.416 54.524601 37.647202 54.386799 37.848C 54.249001 38.048599 54.064602 38.212799 53.849201 38.326401C 53.633801 38.440002 53.394199 38.499599 53.150799 38.5L 49.3508 38.5L 49.3508 44.5C 49.3508 46.0914 48.718601 47.617401 47.593399 48.742599C 46.468201 49.867802 44.942001 50.5 43.3508 50.5L 40.3508 50.5L 40.3508 56.5M 41.253201 25.137981C 40.951 25.440159 40.6096 25.67922 40.2458 25.85512L 43.641998 29.25144L 40.174202 32.7192C 38.848 31.393 36.699799 31.3908 35.3764 32.714401C 34.052799 34.038002 34.055 36.186001 35.381203 37.512199L 31.7796 41.113998L 28.320761 37.655197C 28.18668 37.872398 28.025681 38.0774 27.837681 38.2654C 26.501261 39.601799 24.3069 39.5742 22.93642 38.2038C 21.565941 36.833199 21.538319 34.638802 22.874741 33.302399C 23.06274 33.114403 23.267719 32.9534 23.48498 32.819401L 20.02636 29.3608L 23.490181 25.89698C 24.87608 27.28282 27.104259 27.30158 28.46698 25.93886C 29.8297 24.576141 29.81094 22.34798 28.4251 20.962059L 31.8888 17.498301L 35.3386 20.947941C 35.5144 20.58396 35.753403 20.242661 36.055599 19.940479C 37.4972 18.49894 39.829201 18.493839 41.264603 19.9291C 42.699799 21.364361 42.694599 23.696461 41.253201 25.137981Z"></path></g></g></g><g id="g-root-tx_evaluate_v8lopn1jk09oq-stroke" data-item-order="0" transform="translate(458, 590)"></g><g id="g-root-ic_2_dl2iqj1jk7cp5-stroke" data-item-order="0" transform="translate(386, 656)"><g id="ic_2_dl2iqj1jk7cp5-stroke" fill="none" stroke-linecap="round" stroke-linejoin="round" stroke-miterlimit="4" stroke="#fb6762" stroke-width="2"><g><path d="M 56.5 21.70002L 56.5 52.099998C 56.5 54.5 54.5 56.5 52.099998 56.5M 52.099998 56.5C 49.700001 56.5 47.700001 54.5 47.700001 52.099998L 47.700001 14.5C 47.700001 12.9 46.299999 11.5 44.700001 11.5L 14.5 11.5C 12.9 11.5 11.5 12.9 11.5 14.5L 11.5 52.099998C 11.5 54.5 13.50002 56.5 15.900021 56.5L 52.099998 56.5ZM 20.1 39.700001L 39.099998 39.700001M 20.1 47.700001L 32.099998 47.700001M 10 10M 38.5 21.70002L 29.5 29.70002L 25.5 26.1L 20.5 30.5M 38.5 27.1L 38.5 21.70002L 32.5 21.70002"></path></g></g></g><g id="g-root-tx_1lpwvl71pdrsw4-stroke" data-item-order="0" transform="translate(92, 38)"></g><g id="g-root-tx_economic_18n6kij1jk7bwv-stroke" data-item-order="0" transform="translate(458, 650)"></g><g id="g-root-tx_englishl_hun6u31jk09oi-stroke" data-item-order="0" transform="translate(458, 338)"></g></g></g></svg>