<?xml version="1.0" encoding="utf-8" standalone="yes"?>
<!DOCTYPE svg PUBLIC "-//W3C//DTD SVG 1.1//EN" "http://www.w3.org/Graphics/SVG/1.1/DTD/svg11.dtd">
<svg width="746" height="1374" viewBox="0 0 746 1374" style="fill:none;stroke:none;fill-rule:evenodd;clip-rule:evenodd;stroke-linecap:round;stroke-linejoin:round;stroke-miterlimit:1.5;" version="1.1" xmlns="http://www.w3.org/2000/svg" xmlns:xlink="http://www.w3.org/1999/xlink"><style class="text-font-style fontImports" data-font-family="Shantell Sans">@import url('https://fonts.googleapis.com/css2?family=Shantell+Sans:wght@300..800&amp;display=block');</style><rect id="" x="0" y="0" width="746" height="1374" style="fill: #2c2c2c;"></rect><g id="items" style="isolation: isolate"><g id="blend" style="mix-blend-mode: normal"><g id="g-root-tf_924wpp1hvyhop-fill" data-item-order="-1537506"><g id="tf_924wpp1hvyhop-fill" stroke="none" fill="#2c2c2c"><g><path d="M 0 0L 746 0L 746 1374L 0 1374Z"></path></g></g></g><g id="g-root-cp_0-0_cell-0-0_hx502l1hvx4wd-fill" data-item-order="-892032" transform="translate(26, 122)"><g id="cp_0-0_cell-0-0_hx502l1hvx4wd-fill" stroke="none" fill="#ffffff"><g><path d="M 10 16C 10 12.6863 12.6863 10 16 10L 22 10L 22 22L 10 22L 10 16ZM 22 10L 22 22L 280 22L 280 10L 22 10ZM 292 16C 292 12.6863 289.3137 10 286 10L 280 10L 280 22L 292 22L 292 16ZM 292 22L 10 22L 10 46L 292 46L 292 22ZM 10 52C 10 55.3137 12.6863 58 16 58L 22 58L 22 46L 10 46L 10 52ZM 280 58L 280 46L 22 46L 22 58L 280 58ZM 286 58C 289.3137 58 292 55.3137 292 52L 292 46L 280 46L 280 58L 286 58Z"></path></g></g></g><g id="g-root-cp_1-0_cell-1-0_4maysd1hvx3bj-fill" data-item-order="-892000" transform="translate(26, 182)"><g id="cp_1-0_cell-1-0_4maysd1hvx3bj-fill" stroke="none" fill="#ffffff"><g><path d="M 10 16C 10 12.6863 12.6863 10 16 10L 22 10L 22 22L 10 22L 10 16ZM 22 10L 22 22L 280 22L 280 10L 22 10ZM 292 16C 292 12.6863 289.3137 10 286 10L 280 10L 280 22L 292 22L 292 16ZM 292 22L 10 22L 10 82L 292 82L 292 22ZM 10 88C 10 91.3137 12.6863 94 16 94L 22 94L 22 82L 10 82L 10 88ZM 280 94L 280 82L 22 82L 22 94L 280 94ZM 286 94C 289.3137 94 292 91.3137 292 88L 292 82L 280 82L 280 94L 286 94Z"></path></g></g></g><g id="g-root-cp_2-0_cell-2-0_1lw509p1hvx5hk-fill" data-item-order="-891972" transform="translate(26, 278)"><g id="cp_2-0_cell-2-0_1lw509p1hvx5hk-fill" stroke="none" fill="#ffffff"><g><path d="M 10 16C 10 12.6863 12.6863 10 16 10L 22 10L 22 22L 10 22L 10 16ZM 22 10L 22 22L 280 22L 280 10L 22 10ZM 292 16C 292 12.6863 289.3137 10 286 10L 280 10L 280 22L 292 22L 292 16ZM 292 22L 10 22L 10 58L 292 58L 292 22ZM 10 64C 10 67.3137 12.6863 70 16 70L 22 70L 22 58L 10 58L 10 64ZM 280 70L 280 58L 22 58L 22 70L 280 70ZM 286 70C 289.3137 70 292 67.3137 292 64L 292 58L 280 58L 280 70L 286 70Z"></path></g></g></g><g id="g-root-cp_3-0_cell-3-0_18layzh1hvx3wp-fill" data-item-order="-891944" transform="translate(26, 350)"><g id="cp_3-0_cell-3-0_18layzh1hvx3wp-fill" stroke="none" fill="#ffffff"><g><path d="M 10 16C 10 12.6863 12.6863 10 16 10L 22 10L 22 22L 10 22L 10 16ZM 22 10L 22 22L 280 22L 280 10L 22 10ZM 292 16C 292 12.6863 289.3137 10 286 10L 280 10L 280 22L 292 22L 292 16ZM 292 22L 10 22L 10 58L 292 58L 292 22ZM 10 64C 10 67.3137 12.6863 70 16 70L 22 70L 22 58L 10 58L 10 64ZM 280 70L 280 58L 22 58L 22 70L 280 70ZM 286 70C 289.3137 70 292 67.3137 292 64L 292 58L 280 58L 280 70L 286 70Z"></path></g></g></g><g id="g-root-cp_4-0_cell-4-0_v9ugm51hvx5hm-fill" data-item-order="-891916" transform="translate(26, 422)"><g id="cp_4-0_cell-4-0_v9ugm51hvx5hm-fill" stroke="none" fill="#ffffff"><g><path d="M 10 16C 10 12.6863 12.6863 10 16 10L 22 10L 22 22L 10 22L 10 16ZM 22 10L 22 22L 280 22L 280 10L 22 10ZM 292 16C 292 12.6863 289.3137 10 286 10L 280 10L 280 22L 292 22L 292 16ZM 292 22L 10 22L 10 82L 292 82L 292 22ZM 10 88C 10 91.3137 12.6863 94 16 94L 22 94L 22 82L 10 82L 10 88ZM 280 94L 280 82L 22 82L 22 94L 280 94ZM 286 94C 289.3137 94 292 91.3137 292 88L 292 82L 280 82L 280 94L 286 94Z"></path></g></g></g><g id="g-root-cp_5-0_cell-5-0_hz0fbx1hvx3wr-fill" data-item-order="-891888" transform="translate(26, 518)"><g id="cp_5-0_cell-5-0_hz0fbx1hvx3wr-fill" stroke="none" fill="#ffffff"><g><path d="M 10 16C 10 12.6863 12.6863 10 16 10L 22 10L 22 22L 10 22L 10 16ZM 22 10L 22 22L 280 22L 280 10L 22 10ZM 292 16C 292 12.6863 289.3137 10 286 10L 280 10L 280 22L 292 22L 292 16ZM 292 22L 10 22L 10 58L 292 58L 292 22ZM 10 64C 10 67.3137 12.6863 70 16 70L 22 70L 22 58L 10 58L 10 64ZM 280 70L 280 58L 22 58L 22 70L 280 70ZM 286 70C 289.3137 70 292 67.3137 292 64L 292 58L 280 58L 280 70L 286 70Z"></path></g></g></g><g id="g-root-cp_6-0_cell-6-0_4njwyl1hvx5ho-fill" data-item-order="-891860" transform="translate(26, 590)"><g id="cp_6-0_cell-6-0_4njwyl1hvx5ho-fill" stroke="none" fill="#ffffff"><g><path d="M 10 16C 10 12.6863 12.6863 10 16 10L 22 10L 22 22L 10 22L 10 16ZM 22 10L 22 22L 280 22L 280 10L 22 10ZM 292 16C 292 12.6863 289.3137 10 286 10L 280 10L 280 22L 292 22L 292 16ZM 292 22L 10 22L 10 82L 292 82L 292 22ZM 10 88C 10 91.3137 12.6863 94 16 94L 22 94L 22 82L 10 82L 10 88ZM 280 94L 280 82L 22 82L 22 94L 280 94ZM 286 94C 289.3137 94 292 91.3137 292 88L 292 82L 280 82L 280 94L 286 94Z"></path></g></g></g><g id="g-root-cp_7-0_cell-7-0_1qdtxnh1hvx3pp-fill" data-item-order="-891832" transform="translate(26, 686)"><g id="cp_7-0_cell-7-0_1qdtxnh1hvx3pp-fill" stroke="none" fill="#ffffff"><g><path d="M 10 16C 10 12.6863 12.6863 10 16 10L 22 10L 22 22L 10 22L 10 16ZM 22 10L 22 22L 280 22L 280 10L 22 10ZM 292 16C 292 12.6863 289.3137 10 286 10L 280 10L 280 22L 292 22L 292 16ZM 292 22L 10 22L 10 82L 292 82L 292 22ZM 10 88C 10 91.3137 12.6863 94 16 94L 22 94L 22 82L 10 82L 10 88ZM 280 94L 280 82L 22 82L 22 94L 280 94ZM 286 94C 289.3137 94 292 91.3137 292 88L 292 82L 280 82L 280 94L 286 94Z"></path></g></g></g><g id="g-root-cp_8-0_cell-8-0_1ly0fj11hvx4hy-fill" data-item-order="-891804" transform="translate(26, 782)"><g id="cp_8-0_cell-8-0_1ly0fj11hvx4hy-fill" stroke="none" fill="#ffffff"><g><path d="M 10 16C 10 12.6863 12.6863 10 16 10L 22 10L 22 22L 10 22L 10 16ZM 22 10L 22 22L 280 22L 280 10L 22 10ZM 292 16C 292 12.6863 289.3137 10 286 10L 280 10L 280 22L 292 22L 292 16ZM 292 22L 10 22L 10 58L 292 58L 292 22ZM 10 64C 10 67.3137 12.6863 70 16 70L 22 70L 22 58L 10 58L 10 64ZM 280 70L 280 58L 22 58L 22 70L 280 70ZM 286 70C 289.3137 70 292 67.3137 292 64L 292 58L 280 58L 280 70L 286 70Z"></path></g></g></g><g id="g-root-cp_9-0_cell-9-0_18n6e8t1hvx2x3-fill" data-item-order="-891776" transform="translate(26, 854)"><g id="cp_9-0_cell-9-0_18n6e8t1hvx2x3-fill" stroke="none" fill="#ffffff"><g><path d="M 10 16C 10 12.6863 12.6863 10 16 10L 22 10L 22 22L 10 22L 10 16ZM 22 10L 22 22L 280 22L 280 10L 22 10ZM 292 16C 292 12.6863 289.3137 10 286 10L 280 10L 280 22L 292 22L 292 16ZM 292 22L 10 22L 10 82L 292 82L 292 22ZM 10 88C 10 91.3137 12.6863 94 16 94L 22 94L 22 82L 10 82L 10 88ZM 280 94L 280 82L 22 82L 22 94L 280 94ZM 286 94C 289.3137 94 292 91.3137 292 88L 292 82L 280 82L 280 94L 286 94Z"></path></g></g></g><g id="g-root-cp_10-0_cell-10-0_147cw4d1hvx3pc-fill" data-item-order="-891748" transform="translate(26, 950)"><g id="cp_10-0_cell-10-0_147cw4d1hvx3pc-fill" stroke="none" fill="#ffffff"><g><path d="M 10 16C 10 12.6863 12.6863 10 16 10L 22 10L 22 22L 10 22L 10 16ZM 22 10L 22 22L 280 22L 280 10L 22 10ZM 292 16C 292 12.6863 289.3137 10 286 10L 280 10L 280 22L 292 22L 292 16ZM 292 22L 10 22L 10 82L 292 82L 292 22ZM 10 88C 10 91.3137 12.6863 94 16 94L 22 94L 22 82L 10 82L 10 88ZM 280 94L 280 82L 22 82L 22 94L 280 94ZM 286 94C 289.3137 94 292 91.3137 292 88L 292 82L 280 82L 280 94L 286 94Z"></path></g></g></g><g id="g-root-cp_11-0_cell-11-0_qvwdr11hvx5a9-fill" data-item-order="-891720" transform="translate(26, 1046)"><g id="cp_11-0_cell-11-0_qvwdr11hvx5a9-fill" stroke="none" fill="#ffffff"><g><path d="M 10 16C 10 12.6863 12.6863 10 16 10L 22 10L 22 22L 10 22L 10 16ZM 22 10L 22 22L 280 22L 280 10L 22 10ZM 292 16C 292 12.6863 289.3137 10 286 10L 280 10L 280 22L 292 22L 292 16ZM 292 22L 10 22L 10 82L 292 82L 292 22ZM 10 88C 10 91.3137 12.6863 94 16 94L 22 94L 22 82L 10 82L 10 88ZM 280 94L 280 82L 22 82L 22 94L 280 94ZM 286 94C 289.3137 94 292 91.3137 292 88L 292 82L 280 82L 280 94L 286 94Z"></path></g></g></g><g id="g-root-cp_12-0_cell-12-0_i0vul91hvx2x6-fill" data-item-order="-891692" transform="translate(26, 1142)"><g id="cp_12-0_cell-12-0_i0vul91hvx2x6-fill" stroke="none" fill="#ffffff"><g><path d="M 10 16C 10 12.6863 12.6863 10 16 10L 22 10L 22 22L 10 22L 10 16ZM 22 10L 22 22L 280 22L 280 10L 22 10ZM 292 16C 292 12.6863 289.3137 10 286 10L 280 10L 280 22L 292 22L 292 16ZM 292 22L 10 22L 10 82L 292 82L 292 22ZM 10 88C 10 91.3137 12.6863 94 16 94L 22 94L 22 82L 10 82L 10 88ZM 280 94L 280 82L 22 82L 22 94L 280 94ZM 286 94C 289.3137 94 292 91.3137 292 88L 292 82L 280 82L 280 94L 286 94Z"></path></g></g></g><g id="g-root-cp_13-0_cell-13-0_4pfc7x1hvx4i3-fill" data-item-order="-891664" transform="translate(26, 1238)"><g id="cp_13-0_cell-13-0_4pfc7x1hvx4i3-fill" stroke="none" fill="#ffffff"><g><path d="M 10 16C 10 12.6863 12.6863 10 16 10L 22 10L 22 22L 10 22L 10 16ZM 22 10L 22 22L 280 22L 280 10L 22 10ZM 292 16C 292 12.6863 289.3137 10 286 10L 280 10L 280 22L 292 22L 292 16ZM 292 22L 10 22L 10 58L 292 58L 292 22ZM 10 64C 10 67.3137 12.6863 70 16 70L 22 70L 22 58L 10 58L 10 64ZM 280 70L 280 58L 22 58L 22 70L 280 70ZM 286 70C 289.3137 70 292 67.3137 292 64L 292 58L 280 58L 280 70L 286 70Z"></path></g></g></g><g id="g-root-cp_0-1_cell-0-1_9lu3h1hvx5ac-fill" data-item-order="-891632" transform="translate(320, 122)"><g id="cp_0-1_cell-0-1_9lu3h1hvx5ac-fill" stroke="none" fill="#ffffff"><g><path d="M 10 16C 10 12.6863 12.6863 10 16 10L 22 10L 22 22L 10 22L 10 16ZM 22 10L 22 22L 178 22L 178 10L 22 10ZM 190 16C 190 12.6863 187.3137 10 184 10L 178 10L 178 22L 190 22L 190 16ZM 190 22L 10 22L 10 46L 190 46L 190 22ZM 10 52C 10 55.3137 12.6863 58 16 58L 22 58L 22 46L 10 46L 10 52ZM 178 58L 178 46L 22 46L 22 58L 178 58ZM 184 58C 187.3137 58 190 55.3137 190 52L 190 46L 178 46L 178 58L 184 58Z"></path></g></g></g><g id="g-root-cp_1-1_cell-1-1_1lpw9el1hvyi2u-fill" data-item-order="-891596" transform="translate(320, 182)"><g id="cp_1-1_cell-1-1_1lpw9el1hvyi2u-fill" stroke="none" fill="#ffffff"><g><path d="M 10 16C 10 12.6863 12.6863 10 16 10L 22 10L 22 22L 10 22L 10 16ZM 22 10L 22 22L 178.000031 22L 178.000031 10L 22 10ZM 190.000015 16C 190.000015 12.6863 187.313715 10 184.000015 10L 178.000015 10L 178.000015 22L 190.000015 22L 190.000015 16ZM 190.000015 22L 10 22L 10 82L 190.000015 82L 190.000015 22ZM 10 88C 10 91.3137 12.6863 94 16 94L 22 94L 22 82L 10 82L 10 88ZM 178.000031 94L 178.000031 82L 22 82L 22 94L 178.000031 94ZM 184.000015 94C 187.313715 94 190.000015 91.3137 190.000015 88L 190.000015 82L 178.000015 82L 178.000015 94L 184.000015 94Z"></path></g></g></g><g id="g-root-cp_2-1_cell-2-1_8wi74t1hvykgf-fill" data-item-order="-891578" transform="translate(320, 278)"><g id="cp_2-1_cell-2-1_8wi74t1hvykgf-fill" stroke="none" fill="#ffffff"><g><path d="M 10 16C 10 12.6863 12.6863 10 16 10L 22 10L 22 22L 10 22L 10 16ZM 22 10L 22 22L 178.000031 22L 178.000031 10L 22 10ZM 190.000015 16C 190.000015 12.6863 187.313715 10 184.000015 10L 178.000015 10L 178.000015 22L 190.000015 22L 190.000015 16ZM 190.000015 22L 10 22L 10 58L 190.000015 58L 190.000015 22ZM 10 64C 10 67.3137 12.6863 70 16 70L 22 70L 22 58L 10 58L 10 64ZM 178.000031 70L 178.000031 58L 22 58L 22 70L 178.000031 70ZM 184.000015 70C 187.313715 70 190.000015 67.3137 190.000015 64L 190.000015 58L 178.000015 58L 178.000015 70L 184.000015 70Z"></path></g></g></g><g id="g-root-cp_3-1_cell-3-1_zko61p1hvyjgo-fill" data-item-order="-891560" transform="translate(320, 350)"><g id="cp_3-1_cell-3-1_zko61p1hvyjgo-fill" stroke="none" fill="#ffffff"><g><path d="M 10 16C 10 12.6863 12.6863 10 16 10L 22 10L 22 22L 10 22L 10 16ZM 22 10L 22 22L 178.000031 22L 178.000031 10L 22 10ZM 190.000015 16C 190.000015 12.6863 187.313715 10 184.000015 10L 178.000015 10L 178.000015 22L 190.000015 22L 190.000015 16ZM 190.000015 22L 10 22L 10 58L 190.000015 58L 190.000015 22ZM 10 64C 10 67.3137 12.6863 70 16 70L 22 70L 22 58L 10 58L 10 64ZM 178.000031 70L 178.000031 58L 22 58L 22 70L 178.000031 70ZM 184.000015 70C 187.313715 70 190.000015 67.3137 190.000015 64L 190.000015 58L 178.000015 58L 178.000015 70L 184.000015 70Z"></path></g></g></g><g id="g-root-cp_4-1_cell-4-1_m9u4rh1hvyhvt-fill" data-item-order="-891542" transform="translate(320, 422)"><g id="cp_4-1_cell-4-1_m9u4rh1hvyhvt-fill" stroke="none" fill="#ffffff"><g><path d="M 10 16C 10 12.6863 12.6863 10 16 10L 22 10L 22 22L 10 22L 10 16ZM 22 10L 22 22L 178.000031 22L 178.000031 10L 22 10ZM 190.000015 16C 190.000015 12.6863 187.313715 10 184.000015 10L 178.000015 10L 178.000015 22L 190.000015 22L 190.000015 16ZM 190.000015 22L 10 22L 10 82L 190.000015 82L 190.000015 22ZM 10 88C 10 91.3137 12.6863 94 16 94L 22 94L 22 82L 10 82L 10 88ZM 178.000031 94L 178.000031 82L 22 82L 22 94L 178.000031 94ZM 184.000015 94C 187.313715 94 190.000015 91.3137 190.000015 88L 190.000015 82L 178.000015 82L 178.000015 94L 184.000015 94Z"></path></g></g></g><g id="g-root-cp_5-1_cell-5-1_hu0mn11hvyio2-fill" data-item-order="-891524" transform="translate(320, 518)"><g id="cp_5-1_cell-5-1_hu0mn11hvyio2-fill" stroke="none" fill="#ffffff"><g><path d="M 10 16C 10 12.6863 12.6863 10 16 10L 22 10L 22 22L 10 22L 10 16ZM 22 10L 22 22L 178.000031 22L 178.000031 10L 22 10ZM 190.000015 16C 190.000015 12.6863 187.313715 10 184.000015 10L 178.000015 10L 178.000015 22L 190.000015 22L 190.000015 16ZM 190.000015 22L 10 22L 10 58L 190.000015 58L 190.000015 22ZM 10 64C 10 67.3137 12.6863 70 16 70L 22 70L 22 58L 10 58L 10 64ZM 178.000031 70L 178.000031 58L 22 58L 22 70L 178.000031 70ZM 184.000015 70C 187.313715 70 190.000015 67.3137 190.000015 64L 190.000015 58L 178.000015 58L 178.000015 70L 184.000015 70Z"></path></g></g></g><g id="g-root-cp_6-1_cell-6-1_4ik49p1hvyk8z-fill" data-item-order="-891506" transform="translate(320, 590)"><g id="cp_6-1_cell-6-1_4ik49p1hvyk8z-fill" stroke="none" fill="#ffffff"><g><path d="M 10 16C 10 12.6863 12.6863 10 16 10L 22 10L 22 22L 10 22L 10 16ZM 22 10L 22 22L 178.000031 22L 178.000031 10L 22 10ZM 190.000015 16C 190.000015 12.6863 187.313715 10 184.000015 10L 178.000015 10L 178.000015 22L 190.000015 22L 190.000015 16ZM 190.000015 22L 10 22L 10 82L 190.000015 82L 190.000015 22ZM 10 88C 10 91.3137 12.6863 94 16 94L 22 94L 22 82L 10 82L 10 88ZM 178.000031 94L 178.000031 82L 22 82L 22 94L 178.000031 94ZM 184.000015 94C 187.313715 94 190.000015 91.3137 190.000015 88L 190.000015 82L 178.000015 82L 178.000015 94L 184.000015 94Z"></path></g></g></g><g id="g-root-cp_7-1_cell-7-1_1q8u4yl1hvyih0-fill" data-item-order="-891488" transform="translate(320, 686)"><g id="cp_7-1_cell-7-1_1q8u4yl1hvyih0-fill" stroke="none" fill="#ffffff"><g><path d="M 10 16C 10 12.6863 12.6863 10 16 10L 22 10L 22 22L 10 22L 10 16ZM 22 10L 22 22L 178.000031 22L 178.000031 10L 22 10ZM 190.000015 16C 190.000015 12.6863 187.313715 10 184.000015 10L 178.000015 10L 178.000015 22L 190.000015 22L 190.000015 16ZM 190.000015 22L 10 22L 10 82L 190.000015 82L 190.000015 22ZM 10 88C 10 91.3137 12.6863 94 16 94L 22 94L 22 82L 10 82L 10 88ZM 178.000031 94L 178.000031 82L 22 82L 22 94L 178.000031 94ZM 184.000015 94C 187.313715 94 190.000015 91.3137 190.000015 88L 190.000015 82L 178.000015 82L 178.000015 94L 184.000015 94Z"></path></g></g></g><g id="g-root-cp_8-1_cell-8-1_9091nh1hvyih1-fill" data-item-order="-891470" transform="translate(320, 782)"><g id="cp_8-1_cell-8-1_9091nh1hvyih1-fill" stroke="none" fill="#ffffff"><g><path d="M 10 16C 10 12.6863 12.6863 10 16 10L 22 10L 22 22L 10 22L 10 16ZM 22 10L 22 22L 178.000031 22L 178.000031 10L 22 10ZM 190.000015 16C 190.000015 12.6863 187.313715 10 184.000015 10L 178.000015 10L 178.000015 22L 190.000015 22L 190.000015 16ZM 190.000015 22L 10 22L 10 58L 190.000015 58L 190.000015 22ZM 10 64C 10 67.3137 12.6863 70 16 70L 22 70L 22 58L 10 58L 10 64ZM 178.000031 70L 178.000031 58L 22 58L 22 70L 178.000031 70ZM 184.000015 70C 187.313715 70 190.000015 67.3137 190.000015 64L 190.000015 58L 178.000015 58L 178.000015 70L 184.000015 70Z"></path></g></g></g><g id="g-root-cp_9-1_cell-9-1_4m1el1hvyj9q-fill" data-item-order="-891452" transform="translate(320, 854)"><g id="cp_9-1_cell-9-1_4m1el1hvyj9q-fill" stroke="none" fill="#ffffff"><g><path d="M 10 16C 10 12.6863 12.6863 10 16 10L 22 10L 22 22L 10 22L 10 16ZM 22 10L 22 22L 178.000031 22L 178.000031 10L 22 10ZM 190.000015 16C 190.000015 12.6863 187.313715 10 184.000015 10L 178.000015 10L 178.000015 22L 190.000015 22L 190.000015 16ZM 190.000015 22L 10 22L 10 82L 190.000015 82L 190.000015 22ZM 10 88C 10 91.3137 12.6863 94 16 94L 22 94L 22 82L 10 82L 10 88ZM 178.000031 94L 178.000031 82L 22 82L 22 94L 178.000031 94ZM 184.000015 94C 187.313715 94 190.000015 91.3137 190.000015 88L 190.000015 82L 178.000015 82L 178.000015 94L 184.000015 94Z"></path></g></g></g><g id="g-root-cp_10-1_cell-10-1_1upwl991hvyjuv-fill" data-item-order="-891434" transform="translate(320, 950)"><g id="cp_10-1_cell-10-1_1upwl991hvyjuv-fill" stroke="none" fill="#ffffff"><g><path d="M 10 16C 10 12.6863 12.6863 10 16 10L 22 10L 22 22L 10 22L 10 16ZM 22 10L 22 22L 178.000031 22L 178.000031 10L 22 10ZM 190.000015 16C 190.000015 12.6863 187.313715 10 184.000015 10L 178.000015 10L 178.000015 22L 190.000015 22L 190.000015 16ZM 190.000015 22L 10 22L 10 82L 190.000015 82L 190.000015 22ZM 10 88C 10 91.3137 12.6863 94 16 94L 22 94L 22 82L 10 82L 10 88ZM 178.000031 94L 178.000031 82L 22 82L 22 94L 178.000031 94ZM 184.000015 94C 187.313715 94 190.000015 91.3137 190.000015 88L 190.000015 82L 178.000015 82L 178.000015 94L 184.000015 94Z"></path></g></g></g><g id="g-root-cp_11-1_cell-11-1_1qapk7x1hvyhhc-fill" data-item-order="-891416" transform="translate(320, 1046)"><g id="cp_11-1_cell-11-1_1qapk7x1hvyhhc-fill" stroke="none" fill="#ffffff"><g><path d="M 10 16C 10 12.6863 12.6863 10 16 10L 22 10L 22 22L 10 22L 10 16ZM 22 10L 22 22L 178.000031 22L 178.000031 10L 22 10ZM 190.000015 16C 190.000015 12.6863 187.313715 10 184.000015 10L 178.000015 10L 178.000015 22L 190.000015 22L 190.000015 16ZM 190.000015 22L 10 22L 10 82L 190.000015 82L 190.000015 22ZM 10 88C 10 91.3137 12.6863 94 16 94L 22 94L 22 82L 10 82L 10 88ZM 178.000031 94L 178.000031 82L 22 82L 22 94L 178.000031 94ZM 184.000015 94C 187.313715 94 190.000015 91.3137 190.000015 88L 190.000015 82L 178.000015 82L 178.000015 94L 184.000015 94Z"></path></g></g></g><g id="g-root-cp_12-1_cell-12-1_1hf2jz11hvyia1-fill" data-item-order="-891398" transform="translate(320, 1142)"><g id="cp_12-1_cell-12-1_1hf2jz11hvyia1-fill" stroke="none" fill="#ffffff"><g><path d="M 10 16C 10 12.6863 12.6863 10 16 10L 22 10L 22 22L 10 22L 10 16ZM 22 10L 22 22L 178.000031 22L 178.000031 10L 22 10ZM 190.000015 16C 190.000015 12.6863 187.313715 10 184.000015 10L 178.000015 10L 178.000015 22L 190.000015 22L 190.000015 16ZM 190.000015 22L 10 22L 10 82L 190.000015 82L 190.000015 22ZM 10 88C 10 91.3137 12.6863 94 16 94L 22 94L 22 82L 10 82L 10 88ZM 178.000031 94L 178.000031 82L 22 82L 22 94L 178.000031 94ZM 184.000015 94C 187.313715 94 190.000015 91.3137 190.000015 88L 190.000015 82L 178.000015 82L 178.000015 94L 184.000015 94Z"></path></g></g></g><g id="g-root-cp_13-1_cell-13-1_143m1lp1hvyjuy-fill" data-item-order="-891380" transform="translate(320, 1238)"><g id="cp_13-1_cell-13-1_143m1lp1hvyjuy-fill" stroke="none" fill="#ffffff"><g><path d="M 10 16C 10 12.6863 12.6863 10 16 10L 22 10L 22 22L 10 22L 10 16ZM 22 10L 22 22L 178.000031 22L 178.000031 10L 22 10ZM 190.000015 16C 190.000015 12.6863 187.313715 10 184.000015 10L 178.000015 10L 178.000015 22L 190.000015 22L 190.000015 16ZM 190.000015 22L 10 22L 10 58L 190.000015 58L 190.000015 22ZM 10 64C 10 67.3137 12.6863 70 16 70L 22 70L 22 58L 10 58L 10 64ZM 178.000031 70L 178.000031 58L 22 58L 22 70L 178.000031 70ZM 184.000015 70C 187.313715 70 190.000015 67.3137 190.000015 64L 190.000015 58L 178.000015 58L 178.000015 70L 184.000015 70Z"></path></g></g></g><g id="g-root-cp_0-2_cell-0-2_1hgbi591hvykg3-fill" data-item-order="-891360" transform="translate(512, 122)"><g id="cp_0-2_cell-0-2_1hgbi591hvykg3-fill" stroke="none" fill="#ffffff"><g><path d="M 10 16C 10 12.6863 12.6863 10 16 10L 22 10L 22 22L 10 22L 10 16ZM 22 10L 22 22L 178 22L 178 10L 22 10ZM 190 16C 190 12.6863 187.3137 10 184 10L 178 10L 178 22L 190 22L 190 16ZM 190 22L 10 22L 10 46L 190 46L 190 22ZM 10 52C 10 55.3137 12.6863 58 16 58L 22 58L 22 46L 10 46L 10 52ZM 178 58L 178 46L 22 46L 22 58L 178 58ZM 184 58C 187.3137 58 190 55.3137 190 52L 190 46L 178 46L 178 58L 184 58Z"></path></g></g></g><g id="g-root-cp_1-2_cell-1-2_v9ugm51hvyjnx-fill" data-item-order="-891322" transform="translate(512, 182)"><g id="cp_1-2_cell-1-2_v9ugm51hvyjnx-fill" stroke="none" fill="#ffffff"><g><path d="M 10 16C 10 12.6863 12.6863 10 16 10L 22 10L 22 22L 10 22L 10 16ZM 22 10L 22 22L 178 22L 178 10L 22 10ZM 190 16C 190 12.6863 187.3137 10 184 10L 178 10L 178 22L 190 22L 190 16ZM 190 22L 10 22L 10 82L 190 82L 190 22ZM 10 88C 10 91.3137 12.6863 94 16 94L 22 94L 22 82L 10 82L 10 88ZM 178 94L 178 82L 22 82L 22 94L 178 94ZM 184 94C 187.3137 94 190 91.3137 190 88L 190 82L 178 82L 178 94L 184 94Z"></path></g></g></g><g id="g-root-cp_2-2_cell-2-2_qu0yhp1hvykg6-fill" data-item-order="-891304" transform="translate(512, 278)"><g id="cp_2-2_cell-2-2_qu0yhp1hvykg6-fill" stroke="none" fill="#ffffff"><g><path d="M 10 16C 10 12.6863 12.6863 10 16 10L 22 10L 22 22L 10 22L 10 16ZM 22 10L 22 22L 178 22L 178 10L 22 10ZM 190 16C 190 12.6863 187.3137 10 184 10L 178 10L 178 22L 190 22L 190 16ZM 190 22L 10 22L 10 58L 190 58L 190 22ZM 10 64C 10 67.3137 12.6863 70 16 70L 22 70L 22 58L 10 58L 10 64ZM 178 70L 178 58L 22 58L 22 70L 178 70ZM 184 70C 187.3137 70 190 67.3137 190 64L 190 58L 178 58L 178 70L 184 70Z"></path></g></g></g><g id="g-root-cp_3-2_cell-3-2_hz0fbx1hvyi33-fill" data-item-order="-891286" transform="translate(512, 350)"><g id="cp_3-2_cell-3-2_hz0fbx1hvyi33-fill" stroke="none" fill="#ffffff"><g><path d="M 10 16C 10 12.6863 12.6863 10 16 10L 22 10L 22 22L 10 22L 10 16ZM 22 10L 22 22L 178 22L 178 10L 22 10ZM 190 16C 190 12.6863 187.3137 10 184 10L 178 10L 178 22L 190 22L 190 16ZM 190 22L 10 22L 10 58L 190 58L 190 22ZM 10 64C 10 67.3137 12.6863 70 16 70L 22 70L 22 58L 10 58L 10 64ZM 178 70L 178 58L 22 58L 22 70L 178 70ZM 184 70C 187.3137 70 190 67.3137 190 64L 190 58L 178 58L 178 70L 184 70Z"></path></g></g></g><g id="g-root-cp_4-2_cell-4-2_dj6x7h1hvyivc-fill" data-item-order="-891268" transform="translate(512, 422)"><g id="cp_4-2_cell-4-2_dj6x7h1hvyivc-fill" stroke="none" fill="#ffffff"><g><path d="M 10 16C 10 12.6863 12.6863 10 16 10L 22 10L 22 22L 10 22L 10 16ZM 22 10L 22 22L 178 22L 178 10L 22 10ZM 190 16C 190 12.6863 187.3137 10 184 10L 178 10L 178 22L 190 22L 190 16ZM 190 22L 10 22L 10 82L 190 82L 190 22ZM 10 88C 10 91.3137 12.6863 94 16 94L 22 94L 22 82L 10 82L 10 88ZM 178 94L 178 82L 22 82L 22 94L 178 94ZM 184 94C 187.3137 94 190 91.3137 190 88L 190 82L 178 82L 178 94L 184 94Z"></path></g></g></g><g id="g-root-cp_5-2_cell-5-2_7qeu51hvykg9-fill" data-item-order="-891250" transform="translate(512, 518)"><g id="cp_5-2_cell-5-2_7qeu51hvykg9-fill" stroke="none" fill="#ffffff"><g><path d="M 10 16C 10 12.6863 12.6863 10 16 10L 22 10L 22 22L 10 22L 10 16ZM 22 10L 22 22L 178 22L 178 10L 22 10ZM 190 16C 190 12.6863 187.3137 10 184 10L 178 10L 178 22L 190 22L 190 16ZM 190 22L 10 22L 10 58L 190 58L 190 22ZM 10 64C 10 67.3137 12.6863 70 16 70L 22 70L 22 58L 10 58L 10 64ZM 178 70L 178 58L 22 58L 22 70L 178 70ZM 184 70C 187.3137 70 190 67.3137 190 64L 190 58L 178 58L 178 70L 184 70Z"></path></g></g></g><g id="g-root-cp_6-2_cell-6-2_1utnfrx1hvyhvm-fill" data-item-order="-891232" transform="translate(512, 590)"><g id="cp_6-2_cell-6-2_1utnfrx1hvyhvm-fill" stroke="none" fill="#ffffff"><g><path d="M 10 16C 10 12.6863 12.6863 10 16 10L 22 10L 22 22L 10 22L 10 16ZM 22 10L 22 22L 178 22L 178 10L 22 10ZM 190 16C 190 12.6863 187.3137 10 184 10L 178 10L 178 22L 190 22L 190 16ZM 190 22L 10 22L 10 82L 190 82L 190 22ZM 10 88C 10 91.3137 12.6863 94 16 94L 22 94L 22 82L 10 82L 10 88ZM 178 94L 178 82L 22 82L 22 94L 178 94ZM 184 94C 187.3137 94 190 91.3137 190 88L 190 82L 178 82L 178 94L 184 94Z"></path></g></g></g><g id="g-root-cp_7-2_cell-7-2_i09di51hvyk97-fill" data-item-order="-891214" transform="translate(512, 686)"><g id="cp_7-2_cell-7-2_i09di51hvyk97-fill" stroke="none" fill="#ffffff"><g><path d="M 10 16C 10 12.6863 12.6863 10 16 10L 22 10L 22 22L 10 22L 10 16ZM 22 10L 22 22L 178 22L 178 10L 22 10ZM 190 16C 190 12.6863 187.3137 10 184 10L 178 10L 178 22L 190 22L 190 16ZM 190 22L 10 22L 10 82L 190 82L 190 22ZM 10 88C 10 91.3137 12.6863 94 16 94L 22 94L 22 82L 10 82L 10 88ZM 178 94L 178 82L 22 82L 22 94L 178 94ZM 184 94C 187.3137 94 190 91.3137 190 88L 190 82L 178 82L 178 94L 184 94Z"></path></g></g></g><g id="g-root-cp_8-2_cell-8-2_4pfc7x1hvyioc-fill" data-item-order="-891196" transform="translate(512, 782)"><g id="cp_8-2_cell-8-2_4pfc7x1hvyioc-fill" stroke="none" fill="#ffffff"><g><path d="M 10 16C 10 12.6863 12.6863 10 16 10L 22 10L 22 22L 10 22L 10 16ZM 22 10L 22 22L 178 22L 178 10L 22 10ZM 190 16C 190 12.6863 187.3137 10 184 10L 178 10L 178 22L 190 22L 190 16ZM 190 22L 10 22L 10 58L 190 58L 190 22ZM 10 64C 10 67.3137 12.6863 70 16 70L 22 70L 22 58L 10 58L 10 64ZM 178 70L 178 58L 22 58L 22 70L 178 70ZM 184 70C 187.3137 70 190 67.3137 190 64L 190 58L 178 58L 178 70L 184 70Z"></path></g></g></g><g id="g-root-cp_9-2_cell-9-2_9lu3h1hvyjgl-fill" data-item-order="-891178" transform="translate(512, 854)"><g id="cp_9-2_cell-9-2_9lu3h1hvyjgl-fill" stroke="none" fill="#ffffff"><g><path d="M 10 16C 10 12.6863 12.6863 10 16 10L 22 10L 22 22L 10 22L 10 16ZM 22 10L 22 22L 178 22L 178 10L 22 10ZM 190 16C 190 12.6863 187.3137 10 184 10L 178 10L 178 22L 190 22L 190 16ZM 190 22L 10 22L 10 82L 190 82L 190 22ZM 10 88C 10 91.3137 12.6863 94 16 94L 22 94L 22 82L 10 82L 10 88ZM 178 94L 178 82L 22 82L 22 94L 178 94ZM 184 94C 187.3137 94 190 91.3137 190 88L 190 82L 178 82L 178 94L 184 94Z"></path></g></g></g><g id="g-root-cp_10-2_cell-10-2_1qf2vtp1hvyk26-fill" data-item-order="-891160" transform="translate(512, 950)"><g id="cp_10-2_cell-10-2_1qf2vtp1hvyk26-fill" stroke="none" fill="#ffffff"><g><path d="M 10 16C 10 12.6863 12.6863 10 16 10L 22 10L 22 22L 10 22L 10 16ZM 22 10L 22 22L 178 22L 178 10L 22 10ZM 190 16C 190 12.6863 187.3137 10 184 10L 178 10L 178 22L 190 22L 190 16ZM 190 22L 10 22L 10 82L 190 82L 190 22ZM 10 88C 10 91.3137 12.6863 94 16 94L 22 94L 22 82L 10 82L 10 88ZM 178 94L 178 82L 22 82L 22 94L 178 94ZM 184 94C 187.3137 94 190 91.3137 190 88L 190 82L 178 82L 178 94L 184 94Z"></path></g></g></g><g id="g-root-cp_11-2_cell-11-2_1lpw9el1hvzw93-fill" data-item-order="-891142" transform="translate(512, 1046)"><g id="cp_11-2_cell-11-2_1lpw9el1hvzw93-fill" stroke="none" fill="#ffffff"><g><path d="M 10 16C 10 12.6863 12.6863 10 16 10L 22 10L 22 22L 10 22L 10 16ZM 22 10L 22 22L 178 22L 178 10L 22 10ZM 190 16C 190 12.6863 187.3137 10 184 10L 178 10L 178 22L 190 22L 190 16ZM 190 22L 10 22L 10 82L 190 82L 190 22ZM 10 88C 10 91.3137 12.6863 94 16 94L 22 94L 22 82L 10 82L 10 88ZM 178 94L 178 82L 22 82L 22 94L 178 94ZM 184 94C 187.3137 94 190 91.3137 190 88L 190 82L 178 82L 178 94L 184 94Z"></path></g></g></g><g id="g-root-cp_12-2_cell-12-2_1ha2ra51hvzx1c-fill" data-item-order="-891124" transform="translate(512, 1142)"><g id="cp_12-2_cell-12-2_1ha2ra51hvzx1c-fill" stroke="none" fill="#ffffff"><g><path d="M 10 16C 10 12.6863 12.6863 10 16 10L 22 10L 22 22L 10 22L 10 16ZM 22 10L 22 22L 178 22L 178 10L 22 10ZM 190 16C 190 12.6863 187.3137 10 184 10L 178 10L 178 22L 190 22L 190 16ZM 190 22L 10 22L 10 82L 190 82L 190 22ZM 10 88C 10 91.3137 12.6863 94 16 94L 22 94L 22 82L 10 82L 10 88ZM 178 94L 178 82L 22 82L 22 94L 178 94ZM 184 94C 187.3137 94 190 91.3137 190 88L 190 82L 178 82L 178 94L 184 94Z"></path></g></g></g><g id="g-root-cp_13-2_cell-13-2_18efr191hvzxu1-fill" data-item-order="-891106" transform="translate(512, 1238)"><g id="cp_13-2_cell-13-2_18efr191hvzxu1-fill" stroke="none" fill="#ffffff"><g><path d="M 10 16C 10 12.6863 12.6863 10 16 10L 22 10L 22 22L 10 22L 10 16ZM 22 10L 22 22L 178 22L 178 10L 22 10ZM 190 16C 190 12.6863 187.3137 10 184 10L 178 10L 178 22L 190 22L 190 16ZM 190 22L 10 22L 10 58L 190 58L 190 22ZM 10 64C 10 67.3137 12.6863 70 16 70L 22 70L 22 58L 10 58L 10 64ZM 178 70L 178 58L 22 58L 22 70L 178 70ZM 184 70C 187.3137 70 190 67.3137 190 64L 190 58L 178 58L 178 70L 184 70Z"></path></g></g></g><g id="g-root-tx_morningr_1hf2zrx1hvvqx9-fill" data-item-order="0" transform="translate(344, 296)"><g id="tx_morningr_1hf2zrx1hvvqx9-fill" stroke="none" fill="#2c2c2c"><g><text style="font: 15px &quot;Shantell Sans&quot;, cursive; white-space: pre;" font-size="15px" font-family="'Shantell Sans', cursive"><tspan x="13.19" y="31.77" dominant-baseline="ideographic">Morning Revision</tspan></text></g></g></g><g id="g-root-ic_cloc_1qf2yzh1hw6yva-fill" data-item-order="0" transform="translate(38, 614)"></g><g id="g-root-tx_600am800_1hbbpgd1hw9slr-fill" data-item-order="0" transform="translate(80, 296)"><g id="tx_600am800_1hbbpgd1hw9slr-fill" stroke="none" fill="#2c2c2c"><g><text style="font: bold 20px &quot;Shantell Sans&quot;, cursive; white-space: pre;" font-weight="bold" font-size="20px" font-family="'Shantell Sans', cursive"><tspan x="12" y="34.75" dominant-baseline="ideographic">6:00 AM - 8:00 AM</tspan></text></g></g></g><g id="g-root-tx_lightlun_18gbm3h1hvx5hi-fill" data-item-order="0" transform="translate(530, 530)"><g id="tx_lightlun_18gbm3h1hvx5hi-fill" stroke="none" fill="#2c2c2c"><g><text style="font: 15px &quot;Shantell Sans&quot;, cursive; white-space: pre;" font-size="15px" font-family="'Shantell Sans', cursive"><tspan x="15.75" y="28.77" dominant-baseline="ideographic">Light lunch, short </tspan><tspan x="64.29" y="46.77" dominant-baseline="ideographic">nap.</tspan></text></g></g></g><g id="g-root-tx_solvemcq_v5hkt91hvx3wn-fill" data-item-order="0" transform="translate(542, 602)"><g id="tx_solvemcq_v5hkt91hvx3wn-fill" stroke="none" fill="#2c2c2c"><g><text style="font: 15px &quot;Shantell Sans&quot;, cursive; white-space: pre;" font-size="15px" font-family="'Shantell Sans', cursive"><tspan x="23.71" y="31.77" dominant-baseline="ideographic">Solve MCQs, </tspan><tspan x="16.92" y="49.77" dominant-baseline="ideographic">practice weak </tspan><tspan x="45.49" y="67.77" dominant-baseline="ideographic">areas.</tspan></text></g></g></g><g id="g-root-tx_100pm300_18f2efx1hvq49b-fill" data-item-order="0" transform="translate(80, 620)"><g id="tx_100pm300_18f2efx1hvq49b-fill" stroke="none" fill="#2c2c2c"><g><text style="font: bold 20px &quot;Shantell Sans&quot;, cursive; white-space: pre;" font-weight="bold" font-size="20px" font-family="'Shantell Sans', cursive"><tspan x="12" y="34.75" dominant-baseline="ideographic">1:00 PM - 3:00 PM</tspan></text></g></g></g><g id="g-root-tx_practice_924wpp1hvvq4p-fill" data-item-order="0" transform="translate(350, 620)"><g id="tx_practice_924wpp1hvvq4p-fill" stroke="none" fill="#2c2c2c"><g><text style="font: 15px &quot;Shantell Sans&quot;, cursive; white-space: pre;" font-size="15px" font-family="'Shantell Sans', cursive"><tspan x="12.55" y="31.77" dominant-baseline="ideographic">Practice Session</tspan></text></g></g></g><g id="g-root-ic_9_1uneowt1hw5jpq-fill" data-item-order="0" transform="translate(38, 290)"></g><g id="g-root-tx_wakeupfr_4l2gf11hvvoqs-fill" data-item-order="0" transform="translate(332, 206)"><g id="tx_wakeupfr_4l2gf11hvvoqs-fill" stroke="none" fill="#2c2c2c"><g><text style="font: 15px &quot;Shantell Sans&quot;, cursive; white-space: pre;" font-size="15px" font-family="'Shantell Sans', cursive"><tspan x="15.96" y="28.77" dominant-baseline="ideographic">Wake Up &amp; Freshen </tspan><tspan x="76.19" y="46.77" dominant-baseline="ideographic">Up</tspan></text></g></g></g><g id="g-root-tx_lunchpow_mdlf311hvvojs-fill" data-item-order="0" transform="translate(350, 530)"><g id="tx_lunchpow_mdlf311hvvojs-fill" stroke="none" fill="#2c2c2c"><g><text style="font: 15px &quot;Shantell Sans&quot;, cursive; white-space: pre;" font-size="15px" font-family="'Shantell Sans', cursive"><tspan x="13.44" y="28.77" dominant-baseline="ideographic">Lunch + Power </tspan><tspan x="52.95" y="46.77" dominant-baseline="ideographic">Nap</tspan></text></g></g></g><g id="g-root-tx_stretchw_hu12fx1hvx5hk-fill" data-item-order="0" transform="translate(548, 698)"><g id="tx_stretchw_hu12fx1hvx5hk-fill" stroke="none" fill="#2c2c2c"><g><text style="font: 15px &quot;Shantell Sans&quot;, cursive; white-space: pre;" font-size="15px" font-family="'Shantell Sans', cursive"><tspan x="11.92" y="31.77" dominant-baseline="ideographic">Stretch, walk, </tspan><tspan x="16.85" y="49.77" dominant-baseline="ideographic">hydrate, get </tspan><tspan x="30.59" y="67.77" dominant-baseline="ideographic">sunlight.</tspan></text></g></g></g><g id="g-root-tx_300pm400_18lb5b11hvswll-fill" data-item-order="0" transform="translate(80, 716)"><g id="tx_300pm400_18lb5b11hvswll-fill" stroke="none" fill="#2c2c2c"><g><text style="font: bold 20px &quot;Shantell Sans&quot;, cursive; white-space: pre;" font-weight="bold" font-size="20px" font-family="'Shantell Sans', cursive"><tspan x="12" y="34.75" dominant-baseline="ideographic">3:00 PM - 4:00 PM</tspan></text></g></g></g><g id="g-root-tx_shortbre_1usexel1hvvocq-fill" data-item-order="0" transform="translate(362, 716)"><g id="tx_shortbre_1usexel1hvvocq-fill" stroke="none" fill="#2c2c2c"><g><text style="font: 15px &quot;Shantell Sans&quot;, cursive; white-space: pre;" font-size="15px" font-family="'Shantell Sans', cursive"><tspan x="15.05" y="31.77" dominant-baseline="ideographic">Short Break</tspan></text></g></g></g><g id="g-root-tx_530am600_zk1oyl1hw5ibx-fill" data-item-order="0" transform="translate(80, 212)"><g id="tx_530am600_zk1oyl1hw5ibx-fill" stroke="none" fill="#2c2c2c"><g><text style="font: bold 20px &quot;Shantell Sans&quot;, cursive; white-space: pre;" font-weight="bold" font-size="20px" font-family="'Shantell Sans', cursive"><tspan x="12" y="34.75" dominant-baseline="ideographic">5:30 AM - 6:00 AM</tspan></text></g></g></g><g id="g-root-ic_cont_v9umxp1hvsy6i-fill" data-item-order="0" transform="translate(38, 794)"></g><g id="g-root-tx_400pm600_13zvdel1hvx5ab-fill" data-item-order="0" transform="translate(80, 800)"><g id="tx_400pm600_13zvdel1hvx5ab-fill" stroke="none" fill="#2c2c2c"><g><text style="font: bold 20px &quot;Shantell Sans&quot;, cursive; white-space: pre;" font-weight="bold" font-size="20px" font-family="'Shantell Sans', cursive"><tspan x="12" y="34.75" dominant-baseline="ideographic">4:00 PM - 6:00 PM</tspan></text></g></g></g><g id="g-root-tx_wakeupbr_1uljpgd1hvx43m-fill" data-item-order="0" transform="translate(536, 194)"><g id="tx_wakeupbr_1uljpgd1hvx43m-fill" stroke="none" fill="#2c2c2c"><g><text style="font: 15px &quot;Shantell Sans&quot;, cursive; white-space: pre;" font-size="15px" font-family="'Shantell Sans', cursive"><tspan x="16.38" y="31.77" dominant-baseline="ideographic">Wake up, brush, </tspan><tspan x="29.41" y="49.77" dominant-baseline="ideographic">drink water, </tspan><tspan x="39.45" y="67.77" dominant-baseline="ideographic">meditate.</tspan></text></g></g></g><g id="g-root-tx_mocktest_1hgyf191hvvpxn-fill" data-item-order="0" transform="translate(356, 794)"><g id="tx_mocktest_1hgyf191hvvpxn-fill" stroke="none" fill="#2c2c2c"><g><text style="font: 15px &quot;Shantell Sans&quot;, cursive; white-space: pre;" font-size="15px" font-family="'Shantell Sans', cursive"><tspan x="16.75" y="28.77" dominant-baseline="ideographic">Mock Test + </tspan><tspan x="31.29" y="46.77" dominant-baseline="ideographic">Analysis</tspan></text></g></g></g><g id="g-root-tx_1200pm10_94mgf11hw6zv1-fill" data-item-order="0" transform="translate(80, 536)"><g id="tx_1200pm10_94mgf11hw6zv1-fill" stroke="none" fill="#2c2c2c"><g><text style="font: bold 20px &quot;Shantell Sans&quot;, cursive; white-space: pre;" font-weight="bold" font-size="20px" font-family="'Shantell Sans', cursive"><tspan x="12" y="34.75" dominant-baseline="ideographic">12:00 PM - 1:00 PM</tspan></text></g></g></g><g id="g-root-tx_attemptm_4j715p1hvx3wp-fill" data-item-order="0" transform="translate(524, 794)"><g id="tx_attemptm_4j715p1hvx3wp-fill" stroke="none" fill="#2c2c2c"><g><text style="font: 15px &quot;Shantell Sans&quot;, cursive; white-space: pre;" font-size="15px" font-family="'Shantell Sans', cursive"><tspan x="15.97" y="28.77" dominant-baseline="ideographic">Attempt mock test, </tspan><tspan x="20.89" y="46.77" dominant-baseline="ideographic">analyze mistakes.</tspan></text></g></g></g><g id="g-root-ic_2_1ltn7311hw445g-fill" data-item-order="0" transform="translate(38, 530)"></g><g id="g-root-ic_nigh_18hkasd1hvx3ic-fill" data-item-order="0" transform="translate(38, 878)"></g><g id="g-root-ic_1_zko61p1hvzxn0-fill" data-item-order="0" transform="translate(38, 206)"></g><g id="g-root-tx_reviseto_1ha37311hvx5oj-fill" data-item-order="0" transform="translate(524, 290)"><g id="tx_reviseto_1ha37311hvx5oj-fill" stroke="none" fill="#2c2c2c"><g><text style="font: 15px &quot;Shantell Sans&quot;, cursive; white-space: pre;" font-size="15px" font-family="'Shantell Sans', cursive"><tspan x="30.85" y="28.77" dominant-baseline="ideographic">Revise topics or </tspan><tspan x="14.89" y="46.77" dominant-baseline="ideographic">read current affairs.</tspan></text></g></g></g><g id="g-root-tx_lightsna_3dj191hvx4oy-fill" data-item-order="0" transform="translate(530, 866)"><g id="tx_lightsna_3dj191hvx4oy-fill" stroke="none" fill="#2c2c2c"><g><text style="font: 15px &quot;Shantell Sans&quot;, cursive; white-space: pre;" font-size="15px" font-family="'Shantell Sans', cursive"><tspan x="19.86" y="31.77" dominant-baseline="ideographic">Light snack, talk </tspan><tspan x="13.97" y="49.77" dominant-baseline="ideographic">to family, listen to </tspan><tspan x="58.29" y="67.77" dominant-baseline="ideographic">music.</tspan></text></g></g></g><g id="g-root-tx_600pm700_detv311hvzw9b-fill" data-item-order="0" transform="translate(80, 884)"><g id="tx_600pm700_detv311hvzw9b-fill" stroke="none" fill="#2c2c2c"><g><text style="font: bold 20px &quot;Shantell Sans&quot;, cursive; white-space: pre;" font-weight="bold" font-size="20px" font-family="'Shantell Sans', cursive"><tspan x="12" y="34.75" dominant-baseline="ideographic">6:00 PM - 7:00 PM</tspan></text></g></g></g><g id="g-root-tx_tearelax_1464dr11hvvocs-fill" data-item-order="0" transform="translate(362, 884)"><g id="tx_tearelax_1464dr11hvvocs-fill" stroke="none" fill="#2c2c2c"><g><text style="font: 15px &quot;Shantell Sans&quot;, cursive; white-space: pre;" font-size="15px" font-family="'Shantell Sans', cursive"><tspan x="15.09" y="31.77" dominant-baseline="ideographic">Tea + Relax</tspan></text></g></g></g><g id="g-root-tx_descript_959a591hvvrb5-fill" data-item-order="0" transform="translate(536, 134)"><g id="tx_descript_959a591hvvrb5-fill" stroke="none" fill="#2c2c2c"><g><text style="font: bold 20px &quot;Shantell Sans&quot;, cursive; white-space: pre;" font-weight="bold" font-size="20px" font-family="'Shantell Sans', cursive"><tspan x="17.25" y="34.75" dominant-baseline="ideographic">Description</tspan></text></g></g></g><g id="g-root-ic_coup_1uonwkd1hvzyfc-fill" data-item-order="0" transform="translate(38, 974)"></g><g id="g-root-tx_corestud_zofgd91hvvq4n-fill" data-item-order="0" transform="translate(344, 452)"><g id="tx_corestud_zofgd91hvvq4n-fill" stroke="none" fill="#2c2c2c"><g><text style="font: 15px &quot;Shantell Sans&quot;, cursive; white-space: pre;" font-size="15px" font-family="'Shantell Sans', cursive"><tspan x="14.89" y="31.77" dominant-baseline="ideographic">Core Study Block</tspan></text></g></g></g><g id="g-root-tx_900am120_detorh1hw44cj-fill" data-item-order="0" transform="translate(80, 452)"><g id="tx_900am120_detorh1hw44cj-fill" stroke="none" fill="#2c2c2c"><g><text style="font: bold 20px &quot;Shantell Sans&quot;, cursive; white-space: pre;" font-weight="bold" font-size="20px" font-family="'Shantell Sans', cursive"><tspan x="12" y="34.75" dominant-baseline="ideographic">9:00 AM - 12:00 PM</tspan></text></g></g></g><g id="g-root-tx_reviseer_1ltnjq51hvx2wz-fill" data-item-order="0" transform="translate(548, 962)"><g id="tx_reviseer_1ltnjq51hvx2wz-fill" stroke="none" fill="#2c2c2c"><g><text style="font: 15px &quot;Shantell Sans&quot;, cursive; white-space: pre;" font-size="15px" font-family="'Shantell Sans', cursive"><tspan x="12.35" y="31.77" dominant-baseline="ideographic">Revise errors, </tspan><tspan x="33.05" y="49.77" dominant-baseline="ideographic">practice </tspan><tspan x="22.05" y="67.77" dominant-baseline="ideographic">flashcards.</tspan></text></g></g></g><g id="g-root-tx_700pm900_18gy00t1hvonic-fill" data-item-order="0" transform="translate(80, 980)"><g id="tx_700pm900_18gy00t1hvonic-fill" stroke="none" fill="#2c2c2c"><g><text style="font: bold 20px &quot;Shantell Sans&quot;, cursive; white-space: pre;" font-weight="bold" font-size="20px" font-family="'Shantell Sans', cursive"><tspan x="12" y="34.75" dominant-baseline="ideographic">7:00 PM - 9:00 PM</tspan></text></g></g></g><g id="g-root-tx_reviewfl_meud991hvvqpx-fill" data-item-order="0" transform="translate(368, 974)"><g id="tx_reviewfl_meud991hvvqpx-fill" stroke="none" fill="#2c2c2c"><g><text style="font: 15px &quot;Shantell Sans&quot;, cursive; white-space: pre;" font-size="15px" font-family="'Shantell Sans', cursive"><tspan x="19.05" y="28.77" dominant-baseline="ideographic">Review &amp; </tspan><tspan x="13.01" y="46.77" dominant-baseline="ideographic">Flashcards</tspan></text></g></g></g><g id="g-root-tx_activity_v7d02l1hvvoqr-fill" data-item-order="0" transform="translate(362, 134)"><g id="tx_activity_v7d02l1hvvoqr-fill" stroke="none" fill="#2c2c2c"><g><text style="font: bold 20px &quot;Shantell Sans&quot;, cursive; white-space: pre;" font-weight="bold" font-size="20px" font-family="'Shantell Sans', cursive"><tspan x="17.21" y="34.75" dominant-baseline="ideographic">Activity</tspan></text></g></g></g><g id="g-root-ic_woma_m9uhel1hvopvx-fill" data-item-order="0" transform="translate(38, 1070)"></g><g id="g-root-tx_get78hou_hvwhp91hvx4hy-fill" data-item-order="0" transform="translate(536, 1250)"><g id="tx_get78hou_hvwhp91hvx4hy-fill" stroke="none" fill="#2c2c2c"><g><text style="font: 15px &quot;Shantell Sans&quot;, cursive; white-space: pre;" font-size="15px" font-family="'Shantell Sans', cursive"><tspan x="12.01" y="28.77" dominant-baseline="ideographic">Get 7-8 hours of </tspan><tspan x="53.34" y="46.77" dominant-baseline="ideographic">sleep.</tspan></text></g></g></g><g id="g-root-tx_focusont_dcym591hvx43p-fill" data-item-order="0" transform="translate(530, 434)"><g id="tx_focusont_dcym591hvx43p-fill" stroke="none" fill="#2c2c2c"><g><text style="font: 15px &quot;Shantell Sans&quot;, cursive; white-space: pre;" font-size="15px" font-family="'Shantell Sans', cursive"><tspan x="13.9" y="31.77" dominant-baseline="ideographic">Focus on toughest </tspan><tspan x="35.91" y="49.77" dominant-baseline="ideographic">subject with </tspan><tspan x="54.19" y="67.77" dominant-baseline="ideographic">breaks.</tspan></text></g></g></g><g id="g-root-tx_eatdinne_18i71ct1hvx4hw-fill" data-item-order="0" transform="translate(530, 1058)"><g id="tx_eatdinne_18i71ct1hvx4hw-fill" stroke="none" fill="#2c2c2c"><g><text style="font: 15px &quot;Shantell Sans&quot;, cursive; white-space: pre;" font-size="15px" font-family="'Shantell Sans', cursive"><tspan x="13.81" y="31.77" dominant-baseline="ideographic">Eat dinner, talk to </tspan><tspan x="34.32" y="49.77" dominant-baseline="ideographic">family, avoid </tspan><tspan x="51.53" y="67.77" dominant-baseline="ideographic">screens.</tspan></text></g></g></g><g id="g-root-tx_900pm930_1cwri591hvvq4m-fill" data-item-order="0" transform="translate(80, 1076)"><g id="tx_900pm930_1cwri591hvvq4m-fill" stroke="none" fill="#2c2c2c"><g><text style="font: bold 20px &quot;Shantell Sans&quot;, cursive; white-space: pre;" font-weight="bold" font-size="20px" font-family="'Shantell Sans', cursive"><tspan x="12" y="34.75" dominant-baseline="ideographic">9:00 PM - 9:30 PM</tspan></text></g></g></g><g id="g-root-tx_dinnerli_18n6u1p1hvvpqm-fill" data-item-order="0" transform="translate(338, 1076)"><g id="tx_dinnerli_18n6u1p1hvvpqm-fill" stroke="none" fill="#2c2c2c"><g><text style="font: 15px &quot;Shantell Sans&quot;, cursive; white-space: pre;" font-size="15px" font-family="'Shantell Sans', cursive"><tspan x="12.01" y="31.77" dominant-baseline="ideographic">Dinner + Light Talk</tspan></text></g></g></g><g id="g-root-tx_time_1cw4of11hvzw23-fill" data-item-order="0" transform="translate(38, 134)"><g id="tx_time_1cw4of11hvzw23-fill" stroke="none" fill="#2c2c2c"><g><text style="font: bold 20px &quot;Shantell Sans&quot;, cursive; white-space: pre;" font-weight="bold" font-size="20px" font-family="'Shantell Sans', cursive"><tspan x="12" y="34.75" dominant-baseline="ideographic">Time</tspan></text></g></g></g><g id="g-root-ic_cont_zlxgv11hvvojr-fill" data-item-order="0" transform="translate(38, 1166)"></g><g id="g-root-ic_6_v4unx91hw9slc-fill" data-item-order="0" transform="translate(38, 362)"></g><g id="g-root-ic_time_4pffdp1hvx3be-fill" data-item-order="0" transform="translate(38, 446)"></g><g id="g-root-tx_writeach_v7d02l1hvx2x1-fill" data-item-order="0" transform="translate(524, 1154)"><g id="tx_writeach_v7d02l1hvx2x1-fill" stroke="none" fill="#2c2c2c"><g><text style="font: 15px &quot;Shantell Sans&quot;, cursive; white-space: pre;" font-size="15px" font-family="'Shantell Sans', cursive"><tspan x="13.51" y="31.77" dominant-baseline="ideographic">Write achievements, </tspan><tspan x="46.93" y="49.77" dominant-baseline="ideographic">plan goals, </tspan><tspan x="52.49" y="67.77" dominant-baseline="ideographic">meditate.</tspan></text></g></g></g><g id="g-root-tx_930pm101_qn636l1hw45q8-fill" data-item-order="0" transform="translate(80, 1172)"><g id="tx_930pm101_qn636l1hw45q8-fill" stroke="none" fill="#2c2c2c"><g><text style="font: bold 20px &quot;Shantell Sans&quot;, cursive; white-space: pre;" font-weight="bold" font-size="20px" font-family="'Shantell Sans', cursive"><tspan x="12" y="34.75" dominant-baseline="ideographic">9:30 PM - 10:15 PM</tspan></text></g></g></g><g id="g-root-tx_reflectp_vbqbod1hvvrbj-fill" data-item-order="0" transform="translate(356, 1172)"><g id="tx_reflectp_vbqbod1hvvrbj-fill" stroke="none" fill="#2c2c2c"><g><text style="font: 15px &quot;Shantell Sans&quot;, cursive; white-space: pre;" font-size="15px" font-family="'Shantell Sans', cursive"><tspan x="13.21" y="31.77" dominant-baseline="ideographic">Reflect &amp; Plan</tspan></text></g></g></g><g id="g-root-tx_dailysch_13ym8wt1hvzyma-fill" data-item-order="0" transform="translate(201, 38)"><g id="tx_dailysch_13ym8wt1hvzyma-fill" stroke="none" fill="#ffffff"><g><text style="font: bold 25px &quot;Shantell Sans&quot;, cursive; white-space: pre;" font-weight="bold" font-size="25px" font-family="'Shantell Sans', cursive"><tspan x="12.41" y="50.57" dominant-baseline="ideographic">Daily Schedule Activities</tspan></text></g></g></g><g id="g-root-ic_cont_4gp1nh1hw44y1-fill" data-item-order="0" transform="translate(38, 1250)"></g><g id="g-root-tx_1030pm_1q8ukrh1hvvr4a-fill" data-item-order="0" transform="translate(80, 1256)"><g id="tx_1030pm_1q8ukrh1hvvr4a-fill" stroke="none" fill="#2c2c2c"><g><text style="font: bold 20px &quot;Shantell Sans&quot;, cursive; white-space: pre;" font-weight="bold" font-size="20px" font-family="'Shantell Sans', cursive"><tspan x="12" y="34.75" dominant-baseline="ideographic">10:30 PM</tspan></text></g></g></g><g id="g-root-tx_800am900_vbpz191hvx3bd-fill" data-item-order="0" transform="translate(80, 368)"><g id="tx_800am900_vbpz191hvx3bd-fill" stroke="none" fill="#2c2c2c"><g><text style="font: bold 20px &quot;Shantell Sans&quot;, cursive; white-space: pre;" font-weight="bold" font-size="20px" font-family="'Shantell Sans', cursive"><tspan x="12" y="34.75" dominant-baseline="ideographic">8:00 AM - 9:00 AM</tspan></text></g></g></g><g id="g-root-tx_sleeptim_mgpsil1hvvpq8-fill" data-item-order="0" transform="translate(368, 1256)"><g id="tx_sleeptim_mgpsil1hvvpq8-fill" stroke="none" fill="#2c2c2c"><g><text style="font: 15px &quot;Shantell Sans&quot;, cursive; white-space: pre;" font-size="15px" font-family="'Shantell Sans', cursive"><tspan x="13.31" y="31.77" dominant-baseline="ideographic">Sleep Time</tspan></text></g></g></g><g id="g-root-tx_eatnutri_v3m5jx1hvx4wc-fill" data-item-order="0" transform="translate(530, 362)"><g id="tx_eatnutri_v3m5jx1hvx4wc-fill" stroke="none" fill="#2c2c2c"><g><text style="font: 15px &quot;Shantell Sans&quot;, cursive; white-space: pre;" font-size="15px" font-family="'Shantell Sans', cursive"><tspan x="32.13" y="28.77" dominant-baseline="ideographic">Eat nutritious </tspan><tspan x="15.46" y="46.77" dominant-baseline="ideographic">food, avoid phone.</tspan></text></g></g></g><g id="g-root-tx_healthyb_1czvyql1hvvojq-fill" data-item-order="0" transform="translate(338, 368)"><g id="tx_healthyb_1czvyql1hvvojq-fill" stroke="none" fill="#2c2c2c"><g><text style="font: 15px &quot;Shantell Sans&quot;, cursive; white-space: pre;" font-size="15px" font-family="'Shantell Sans', cursive"><tspan x="16.68" y="31.77" dominant-baseline="ideographic">Healthy Breakfast</tspan></text></g></g></g><g id="g-root-ic_time_zk1va51hvq2o0-fill" data-item-order="0" transform="translate(38, 710)"></g><g id="g-root-tf_924wpp1hvyhop-stroke" data-item-order="-1537506"></g><g id="g-root-cp_0-0_cell-0-0_hx502l1hvx4wd-stroke" data-item-order="-892032" transform="translate(26, 122)"><g id="cp_0-0_cell-0-0_hx502l1hvx4wd-stroke" fill="none" stroke-linecap="round" stroke-linejoin="round" stroke-miterlimit="4" stroke="#ffffff" stroke-width="2"><g><path d="M 10 22L 10 16C 10 12.6863 12.6863 10 16 10L 22 10M 292 22L 292 46M 10 46L 10 22M 22 10L 280 10M 10 46L 10 52C 10 55.3137 12.6863 58 16 58L 22 58M 292 22L 292 16C 292 12.6863 289.3137 10 286 10L 280 10M 280 58L 22 58M 292 46L 292 52C 292 55.3137 289.3137 58 286 58L 280 58"></path></g></g></g><g id="g-root-cp_1-0_cell-1-0_4maysd1hvx3bj-stroke" data-item-order="-892000" transform="translate(26, 182)"></g><g id="g-root-cp_2-0_cell-2-0_1lw509p1hvx5hk-stroke" data-item-order="-891972" transform="translate(26, 278)"></g><g id="g-root-cp_3-0_cell-3-0_18layzh1hvx3wp-stroke" data-item-order="-891944" transform="translate(26, 350)"></g><g id="g-root-cp_4-0_cell-4-0_v9ugm51hvx5hm-stroke" data-item-order="-891916" transform="translate(26, 422)"></g><g id="g-root-cp_5-0_cell-5-0_hz0fbx1hvx3wr-stroke" data-item-order="-891888" transform="translate(26, 518)"></g><g id="g-root-cp_6-0_cell-6-0_4njwyl1hvx5ho-stroke" data-item-order="-891860" transform="translate(26, 590)"></g><g id="g-root-cp_7-0_cell-7-0_1qdtxnh1hvx3pp-stroke" data-item-order="-891832" transform="translate(26, 686)"></g><g id="g-root-cp_8-0_cell-8-0_1ly0fj11hvx4hy-stroke" data-item-order="-891804" transform="translate(26, 782)"></g><g id="g-root-cp_9-0_cell-9-0_18n6e8t1hvx2x3-stroke" data-item-order="-891776" transform="translate(26, 854)"></g><g id="g-root-cp_10-0_cell-10-0_147cw4d1hvx3pc-stroke" data-item-order="-891748" transform="translate(26, 950)"></g><g id="g-root-cp_11-0_cell-11-0_qvwdr11hvx5a9-stroke" data-item-order="-891720" transform="translate(26, 1046)"></g><g id="g-root-cp_12-0_cell-12-0_i0vul91hvx2x6-stroke" data-item-order="-891692" transform="translate(26, 1142)"></g><g id="g-root-cp_13-0_cell-13-0_4pfc7x1hvx4i3-stroke" data-item-order="-891664" transform="translate(26, 1238)"></g><g id="g-root-cp_0-1_cell-0-1_9lu3h1hvx5ac-stroke" data-item-order="-891632" transform="translate(320, 122)"><g id="cp_0-1_cell-0-1_9lu3h1hvx5ac-stroke" fill="none" stroke-linecap="round" stroke-linejoin="round" stroke-miterlimit="4" stroke="#ffffff" stroke-width="2"><g><path d="M 10 22L 10 16C 10 12.6863 12.6863 10 16 10L 22 10M 190 22L 190 46M 10 46L 10 22M 22 10L 178 10M 10 46L 10 52C 10 55.3137 12.6863 58 16 58L 22 58M 190 22L 190 16C 190 12.6863 187.3137 10 184 10L 178 10M 178 58L 22 58M 190 46L 190 52C 190 55.3137 187.3137 58 184 58L 178 58"></path></g></g></g><g id="g-root-cp_1-1_cell-1-1_1lpw9el1hvyi2u-stroke" data-item-order="-891596" transform="translate(320, 182)"></g><g id="g-root-cp_2-1_cell-2-1_8wi74t1hvykgf-stroke" data-item-order="-891578" transform="translate(320, 278)"></g><g id="g-root-cp_3-1_cell-3-1_zko61p1hvyjgo-stroke" data-item-order="-891560" transform="translate(320, 350)"></g><g id="g-root-cp_4-1_cell-4-1_m9u4rh1hvyhvt-stroke" data-item-order="-891542" transform="translate(320, 422)"></g><g id="g-root-cp_5-1_cell-5-1_hu0mn11hvyio2-stroke" data-item-order="-891524" transform="translate(320, 518)"></g><g id="g-root-cp_6-1_cell-6-1_4ik49p1hvyk8z-stroke" data-item-order="-891506" transform="translate(320, 590)"></g><g id="g-root-cp_7-1_cell-7-1_1q8u4yl1hvyih0-stroke" data-item-order="-891488" transform="translate(320, 686)"></g><g id="g-root-cp_8-1_cell-8-1_9091nh1hvyih1-stroke" data-item-order="-891470" transform="translate(320, 782)"></g><g id="g-root-cp_9-1_cell-9-1_4m1el1hvyj9q-stroke" data-item-order="-891452" transform="translate(320, 854)"></g><g id="g-root-cp_10-1_cell-10-1_1upwl991hvyjuv-stroke" data-item-order="-891434" transform="translate(320, 950)"></g><g id="g-root-cp_11-1_cell-11-1_1qapk7x1hvyhhc-stroke" data-item-order="-891416" transform="translate(320, 1046)"></g><g id="g-root-cp_12-1_cell-12-1_1hf2jz11hvyia1-stroke" data-item-order="-891398" transform="translate(320, 1142)"></g><g id="g-root-cp_13-1_cell-13-1_143m1lp1hvyjuy-stroke" data-item-order="-891380" transform="translate(320, 1238)"></g><g id="g-root-cp_0-2_cell-0-2_1hgbi591hvykg3-stroke" data-item-order="-891360" transform="translate(512, 122)"><g id="cp_0-2_cell-0-2_1hgbi591hvykg3-stroke" fill="none" stroke-linecap="round" stroke-linejoin="round" stroke-miterlimit="4" stroke="#ffffff" stroke-width="2"><g><path d="M 10 22L 10 16C 10 12.6863 12.6863 10 16 10L 22 10M 190 22L 190 46M 10 46L 10 22M 22 10L 178 10M 10 46L 10 52C 10 55.3137 12.6863 58 16 58L 22 58M 190 22L 190 16C 190 12.6863 187.3137 10 184 10L 178 10M 178 58L 22 58M 190 46L 190 52C 190 55.3137 187.3137 58 184 58L 178 58"></path></g></g></g><g id="g-root-cp_1-2_cell-1-2_v9ugm51hvyjnx-stroke" data-item-order="-891322" transform="translate(512, 182)"></g><g id="g-root-cp_2-2_cell-2-2_qu0yhp1hvykg6-stroke" data-item-order="-891304" transform="translate(512, 278)"></g><g id="g-root-cp_3-2_cell-3-2_hz0fbx1hvyi33-stroke" data-item-order="-891286" transform="translate(512, 350)"></g><g id="g-root-cp_4-2_cell-4-2_dj6x7h1hvyivc-stroke" data-item-order="-891268" transform="translate(512, 422)"></g><g id="g-root-cp_5-2_cell-5-2_7qeu51hvykg9-stroke" data-item-order="-891250" transform="translate(512, 518)"></g><g id="g-root-cp_6-2_cell-6-2_1utnfrx1hvyhvm-stroke" data-item-order="-891232" transform="translate(512, 590)"></g><g id="g-root-cp_7-2_cell-7-2_i09di51hvyk97-stroke" data-item-order="-891214" transform="translate(512, 686)"></g><g id="g-root-cp_8-2_cell-8-2_4pfc7x1hvyioc-stroke" data-item-order="-891196" transform="translate(512, 782)"></g><g id="g-root-cp_9-2_cell-9-2_9lu3h1hvyjgl-stroke" data-item-order="-891178" transform="translate(512, 854)"></g><g id="g-root-cp_10-2_cell-10-2_1qf2vtp1hvyk26-stroke" data-item-order="-891160" transform="translate(512, 950)"></g><g id="g-root-cp_11-2_cell-11-2_1lpw9el1hvzw93-stroke" data-item-order="-891142" transform="translate(512, 1046)"></g><g id="g-root-cp_12-2_cell-12-2_1ha2ra51hvzx1c-stroke" data-item-order="-891124" transform="translate(512, 1142)"></g><g id="g-root-cp_13-2_cell-13-2_18efr191hvzxu1-stroke" data-item-order="-891106" transform="translate(512, 1238)"></g><g id="g-root-tx_morningr_1hf2zrx1hvvqx9-stroke" data-item-order="0" transform="translate(344, 296)"></g><g id="g-root-ic_cloc_1qf2yzh1hw6yva-stroke" data-item-order="0" transform="translate(38, 614)"><g id="ic_cloc_1qf2yzh1hw6yva-stroke" fill="none" stroke-linecap="round" stroke-linejoin="round" stroke-miterlimit="4" stroke="#2c2c2c" stroke-width="2"><g><path d="M 27.747999 20.5735L 29.9755 22.801001L 33.689499 16.1185L 38.516499 16.1185M 33.367001 26.514999L 42.279999 26.514999M 37.823502 22.058498C 38.131092 22.059328 38.380005 22.30891 38.380001 22.616501M 37.266998 22.616501C 37.266998 22.30891 37.515911 22.059328 37.823502 22.0585M 37.823502 23.173C 37.516155 23.173 37.266998 22.923847 37.266998 22.616501M 38.380001 22.616501C 38.380001 22.923847 38.130848 23.173 37.823502 23.173M 37.823502 30.969999C 38.130848 30.970001 38.380001 30.720848 38.380001 30.4135M 37.266998 30.4135C 37.266998 30.720848 37.516155 30.970001 37.823502 30.970001M 37.823502 29.857C 37.516155 29.857 37.266998 30.106153 37.266998 30.4135M 38.380001 30.4135C 38.380001 30.106153 38.130848 29.857 37.823502 29.857M 30.400002 36.168999L 43.025501 36.168999C 44.254543 36.167343 45.250004 35.170544 45.250004 33.941502L 45.25 13.15C 45.250797 12.558711 45.016464 11.991366 44.59864 11.57298C 44.18082 11.154593 43.613792 10.919499 43.022503 10.9195L 25.942001 10.9195M 13.72 16.1185C 13.72 18.98983 16.047672 21.317501 18.919001 21.317501C 21.790329 21.317501 24.118 18.98983 24.118 16.1185C 24.118 13.247171 21.790329 10.9195 18.919001 10.9195C 16.047672 10.9195 13.72 13.247171 13.72 16.1185M 13.7905 16.975C 15.762535 16.953388 17.630312 16.085873 18.919001 14.593C 20.207619 16.084927 22.074728 16.951838 24.046001 16.973499M 22.213001 24.605501L 18.919001 29.791L 15.655 24.584499M 18.919001 23.543501C 21.531376 23.543879 23.801973 25.337273 24.407501 27.878502L 27.088001 37.653999L 22.695999 37.653999L 21.1315 45.080498L 16.674999 45.080498L 15.109 37.653999L 10.75 37.653999L 13.4305 27.8785C 14.036515 25.337584 16.306816 23.544424 18.918999 23.543499Z"></path></g></g></g><g id="g-root-tx_600am800_1hbbpgd1hw9slr-stroke" data-item-order="0" transform="translate(80, 296)"></g><g id="g-root-tx_lightlun_18gbm3h1hvx5hi-stroke" data-item-order="0" transform="translate(530, 530)"></g><g id="g-root-tx_solvemcq_v5hkt91hvx3wn-stroke" data-item-order="0" transform="translate(542, 602)"></g><g id="g-root-tx_100pm300_18f2efx1hvq49b-stroke" data-item-order="0" transform="translate(80, 620)"></g><g id="g-root-tx_practice_924wpp1hvvq4p-stroke" data-item-order="0" transform="translate(350, 620)"></g><g id="g-root-ic_9_1uneowt1hw5jpq-stroke" data-item-order="0" transform="translate(38, 290)"><g id="ic_9_1uneowt1hw5jpq-stroke" fill="none" stroke-linecap="round" stroke-linejoin="round" stroke-miterlimit="4" stroke="#2c2c2c" stroke-width="2"><g><path d="M 40.7845 36.656502L 41.403999 44.1745M 12.712 15.055C 12.711911 17.08968 14.36132 18.739161 16.396 18.739161C 18.430679 18.739161 20.08009 17.08968 20.08 15.055C 20.08009 13.020321 18.430679 11.370839 16.396 11.370839C 14.36132 11.370839 12.711911 13.020321 12.712 15.055M 27.119499 24.549999L 27.1075 24.549999L 20.8825 24.586L 16.3165 20.9065C 16.273001 20.870501 16.223499 20.8465 16.177 20.815001C 16.106314 20.760984 16.032701 20.710909 15.9565 20.665001C 15.877675 20.626034 15.796521 20.591969 15.7135 20.563C 15.658 20.548 15.607 20.521 15.55 20.5C 15.439295 20.469309 15.326494 20.446749 15.2125 20.432499C 15.181 20.432499 15.1525 20.4175 15.1195 20.414499L 15.1195 20.414499C 15.07 20.414499 15.0205 20.414499 14.9695 20.414499C 14.274349 20.388884 13.607624 20.691687 13.1695 21.232L 13.15 21.25C 13.1125 21.295 13.087 21.3475 13.054 21.4C 13.021 21.452499 12.9565 21.536499 12.916 21.6115C 12.877166 21.691608 12.842617 21.773724 12.8125 21.857498C 12.7915 21.913 12.766 21.964001 12.748 22.021C 12.718452 22.126734 12.696892 22.234537 12.6835 22.3435C 12.6835 22.381001 12.6655 22.414 12.6625 22.450001L 12.6625 22.471001L 12.6625 22.471001L 11.6005 33.491501C 11.49693 34.614059 12.240089 35.639992 13.339 35.891499L 21.320499 37.717003L 21.8605 42.621998C 21.984657 43.764885 22.950394 44.63036 24.1 44.629002C 24.183153 44.629452 24.266273 44.625446 24.348999 44.616997C 25.584835 44.481152 26.476246 43.368736 26.3395 42.133003L 25.624001 35.638C 25.520229 34.684547 24.823479 33.90168 23.8885 33.688L 16.268499 31.949501L 16.75 27.031L 18.681999 28.599998C 19.082281 28.922541 19.58094 29.098289 20.094999 29.098L 20.1085 29.098L 27.132999 29.057499C 28.375425 29.053469 29.379427 28.043177 29.375698 26.800753C 29.371971 25.558327 28.361927 24.554077 27.119499 24.557499ZM 38.456501 23.992001L 37.427498 30.731501L 32.011002 30.7735M 32.322998 36.656502L 31.703499 44.1745M 29.474499 33.744999L 43.633003 33.744999C 43.633003 33.744999 44.41 33.744999 44.41 34.521999L 44.41 35.881001C 44.41 35.881001 44.41 36.657997 43.633003 36.657997L 29.474499 36.657997C 29.474499 36.657997 28.6975 36.657997 28.6975 35.881001L 28.6975 34.521999C 28.6975 34.521999 28.6975 33.744999 29.474499 33.744999"></path></g></g></g><g id="g-root-tx_wakeupfr_4l2gf11hvvoqs-stroke" data-item-order="0" transform="translate(332, 206)"></g><g id="g-root-tx_lunchpow_mdlf311hvvojs-stroke" data-item-order="0" transform="translate(350, 530)"></g><g id="g-root-tx_stretchw_hu12fx1hvx5hk-stroke" data-item-order="0" transform="translate(548, 698)"></g><g id="g-root-tx_300pm400_18lb5b11hvswll-stroke" data-item-order="0" transform="translate(80, 716)"></g><g id="g-root-tx_shortbre_1usexel1hvvocq-stroke" data-item-order="0" transform="translate(362, 716)"></g><g id="g-root-tx_530am600_zk1oyl1hw5ibx-stroke" data-item-order="0" transform="translate(80, 212)"></g><g id="g-root-ic_cont_v9umxp1hvsy6i-stroke" data-item-order="0" transform="translate(38, 794)"><g id="ic_cont_v9umxp1hvsy6i-stroke" fill="none" stroke-linecap="round" stroke-linejoin="round" stroke-miterlimit="4" stroke="#2c2c2c" stroke-width="2"><g><path d="M 23.8435 44.875L 15.6565 44.875C 13.171219 44.875 11.1565 42.860283 11.1565 40.375L 11.1565 15.625C 11.1565 13.139719 13.171219 11.125 15.6565 11.125L 28.3435 11.125C 30.828781 11.125 32.843498 13.139719 32.843498 15.625L 32.843498 29.875M 11.1565 38.875L 23.8435 38.875M 15.5935 17.125L 20.0935 17.125L 20.0935 21.625L 15.5935 21.625ZM 15.5935 26.875L 20.0935 26.875L 20.0935 31.375L 15.5935 31.375ZM 24.6565 19.375L 27.6565 19.375M 24.6565 29.125L 27.6565 29.125M 33.143501 43.024002L 26.8435 44.823997L 28.643499 38.524002L 39.411999 27.755501C 40.65464 26.512859 42.669357 26.512859 43.911999 27.755501C 45.15464 28.998138 45.15464 31.012859 43.911999 32.255497ZM 38.062 29.105501L 42.562 33.605499M 28.643499 38.524002L 33.143501 43.024002"></path></g></g></g><g id="g-root-tx_400pm600_13zvdel1hvx5ab-stroke" data-item-order="0" transform="translate(80, 800)"></g><g id="g-root-tx_wakeupbr_1uljpgd1hvx43m-stroke" data-item-order="0" transform="translate(536, 194)"></g><g id="g-root-tx_mocktest_1hgyf191hvvpxn-stroke" data-item-order="0" transform="translate(356, 794)"></g><g id="g-root-tx_1200pm10_94mgf11hw6zv1-stroke" data-item-order="0" transform="translate(80, 536)"></g><g id="g-root-tx_attemptm_4j715p1hvx3wp-stroke" data-item-order="0" transform="translate(524, 794)"></g><g id="g-root-ic_2_1ltn7311hw445g-stroke" data-item-order="0" transform="translate(38, 530)"><g id="ic_2_1ltn7311hw445g-stroke" fill="none" stroke-linecap="round" stroke-linejoin="round" stroke-miterlimit="4" stroke="#2c2c2c" stroke-width="2"><g><path d="M 23.200001 27.549999C 25.022501 27.549999 26.5 25.80385 26.5 23.650015C 26.5 21.496105 25.022501 19.75 23.200001 19.75C 21.37747 19.75 19.900015 21.496105 19.900015 23.650015C 19.900015 25.80385 21.37747 27.549999 23.200001 27.549999ZM 23.200001 27.700001L 23.200001 36.699997M 32.200001 27.700001L 32.200001 36.699997M 29.799999 19.75L 29.799999 25.450001C 29.799999 26.650002 30.849998 27.700001 32.049999 27.700001C 33.25 27.700001 34.300003 26.650002 34.300003 25.450001L 34.300003 19.75M 10 10M 39.849998 16.149969L 37.449997 18.549969M 10 10M 18.700001 37.300003L 16.15 39.84985M 28 44.875C 37.319801 44.875 44.875 37.319801 44.875 28C 44.875 18.680185 37.319801 11.125 28 11.125C 18.680185 11.125 11.125 18.680185 11.125 28C 11.125 37.319801 18.680185 44.875 28 44.875Z"></path></g></g></g><g id="g-root-ic_nigh_18hkasd1hvx3ic-stroke" data-item-order="0" transform="translate(38, 878)"><g id="ic_nigh_18hkasd1hvx3ic-stroke" fill="none" stroke-linecap="round" stroke-linejoin="round" stroke-miterlimit="4" stroke="#2c2c2c" stroke-width="2"><g><path d="M 31.132 31.341999C 31.386189 31.088694 31.529064 30.744606 31.529064 30.38575C 31.529064 30.026896 31.386189 29.682808 31.132 29.429501C 30.87735 29.176134 30.734182 28.831724 30.734182 28.4725C 30.734182 28.113277 30.87735 27.768867 31.132 27.515499M 36.382 31.341999C 37.106754 30.615906 37.106754 29.440096 36.382 28.714001C 36.033195 28.365673 35.837196 27.89295 35.837196 27.400002C 35.837196 26.907051 36.033195 26.43433 36.382004 26.086002M 23.834499 39.541C 16.257734 38.716854 10.670717 32.076851 11.154116 24.470737C 11.637514 16.864628 18.020182 10.985344 25.640322 11.127022C 33.26046 11.268699 39.42017 17.381176 39.620499 25M 20.419001 22.8955L 25.375 25.373499L 25.376501 16.8235M 34.375 44.876499C 31.061291 44.876499 28.375 42.190208 28.375 38.876499L 28.375 34.376499L 40.375 34.376499L 40.375 38.876499C 40.375 42.190208 37.688709 44.876499 34.375 44.876499ZM 40.375 35.876499L 41.875 35.876499C 43.531857 35.876499 44.875 37.219646 44.875 38.876499C 44.875 40.533356 43.531857 41.876499 41.875 41.876499L 39.570999 41.876499"></path></g></g></g><g id="g-root-ic_1_zko61p1hvzxn0-stroke" data-item-order="0" transform="translate(38, 206)"><g id="ic_1_zko61p1hvzxn0-stroke" fill="none" stroke-linecap="round" stroke-linejoin="round" stroke-miterlimit="4" stroke="#2c2c2c" stroke-width="2"><g><path d="M 10.75 41.5L 45.25 41.5M 10.75 31L 13.75 31M 15.583 19.333L 17.704 21.454M 27.25 14.5L 27.25 17.5M 38.917 19.333L 36.796001 21.454M 43.75 31L 40.75 31M 34.568501 38.5C 37.633255 35.521027 38.586529 30.981682 36.979004 27.021521C 35.371483 23.061359 31.523993 20.470755 27.250002 20.470755C 22.976009 20.470755 19.128519 23.061359 17.520996 27.021521C 15.913472 30.981682 16.866745 35.521027 19.931499 38.5"></path></g></g></g><g id="g-root-tx_reviseto_1ha37311hvx5oj-stroke" data-item-order="0" transform="translate(524, 290)"></g><g id="g-root-tx_lightsna_3dj191hvx4oy-stroke" data-item-order="0" transform="translate(530, 866)"></g><g id="g-root-tx_600pm700_detv311hvzw9b-stroke" data-item-order="0" transform="translate(80, 884)"></g><g id="g-root-tx_tearelax_1464dr11hvvocs-stroke" data-item-order="0" transform="translate(362, 884)"></g><g id="g-root-tx_descript_959a591hvvrb5-stroke" data-item-order="0" transform="translate(536, 134)"></g><g id="g-root-ic_coup_1uonwkd1hvzyfc-stroke" data-item-order="0" transform="translate(38, 974)"><g id="ic_coup_1uonwkd1hvzyfc-stroke" fill="none" stroke-linecap="round" stroke-linejoin="round" stroke-miterlimit="4" stroke="#2c2c2c" stroke-width="2"><g><path d="M 10.75 16.740999C 10.75 20.054708 13.436292 22.741001 16.75 22.741001C 20.063709 22.741001 22.75 20.054708 22.75 16.740999C 22.75 13.427292 20.063709 10.741 16.75 10.741C 13.436292 10.741 10.75 13.427292 10.75 16.740999ZM 19.402 16.740999L 16.75 16.740999L 16.75 14.089M 25 21.240999C 25 22.897854 26.343145 24.241001 28 24.241001C 29.656855 24.241001 31 22.897854 31 21.240999C 31 19.584146 29.656855 18.240999 28 18.240999C 26.343145 18.240999 25 19.584146 25 21.240999ZM 28.75 26.491001C 27.50736 26.491001 26.5 27.49836 26.5 28.741001L 26.5 35.490997L 22.043501 35.490997C 20.348253 35.492393 18.757694 36.311127 17.7715 37.689999L 14.9215 41.682999C 14.199366 42.694511 14.433827 44.099892 15.445218 44.822193C 16.456608 45.544495 17.862028 45.310272 18.584499 44.299L 21.25 40.5625L 21.25 42.990997C 21.25 44.233643 22.257359 45.241001 23.5 45.241001C 24.742641 45.241001 25.75 44.233643 25.75 42.991001L 25.75 39.990997L 27.25 39.990997C 29.321068 39.990997 31 38.312069 31 36.240997L 31 28.741001C 31 27.49836 29.992641 26.491001 28.75 26.491001ZM 34 21.240999C 34 22.897854 35.343143 24.241001 37 24.241001C 38.656857 24.241001 40 22.897854 40 21.240999C 40 19.584146 38.656857 18.240999 37 18.240999C 35.343143 18.240999 34 19.584146 34 21.240999ZM 38.5 28.741001C 38.5 27.49836 37.492641 26.491001 36.25 26.491001C 35.007362 26.491001 34 27.49836 34 28.741001L 34 36.240997C 34 38.312069 35.678932 39.990997 37.75 39.990997L 40.75 39.990997L 40.75 42.990997C 40.75 44.233643 41.757362 45.241001 43 45.241001C 44.242641 45.241001 45.25 44.233643 45.25 42.991001L 45.25 39.240997C 45.25 37.169933 43.571068 35.490997 41.5 35.490997L 38.5 35.490997Z"></path></g></g></g><g id="g-root-tx_corestud_zofgd91hvvq4n-stroke" data-item-order="0" transform="translate(344, 452)"></g><g id="g-root-tx_900am120_detorh1hw44cj-stroke" data-item-order="0" transform="translate(80, 452)"></g><g id="g-root-tx_reviseer_1ltnjq51hvx2wz-stroke" data-item-order="0" transform="translate(548, 962)"></g><g id="g-root-tx_700pm900_18gy00t1hvonic-stroke" data-item-order="0" transform="translate(80, 980)"></g><g id="g-root-tx_reviewfl_meud991hvvqpx-stroke" data-item-order="0" transform="translate(368, 974)"></g><g id="g-root-tx_activity_v7d02l1hvvoqr-stroke" data-item-order="0" transform="translate(362, 134)"></g><g id="g-root-ic_woma_m9uhel1hvopvx-stroke" data-item-order="0" transform="translate(38, 1070)"><g id="ic_woma_m9uhel1hvopvx-stroke" fill="none" stroke-linecap="round" stroke-linejoin="round" stroke-miterlimit="4" stroke="#2c2c2c" stroke-width="2"><g><path d="M 18.4585 25.7995L 25.789 25.7995L 25.790501 17.0005M 23.462502 40.281998C 15.7621 39.048161 10.373744 32.004101 11.19819 24.24918C 12.022635 16.494259 18.771555 10.740544 26.559248 11.153285C 34.346943 11.566025 40.449879 18.000877 40.449997 25.7995M 34.785999 29.675499L 34.785999 34.75C 34.785999 37.235283 32.771282 39.25 30.285999 39.25C 27.80072 39.25 25.785999 37.235283 25.785999 34.75L 25.785999 29.675499M 30.289 29.675499L 30.289 44.865997M 39.282997 44.865997L 39.282997 29.675499C 39.282997 29.675499 44.875 32.3755 44.875 41.0905L 39.282997 41.0905"></path></g></g></g><g id="g-root-tx_get78hou_hvwhp91hvx4hy-stroke" data-item-order="0" transform="translate(536, 1250)"></g><g id="g-root-tx_focusont_dcym591hvx43p-stroke" data-item-order="0" transform="translate(530, 434)"></g><g id="g-root-tx_eatdinne_18i71ct1hvx4hw-stroke" data-item-order="0" transform="translate(530, 1058)"></g><g id="g-root-tx_900pm930_1cwri591hvvq4m-stroke" data-item-order="0" transform="translate(80, 1076)"></g><g id="g-root-tx_dinnerli_18n6u1p1hvvpqm-stroke" data-item-order="0" transform="translate(338, 1076)"></g><g id="g-root-tx_time_1cw4of11hvzw23-stroke" data-item-order="0" transform="translate(38, 134)"></g><g id="g-root-ic_cont_zlxgv11hvvojr-stroke" data-item-order="0" transform="translate(38, 1166)"><g id="ic_cont_zlxgv11hvvojr-stroke" fill="none" stroke-linecap="round" stroke-linejoin="round" stroke-miterlimit="4" stroke="#2c2c2c" stroke-width="2"><g><path d="M 35.334999 17.029345C 39.6763 19.558121 42.594101 24.262779 42.594101 29.648951C 42.594101 37.709049 36.059952 44.24305 27.999849 44.24305C 19.939781 44.24305 13.405765 37.709049 13.405765 29.648951C 13.405765 21.58882 19.939781 15.054805 27.999849 15.054805L 30.90745 15.054805M 10 10M 28 11.757085L 31.297749 15.054805L 28 18.352539M 10 10M 23.621574 24.399055L 23.621574 34.899101M 10 10M 20.996574 27.024099L 21.89653 27.024099C 22.849255 27.024099 23.621574 26.251751 23.621574 25.29895L 23.621574 24.399055M 10 10M 26.246651 34.899101L 20.996574 34.899101M 34.565948 24.399055L 30.190899 24.399055L 29.753349 29.21155L 30.764351 28.706051C 31.250349 28.463049 31.786301 28.336599 32.329601 28.336599L 32.378349 28.336599C 33.828098 28.336599 35.003349 29.51185 35.003349 30.961599L 35.003349 32.274101C 35.003349 33.72385 33.828098 34.899101 32.378349 34.899101C 31.2355 34.899101 30.1138 34.168602 29.753349 33.149052"></path></g></g></g><g id="g-root-ic_6_v4unx91hw9slc-stroke" data-item-order="0" transform="translate(38, 362)"><g id="ic_6_v4unx91hw9slc-stroke" fill="none" stroke-linecap="round" stroke-linejoin="round" stroke-miterlimit="4" stroke="#2c2c2c" stroke-width="2"><g><path d="M 36.050499 28.75C 40.511497 29.5975 42.5005 31.09 42.5005 32.981499C 42.5005 35.739998 36.071503 37.976498 28.1395 37.976498C 20.2075 37.976498 13.78 35.744499 13.78 32.986C 13.78 32.085999 14.473001 31.231001 15.684999 30.499001M 13.78 32.986L 13.78 36.990997C 13.78 40.957001 20.209 44.171501 28.1395 44.171501C 36.07 44.171501 42.5005 40.957001 42.5005 36.990997L 42.5005 32.986M 22.331499 26.959C 22.33112 28.104046 23.877865 29.032412 25.785999 29.032412C 27.694136 29.032412 29.240879 28.104046 29.240499 26.959C 29.240879 25.813953 27.694136 24.885588 25.785999 24.885588C 23.877865 24.885588 22.33112 25.813953 22.331499 26.959M 22.3825 27.304001C 21.695499 27.316 20.627501 28.261 20.149 28.756001C 19.667093 29.258127 19.401085 29.92907 19.408001 30.625002C 19.405987 30.913361 19.470671 31.198278 19.597 31.4575C 19.966438 32.012249 20.536232 32.402504 21.187 32.546501C 22.505684 32.969902 23.892593 33.139893 25.2745 33.047497C 26.444372 32.867458 27.628614 32.798153 28.811501 32.8405C 29.935713 33.159424 31.093822 33.343716 32.261501 33.3895C 33.456936 33.286129 34.541237 32.646912 35.210499 31.650999C 35.793999 30.547001 36.776501 28.896999 35.448997 27.953499C 34.63142 27.297215 33.697685 26.800581 32.696499 26.4895C 31.470213 26.243971 30.220892 26.132317 28.970501 26.1565M 10 10M 25.018 32.986L 23.77 37.357002M 31.262501 37.980999L 30.637001 32.986M 20.149 28.75C 19.748915 28.191475 19.071053 27.902285 18.391001 28C 16.968904 27.999538 15.78328 29.088043 15.6625 30.505001M 23.963501 16.627001C 24.79398 16.984999 25.372719 17.756081 25.484501 18.653502C 25.484501 20.495501 22.174 21.9895 18.0895 21.9895C 14.005 21.9895 10.6945 20.5 10.6945 18.6535C 10.6945 17.617001 11.7445 16.6915 13.3825 16.0795M 13.393 26.282499C 11.75513 25.236807 10.743411 23.446066 10.693 21.503502L 10.693 18.6535M 25.484501 18.6535L 25.484501 21.5035M 28.925499 20.408501L 45.098499 27.907M 30.3025 17.032L 45.3055 21.9895M 16.5625 11.8285C 14.8525 13.54 18.272499 14.6785 16.5625 16.389999M 20.6185 13.162C 18.908501 14.8735 22.328499 16.011999 20.6185 17.723499"></path></g></g></g><g id="g-root-ic_time_4pffdp1hvx3be-stroke" data-item-order="0" transform="translate(38, 446)"><g id="ic_time_4pffdp1hvx3be-stroke" fill="none" stroke-linecap="round" stroke-linejoin="round" stroke-miterlimit="4" stroke="#2c2c2c" stroke-width="2"><g><path d="M 27.25 19.75C 27.250002 24.720562 31.279438 28.75 36.25 28.75C 41.220566 28.75 45.25 24.720562 45.25 19.75C 45.25 14.779438 41.220566 10.75 36.25 10.75C 31.279438 10.75 27.250002 14.779438 27.250002 19.75ZM 39.25 20.049999L 36.25 20.049999L 36.25 15.25M 13.75 16C 13.75 18.899494 16.100506 21.25 19 21.25C 21.899494 21.25 24.25 18.899494 24.25 16C 24.25 13.100505 21.899494 10.75 19 10.75C 16.100506 10.75 13.75 13.100505 13.75 16ZM 13.820499 16.865499C 15.811764 16.843117 17.69775 15.967577 19 14.461C 20.302614 15.965672 22.187931 16.839516 24.177999 16.861M 22.3255 24.5725L 19 29.809L 15.703 24.5515M 19 23.5C 21.640499 23.497375 23.937126 25.308609 24.549999 27.877001L 27.25 37.75L 22.814501 37.75L 21.2335 45.25L 16.7335 45.25L 15.1525 37.75L 10.75 37.75L 13.4575 27.877001C 14.069723 25.311337 16.362303 23.500851 19 23.5Z"></path></g></g></g><g id="g-root-tx_writeach_v7d02l1hvx2x1-stroke" data-item-order="0" transform="translate(524, 1154)"></g><g id="g-root-tx_930pm101_qn636l1hw45q8-stroke" data-item-order="0" transform="translate(80, 1172)"></g><g id="g-root-tx_reflectp_vbqbod1hvvrbj-stroke" data-item-order="0" transform="translate(356, 1172)"></g><g id="g-root-tx_dailysch_13ym8wt1hvzyma-stroke" data-item-order="0" transform="translate(201, 38)"></g><g id="g-root-ic_cont_4gp1nh1hw44y1-stroke" data-item-order="0" transform="translate(38, 1250)"><g id="ic_cont_4gp1nh1hw44y1-stroke" fill="none" stroke-linecap="round" stroke-linejoin="round" stroke-miterlimit="4" stroke="#2c2c2c" stroke-width="2"><g><path d="M 27.285999 24.6355L 32.737 24.6355L 27.285999 31.368999L 32.737 31.368999M 35.438499 11.125L 44.781998 11.125L 35.438499 20.4685L 44.781998 20.4685M 22.7575 26.17C 21.742184 22.57415 22.055271 18.732965 23.6395 15.349C 23.769009 15.07424 23.726883 14.749246 23.531601 14.516584C 23.336321 14.283923 23.023552 14.18609 22.730499 14.266C 16.166759 16.039604 11.512389 21.866453 11.232981 28.659855C 10.953571 35.453255 15.113719 41.642643 21.509642 43.949272C 27.905565 46.255898 35.05859 44.1465 39.179497 38.738503C 39.362003 38.496799 39.387764 38.171196 39.245544 37.903801C 39.103317 37.63641 38.818928 37.475769 38.516499 37.491997C 38.284 37.504002 38.050003 37.513 37.816002 37.5145C 35.635468 37.52322 33.47723 37.07563 31.48 36.2005"></path></g></g></g><g id="g-root-tx_1030pm_1q8ukrh1hvvr4a-stroke" data-item-order="0" transform="translate(80, 1256)"></g><g id="g-root-tx_800am900_vbpz191hvx3bd-stroke" data-item-order="0" transform="translate(80, 368)"></g><g id="g-root-tx_sleeptim_mgpsil1hvvpq8-stroke" data-item-order="0" transform="translate(368, 1256)"></g><g id="g-root-tx_eatnutri_v3m5jx1hvx4wc-stroke" data-item-order="0" transform="translate(530, 362)"></g><g id="g-root-tx_healthyb_1czvyql1hvvojq-stroke" data-item-order="0" transform="translate(338, 368)"></g><g id="g-root-ic_time_zk1va51hvq2o0-stroke" data-item-order="0" transform="translate(38, 710)"><g id="ic_time_zk1va51hvq2o0-stroke" fill="none" stroke-linecap="round" stroke-linejoin="round" stroke-miterlimit="4" stroke="#2c2c2c" stroke-width="2"><g><path d="M 35.125 17.125C 35.125 16.225 35.724998 15.625 36.625 15.625L 37.824997 15.625C 38.875 15.625 39.625 16.525 39.625 17.424999C 39.625 18.475 38.724998 19.225 37.824997 19.225C 38.875 19.225 39.625 20.125 39.625 21.025C 39.625 22.075001 38.724998 22.825001 37.824997 22.825001L 36.625 22.825001C 35.724998 22.825001 35.125 22.224998 35.125 21.325001M 29.275002 17.125L 29.275002 21.625M 31.525002 19.375L 27.025002 19.375M 38.875 11.125L 28.375 11.125C 25.075001 11.125 22.375 13.825 22.375 17.125L 22.375 21.625C 22.375 24.924999 25.075001 27.625 28.375 27.625L 28.375 32.125L 35.125 27.625L 38.875 27.625C 42.175003 27.625 44.875 24.924999 44.875 21.625L 44.875 17.125C 44.875 13.825 42.175003 11.125 38.875 11.125ZM 31.375 35.425003C 31.075001 40.675003 26.575001 44.875 21.325001 44.875C 15.775 44.875 11.125 40.375 11.125 34.675003C 11.125 30.174999 14.125 26.275002 18.325001 24.924999M 19.975 29.125L 19.975 34.675003L 24.474998 38.125"></path></g></g></g></g></g></svg>