<?xml version="1.0" encoding="utf-8" standalone="yes"?>
<!DOCTYPE svg PUBLIC "-//W3C//DTD SVG 1.1//EN" "http://www.w3.org/Graphics/SVG/1.1/DTD/svg11.dtd">
<svg width="900" height="600" viewBox="0 0 900 600" style="fill:none;stroke:none;fill-rule:evenodd;clip-rule:evenodd;stroke-linecap:round;stroke-linejoin:round;stroke-miterlimit:1.5;" version="1.1" xmlns="http://www.w3.org/2000/svg" xmlns:xlink="http://www.w3.org/1999/xlink"><style class="text-font-style fontImports" data-font-family="Shantell Sans">@import url('https://fonts.googleapis.com/css2?family=Shantell+Sans:wght@300..800&amp;display=block');</style><g id="items" style="isolation: isolate"><g id="blend" style="mix-blend-mode: normal"><g id="g-root-cp_-1_Common_v0jf1k42bke-fill" data-item-order="-429398" transform="translate(38, 110)"><g id="cp_-1_Common_v0jf1k42bke-fill" stroke="none" fill="#ababab"><g><path d="M 10 394L 22 394L 394 394L 406 394L 406 418L 10 418L 10 394ZM 34 370L 382 370L 382 382L 34 382L 34 370ZM 208 10L 406 82L 406 94L 394 94L 22 94L 10 94L 10 82L 208 10ZM 34 118L 382 118L 382 106L 34 106L 34 118ZM 22 94L 22 106L 34 106L 382 106L 394 106L 394 94L 22 94ZM 382 382L 34 382L 22 382L 22 394L 394 394L 394 382L 382 382Z"></path></g></g></g><g id="g-root-cp_4_g-4_1um5ke31k42c5k-fill" data-item-order="-429394" transform="translate(326, 218)"><g id="cp_4_g-4_1um5ke31k42c5k-fill" stroke="none" fill="#f79438"><g><path d="M 22 34L 70 34L 70 238L 22 238L 22 34ZM 16 22L 76 22L 82 22L 82 10L 10 10L 10 22L 16 22ZM 76 250L 16 250L 10 250L 10 262L 82 262L 82 250L 76 250ZM 76 250L 76 238L 70 238L 22 238L 16 238L 16 250L 76 250ZM 76 22L 16 22L 16 34L 22 34L 70 34L 76 34L 76 22Z"></path></g></g></g><g id="g-root-cp_4_g-4_1_1q6yjcr1k429s2-fill" data-item-order="-429390" transform="translate(326, 218)"><g id="cp_4_g-4_1_1q6yjcr1k429s2-fill" stroke="none" fill="#f79438"><g><path d="M 22 34L 70 34L 70 238L 22 238L 22 34ZM 16 22L 76 22L 82 22L 82 10L 10 10L 10 22L 16 22ZM 76 250L 16 250L 10 250L 10 262L 82 262L 82 250L 76 250ZM 76 250L 76 238L 70 238L 22 238L 16 238L 16 250L 76 250ZM 76 22L 16 22L 16 34L 22 34L 70 34L 76 34L 76 22Z"></path></g></g></g><g id="g-root-cp_3_g-3_1hbbj3v1k42aks-fill" data-item-order="-429386" transform="translate(242, 218)"><g id="cp_3_g-3_1hbbj3v1k42aks-fill" stroke="none" fill="#ffe711"><g><path d="M 22 34L 70 34L 70 238L 22 238L 22 34ZM 16 22L 76 22L 82 22L 82 10L 10 10L 10 22L 16 22ZM 76 250L 16 250L 10 250L 10 262L 82 262L 82 250L 76 250ZM 76 250L 76 238L 70 238L 22 238L 16 238L 16 250L 76 250ZM 76 22L 16 22L 16 34L 22 34L 70 34L 76 34L 76 22Z"></path></g></g></g><g id="g-root-cp_2_g-2_1cvi0zf1k42bd2-fill" data-item-order="-429382" transform="translate(158, 218)"><g id="cp_2_g-2_1cvi0zf1k42bd2-fill" stroke="none" fill="#a6da37"><g><path d="M 22 34L 70 34L 70 238L 22 238L 22 34ZM 16 22L 76 22L 82 22L 82 10L 10 10L 10 22L 16 22ZM 76 250L 16 250L 10 250L 10 262L 82 262L 82 250L 76 250ZM 76 250L 76 238L 70 238L 22 238L 16 238L 16 250L 76 250ZM 76 22L 16 22L 16 34L 22 34L 70 34L 76 34L 76 22Z"></path></g></g></g><g id="g-root-cp_1_g-1_zknzp71k429s8-fill" data-item-order="-429378" transform="translate(74, 218)"><g id="cp_1_g-1_zknzp71k429s8-fill" stroke="none" fill="#43dd93"><g><path d="M 22 34L 70 34L 70 238L 22 238L 22 34ZM 16 22L 76 22L 82 22L 82 10L 10 10L 10 22L 16 22ZM 76 250L 16 250L 10 250L 10 262L 82 262L 82 250L 76 250ZM 76 250L 76 238L 70 238L 22 238L 16 238L 16 250L 76 250ZM 76 22L 16 22L 16 34L 22 34L 70 34L 76 34L 76 22Z"></path></g></g></g><g id="g-root-ic_book_143lv971k42a6d-fill" data-item-order="0" transform="translate(470, 116)"></g><g id="g-root-tx_englishg_141qfzv1k42b63-fill" data-item-order="0" transform="translate(530, 116)"><g id="tx_englishg_141qfzv1k42b63-fill" stroke="none" fill="#43dd93"><g><text style="font: bold 20px &quot;Shantell Sans&quot;, cursive; white-space: pre;" font-weight="bold" font-size="20px" font-family="'Shantell Sans', cursive"><tspan x="12" y="34.75" dominant-baseline="ideographic">English Grammar</tspan></text></g></g></g><g id="g-root-tx_focuseso_1lu9env1k42az0-fill" data-item-order="0" transform="translate(530, 152)"><g id="tx_focuseso_1lu9env1k42az0-fill" stroke="none" fill="#43dd93"><g><text style="font: 15px &quot;Shantell Sans&quot;, cursive; white-space: pre;" font-size="15px" font-family="'Shantell Sans', cursive"><tspan x="12" y="28.77" dominant-baseline="ideographic">Focuses on language proficiency </tspan><tspan x="12" y="46.77" dominant-baseline="ideographic">and vocabulary enhancement.</tspan></text></g></g></g><g id="g-root-ic_spar_1hjfse31k3r1mo-fill" data-item-order="0" transform="translate(470, 212)"></g><g id="g-root-tx_generalk_73ukb1k3r3m6-fill" data-item-order="0" transform="translate(530, 212)"><g id="tx_generalk_73ukb1k3r3m6-fill" stroke="none" fill="#a6da37"><g><text style="font: bold 20px &quot;Shantell Sans&quot;, cursive; white-space: pre;" font-weight="bold" font-size="20px" font-family="'Shantell Sans', cursive"><tspan x="12" y="34.75" dominant-baseline="ideographic">General Knowledge</tspan></text></g></g></g><g id="g-root-tx_coversab_146qbuj1k3r11j-fill" data-item-order="0" transform="translate(530, 248)"><g id="tx_coversab_146qbuj1k3r11j-fill" stroke="none" fill="#a6da37"><g><text style="font: 15px &quot;Shantell Sans&quot;, cursive; white-space: pre;" font-size="15px" font-family="'Shantell Sans', cursive"><tspan x="12" y="28.77" dominant-baseline="ideographic">Covers a broad range of subjects </tspan><tspan x="12" y="46.77" dominant-baseline="ideographic">including history and science.</tspan></text></g></g></g><g id="g-root-ic_math_v48z971k3r3m4-fill" data-item-order="0" transform="translate(470, 308)"></g><g id="g-root-tx_elementa_dbq0l71k3r3t6-fill" data-item-order="0" transform="translate(530, 308)"><g id="tx_elementa_dbq0l71k3r3t6-fill" stroke="none" fill="#ffe711"><g><text style="font: bold 20px &quot;Shantell Sans&quot;, cursive; white-space: pre;" font-weight="bold" font-size="20px" font-family="'Shantell Sans', cursive"><tspan x="12" y="40.75" dominant-baseline="ideographic">Elementary Mathematics</tspan></text></g></g></g><g id="g-root-tx_includes_1lqjiwr1k3r3m3-fill" data-item-order="0" transform="translate(530, 356)"><g id="tx_includes_1lqjiwr1k3r3m3-fill" stroke="none" fill="#fff06b"><g><text style="font: 15px &quot;Shantell Sans&quot;, cursive; white-space: pre;" font-size="15px" font-family="'Shantell Sans', cursive"><tspan x="12" y="31.77" dominant-baseline="ideographic">Includes basic mathematical </tspan><tspan x="12" y="49.77" dominant-baseline="ideographic">concepts like algebra and </tspan><tspan x="12" y="67.77" dominant-baseline="ideographic">geometry.</tspan></text></g></g></g><g id="g-root-ic_fold_4l2t171k43oy7-fill" data-item-order="0" transform="translate(470, 440)"></g><g id="g-root-tx_currente_1upawl71k43o5h-fill" data-item-order="0" transform="translate(530, 440)"><g id="tx_currente_1upawl71k43o5h-fill" stroke="none" fill="#f79438"><g><text style="font: bold 20px &quot;Shantell Sans&quot;, cursive; white-space: pre;" font-weight="bold" font-size="20px" font-family="'Shantell Sans', cursive"><tspan x="12" y="34.75" dominant-baseline="ideographic">Current Events</tspan></text></g></g></g><g id="g-root-tx_emphasiz_1430cxn1k43o5i-fill" data-item-order="0" transform="translate(530, 476)"><g id="tx_emphasiz_1430cxn1k43o5i-fill" stroke="none" fill="#f79438"><g><text style="font: 15px &quot;Shantell Sans&quot;, cursive; white-space: pre;" font-size="15px" font-family="'Shantell Sans', cursive"><tspan x="12" y="28.77" dominant-baseline="ideographic">Emphasizes awareness of recent </tspan><tspan x="12" y="46.77" dominant-baseline="ideographic">and ongoing global events.</tspan></text></g></g></g><g id="g-root-cp_-1_Common_v0jf1k42bke-stroke" data-item-order="-429398" transform="translate(38, 110)"><g id="cp_-1_Common_v0jf1k42bke-stroke" fill="none" stroke-linecap="round" stroke-linejoin="round" stroke-miterlimit="4" stroke="#2c2c2c" stroke-width="2"><g><path d="M 10 394L 22 394L 394 394L 406 394L 406 418L 10 418L 10 394ZM 34 370L 382 370L 382 382L 34 382L 34 370ZM 208 10L 406 82L 406 94L 394 94L 22 94L 10 94L 10 82L 208 10ZM 34 118L 382 118L 382 106L 34 106L 34 118ZM 22 94L 22 106L 34 106L 382 106L 394 106L 394 94L 22 94ZM 382 382L 34 382L 22 382L 22 394L 394 394L 394 382L 382 382Z"></path></g></g></g><g id="g-root-cp_4_g-4_1um5ke31k42c5k-stroke" data-item-order="-429394" transform="translate(326, 218)"><g id="cp_4_g-4_1um5ke31k42c5k-stroke" fill="none" stroke-linecap="round" stroke-linejoin="round" stroke-miterlimit="4" stroke="#2c2c2c" stroke-width="2"><g><path d="M 22 34L 70 34L 70 238L 22 238L 22 34ZM 16 22L 76 22L 82 22L 82 10L 10 10L 10 22L 16 22ZM 76 250L 16 250L 10 250L 10 262L 82 262L 82 250L 76 250ZM 76 250L 76 238L 70 238L 22 238L 16 238L 16 250L 76 250ZM 76 22L 16 22L 16 34L 22 34L 70 34L 76 34L 76 22Z"></path></g></g></g><g id="g-root-cp_4_g-4_1_1q6yjcr1k429s2-stroke" data-item-order="-429390" transform="translate(326, 218)"><g id="cp_4_g-4_1_1q6yjcr1k429s2-stroke" fill="none" stroke-linecap="round" stroke-linejoin="round" stroke-miterlimit="4" stroke="#2c2c2c" stroke-width="2"><g><path d="M 22 34L 70 34L 70 238L 22 238L 22 34ZM 16 22L 76 22L 82 22L 82 10L 10 10L 10 22L 16 22ZM 76 250L 16 250L 10 250L 10 262L 82 262L 82 250L 76 250ZM 76 250L 76 238L 70 238L 22 238L 16 238L 16 250L 76 250ZM 76 22L 16 22L 16 34L 22 34L 70 34L 76 34L 76 22Z"></path></g></g></g><g id="g-root-cp_3_g-3_1hbbj3v1k42aks-stroke" data-item-order="-429386" transform="translate(242, 218)"><g id="cp_3_g-3_1hbbj3v1k42aks-stroke" fill="none" stroke-linecap="round" stroke-linejoin="round" stroke-miterlimit="4" stroke="#2c2c2c" stroke-width="2"><g><path d="M 22 34L 70 34L 70 238L 22 238L 22 34ZM 16 22L 76 22L 82 22L 82 10L 10 10L 10 22L 16 22ZM 76 250L 16 250L 10 250L 10 262L 82 262L 82 250L 76 250ZM 76 250L 76 238L 70 238L 22 238L 16 238L 16 250L 76 250ZM 76 22L 16 22L 16 34L 22 34L 70 34L 76 34L 76 22Z"></path></g></g></g><g id="g-root-cp_2_g-2_1cvi0zf1k42bd2-stroke" data-item-order="-429382" transform="translate(158, 218)"><g id="cp_2_g-2_1cvi0zf1k42bd2-stroke" fill="none" stroke-linecap="round" stroke-linejoin="round" stroke-miterlimit="4" stroke="#2c2c2c" stroke-width="2"><g><path d="M 22 34L 70 34L 70 238L 22 238L 22 34ZM 16 22L 76 22L 82 22L 82 10L 10 10L 10 22L 16 22ZM 76 250L 16 250L 10 250L 10 262L 82 262L 82 250L 76 250ZM 76 250L 76 238L 70 238L 22 238L 16 238L 16 250L 76 250ZM 76 22L 16 22L 16 34L 22 34L 70 34L 76 34L 76 22Z"></path></g></g></g><g id="g-root-cp_1_g-1_zknzp71k429s8-stroke" data-item-order="-429378" transform="translate(74, 218)"><g id="cp_1_g-1_zknzp71k429s8-stroke" fill="none" stroke-linecap="round" stroke-linejoin="round" stroke-miterlimit="4" stroke="#2c2c2c" stroke-width="2"><g><path d="M 22 34L 70 34L 70 238L 22 238L 22 34ZM 16 22L 76 22L 82 22L 82 10L 10 10L 10 22L 16 22ZM 76 250L 16 250L 10 250L 10 262L 82 262L 82 250L 76 250ZM 76 250L 76 238L 70 238L 22 238L 16 238L 16 250L 76 250ZM 76 22L 16 22L 16 34L 22 34L 70 34L 76 34L 76 22Z"></path></g></g></g><g id="g-root-ic_book_143lv971k42a6d-stroke" data-item-order="0" transform="translate(470, 116)"><g id="ic_book_143lv971k42a6d-stroke" fill="none" stroke-linecap="round" stroke-linejoin="round" stroke-miterlimit="4" stroke="#43dd93" stroke-width="2"><g><path d="M 51.900002 56.5L 20.500019 56.5C 18.100021 56.5 15.900021 54.5 15.900021 52.099998M 19.900021 11.5C 17.70002 11.5 15.900021 13.3 15.900021 15.5L 15.900021 52.099998C 15.900021 49.700001 17.900021 47.700001 20.500019 47.700001L 50.5 47.700001C 51.299999 47.700001 52.099998 47.099998 52.099998 46.099998L 52.099998 13.5C 52.099998 12.3 51.299999 11.5 50.099998 11.5L 19.900021 11.5ZM 10 10M 48.900002 56.5L 48.900002 47.703201M 26.948481 37.18L 32.07 21.815399C 32.3326 21.02774 33.069599 20.49646 33.900002 20.49646L 33.900002 20.49646C 34.730202 20.49646 35.4674 21.02774 35.729797 21.815399L 40.851402 37.18M 28.8022 31.618799L 38.997601 31.618799"></path></g></g></g><g id="g-root-tx_englishg_141qfzv1k42b63-stroke" data-item-order="0" transform="translate(530, 116)"></g><g id="g-root-tx_focuseso_1lu9env1k42az0-stroke" data-item-order="0" transform="translate(530, 152)"></g><g id="g-root-ic_spar_1hjfse31k3r1mo-stroke" data-item-order="0" transform="translate(470, 212)"><g id="ic_spar_1hjfse31k3r1mo-stroke" fill="none" stroke-linecap="round" stroke-linejoin="round" stroke-miterlimit="4" stroke="#a6da37" stroke-width="2"><g><path d="M 37.585999 21.4426C 42.210602 20.51292 45.933998 16.74424 46.8652 12C 47.7962 16.74424 51.518799 20.51292 56.143398 21.4426M 56.143398 21.448021C 51.518799 22.377701 47.795399 26.146379 46.864201 30.8906C 45.932999 26.146379 42.210602 22.377701 37.585999 21.448021M 31.9844 21.16378C 31.128599 21.03532 30.252399 20.96876 29.360359 20.96876C 19.704559 20.96876 11.857422 28.78672 11.857422 38.4716L 11.857422 38.500801C 11.857422 48.156601 19.6754 56.003799 29.360359 56.003799C 39.016197 56.003799 46.863201 48.185799 46.863201 38.500801C 46.863201 37.871799 46.8302 37.250401 46.765999 36.638599M 29.361219 20.96876C 25.4522 20.96876 22.2754 28.78672 22.2754 38.4716L 22.2754 38.500801C 22.2754 48.156601 25.440399 56.003799 29.361219 56.003799C 33.270203 56.003799 36.446999 48.185799 36.446999 38.500801C 36.446999 36.599602 36.325001 34.769199 36.0994 33.055M 11.857422 38.492203L 46.863602 38.492203"></path></g></g></g><g id="g-root-tx_generalk_73ukb1k3r3m6-stroke" data-item-order="0" transform="translate(530, 212)"></g><g id="g-root-tx_coversab_146qbuj1k3r11j-stroke" data-item-order="0" transform="translate(530, 248)"></g><g id="g-root-ic_math_v48z971k3r3m4-stroke" data-item-order="0" transform="translate(470, 308)"><g id="ic_math_v48z971k3r3m4-stroke" fill="none" stroke-linecap="round" stroke-linejoin="round" stroke-miterlimit="4" stroke="#ffe711" stroke-width="2"><g><path d="M 53 37L 53 14C 53 12.895431 52.104568 12 51 12L 17 12C 15.895431 12 15 12.895431 15 14L 15 37M 55 44L 13 44C 11.895431 44 11 43.104568 11 42L 11 41C 11 40.447716 11.447716 40 12 40L 56 40C 56.552284 40 57 40.447716 57 41L 57 42C 57 43.104568 56.104568 44 55 44ZM 15 44L 15 56M 53 44L 53 56M 15 52L 53 52M 31 26L 39 26M 35 22L 35 30M 41 32L 49 32M 41 23L 43.646 20.354C 43.871967 20.126682 44.179482 19.999214 44.5 20C 44.776142 20 45 20.223858 45 20.5L 45 32M 19 24C 19 22.118958 20.310629 20.492065 22.148563 20.091667C 23.986496 19.691273 25.855085 20.625565 26.637527 22.336151C 27.41997 24.046736 26.904833 26.071375 25.4 27.200001L 19 32L 27 32"></path></g></g></g><g id="g-root-tx_elementa_dbq0l71k3r3t6-stroke" data-item-order="0" transform="translate(530, 308)"></g><g id="g-root-tx_includes_1lqjiwr1k3r3m3-stroke" data-item-order="0" transform="translate(530, 356)"></g><g id="g-root-ic_fold_4l2t171k43oy7-stroke" data-item-order="0" transform="translate(470, 440)"><g id="ic_fold_4l2t171k43oy7-stroke" fill="none" stroke-linecap="round" stroke-linejoin="round" stroke-miterlimit="4" stroke="#f79438" stroke-width="2"><g><path d="M 29 30C 29 30.552284 28.552284 31 28 31L 18 31C 17.447716 31 17 30.552284 17 30L 17 20C 17 19.447716 17.447716 19 18 19L 28 19C 28.552284 19 29 19.447716 29 20ZM 33 19L 39 19M 33 25L 39 25M 33 31L 39 31M 17 37L 39 37M 17 43L 39 43M 17 49L 39 49M 51 57L 17 57C 13.686292 57 11 54.313709 11 51L 11 13C 11 11.895431 11.895431 11 13 11L 43 11C 44.104568 11 45 11.895431 45 13L 45 51C 45 54.313709 47.686295 57 51 57C 54.313709 57 57 54.313709 57 51L 57 17M 51 17L 51 52"></path></g></g></g><g id="g-root-tx_currente_1upawl71k43o5h-stroke" data-item-order="0" transform="translate(530, 440)"></g><g id="g-root-tx_emphasiz_1430cxn1k43o5i-stroke" data-item-order="0" transform="translate(530, 476)"></g></g></g><path id="w18koerv1knnf9g" d="M65.283 12.757a.35.35 0 0 0 .584.157l5.203-5.141-6.183 3.523.396 1.461zm-2.216-11.7a.35.35 0 0 0-.522.305v3.111l3.276-1.868-2.754-1.548zm3.728 2.105l-4.25 2.421v2.445l6.391-3.644-2.141-1.222zm4.708 3.303a.35.35 0 0 0 0-.609l-1.592-.9-7.365 4.199v1.782a.35.35 0 0 0 .523.305l8.435-4.777z M44.542 2.513c0-.433.355-.783.792-.783s.792.35.792.783-.355.783-.792.783-.792-.35-.792-.783zm59.171 0c0-.433.355-.783.792-.783s.792.35.792.783-.355.783-.792.783-.792-.35-.792-.783zm-85.951 7.636h-1.27v-.487c-.276.201-.864.609-1.881.609-1.202 0-2.274-.794-2.137-2.078.118-1.106 1.153-1.584 1.848-1.727l2.17-.345c0-.539-.29-.956-1.064-1.006s-1.21.305-1.571 1.017l-1.124-.605c1.218-2.631 5.029-1.764 5.029.414v4.207zm-1.27-2.86c.006.396-.062 1.112-.819 1.59-.587.37-1.841.299-1.903-.395-.049-.555.461-.791.906-.898l1.816-.297zm72.662 2.86h-1.27v-.487c-.276.201-.864.609-1.881.609-1.202 0-2.274-.794-2.137-2.078.118-1.106 1.153-1.584 1.848-1.727l2.17-.345c0-.539-.29-.956-1.064-1.006s-1.21.305-1.571 1.017l-1.124-.605c1.218-2.631 5.029-1.764 5.029.414v4.207zm-1.27-2.86c.006.396-.062 1.112-.82 1.59-.587.37-1.841.299-1.903-.395-.049-.555.461-.791.906-.898l1.816-.297zM99.096 10.149H97.85v-8.45h1.246v4.895l2.68-2.559h1.738l-2.633 2.535 2.715 3.578h-1.556l-2.077-2.707-.867.844v1.863zm6.053-6.114h-1.255v6.113h1.255V4.035zm-59.2 0h-1.255v6.113h1.255V4.035zm5.584 6.113V1.697h1.255v2.695c.361-.346 1-.485 1.47-.485 1.452 0 2.477 1.082 2.457 2.448v3.792h-1.27v-3.68c0-.408-.214-1.339-1.315-1.339-.968 0-1.342.756-1.342 1.339v3.681h-1.255zm-4.76-4.894V4.039h.621a.45.45 0 0 0 .45-.45v-.855h1.251v1.305h1.309v1.215h-1.309v3.109c0 .293.105.664.648.664.365 0 .531-.035.736-.07v1.137s-.361.113-.857.113c-1.398 0-1.777-1.051-1.777-1.788V5.254h-1.071zM36.528 4.039h-1.394l2.191 6.106h1.125l1.234-3.918 1.238 3.918h1.129l2.188-6.106h-1.383l-1.359 3.93-1.256-3.93h-1.124l-1.242 3.957-1.348-3.957zM26.212 7.141c-.02 1.566 1.187 3.129 3.223 3.129 1.566 0 2.383-.918 2.734-1.719L31.172 8c-.315.399-.801 1.094-1.738 1.094-1.145 0-1.825-.781-1.891-1.52h4.625c.074-.284.148-.995-.03-1.559-.336-1.064-1.221-2.102-2.839-2.102s-3.088 1.152-3.088 3.227zm1.363-.75h3.348c-.055-.43-.566-1.301-1.623-1.301a1.79 1.79 0 0 0-1.725 1.301zm-8.758.75c.038 1.758 1.277 3.133 3.145 3.133 1.074 0 1.723-.477 1.961-.672v.547h1.242V1.703h-1.258v2.888c-.414-.36-1.062-.68-1.93-.68-1.91 0-3.198 1.473-3.16 3.23zm1.309-.08c0 1.119.723 1.978 1.836 1.978a1.88 1.88 0 0 0 1.94-1.904c0-1.371-1.011-1.99-1.972-1.99s-1.805.798-1.805 1.916zm76.683-.028C96.771 5.275 95.532 3.9 93.664 3.9c-1.074 0-1.723.477-1.961.672v-.547h-1.242v8.22h1.258V9.583c.414.36 1.063.68 1.93.68 1.91 0 3.198-1.473 3.16-3.23zm-1.309.08c0-1.119-.723-1.978-1.836-1.978a1.88 1.88 0 0 0-1.94 1.904c0 1.371 1.011 1.99 1.972 1.99S95.5 8.231 95.5 7.113zM106.441 10.173V4.036h1.254v.382c.361-.346 1-.485 1.47-.485 1.452 0 2.477 1.082 2.457 2.448v3.792h-1.27V6.492c0-.408-.214-1.339-1.315-1.339-.969 0-1.342.756-1.342 1.339v3.681h-1.254zm-30.383-.021V1.824h1.084l4.215 5.777V1.824h1.32v8.328h-1.094l-4.207-5.796v5.796h-1.319zM5.24 10.149H4V2.377h1.014l2.664 3.597 2.654-3.592h1.03v7.766h-1.256V4.762L7.678 8.068 5.24 4.742v5.407z" transform="translate(20, 566)" fill="#ababab88" stroke="none"></path></svg>