<?xml version="1.0" encoding="utf-8" standalone="yes"?>
<!DOCTYPE svg PUBLIC "-//W3C//DTD SVG 1.1//EN" "http://www.w3.org/Graphics/SVG/1.1/DTD/svg11.dtd">
<svg width="907" height="469" viewBox="0 0 907 469" style="fill:none;stroke:none;fill-rule:evenodd;clip-rule:evenodd;stroke-linecap:round;stroke-linejoin:round;stroke-miterlimit:1.5;" version="1.1" xmlns="http://www.w3.org/2000/svg" xmlns:xlink="http://www.w3.org/1999/xlink"><style class="text-font-style fontImports" data-font-family="Shantell Sans">@import url('https://fonts.googleapis.com/css2?family=Shantell+Sans:wght@300..800&amp;display=block');</style><g id="items" style="isolation: isolate"><g id="blend" style="mix-blend-mode: normal"><g id="g-root-sy_1_gauge-filled-1_ddkqks1pxebrc-fill" data-item-order="-63834" transform="translate(375.3899841308594, 157.99755859375)"><g id="sy_1_gauge-filled-1_ddkqks1pxebrc-fill" stroke="none" fill="#f79438"><g><path d="M 107.082001 10C 163.741037 9.999908 212.679813 49.629669 224.459905 105.050559C 236.239998 160.47145 207.651114 216.580249 155.890492 239.625502C 104.12987 262.670756 43.30324 246.372204 10.000002 200.53401L 107.082001 130L 107.082001 130L 107.082001 10Z"></path></g></g></g><g id="g-root-sy_2_gauge-filled-2_8xr8gc1pxecjl-fill" data-item-order="-63830" transform="translate(352.47119140625, 259.2255859375)"><g id="sy_2_gauge-filled-2_8xr8gc1pxecjl-fill" stroke="none" fill="#ffe711"><g><path d="M 32.918793 99.305973C 14.211894 73.558384 6.499339 41.434067 11.477794 9.999978L 130.000793 28.771973L 130.000793 28.771973L 32.918793 99.305973Z"></path></g></g></g><g id="g-root-sy_3_gauge-filled-3_2qpak1pxea6i-fill" data-item-order="-63826" transform="translate(353.948974609375, 180.91552734375)"><g id="sy_3_gauge-filled-3_2qpak1pxea6i-fill" stroke="none" fill="#43dd93"><g><path d="M 10.00001 88.310031C 14.978822 56.875751 32.240995 28.70678 57.989013 10.000032L 128.52301 107.082031L 128.52301 107.082031L 10.00001 88.310031Z"></path></g></g></g><g id="g-root-sy_4_gauge-filled-4_2qpak1pxea6j-fill" data-item-order="-63822" transform="translate(401.93798828125, 157.99755859375)"><g id="sy_4_gauge-filled-4_2qpak1pxea6j-fill" stroke="none" fill="#4f91fc"><g><path d="M 9.999997 32.918C 30.501644 18.022666 55.192565 10.00006 80.534003 10L 80.533997 130L 80.533997 130L 9.999997 32.918Z"></path></g></g></g><g id="g-root-tx_highweig_zqb89o1mw12j0-fill" data-item-order="0" transform="translate(119.36892700195312, 38)"><g id="tx_highweig_zqb89o1mw12j0-fill" stroke="none" fill="#ffffff"><g><text style="font: 30px &quot;Shantell Sans&quot;, cursive; white-space: pre;" font-size="30px" font-family="'Shantell Sans', cursive"><tspan x="34.79" y="53.55" dominant-baseline="ideographic">High-Weightage Subjects for Engineering Exam</tspan></text></g></g></g><g id="g-root-tx_10others_18it5sc1pxec5k-fill" data-item-order="0" transform="translate(313.5379943847656, 134.1715087890625)"><g id="tx_10others_18it5sc1pxec5k-fill" stroke="none" fill="#4e88e6"><g><text style="font: 20px &quot;Shantell Sans&quot;, cursive; white-space: pre;" font-size="20px" font-family="'Shantell Sans', cursive"><tspan x="16.36" y="34.75" dominant-baseline="ideographic">10% Others</tspan></text></g></g></g><g id="g-root-tx_1250quan_1lu9o5o1pxeakn-fill" data-item-order="0" transform="translate(64.99398803710938, 188.2254638671875)"><g id="tx_1250quan_1lu9o5o1pxeakn-fill" stroke="none" fill="#43dd93"><g><text style="font: 20px &quot;Shantell Sans&quot;, cursive; white-space: pre;" font-size="20px" font-family="'Shantell Sans', cursive"><tspan x="21.76" y="34.75" dominant-baseline="ideographic">12.50% Quantitative Aptitude</tspan></text></g></g></g><g id="g-root-tx_1250engi_4jt5l81pxebke-fill" data-item-order="0" transform="translate(14, 307.3555908203125)"><g id="tx_1250engi_4jt5l81pxebke-fill" stroke="none" fill="#ffe711"><g><text style="font: 20px &quot;Shantell Sans&quot;, cursive; white-space: pre;" font-size="20px" font-family="'Shantell Sans', cursive"><tspan x="20.85" y="34.75" dominant-baseline="ideographic">12.50% Engineering Mathematics</tspan></text></g></g></g><g id="g-root-tx_65corete_qqa74c1pxeccl-fill" data-item-order="0" transform="translate(584.738037109375, 335.2015380859375)"><g id="tx_65corete_qqa74c1pxeccl-fill" stroke="none" fill="#f79438"><g><text style="font: 20px &quot;Shantell Sans&quot;, cursive; white-space: pre;" font-size="20px" font-family="'Shantell Sans', cursive"><tspan x="12" y="34.75" dominant-baseline="ideographic">65% Core Technical Subjects</tspan></text></g></g></g><g id="g-root-sy_1_gauge-filled-1_ddkqks1pxebrc-stroke" data-item-order="-63834" transform="translate(375.3899841308594, 157.99755859375)"><g id="sy_1_gauge-filled-1_ddkqks1pxebrc-stroke" fill="none" stroke-linecap="round" stroke-linejoin="round" stroke-miterlimit="4" stroke="#2c2c2c" stroke-width="2"><g><path d="M 107.082001 10C 163.741037 9.999908 212.679813 49.629669 224.459905 105.050559C 236.239998 160.47145 207.651114 216.580249 155.890492 239.625502C 104.12987 262.670756 43.30324 246.372204 10.000002 200.53401L 107.082001 130L 107.082001 130L 107.082001 10Z"></path></g></g></g><g id="g-root-sy_2_gauge-filled-2_8xr8gc1pxecjl-stroke" data-item-order="-63830" transform="translate(352.47119140625, 259.2255859375)"><g id="sy_2_gauge-filled-2_8xr8gc1pxecjl-stroke" fill="none" stroke-linecap="round" stroke-linejoin="round" stroke-miterlimit="4" stroke="#2c2c2c" stroke-width="2"><g><path d="M 32.918793 99.305973C 14.211894 73.558384 6.499339 41.434067 11.477794 9.999978L 130.000793 28.771973L 130.000793 28.771973L 32.918793 99.305973Z"></path></g></g></g><g id="g-root-sy_3_gauge-filled-3_2qpak1pxea6i-stroke" data-item-order="-63826" transform="translate(353.948974609375, 180.91552734375)"><g id="sy_3_gauge-filled-3_2qpak1pxea6i-stroke" fill="none" stroke-linecap="round" stroke-linejoin="round" stroke-miterlimit="4" stroke="#2c2c2c" stroke-width="2"><g><path d="M 10.00001 88.310031C 14.978822 56.875751 32.240995 28.70678 57.989013 10.000032L 128.52301 107.082031L 128.52301 107.082031L 10.00001 88.310031Z"></path></g></g></g><g id="g-root-sy_4_gauge-filled-4_2qpak1pxea6j-stroke" data-item-order="-63822" transform="translate(401.93798828125, 157.99755859375)"><g id="sy_4_gauge-filled-4_2qpak1pxea6j-stroke" fill="none" stroke-linecap="round" stroke-linejoin="round" stroke-miterlimit="4" stroke="#2c2c2c" stroke-width="2"><g><path d="M 9.999997 32.918C 30.501644 18.022666 55.192565 10.00006 80.534003 10L 80.533997 130L 80.533997 130L 9.999997 32.918Z"></path></g></g></g><g id="g-root-tx_highweig_zqb89o1mw12j0-stroke" data-item-order="0" transform="translate(119.36892700195312, 38)"></g><g id="g-root-tx_10others_18it5sc1pxec5k-stroke" data-item-order="0" transform="translate(313.5379943847656, 134.1715087890625)"></g><g id="g-root-tx_1250quan_1lu9o5o1pxeakn-stroke" data-item-order="0" transform="translate(64.99398803710938, 188.2254638671875)"></g><g id="g-root-tx_1250engi_4jt5l81pxebke-stroke" data-item-order="0" transform="translate(14, 307.3555908203125)"></g><g id="g-root-tx_65corete_qqa74c1pxeccl-stroke" data-item-order="0" transform="translate(584.738037109375, 335.2015380859375)"></g></g></g></svg>