<?xml version="1.0" encoding="utf-8" standalone="yes"?>
<!DOCTYPE svg PUBLIC "-//W3C//DTD SVG 1.1//EN" "http://www.w3.org/Graphics/SVG/1.1/DTD/svg11.dtd">
<svg width="792" height="726" viewBox="0 0 792 726" style="fill:none;stroke:none;fill-rule:evenodd;clip-rule:evenodd;stroke-linecap:round;stroke-linejoin:round;stroke-miterlimit:1.5;" version="1.1" xmlns="http://www.w3.org/2000/svg" xmlns:xlink="http://www.w3.org/1999/xlink"><style class="text-font-style fontImports" data-font-family="Shantell Sans">@import url('https://fonts.googleapis.com/css2?family=Shantell+Sans:wght@300..800&amp;display=block');</style><g id="items" style="isolation: isolate"><g id="blend" style="mix-blend-mode: normal"><g id="g-root-cp_0_g-0_1hegc9t1spr4ec-fill" data-item-order="-522278" transform="translate(259.45001220703125, 235.4599609375)"><g id="cp_0_g-0_1hegc9t1spr4ec-fill" stroke="none" fill="#ffffff"><g><path d="M 263.1 136.54L 242.98 122.36L 242.98 130.52L 208.2 130.52C 206.93 115.19 200.85 101.22 191.47 90.13L 216.06 65.54L 221.83 71.31L 226.03 47.06L 201.78 51.26L 207.55 57.03C 207.55 57.03 202.55 62.03 196.64 67.94C 191.97 72.61 186.73 77.85 182.95 81.63C 171.86 72.25 157.9 66.18 142.56 64.9L 142.56 30.12L 150.72 30.12L 136.54 10L 122.36 30.12L 130.52 30.12L 130.52 64.9C 115.19 66.17 101.22 72.25 90.13 81.63L 65.54 57.04L 71.31 51.27L 47.06 47.07L 51.26 71.32L 57.03 65.55C 57.03 65.55 62.03 70.55 67.94 76.46C 72.61 81.13 77.85 86.37 81.63 90.15C 72.25 101.24 66.18 115.2 64.9 130.54L 30.12 130.54L 30.12 122.38L 10 136.56L 30.12 150.74L 30.12 142.58L 64.9 142.58C 66.17 157.91 72.25 171.88 81.63 182.97L 57.04 207.56L 51.27 201.79L 47.07 226.04L 71.32 221.84L 65.55 216.07C 65.55 216.07 70.55 211.07 76.46 205.16C 81.13 200.49 86.37 195.25 90.15 191.47C 101.24 200.85 115.2 206.92 130.54 208.2L 130.54 242.98L 122.38 242.98L 136.56 263.1L 150.74 242.98L 142.58 242.98L 142.58 208.2C 157.91 206.93 171.88 200.85 182.97 191.47L 207.56 216.06L 201.79 221.83L 226.04 226.03L 221.84 201.78L 216.07 207.55C 216.07 207.55 211.07 202.55 205.16 196.64C 200.49 191.97 195.25 186.73 191.47 182.95C 200.85 171.86 206.92 157.9 208.2 142.56L 242.98 142.56L 242.98 150.72L 263.1 136.54Z"></path></g></g></g><g id="g-root-cp_1_g-1_hwisdd1spr572-fill" data-item-order="-522274" transform="translate(354.739990234375, 156.8199462890625)"><g id="cp_1_g-1_hwisdd1spr572-fill" stroke="none" fill="#43dd93"><g><path d="M 72.52 41.26C 72.52 58.5244 58.5244 72.52 41.26 72.52C 23.9956 72.52 10 58.5244 10 41.26C 10 23.9956 23.9956 10 41.26 10C 58.5244 10 72.52 23.9956 72.52 41.26Z"></path></g></g></g><g id="g-root-cp_2_g-2_1hgbrj51spr3eo-fill" data-item-order="-522270" transform="translate(477.719970703125, 207.7589111328125)"><g id="cp_2_g-2_1hgbrj51spr3eo-fill" stroke="none" fill="#ffe711"><g><path d="M 72.52 41.26C 72.52 58.5244 58.5244 72.52 41.26 72.52C 23.9956 72.52 10 58.5244 10 41.26C 10 23.9956 23.9956 10 41.26 10C 58.5244 10 72.52 23.9956 72.52 41.26Z"></path></g></g></g><g id="g-root-cp_3_g-3_qu17vl1spr3eq-fill" data-item-order="-522266" transform="translate(528.6600341796875, 330.739990234375)"><g id="cp_3_g-3_qu17vl1spr3eq-fill" stroke="none" fill="#f79438"><g><path d="M 72.52 41.26C 72.52 58.5244 58.5244 72.52 41.26 72.52C 23.9956 72.52 10 58.5244 10 41.26C 10 23.9956 23.9956 10 41.26 10C 58.5244 10 72.52 23.9956 72.52 41.26Z"></path></g></g></g><g id="g-root-cp_4_g-4_7qo811spr3es-fill" data-item-order="-522262" transform="translate(477.719970703125, 453.719970703125)"><g id="cp_4_g-4_7qo811spr3es-fill" stroke="none" fill="#1ac3fb"><g><path d="M 72.52 41.26C 72.52 58.5244 58.5244 72.52 41.26 72.52C 23.9956 72.52 10 58.5244 10 41.26C 10 23.9956 23.9956 10 41.26 10C 58.5244 10 72.52 23.9956 72.52 41.26Z"></path></g></g></g><g id="g-root-cp_5_g-5_1d1r7kx1spr5la-fill" data-item-order="-522258" transform="translate(354.739990234375, 504.659912109375)"><g id="cp_5_g-5_1d1r7kx1spr5la-fill" stroke="none" fill="#f366bb"><g><path d="M 72.52 41.26C 72.52 58.5244 58.5244 72.52 41.26 72.52C 23.9956 72.52 10 58.5244 10 41.26C 10 23.9956 23.9956 10 41.26 10C 58.5244 10 72.52 23.9956 72.52 41.26Z"></path></g></g></g><g id="g-root-cp_6_g-6_4ot4ip1spr4so-fill" data-item-order="-522254" transform="translate(231.760009765625, 453.719970703125)"><g id="cp_6_g-6_4ot4ip1spr4so-fill" stroke="none" fill="#cb68f9"><g><path d="M 72.52 41.26C 72.52 58.5244 58.5244 72.52 41.26 72.52C 23.9956 72.52 10 58.5244 10 41.26C 10 23.9956 23.9956 10 41.26 10C 58.5244 10 72.52 23.9956 72.52 41.26Z"></path></g></g></g><g id="g-root-cp_7_g-7_1qf357l1spr30q-fill" data-item-order="-522250" transform="translate(180.82000732421875, 330.739990234375)"><g id="cp_7_g-7_1qf357l1spr30q-fill" stroke="none" fill="#a6da37"><g><path d="M 72.52 41.26C 72.52 58.5244 58.5244 72.52 41.26 72.52C 23.9956 72.52 10 58.5244 10 41.26C 10 23.9956 23.9956 10 41.26 10C 58.5244 10 72.52 23.9956 72.52 41.26Z"></path></g></g></g><g id="g-root-cp_8_g-8_zit0691spshl8-fill" data-item-order="-522246" transform="translate(231.760009765625, 207.7589111328125)"><g id="cp_8_g-8_zit0691spshl8-fill" stroke="none" fill="#8769fd"><g><path d="M 72.52 41.26C 72.52 58.5244 58.5244 72.52 41.26 72.52C 23.9956 72.52 10 58.5244 10 41.26C 10 23.9956 23.9956 10 41.26 10C 58.5244 10 72.52 23.9956 72.52 41.26Z"></path></g></g></g><g id="g-root-tx_formsasi_1qbzk811sp8umi-fill" data-item-order="0" transform="translate(554, 188)"><g id="tx_formsasi_1qbzk811sp8umi-fill" stroke="none" fill="#ffe711"><g><text style="font: 10px &quot;Shantell Sans&quot;, cursive; white-space: pre;" font-size="10px" font-family="'Shantell Sans', cursive"><tspan x="12" y="22.8" dominant-baseline="ideographic">Forms a significant </tspan><tspan x="12" y="34.8" dominant-baseline="ideographic">portion of the exam </tspan><tspan x="12" y="46.8" dominant-baseline="ideographic">content.</tspan></text></g></g></g><g id="g-root-ic_moni_147drmp1spmvwm-fill" data-item-order="0" transform="translate(245, 221)"></g><g id="g-root-ic_1_mah1k11spd3wh-fill" data-item-order="0" transform="translate(491, 221)"></g><g id="g-root-tx_coversfu_qp27mp1spbnk6-fill" data-item-order="0" transform="translate(110, 188)"><g id="tx_coversfu_qp27mp1spbnk6-fill" stroke="none" fill="#8769fd"><g><text style="font: 10px &quot;Shantell Sans&quot;, cursive; white-space: pre;" font-size="10px" font-family="'Shantell Sans', cursive"><tspan x="19.57" y="22.8" dominant-baseline="ideographic">Covers fundamental </tspan><tspan x="26.19" y="34.8" dominant-baseline="ideographic">computer skills for </tspan><tspan x="44.77" y="46.8" dominant-baseline="ideographic">specific exams.</tspan></text></g></g></g><g id="g-root-tx_generala_1qd8ie91spaa6j-fill" data-item-order="0" transform="translate(62, 323)"><g id="tx_generala_1qd8ie91spaa6j-fill" stroke="none" fill="#a6da37"><g><text style="font: bold 15px &quot;Shantell Sans&quot;, cursive; white-space: pre;" font-weight="bold" font-size="15px" font-family="'Shantell Sans', cursive"><tspan x="41.65" y="28.77" dominant-baseline="ideographic">General </tspan><tspan x="17.83" y="46.77" dominant-baseline="ideographic">Awareness</tspan></text></g></g></g><g id="g-root-ic_math_1lsef4x1spsirz-fill" data-item-order="0" transform="translate(368, 170)"></g><g id="g-root-ic_math_vcc3dt1szmgow-fill" data-item-order="0" transform="translate(350, 325.9959716796875)"></g><g id="g-root-tx_coretech_1hf3lsx1sp8u0x-fill" data-item-order="0" transform="translate(554, 122)"><g id="tx_coretech_1hf3lsx1sp8u0x-fill" stroke="none" fill="#ffe711"><g><text style="font: bold 15px &quot;Shantell Sans&quot;, cursive; white-space: pre;" font-weight="bold" font-size="15px" font-family="'Shantell Sans', cursive"><tspan x="12" y="40.77" dominant-baseline="ideographic">Core Technical </tspan><tspan x="12" y="58.77" dominant-baseline="ideographic">Subjects</tspan></text></g></g></g><g id="g-root-tx_measurem_v9vig11sp8ver-fill" data-item-order="0" transform="translate(614, 323)"><g id="tx_measurem_v9vig11sp8ver-fill" stroke="none" fill="#f79438"><g><text style="font: bold 15px &quot;Shantell Sans&quot;, cursive; white-space: pre;" font-weight="bold" font-size="15px" font-family="'Shantell Sans', cursive"><tspan x="12" y="28.77" dominant-baseline="ideographic">Measurements &amp; </tspan><tspan x="12" y="46.77" dominant-baseline="ideographic">Instrumentation</tspan></text></g></g></g><g id="g-root-ic_woma_925cf51spmvil-fill" data-item-order="0" transform="translate(194, 343)"></g><g id="g-root-ic_ther_1lt15pd1spocga-fill" data-item-order="0" transform="translate(542, 344)"></g><g id="g-root-tx_includes_4otwyp1spaays-fill" data-item-order="0" transform="translate(62, 365)"><g id="tx_includes_4otwyp1spaays-fill" stroke="none" fill="#a6da37"><g><text style="font: 10px &quot;Shantell Sans&quot;, cursive; white-space: pre;" font-size="10px" font-family="'Shantell Sans', cursive"><tspan x="15.81" y="22.8" dominant-baseline="ideographic">Includes technical </tspan><tspan x="16.39" y="34.8" dominant-baseline="ideographic">and non-technical </tspan><tspan x="49" y="46.8" dominant-baseline="ideographic">knowledge.</tspan></text></g></g></g><g id="g-root-tx_crucialf_1d2eh411sp8v7o-fill" data-item-order="0" transform="translate(614, 365)"><g id="tx_crucialf_1d2eh411sp8v7o-fill" stroke="none" fill="#f79438"><g><text style="font: 10px &quot;Shantell Sans&quot;, cursive; white-space: pre;" font-size="10px" font-family="'Shantell Sans', cursive"><tspan x="12" y="22.8" dominant-baseline="ideographic">Crucial for accurate </tspan><tspan x="12" y="34.8" dominant-baseline="ideographic">system design across </tspan><tspan x="12" y="46.8" dominant-baseline="ideographic">streams.</tspan></text></g></g></g><g id="g-root-tx_basiccom_8wj8yp1spbnr9-fill" data-item-order="0" transform="translate(86, 122)"><g id="tx_basiccom_8wj8yp1spbnr9-fill" stroke="none" fill="#8769fd"><g><text style="font: bold 15px &quot;Shantell Sans&quot;, cursive; white-space: pre;" font-weight="bold" font-size="15px" font-family="'Shantell Sans', cursive"><tspan x="20.48" y="40.77" dominant-baseline="ideographic">Basic Computer </tspan><tspan x="15.04" y="58.77" dominant-baseline="ideographic">&amp; IT Knowledge</tspan></text></g></g></g><g id="g-root-tx_essentia_mb44rl1sp8vsw-fill" data-item-order="0" transform="translate(332, 80)"><g id="tx_essentia_mb44rl1sp8vsw-fill" stroke="none" fill="#43dd93"><g><text style="font: 10px &quot;Shantell Sans&quot;, cursive; white-space: pre;" font-size="10px" font-family="'Shantell Sans', cursive"><tspan x="32.01" y="22.8" dominant-baseline="ideographic">Essential for </tspan><tspan x="16.07" y="34.8" dominant-baseline="ideographic">technical questions </tspan><tspan x="24.91" y="46.8" dominant-baseline="ideographic">in almost every </tspan><tspan x="48.27" y="58.8" dominant-baseline="ideographic">exam.</tspan></text></g></g></g><g id="g-root-ic_puzz_1hegv8h1spa9l0-fill" data-item-order="0" transform="translate(245, 467)"></g><g id="g-root-ic_twel_qssmch1spmw3n-fill" data-item-order="0" transform="translate(491, 467)"></g><g id="g-root-tx_logicalr_1heh4pt1spaakp-fill" data-item-order="0" transform="translate(38, 498)"><g id="tx_logicalr_1heh4pt1spaakp-fill" stroke="none" fill="#cb68f9"><g><text style="font: bold 15px &quot;Shantell Sans&quot;, cursive; white-space: pre;" font-weight="bold" font-size="15px" font-family="'Shantell Sans', cursive"><tspan x="30.4" y="34.77" dominant-baseline="ideographic">Logical Reasoning &amp; </tspan><tspan x="50.95" y="52.77" dominant-baseline="ideographic">Analytical Ability</tspan></text></g></g></g><g id="g-root-tx_engineer_m9v6ld1sp8tmv-fill" data-item-order="0" transform="translate(332, 38)"><g id="tx_engineer_m9v6ld1sp8tmv-fill" stroke="none" fill="#43dd93"><g><text style="font: bold 15px &quot;Shantell Sans&quot;, cursive; white-space: pre;" font-weight="bold" font-size="15px" font-family="'Shantell Sans', cursive"><tspan x="17.2" y="28.77" dominant-baseline="ideographic">Engineering </tspan><tspan x="12.25" y="46.77" dominant-baseline="ideographic">Mathematics</tspan></text></g></g></g><g id="g-root-tx_quantita_1lzafj51sp8vt9-fill" data-item-order="0" transform="translate(554, 498)"><g id="tx_quantita_1lzafj51sp8vt9-fill" stroke="none" fill="#1ac3fb"><g><text style="font: bold 15px &quot;Shantell Sans&quot;, cursive; white-space: pre;" font-weight="bold" font-size="15px" font-family="'Shantell Sans', cursive"><tspan x="12" y="28.77" dominant-baseline="ideographic">Quantitative </tspan><tspan x="12" y="46.77" dominant-baseline="ideographic">Aptitude</tspan></text></g></g></g><g id="g-root-tx_evaluate_18hl6ap1spa9z4-fill" data-item-order="0" transform="translate(320, 656)"><g id="tx_evaluate_18hl6ap1spa9z4-fill" stroke="none" fill="#f366bb"><g><text style="font: 10px &quot;Shantell Sans&quot;, cursive; white-space: pre;" font-size="10px" font-family="'Shantell Sans', cursive"><tspan x="16.81" y="22.8" dominant-baseline="ideographic">Evaluates data analysis </tspan><tspan x="18.79" y="34.8" dominant-baseline="ideographic">skills using graphs and </tspan><tspan x="57.76" y="46.8" dominant-baseline="ideographic">charts.</tspan></text></g></g></g><g id="g-root-tx_assesses_18kpjq91spaadm-fill" data-item-order="0" transform="translate(38, 552)"><g id="tx_assesses_18kpjq91spaadm-fill" stroke="none" fill="#cb68f9"><g><text style="font: 10px &quot;Shantell Sans&quot;, cursive; white-space: pre;" font-size="10px" font-family="'Shantell Sans', cursive"><tspan x="25.19" y="28.8" dominant-baseline="ideographic">Assesses analytical skills through </tspan><tspan x="74.89" y="40.8" dominant-baseline="ideographic">puzzles and syllogisms.</tspan></text></g></g></g><g id="g-root-tx_testsbas_4gpqu91spaadq-fill" data-item-order="0" transform="translate(554, 540)"><g id="tx_testsbas_4gpqu91spaadq-fill" stroke="none" fill="#1ac3fb"><g><text style="font: 10px &quot;Shantell Sans&quot;, cursive; white-space: pre;" font-size="10px" font-family="'Shantell Sans', cursive"><tspan x="12" y="22.8" dominant-baseline="ideographic">Tests basic </tspan><tspan x="12" y="34.8" dominant-baseline="ideographic">mathematical skills </tspan><tspan x="12" y="46.8" dominant-baseline="ideographic">with real-world </tspan><tspan x="12" y="58.8" dominant-baseline="ideographic">applications.</tspan></text></g></g></g><g id="g-root-tx_numerica_m98pi91spaa6n-fill" data-item-order="0" transform="translate(320, 590)"><g id="tx_numerica_m98pi91spaa6n-fill" stroke="none" fill="#f366bb"><g><text style="font: bold 15px &quot;Shantell Sans&quot;, cursive; white-space: pre;" font-weight="bold" font-size="15px" font-family="'Shantell Sans', cursive"><tspan x="28.71" y="31.77" dominant-baseline="ideographic">Numerical &amp; </tspan><tspan x="57.11" y="49.77" dominant-baseline="ideographic">Data </tspan><tspan x="18.11" y="67.77" dominant-baseline="ideographic">Interpretation</tspan></text></g></g></g><g id="g-root-ic_bars_1q88ppd1spbo5r-fill" data-item-order="0" transform="translate(368, 518)"></g><g id="g-root-cp_0_g-0_1hegc9t1spr4ec-stroke" data-item-order="-522278" transform="translate(259.45001220703125, 235.4599609375)"><g id="cp_0_g-0_1hegc9t1spr4ec-stroke" fill="none" stroke-linecap="round" stroke-linejoin="round" stroke-miterlimit="4" stroke="#2c2c2c" stroke-width="2"><g><path d="M 263.1 136.54L 242.98 122.36L 242.98 130.52L 208.2 130.52C 206.93 115.19 200.85 101.22 191.47 90.13L 216.06 65.54L 221.83 71.31L 226.03 47.06L 201.78 51.26L 207.55 57.03C 207.55 57.03 202.55 62.03 196.64 67.94C 191.97 72.61 186.73 77.85 182.95 81.63C 171.86 72.25 157.9 66.18 142.56 64.9L 142.56 30.12L 150.72 30.12L 136.54 10L 122.36 30.12L 130.52 30.12L 130.52 64.9C 115.19 66.17 101.22 72.25 90.13 81.63L 65.54 57.04L 71.31 51.27L 47.06 47.07L 51.26 71.32L 57.03 65.55C 57.03 65.55 62.03 70.55 67.94 76.46C 72.61 81.13 77.85 86.37 81.63 90.15C 72.25 101.24 66.18 115.2 64.9 130.54L 30.12 130.54L 30.12 122.38L 10 136.56L 30.12 150.74L 30.12 142.58L 64.9 142.58C 66.17 157.91 72.25 171.88 81.63 182.97L 57.04 207.56L 51.27 201.79L 47.07 226.04L 71.32 221.84L 65.55 216.07C 65.55 216.07 70.55 211.07 76.46 205.16C 81.13 200.49 86.37 195.25 90.15 191.47C 101.24 200.85 115.2 206.92 130.54 208.2L 130.54 242.98L 122.38 242.98L 136.56 263.1L 150.74 242.98L 142.58 242.98L 142.58 208.2C 157.91 206.93 171.88 200.85 182.97 191.47L 207.56 216.06L 201.79 221.83L 226.04 226.03L 221.84 201.78L 216.07 207.55C 216.07 207.55 211.07 202.55 205.16 196.64C 200.49 191.97 195.25 186.73 191.47 182.95C 200.85 171.86 206.92 157.9 208.2 142.56L 242.98 142.56L 242.98 150.72L 263.1 136.54Z"></path></g></g></g><g id="g-root-cp_1_g-1_hwisdd1spr572-stroke" data-item-order="-522274" transform="translate(354.739990234375, 156.8199462890625)"><g id="cp_1_g-1_hwisdd1spr572-stroke" fill="none" stroke-linecap="round" stroke-linejoin="round" stroke-miterlimit="4" stroke="#2c2c2c" stroke-width="2"><g><path d="M 72.52 41.26C 72.52 58.5244 58.5244 72.52 41.26 72.52C 23.9956 72.52 10 58.5244 10 41.26C 10 23.9956 23.9956 10 41.26 10C 58.5244 10 72.52 23.9956 72.52 41.26Z"></path></g></g></g><g id="g-root-cp_2_g-2_1hgbrj51spr3eo-stroke" data-item-order="-522270" transform="translate(477.719970703125, 207.7589111328125)"><g id="cp_2_g-2_1hgbrj51spr3eo-stroke" fill="none" stroke-linecap="round" stroke-linejoin="round" stroke-miterlimit="4" stroke="#2c2c2c" stroke-width="2"><g><path d="M 72.52 41.26C 72.52 58.5244 58.5244 72.52 41.26 72.52C 23.9956 72.52 10 58.5244 10 41.26C 10 23.9956 23.9956 10 41.26 10C 58.5244 10 72.52 23.9956 72.52 41.26Z"></path></g></g></g><g id="g-root-cp_3_g-3_qu17vl1spr3eq-stroke" data-item-order="-522266" transform="translate(528.6600341796875, 330.739990234375)"><g id="cp_3_g-3_qu17vl1spr3eq-stroke" fill="none" stroke-linecap="round" stroke-linejoin="round" stroke-miterlimit="4" stroke="#2c2c2c" stroke-width="2"><g><path d="M 72.52 41.26C 72.52 58.5244 58.5244 72.52 41.26 72.52C 23.9956 72.52 10 58.5244 10 41.26C 10 23.9956 23.9956 10 41.26 10C 58.5244 10 72.52 23.9956 72.52 41.26Z"></path></g></g></g><g id="g-root-cp_4_g-4_7qo811spr3es-stroke" data-item-order="-522262" transform="translate(477.719970703125, 453.719970703125)"><g id="cp_4_g-4_7qo811spr3es-stroke" fill="none" stroke-linecap="round" stroke-linejoin="round" stroke-miterlimit="4" stroke="#2c2c2c" stroke-width="2"><g><path d="M 72.52 41.26C 72.52 58.5244 58.5244 72.52 41.26 72.52C 23.9956 72.52 10 58.5244 10 41.26C 10 23.9956 23.9956 10 41.26 10C 58.5244 10 72.52 23.9956 72.52 41.26Z"></path></g></g></g><g id="g-root-cp_5_g-5_1d1r7kx1spr5la-stroke" data-item-order="-522258" transform="translate(354.739990234375, 504.659912109375)"><g id="cp_5_g-5_1d1r7kx1spr5la-stroke" fill="none" stroke-linecap="round" stroke-linejoin="round" stroke-miterlimit="4" stroke="#2c2c2c" stroke-width="2"><g><path d="M 72.52 41.26C 72.52 58.5244 58.5244 72.52 41.26 72.52C 23.9956 72.52 10 58.5244 10 41.26C 10 23.9956 23.9956 10 41.26 10C 58.5244 10 72.52 23.9956 72.52 41.26Z"></path></g></g></g><g id="g-root-cp_6_g-6_4ot4ip1spr4so-stroke" data-item-order="-522254" transform="translate(231.760009765625, 453.719970703125)"><g id="cp_6_g-6_4ot4ip1spr4so-stroke" fill="none" stroke-linecap="round" stroke-linejoin="round" stroke-miterlimit="4" stroke="#2c2c2c" stroke-width="2"><g><path d="M 72.52 41.26C 72.52 58.5244 58.5244 72.52 41.26 72.52C 23.9956 72.52 10 58.5244 10 41.26C 10 23.9956 23.9956 10 41.26 10C 58.5244 10 72.52 23.9956 72.52 41.26Z"></path></g></g></g><g id="g-root-cp_7_g-7_1qf357l1spr30q-stroke" data-item-order="-522250" transform="translate(180.82000732421875, 330.739990234375)"><g id="cp_7_g-7_1qf357l1spr30q-stroke" fill="none" stroke-linecap="round" stroke-linejoin="round" stroke-miterlimit="4" stroke="#2c2c2c" stroke-width="2"><g><path d="M 72.52 41.26C 72.52 58.5244 58.5244 72.52 41.26 72.52C 23.9956 72.52 10 58.5244 10 41.26C 10 23.9956 23.9956 10 41.26 10C 58.5244 10 72.52 23.9956 72.52 41.26Z"></path></g></g></g><g id="g-root-cp_8_g-8_zit0691spshl8-stroke" data-item-order="-522246" transform="translate(231.760009765625, 207.7589111328125)"><g id="cp_8_g-8_zit0691spshl8-stroke" fill="none" stroke-linecap="round" stroke-linejoin="round" stroke-miterlimit="4" stroke="#2c2c2c" stroke-width="2"><g><path d="M 72.52 41.26C 72.52 58.5244 58.5244 72.52 41.26 72.52C 23.9956 72.52 10 58.5244 10 41.26C 10 23.9956 23.9956 10 41.26 10C 58.5244 10 72.52 23.9956 72.52 41.26Z"></path></g></g></g><g id="g-root-tx_formsasi_1qbzk811sp8umi-stroke" data-item-order="0" transform="translate(554, 188)"></g><g id="g-root-ic_moni_147drmp1spmvwm-stroke" data-item-order="0" transform="translate(245, 221)"><g id="ic_moni_147drmp1spmvwm-stroke" fill="none" stroke-linecap="round" stroke-linejoin="round" stroke-miterlimit="4" stroke="#2c2c2c" stroke-width="2"><g><path d="M 17.5 43L 38.5 43M 27.25 40L 27.25 43M 10.75 35.5L 45.25 35.5M 22.75 16.75L 23.5 16.75C 23.914213 16.75 24.25 17.085787 24.25 17.5L 24.25 22.75M 22.75 22.75L 25.75 22.75M 30.25 25.75L 31 25.75C 31.414213 25.75 31.75 26.085787 31.75 26.5L 31.75 31.75M 30.25 31.75L 33.25 31.75M 15.25 25.75L 16 25.75C 16.414213 25.75 16.75 26.085787 16.75 26.5L 16.75 31.75M 15.25 31.75L 18.25 31.75M 37.75 16.75L 38.5 16.75C 38.914215 16.75 39.25 17.085787 39.25 17.5L 39.25 22.75M 37.75 22.75L 40.75 22.75M 18.25 21.25C 18.25 22.078428 17.578426 22.75 16.75 22.75C 15.921573 22.75 15.25 22.078428 15.25 21.25L 15.25 18.25C 15.25 17.421574 15.921573 16.75 16.75 16.75C 17.578426 16.75 18.25 17.421574 18.25 18.25ZM 25.75 30.25C 25.75 31.078428 25.078428 31.75 24.25 31.75C 23.421572 31.75 22.75 31.078428 22.75 30.25L 22.75 27.25C 22.75 26.421572 23.421572 25.75 24.25 25.75C 25.078428 25.75 25.75 26.421572 25.75 27.25ZM 40.75 30.25C 40.75 31.078428 40.078426 31.75 39.25 31.75C 38.421574 31.75 37.75 31.078428 37.75 30.25L 37.75 27.25C 37.75 26.421572 38.421574 25.75 39.25 25.75C 40.078426 25.75 40.75 26.421572 40.75 27.25ZM 33.25 21.25C 33.25 22.078428 32.578426 22.75 31.75 22.75C 30.921572 22.75 30.25 22.078428 30.25 21.25L 30.25 18.25C 30.25 17.421574 30.921572 16.75 31.75 16.75C 32.578426 16.75 33.25 17.421574 33.25 18.25ZM 13 13L 43 13C 43 13 45.25 13 45.25 15.25L 45.25 37.75C 45.25 37.75 45.25 40 43 40L 13 40C 13 40 10.75 40 10.75 37.75L 10.75 15.25C 10.75 15.25 10.75 13 13 13"></path></g></g></g><g id="g-root-ic_1_mah1k11spd3wh-stroke" data-item-order="0" transform="translate(491, 221)"><g id="ic_1_mah1k11spd3wh-stroke" fill="none" stroke-linecap="round" stroke-linejoin="round" stroke-miterlimit="4" stroke="#2c2c2c" stroke-width="2"><g><path d="M 27.849998 31.825001L 27.849998 35.125M 41.724998 35.125C 41.724998 34.224998 41.125 33.625 40.224998 33.625L 15.47503 33.625C 14.57503 33.625 13.97503 34.224998 13.97503 35.125M 25.75 23.575001L 25.75 12.625C 25.75 11.725 26.349998 11.125 27.25 11.125L 28.75 11.125C 29.650002 11.125 30.25 11.725 30.25 12.625L 30.25 23.424999M 39.25 26.575001C 39.25 27.474998 38.650002 28.075001 37.75 28.075001L 18.25 28.075001C 17.35 28.075001 16.75 27.474998 16.75 26.575001L 16.75 25.075001C 16.75 24.174986 17.35 23.574986 18.25 23.574986L 37.75 23.574986C 38.650002 23.574986 39.25 24.174986 39.25 25.075001L 39.25 26.575001ZM 30.25 14.125C 34.150002 15.175 37 18.625 37 22.825001L 37 23.575001M 25.75 14.125C 21.85 15.175 19 18.625 19 22.825001L 19 23.575001M 17.125 44.875L 11.125 44.875L 11.125 41.875L 14.125 38.875L 17.125 41.875L 17.125 44.875ZM 30.625 44.875L 24.625 44.875L 24.625 41.875L 27.625 38.875L 30.625 41.875L 30.625 44.875ZM 44.875 44.875L 38.875 44.875L 38.875 41.875L 41.875 38.875L 44.875 41.875L 44.875 44.875Z"></path></g></g></g><g id="g-root-tx_coversfu_qp27mp1spbnk6-stroke" data-item-order="0" transform="translate(110, 188)"></g><g id="g-root-tx_generala_1qd8ie91spaa6j-stroke" data-item-order="0" transform="translate(62, 323)"></g><g id="g-root-ic_math_1lsef4x1spsirz-stroke" data-item-order="0" transform="translate(368, 170)"><g id="ic_math_1lsef4x1spsirz-stroke" fill="none" stroke-linecap="round" stroke-linejoin="round" stroke-miterlimit="4" stroke="#2c2c2c" stroke-width="2"><g><path d="M 11.124908 43.074852L 11.724895 43.074852C 14.874895 43.074852 17.574881 40.824997 18.174881 37.675003L 22.074894 18.324896C 22.674896 15.174895 25.374849 12.924925 28.524851 12.924925L 29.124849 12.924925M 29.72485 43.074997C 28.07485 41.425003 27.024851 38.425003 27.024851 34.824997C 27.024851 31.224998 28.07485 28.224998 29.72485 26.575001M 42.175003 43.074997C 43.824997 41.425003 44.875 38.425003 44.875 34.824997C 44.875 31.224998 43.824997 28.224998 42.175003 26.575001M 10 10M 32.424999 29.124699L 39.324997 40.374699M 10 10M 39.324997 29.124699L 32.424999 40.374699M 15.774865 24.924925L 25.07485 24.924925"></path></g></g></g><g id="g-root-ic_math_vcc3dt1szmgow-stroke" data-item-order="0" transform="translate(350, 325.9959716796875)"><g id="ic_math_vcc3dt1szmgow-stroke" fill="none" stroke-linecap="butt" stroke-linejoin="miter" stroke-miterlimit="4" stroke="#2c2c2c" stroke-width="4"><g><path d="M 78.787003 79.471001C 76.608513 73.782814 71.121742 70.049896 65.030991 70.112099C 58.940235 70.174309 53.530853 74.018509 51.468998 79.75M 75.415001 55.491997C 75.47831 59.190193 73.541595 62.63488 70.348999 64.502495C 67.156403 66.370102 63.204601 66.370102 60.012009 64.502495C 56.819412 62.63488 54.88269 59.190193 54.945999 55.492001M 68.733994 42.901001C 73.561722 44.462196 76.83297 48.95713 76.834007 54.031002M 53.431 55.491997L 53.431 54.030998C 53.431042 48.660103 57.087818 43.979034 62.299004 42.679001M 50.506001 55.491997L 79.75 55.491997M 43.959999 63.040001L 41.776001 60.618996C 40.912064 59.663925 39.684349 59.118996 38.3965 59.118996C 37.10865 59.118996 35.880936 59.663925 35.016998 60.618996L 32.830002 63.040001C 31.538654 64.467957 29.48885 64.929573 27.710054 64.193008C 25.931257 63.456444 24.807835 61.680862 24.903999 59.757996L 25.072001 56.5C 25.137293 55.213623 24.654797 53.959755 23.744019 53.048981C 22.833241 52.138203 21.579376 51.655704 20.292999 51.721001L 17.035 51.886002C 15.110497 51.985821 13.331749 50.862705 12.594486 49.082222C 11.857223 47.301739 12.321292 45.249916 13.753 43.959999L 16.174 41.776001C 17.129076 40.912064 17.674004 39.684349 17.674004 38.3965C 17.674004 37.10865 17.129076 35.880936 16.174 35.016998L 13.753 32.833C 12.32257 31.542126 11.85933 29.490734 12.596236 27.710438C 13.333142 25.930145 15.1107 24.806271 17.035 24.903999L 20.292999 25.072001C 21.579117 25.136341 22.832417 24.653538 23.742977 23.742977C 24.653538 22.832417 25.136341 21.579117 25.072001 20.292999L 24.903999 17.035C 24.807835 15.112138 25.931257 13.336551 27.710054 12.599986C 29.48885 11.863421 31.538654 12.325038 32.829998 13.753L 35.016998 16.174C 35.880936 17.129076 37.10865 17.674004 38.3965 17.674004C 39.684349 17.674004 40.912064 17.129076 41.776001 16.174L 43.959999 13.753C 45.249916 12.321292 47.301739 11.857223 49.082222 12.594486C 50.862705 13.331749 51.985821 15.110497 51.886002 17.035L 51.721001 20.292999C 51.655704 21.579376 52.138203 22.833241 53.048981 23.744019C 53.959755 24.654797 55.213623 25.137293 56.499996 25.071999L 59.758003 24.903999C 61.682297 24.806271 63.459854 25.930145 64.196762 27.710438C 64.93367 29.490734 64.470428 31.542126 63.040001 32.833L 60.618996 35.016998M 27.937 38.395C 27.937002 44.170795 32.619209 48.853004 38.395004 48.853004C 44.170795 48.853004 48.853004 44.170795 48.853004 38.395004C 48.853004 32.619209 44.170795 27.937002 38.395004 27.937002C 32.619209 27.937002 27.937002 32.619209 27.937002 38.395004M 67.561005 48.126999L 63.061001 48.126999L 62.056 41.043999C 61.994789 40.611252 62.125366 40.173328 62.413582 39.844769C 62.70179 39.516209 63.118965 39.329693 63.556 39.334L 67.084 39.334C 67.521034 39.329693 67.93821 39.516209 68.226425 39.844769C 68.514633 40.173328 68.64521 40.611252 68.584 41.043999Z"></path></g></g></g><g id="g-root-tx_coretech_1hf3lsx1sp8u0x-stroke" data-item-order="0" transform="translate(554, 122)"></g><g id="g-root-tx_measurem_v9vig11sp8ver-stroke" data-item-order="0" transform="translate(614, 323)"></g><g id="g-root-ic_woma_925cf51spmvil-stroke" data-item-order="0" transform="translate(194, 343)"><g id="ic_woma_925cf51spmvil-stroke" fill="none" stroke-linecap="round" stroke-linejoin="round" stroke-miterlimit="4" stroke="#2c2c2c" stroke-width="2"><g><path d="M 20.860001 23.5C 20.629869 22.771816 20.50856 22.013634 20.5 21.25L 20.5 18.25C 20.5 14.107864 23.857864 10.75 28 10.75C 32.142136 10.75 35.5 14.107864 35.5 18.25L 35.5 21.25C 35.500954 22.087921 35.358917 22.919861 35.079998 23.709999M 20.5 19C 20.5 19 23.5 19.75 26.5 16C 26.5 16 28.75 19 35.5 19M 24.25 20.875C 24.457108 20.875 24.625 21.042892 24.625 21.25C 24.625 21.457108 24.457108 21.625 24.25 21.625C 24.042892 21.625 23.875 21.457108 23.875 21.25C 23.875 21.042892 24.042892 20.875 24.25 20.875M 31.75 20.875C 31.957108 20.875 32.125 21.042892 32.125 21.25C 32.125 21.457108 31.957108 21.625 31.75 21.625C 31.542892 21.625 31.375 21.457108 31.375 21.25C 31.375 21.042892 31.542892 20.875 31.75 20.875M 13.75 34.704998L 13.75 40.345001C 13.727799 41.04665 14.1952 41.669849 14.875 41.845001L 28 45.25L 28 28.75L 15.7 24.865C 15.245337 24.722012 14.74978 24.803606 14.364964 25.084818C 13.980147 25.366032 13.751877 25.813385 13.75 26.289999L 13.75 28.795M 28 28.75L 40.300003 24.865C 40.754662 24.722012 41.250221 24.803606 41.635036 25.084818C 42.019852 25.366032 42.248123 25.813385 42.25 26.289999L 42.25 28.795M 42.25 34.704998L 42.25 40.345001C 42.272202 41.04665 41.804798 41.669849 41.125 41.845001L 28 45.25M 10.75 31.75C 10.75 34 12.85 34.75 14.5 34.75C 14.914213 34.75 15.25 34.414215 15.25 34L 15.25 29.5C 15.25 29.085787 14.914213 28.75 14.5 28.75C 12.85 28.75 10.75 29.5 10.75 31.75ZM 45.25 31.75C 45.25 34 43.150002 34.75 41.5 34.75C 41.085785 34.75 40.75 34.414215 40.75 34L 40.75 29.5C 40.75 29.085787 41.085785 28.75 41.5 28.75C 43.150002 28.75 45.25 29.5 45.25 31.75Z"></path></g></g></g><g id="g-root-ic_ther_1lt15pd1spocga-stroke" data-item-order="0" transform="translate(542, 344)"><g id="ic_ther_1lt15pd1spocga-stroke" fill="none" stroke-linecap="round" stroke-linejoin="round" stroke-miterlimit="4" stroke="#2c2c2c" stroke-width="2"><g><path d="M 32.177498 21.665501C 32.143002 20.454006 31.168995 19.480001 29.9575 19.445501M 36.530502 21.752501C 36.429226 18.117058 33.505943 15.193771 29.870499 15.0925M 36.530502 21.752501C 36.429226 18.117058 33.505943 15.193771 29.870499 15.0925M 40.885002 21.8395C 40.714725 15.781071 35.84343 10.909774 29.785 10.7395M 40.885002 21.8395C 40.714725 15.781071 35.84343 10.909774 29.785 10.7395M 24.115 34.073502L 24.115 13.762C 24.115 12.105145 22.771854 10.762 21.115 10.762C 19.458145 10.762 18.115 12.105145 18.115 13.762L 18.115 34.073502C 15.763192 35.43132 14.616588 38.199467 15.319445 40.822567C 16.022303 43.445667 18.399366 45.269653 21.115 45.269653C 23.830635 45.269653 26.207697 43.445667 26.910555 40.822567C 27.613413 38.199467 26.466808 35.43132 24.115 34.073502ZM 19.615 39.262001C 19.615 40.090427 20.286573 40.762001 21.115 40.762001C 21.943426 40.762001 22.615 40.090427 22.615 39.262001C 22.615 38.433571 21.943426 37.762001 21.115 37.762001C 20.286573 37.762001 19.615 38.433571 19.615 39.262001M 21.115 37.762001L 21.115 21.261999"></path></g></g></g><g id="g-root-tx_includes_4otwyp1spaays-stroke" data-item-order="0" transform="translate(62, 365)"></g><g id="g-root-tx_crucialf_1d2eh411sp8v7o-stroke" data-item-order="0" transform="translate(614, 365)"></g><g id="g-root-tx_basiccom_8wj8yp1spbnr9-stroke" data-item-order="0" transform="translate(86, 122)"></g><g id="g-root-tx_essentia_mb44rl1sp8vsw-stroke" data-item-order="0" transform="translate(332, 80)"></g><g id="g-root-ic_puzz_1hegv8h1spa9l0-stroke" data-item-order="0" transform="translate(245, 467)"><g id="ic_puzz_1hegv8h1spa9l0-stroke" fill="none" stroke-linecap="round" stroke-linejoin="round" stroke-miterlimit="4" stroke="#2c2c2c" stroke-width="2"><g><path d="M 35.650002 27.985001C 34.460819 26.845629 34.384823 24.970093 35.477921 23.738239C 36.571014 22.506388 38.442276 22.358776 39.715 23.403999C 39.805168 23.483669 39.890331 23.56883 39.970001 23.659C 40.273773 23.962473 40.513062 24.324217 40.6735 24.7225C 40.770393 24.966915 40.982262 25.147314 41.238998 25.203999C 41.4953 25.262419 41.76366 25.185421 41.949997 25L 44.338001 22.599998C 44.62466 22.307318 44.783203 21.91268 44.778702 21.503025C 44.7742 21.093372 44.607025 20.702312 44.314003 20.416L 44.313999 20.416L 41.800003 17.918499C 42.321404 17.785284 42.797157 17.513721 43.177002 17.1325C 44.362701 15.907427 44.346779 13.957815 43.141235 12.752267C 41.935684 11.54672 39.986073 11.5308 38.761002 12.7165C 38.379967 13.096247 38.108871 13.572086 37.976498 14.0935L 35.473 11.59C 34.876812 10.980179 33.899261 10.968764 33.288998 11.5645L 33.289001 11.5645L 31.066 13.7875C 30.903805 13.951191 30.824398 14.179488 30.85 14.408501C 30.876081 14.640985 31.003426 14.850114 31.198 14.98C 32.146904 15.557587 32.708935 16.603464 32.666946 17.713537C 32.624954 18.823608 31.985516 19.824038 30.995691 20.328289C 30.005865 20.832541 28.82066 20.761646 27.898001 20.143C 27.701496 20.018612 27.520258 19.871609 27.358 19.705C 27.214437 19.556313 27.086285 19.393484 26.9755 19.219C 26.844635 19.0252 26.636139 18.897696 26.403999 18.869499C 26.174536 18.84387 25.94577 18.923248 25.7815 19.085499L 23.551001 21.3025C 22.952868 21.91222 22.962269 22.891378 23.572001 23.4895L 32.403999 32.321499C 33.002472 32.930405 33.980946 32.9398 34.591 32.342499L 36.979 29.950001C 37.160801 29.765896 37.236526 29.501989 37.18 29.249502C 37.12336 28.993006 36.944565 28.780579 36.7015 28.681C 36.307438 28.522688 35.949692 28.285889 35.650002 27.985001ZM 11.2285 41.3125C 26.9785 46.5625 21.7285 46.5625 39.7285 37.5625C 38.691734 36.167946 36.894646 35.568913 35.2285 36.0625L 28.75 38.112999M 11.2285 32.969498L 15.7285 32.969498C 19.257999 32.969498 21.7285 35.969498 22.4785 35.969498L 27.7285 35.969498C 29.2285 35.969498 29.2285 38.969498 27.7285 38.969498L 19.4785 38.969498M 16.349499 33.000999C 16.349499 33.000999 17.950001 38.154999 11.2285 38.154999M 32.795498 36.8335L 34.682499 40.154503M 27.185499 38.969498L 28.8715 43.205498M 22.6315 35.969498C 22.340487 36.94833 22.340487 37.990677 22.6315 38.969501"></path></g></g></g><g id="g-root-ic_twel_qssmch1spmw3n-stroke" data-item-order="0" transform="translate(491, 467)"><g id="ic_twel_qssmch1spmw3n-stroke" fill="none" stroke-linecap="round" stroke-linejoin="round" stroke-miterlimit="4" stroke="#2c2c2c" stroke-width="2"><g><path d="M 10.75 28C 10.75 37.526913 18.473087 45.25 28 45.25C 37.526913 45.25 45.25 37.526913 45.25 28C 45.25 18.473087 37.526913 10.75 28 10.75C 18.473087 10.75 10.75 18.473087 10.75 28M 28 18.25L 28 28L 22 28M 10.75 28L 14.5 28M 12.064 21.3955L 15.529 22.830999M 15.808 15.796L 18.4585 18.449499M 21.4105 12.058L 22.843 15.5245M 28.016499 10.75L 28.012001 14.5"></path></g></g></g><g id="g-root-tx_logicalr_1heh4pt1spaakp-stroke" data-item-order="0" transform="translate(38, 498)"></g><g id="g-root-tx_engineer_m9v6ld1sp8tmv-stroke" data-item-order="0" transform="translate(332, 38)"></g><g id="g-root-tx_quantita_1lzafj51sp8vt9-stroke" data-item-order="0" transform="translate(554, 498)"></g><g id="g-root-tx_evaluate_18hl6ap1spa9z4-stroke" data-item-order="0" transform="translate(320, 656)"></g><g id="g-root-tx_assesses_18kpjq91spaadm-stroke" data-item-order="0" transform="translate(38, 552)"></g><g id="g-root-tx_testsbas_4gpqu91spaadq-stroke" data-item-order="0" transform="translate(554, 540)"></g><g id="g-root-tx_numerica_m98pi91spaa6n-stroke" data-item-order="0" transform="translate(320, 590)"></g><g id="g-root-ic_bars_1q88ppd1spbo5r-stroke" data-item-order="0" transform="translate(368, 518)"><g id="ic_bars_1q88ppd1spbo5r-stroke" fill="none" stroke-linecap="round" stroke-linejoin="round" stroke-miterlimit="4" stroke="#2c2c2c" stroke-width="2"><g><path d="M 41.816502 16.75C 42.097824 17.031239 42.255913 17.412708 42.256001 17.810499L 42.256001 43.75C 42.256001 44.578426 41.584427 45.25 40.756001 45.25L 15.25 45.25C 14.421573 45.25 13.75 44.578426 13.75 43.75L 13.75 12.25C 13.75 11.421573 14.421573 10.75 15.25 10.75L 35.199997 10.75C 35.594151 10.752853 35.97134 10.910734 36.25 11.1895ZM 19.756001 21.25L 19.756001 37.75L 37.756001 37.75M 23.5 25.75L 26.5 25.75C 26.914213 25.75 27.25 26.085787 27.25 26.5L 27.25 37.75L 27.25 37.75L 22.75 37.75L 22.75 37.75L 22.75 26.5C 22.75 26.085787 23.085787 25.75 23.5 25.75ZM 31 30.25L 34 30.25C 34.414215 30.25 34.75 30.585787 34.75 31L 34.75 37.75L 34.75 37.75L 30.25 37.75L 30.25 37.75L 30.25 31C 30.25 30.585787 30.585787 30.25 31 30.25Z"></path></g></g></g></g></g></svg>