<?xml version="1.0" encoding="utf-8" standalone="yes"?>
<!DOCTYPE svg PUBLIC "-//W3C//DTD SVG 1.1//EN" "http://www.w3.org/Graphics/SVG/1.1/DTD/svg11.dtd">
<svg width="696" height="462" viewBox="0 0 696 462" style="fill:none;stroke:none;fill-rule:evenodd;clip-rule:evenodd;stroke-linecap:round;stroke-linejoin:round;stroke-miterlimit:1.5;" version="1.1" xmlns="http://www.w3.org/2000/svg" xmlns:xlink="http://www.w3.org/1999/xlink"><style class="text-font-style fontImports" data-font-family="Shantell Sans">@import url('https://fonts.googleapis.com/css2?family=Shantell+Sans:wght@300..800&amp;display=block');</style><g id="items" style="isolation: isolate"><g id="blend" style="mix-blend-mode: normal"><g id="g-root-cp_1_g-1_1hbyvsb1kxmzv3-fill" data-item-order="-237158" transform="translate(145, 274.87890625)"><g id="cp_1_g-1_1hbyvsb1kxmzv3-fill" stroke="none" fill="#fb6762"><g><path d="M 44.25 10C 23.39 40.04 10.85 76.3 10 115.44L 125.13 115.44C 125.89 101.58 130.31 88.7 137.43 77.7L 44.24 10L 44.25 10Z"></path></g></g></g><g id="g-root-cp_2_g-2_8yebmz1kxn289-fill" data-item-order="-237152" transform="translate(184.29000854492188, 202.75)"><g id="cp_2_g-2_8yebmz1kxn289-fill" stroke="none" fill="#f79438"><g><path d="M 103.18 142.91C 111.61 132.58 122.65 124.47 135.28 119.56L 99.68 10C 63.73 22.57 32.65 45.49 10 75.2L 103.18 142.9L 103.18 142.91Z"></path></g></g></g><g id="g-root-cp_3_g-3_1cxebu31kxn2tf-fill" data-item-order="-237146" transform="translate(282.1090087890625, 192)"><g id="cp_3_g-3_1cxebu31kxn2tf-fill" stroke="none" fill="#ffe711"><g><path d="M 45.59 127.65C 51.93 125.97 58.58 125.06 65.44 125.06C 72.3 125.06 78.95 125.97 85.29 127.65L 120.88 18.11C 103.32 12.84 84.71 10 65.44 10C 46.17 10 27.56 12.84 10 18.11L 45.59 127.65Z"></path></g></g></g><g id="g-root-cp_4_g-4_dg390r1kxn0gd-fill" data-item-order="-237140" transform="translate(365.530029296875, 202.76220703125)"><g id="cp_4_g-4_dg390r1kxn0gd-fill" stroke="none" fill="#43dd93"><g><path d="M 10.01 119.55C 22.64 124.46 33.68 132.57 42.1 142.9L 135.28 75.2C 112.63 45.49 81.55 22.57 45.6 10L 10 119.56L 10.01 119.55Z"></path></g></g></g><g id="g-root-cp_5_g-5_1upxai31kxn2mf-fill" data-item-order="-237134" transform="translate(402.6700439453125, 274.87890625)"><g id="cp_5_g-5_1upxai31kxn2mf-fill" stroke="none" fill="#a6da37"><g><path d="M 10 77.7C 17.12 88.69 21.54 101.58 22.3 115.44L 137.43 115.44C 136.58 76.3 124.04 40.04 103.18 10L 10 77.7Z"></path></g></g></g><g id="g-root-tx_englishl_91hwmz1hc7qbs-fill" data-item-order="0" transform="translate(284, 86)"><g id="tx_englishl_91hwmz1hc7qbs-fill" stroke="none" fill="#ffe711"><g><text style="font: bold 11.7px &quot;Shantell Sans&quot;, cursive; white-space: pre;" font-weight="bold" font-size="11.7px" font-family="'Shantell Sans', cursive"><tspan x="35.82" y="28.51" dominant-baseline="ideographic">English </tspan><tspan x="28.33" y="42.51" dominant-baseline="ideographic">Language</tspan></text></g></g></g><g id="g-root-tx_logicalr_94ma2j1hc6dcc-fill" data-item-order="0" transform="translate(110, 134)"><g id="tx_logicalr_94ma2j1hc6dcc-fill" stroke="none" fill="#f79438"><g><text style="font: bold 11.7px &quot;Shantell Sans&quot;, cursive; white-space: pre;" font-weight="bold" font-size="11.7px" font-family="'Shantell Sans', cursive"><tspan x="17.12" y="35.51" dominant-baseline="ideographic">Logical Reasoning</tspan></text></g></g></g><g id="g-root-tx_proficie_qu0vaz1hc7q4p-fill" data-item-order="0" transform="translate(284, 128)"><g id="tx_proficie_qu0vaz1hc7q4p-fill" stroke="none" fill="#ffe711"><g><text style="font: 10px &quot;Shantell Sans&quot;, cursive; white-space: pre;" font-size="10px" font-family="'Shantell Sans', cursive"><tspan x="30.19" y="22.8" dominant-baseline="ideographic">Proficiency in </tspan><tspan x="16.18" y="34.8" dominant-baseline="ideographic">understanding and </tspan><tspan x="30.59" y="46.8" dominant-baseline="ideographic">using English </tspan><tspan x="36.59" y="58.8" dominant-baseline="ideographic">effectively.</tspan></text></g></g></g><g id="g-root-tx_generalk_91hwmz1hc6cxu-fill" data-item-order="0" transform="translate(458, 134)"><g id="tx_generalk_91hwmz1hc6cxu-fill" stroke="none" fill="#43dd93"><g><text style="font: 11.7px &quot;Shantell Sans&quot;, cursive; white-space: pre;" font-size="11.7px" font-family="'Shantell Sans', cursive"><tspan x="12" y="28.51" dominant-baseline="ideographic">General Knowledge </tspan><tspan x="12" y="42.51" dominant-baseline="ideographic">&amp; Current Affairs</tspan></text></g></g></g><g id="g-root-tx_skilltod_dcbm2j1hc7q4t-fill" data-item-order="0" transform="translate(110, 176)"><g id="tx_skilltod_dcbm2j1hc7q4t-fill" stroke="none" fill="#f79438"><g><text style="font: 10px &quot;Shantell Sans&quot;, cursive; white-space: pre;" font-size="10px" font-family="'Shantell Sans', cursive"><tspan x="23.04" y="22.8" dominant-baseline="ideographic">Skill to deduce and </tspan><tspan x="30.12" y="34.8" dominant-baseline="ideographic">infer using logical </tspan><tspan x="68.53" y="46.8" dominant-baseline="ideographic">principles.</tspan></text></g></g></g><g id="g-root-tx_awarenes_1lxdv971hc6e4j-fill" data-item-order="0" transform="translate(458, 176)"><g id="tx_awarenes_1lxdv971hc6e4j-fill" stroke="none" fill="#43dd93"><g><text style="font: 10px &quot;Shantell Sans&quot;, cursive; white-space: pre;" font-size="10px" font-family="'Shantell Sans', cursive"><tspan x="12" y="22.8" dominant-baseline="ideographic">Awareness of global </tspan><tspan x="12" y="34.8" dominant-baseline="ideographic">events and general </tspan><tspan x="12" y="46.8" dominant-baseline="ideographic">knowledge.</tspan></text></g></g></g><g id="g-root-ic_quil_mcbxx71hbwkcn-fill" data-item-order="0" transform="translate(320, 212)"></g><g id="g-root-tx_legalrea_v483nf1hc7t3i-fill" data-item-order="0" transform="translate(26, 260)"><g id="tx_legalrea_v483nf1hc7t3i-fill" stroke="none" fill="#fb6762"><g><text style="font: bold 11.7px &quot;Shantell Sans&quot;, cursive; white-space: pre;" font-weight="bold" font-size="11.7px" font-family="'Shantell Sans', cursive"><tspan x="15.41" y="29.51" dominant-baseline="ideographic">Legal Reasoning</tspan></text></g></g></g><g id="g-root-ic_1_1hby06z1hc4yrx-fill" data-item-order="0" transform="translate(235, 248)"></g><g id="g-root-ic_fire_4goltn1hbpgqu-fill" data-item-order="0" transform="translate(405, 248)"></g><g id="g-root-tx_quantita_1cu95yz1hc6by8-fill" data-item-order="0" transform="translate(542, 260)"><g id="tx_quantita_1cu95yz1hc6by8-fill" stroke="none" fill="#a6da37"><g><text style="font: bold 11.7px &quot;Shantell Sans&quot;, cursive; white-space: pre;" font-weight="bold" font-size="11.7px" font-family="'Shantell Sans', cursive"><tspan x="12" y="28.51" dominant-baseline="ideographic">Quantitative </tspan><tspan x="12" y="42.51" dominant-baseline="ideographic">Techniques</tspan></text></g></g></g><g id="g-root-tx_abilityt_18hk1a31hc7qiv-fill" data-item-order="0" transform="translate(26, 290)"><g id="tx_abilityt_18hk1a31hc7qiv-fill" stroke="none" fill="#fb6762"><g><text style="font: 10px &quot;Shantell Sans&quot;, cursive; white-space: pre;" font-size="10px" font-family="'Shantell Sans', cursive"><tspan x="17.49" y="22.8" dominant-baseline="ideographic">Ability to analyze </tspan><tspan x="28.81" y="34.8" dominant-baseline="ideographic">and apply legal </tspan><tspan x="17.47" y="46.8" dominant-baseline="ideographic">principles to solve </tspan><tspan x="58.15" y="58.8" dominant-baseline="ideographic">problems.</tspan></text></g></g></g><g id="g-root-tx_basicmat_mb2zqz1hc6ccp-fill" data-item-order="0" transform="translate(542, 302)"><g id="tx_basicmat_mb2zqz1hc6ccp-fill" stroke="none" fill="#a6da37"><g><text style="font: 10px &quot;Shantell Sans&quot;, cursive; white-space: pre;" font-size="10px" font-family="'Shantell Sans', cursive"><tspan x="12" y="22.8" dominant-baseline="ideographic">Basic mathematical </tspan><tspan x="12" y="34.8" dominant-baseline="ideographic">skills for problem-</tspan><tspan x="12" y="46.8" dominant-baseline="ideographic">solving.</tspan></text></g></g></g><g id="g-root-ic_hamm_hz05tn1hc7si3-fill" data-item-order="0" transform="translate(179, 322)"></g><g id="g-root-ic_resu_1qdumwb1kxn0ne-fill" data-item-order="0" transform="translate(302, 332)"></g><g id="g-root-ic_app_dcbiwr1hbxypw-fill" data-item-order="0" transform="translate(458, 322)"></g><g id="g-root-cp_1_g-1_1hbyvsb1kxmzv3-stroke" data-item-order="-237158" transform="translate(145, 274.87890625)"><g id="cp_1_g-1_1hbyvsb1kxmzv3-stroke" fill="none" stroke-linecap="round" stroke-linejoin="round" stroke-miterlimit="4" stroke="#2c2c2c" stroke-width="2"><g><path d="M 44.25 10C 23.39 40.04 10.85 76.3 10 115.44L 125.13 115.44C 125.89 101.58 130.31 88.7 137.43 77.7L 44.24 10L 44.25 10Z"></path></g></g></g><g id="g-root-cp_2_g-2_8yebmz1kxn289-stroke" data-item-order="-237152" transform="translate(184.29000854492188, 202.75)"><g id="cp_2_g-2_8yebmz1kxn289-stroke" fill="none" stroke-linecap="round" stroke-linejoin="round" stroke-miterlimit="4" stroke="#2c2c2c" stroke-width="2"><g><path d="M 103.18 142.91C 111.61 132.58 122.65 124.47 135.28 119.56L 99.68 10C 63.73 22.57 32.65 45.49 10 75.2L 103.18 142.9L 103.18 142.91Z"></path></g></g></g><g id="g-root-cp_3_g-3_1cxebu31kxn2tf-stroke" data-item-order="-237146" transform="translate(282.1090087890625, 192)"><g id="cp_3_g-3_1cxebu31kxn2tf-stroke" fill="none" stroke-linecap="round" stroke-linejoin="round" stroke-miterlimit="4" stroke="#2c2c2c" stroke-width="2"><g><path d="M 45.59 127.65C 51.93 125.97 58.58 125.06 65.44 125.06C 72.3 125.06 78.95 125.97 85.29 127.65L 120.88 18.11C 103.32 12.84 84.71 10 65.44 10C 46.17 10 27.56 12.84 10 18.11L 45.59 127.65Z"></path></g></g></g><g id="g-root-cp_4_g-4_dg390r1kxn0gd-stroke" data-item-order="-237140" transform="translate(365.530029296875, 202.76220703125)"><g id="cp_4_g-4_dg390r1kxn0gd-stroke" fill="none" stroke-linecap="round" stroke-linejoin="round" stroke-miterlimit="4" stroke="#2c2c2c" stroke-width="2"><g><path d="M 10.01 119.55C 22.64 124.46 33.68 132.57 42.1 142.9L 135.28 75.2C 112.63 45.49 81.55 22.57 45.6 10L 10 119.56L 10.01 119.55Z"></path></g></g></g><g id="g-root-cp_5_g-5_1upxai31kxn2mf-stroke" data-item-order="-237134" transform="translate(402.6700439453125, 274.87890625)"><g id="cp_5_g-5_1upxai31kxn2mf-stroke" fill="none" stroke-linecap="round" stroke-linejoin="round" stroke-miterlimit="4" stroke="#2c2c2c" stroke-width="2"><g><path d="M 10 77.7C 17.12 88.69 21.54 101.58 22.3 115.44L 137.43 115.44C 136.58 76.3 124.04 40.04 103.18 10L 10 77.7Z"></path></g></g></g><g id="g-root-tx_englishl_91hwmz1hc7qbs-stroke" data-item-order="0" transform="translate(284, 86)"></g><g id="g-root-tx_logicalr_94ma2j1hc6dcc-stroke" data-item-order="0" transform="translate(110, 134)"></g><g id="g-root-tx_proficie_qu0vaz1hc7q4p-stroke" data-item-order="0" transform="translate(284, 128)"></g><g id="g-root-tx_generalk_91hwmz1hc6cxu-stroke" data-item-order="0" transform="translate(458, 134)"></g><g id="g-root-tx_skilltod_dcbm2j1hc7q4t-stroke" data-item-order="0" transform="translate(110, 176)"></g><g id="g-root-tx_awarenes_1lxdv971hc6e4j-stroke" data-item-order="0" transform="translate(458, 176)"></g><g id="g-root-ic_quil_mcbxx71hbwkcn-stroke" data-item-order="0" transform="translate(320, 212)"><g id="ic_quil_mcbxx71hbwkcn-stroke" fill="none" stroke-linecap="round" stroke-linejoin="round" stroke-miterlimit="4" stroke="#2c2c2c" stroke-width="2"><g><path d="M 22.885 45.25L 12.385 45.25C 11.556573 45.25 10.885 44.578426 10.885 43.75L 10.885 12.25C 10.885 11.421573 11.556573 10.75 12.385 10.75L 32.324501 10.75C 32.722294 10.750085 33.10376 10.908176 33.385002 11.1895L 38.949997 16.75C 39.231323 17.031239 39.389416 17.412708 39.3895 17.810499L 39.3895 22.75M 15.385 23.1565L 17.009501 24.779499C 17.165186 24.935314 17.381495 25.014812 17.601028 24.996904C 17.820564 24.978994 18.021126 24.865488 18.1495 24.686501L 21.385 20.1565M 25.885 22.75L 31.885 22.75M 15.385 30.6565L 17.009501 32.279499C 17.165186 32.435314 17.381495 32.514812 17.601028 32.496902C 17.820564 32.478996 18.021126 32.365486 18.1495 32.186501L 21.385 27.6565M 25.885 30.25L 28.135 30.25M 25.885 45.25L 36.998501 34.136497M 34.213001 29.5285C 32.968002 29.678501 26.038 36.267998 30.411999 40.639C 31.939001 42.1675 35.351498 41.926003 39.4645 37.816002C 42.614502 34.658501 44.414501 29.237499 45.086502 26.8885C 45.154953 26.638529 45.089497 26.370932 44.913391 26.180782C 44.737278 25.990633 44.475479 25.904884 44.221001 25.953999C 41.969635 26.386312 39.769661 27.05294 37.656998 27.943001C 37.656998 27.943001 36.7015 32.4025 34.207001 32.4025Z"></path></g></g></g><g id="g-root-tx_legalrea_v483nf1hc7t3i-stroke" data-item-order="0" transform="translate(26, 260)"></g><g id="g-root-ic_1_1hby06z1hc4yrx-stroke" data-item-order="0" transform="translate(235, 248)"><g id="ic_1_1hby06z1hc4yrx-stroke" fill="none" stroke-linecap="round" stroke-linejoin="round" stroke-miterlimit="4" stroke="#2c2c2c" stroke-width="2"><g><path d="M 17.013041 44.875L 17.013041 35.477501C 14.940385 33.55735 13.49491 31.05685 12.86536 28.302551C 12.235825 25.54825 12.451465 22.668011 13.484156 20.03812C 14.51683 17.40823 16.318541 15.15085 18.654011 13.560775C 20.989481 11.9707 23.750154 11.121826 26.5756 11.125009C 37.2841 11.125009 39.5956 19.942015 43.413101 29.844999C 43.4785 30.015551 43.50145 30.199299 43.48 30.38065C 43.458549 30.562 43.393452 30.735399 43.2901 30.886C 43.186752 31.036449 43.04845 31.159599 42.886902 31.244801C 42.725349 31.33 42.54565 31.374699 42.363098 31.375L 39.5131 31.375L 39.5131 35.875C 39.5131 37.06855 39.038952 38.213051 38.195049 39.05695C 37.351151 39.900852 36.206501 40.375 35.0131 40.375L 32.7631 40.375L 32.7631 44.875M 33.439899 21.353485C 33.213249 21.58012 32.957199 21.759415 32.684349 21.89134L 35.231499 24.43858L 32.63065 27.0394C 31.636 26.04475 30.024851 26.0431 29.032299 27.035799C 28.0396 28.0285 28.04125 29.6395 29.0359 30.63415L 26.3347 33.335499L 23.74057 30.7414C 23.640011 30.904301 23.51926 31.05805 23.378262 31.199051C 22.375946 32.201351 20.730175 32.180649 19.702316 31.152851C 18.674456 30.124901 18.65374 28.479099 19.656055 27.476801C 19.797054 27.3358 19.95079 27.21505 20.113735 27.114552L 17.51977 24.520599L 20.117636 21.922735C 21.157059 22.962114 22.828194 22.976185 23.850235 21.954145C 24.872276 20.932106 24.858204 19.260984 23.818825 18.221544L 26.416599 15.623725L 29.00395 18.210955C 29.135799 17.937969 29.31505 17.681995 29.541698 17.45536C 30.6229 16.374205 32.371902 16.37038 33.448452 17.446825C 34.524849 18.52327 34.52095 20.272345 33.439899 21.353485Z"></path></g></g></g><g id="g-root-ic_fire_4goltn1hbpgqu-stroke" data-item-order="0" transform="translate(405, 248)"><g id="ic_fire_4goltn1hbpgqu-stroke" fill="none" stroke-linecap="round" stroke-linejoin="round" stroke-miterlimit="4" stroke="#2c2c2c" stroke-width="2"><g><path d="M 24.4345 19.199499C 24.497499 19.0135 24.563499 18.826 24.6355 18.634001C 24.954632 17.974937 25.112963 17.249601 25.0975 16.5175C 25.074867 16.262077 25.184296 16.012794 25.387632 15.856569C 25.590971 15.700343 25.860031 15.658829 26.101 15.7465C 27.432413 16.214148 28.463148 17.285511 28.879002 18.634001C 29.798317 17.267178 30.949074 16.071243 32.279499 15.099999C 33.245914 14.388788 33.809559 13.254793 33.792999 12.055C 33.788986 11.762171 33.955784 11.493792 34.220127 11.367745C 34.484467 11.241698 34.798 11.281044 35.022999 11.4685C 38.395039 14.070416 40.306499 18.137928 40.157501 22.394499C 40.857971 22.024954 41.494568 21.545353 42.042999 20.973999C 42.229137 20.771872 42.51091 20.687717 42.777405 20.754654C 43.043907 20.821592 43.252468 21.028906 43.320999 21.295C 44.047001 24.099998 44.644001 30.018999 38.089001 33.164501M 34.75 33.409C 34.752483 39.642326 29.701828 44.697685 23.4685 44.700996C 17.206476 44.601513 12.197294 39.469093 12.25 33.206501C 12.25269 27.224266 17.034655 22.340361 23.015499 22.2115C 23.1775 22.203999 23.341 22.201 23.504501 22.201C 26.485485 22.184601 29.349663 23.358967 31.461088 25.463352C 33.572514 27.567736 34.756439 30.427975 34.749996 33.408997ZM 23.015499 22.2115C 16.682499 28.57 16.682499 36.866501 23.015499 44.692001M 23.9935 22.2115C 30.341499 28.57 30.341499 36.863503 23.9935 44.688999M 13.441 28.201L 33.4795 28.201M 12.9595 37.201L 34.0975 37.201"></path></g></g></g><g id="g-root-tx_quantita_1cu95yz1hc6by8-stroke" data-item-order="0" transform="translate(542, 260)"></g><g id="g-root-tx_abilityt_18hk1a31hc7qiv-stroke" data-item-order="0" transform="translate(26, 290)"></g><g id="g-root-tx_basicmat_mb2zqz1hc6ccp-stroke" data-item-order="0" transform="translate(542, 302)"></g><g id="g-root-ic_hamm_hz05tn1hc7si3-stroke" data-item-order="0" transform="translate(179, 322)"><g id="ic_hamm_hz05tn1hc7si3-stroke" fill="none" stroke-linecap="round" stroke-linejoin="round" stroke-miterlimit="4" stroke="#2c2c2c" stroke-width="2"><g><path d="M 25.75 44.349998C 25.75 44.764214 25.414213 45.099998 25 45.099998L 11.5 45.099998C 11.085787 45.099998 10.75 44.764214 10.75 44.349998L 10.75 42.099998C 10.75 41.271572 11.421573 40.599998 12.25 40.599998L 24.25 40.599998C 25.078428 40.599998 25.75 41.271572 25.75 42.099998ZM 24.25 40.599998L 12.25 40.599998L 12.25 39.099998C 12.25 38.271572 12.921573 37.599998 13.75 37.599998L 22.75 37.599998C 23.578428 37.599998 24.25 38.271572 24.25 39.099998ZM 20.500437 22.599566L 28.75025 14.349752L 34.000519 19.600019L 25.750704 27.849834ZM 20.5 22.599998L 19.75 21.85C 18.337 20.440001 16.0825 22.682499 17.5 24.099998L 24.25 30.849998C 25.664499 32.2645 27.919001 30.018999 26.5 28.599998L 25.75 27.849998M 34 19.6L 34.75 20.35C 36.164501 21.7645 38.418999 19.519001 37 18.1L 30.25 11.35C 28.837 9.94 26.5825 12.1825 28 13.6L 28.75 14.35M 29.875 23.723499L 45.25 39.098499"></path></g></g></g><g id="g-root-ic_resu_1qdumwb1kxn0ne-stroke" data-item-order="0" transform="translate(302, 332)"><g id="ic_resu_1qdumwb1kxn0ne-stroke" fill="none" stroke-linecap="round" stroke-linejoin="round" stroke-miterlimit="4" stroke="#f4f4f4" stroke-width="2"><g><path d="M 33.292 59.761002L 13 59.761002L 13 27.241001L 27.364 12.877L 49.389999 12.877L 49.389999 24.625M 20.848 48.208L 30.232 48.208M 20.848 39.577L 32.275002 39.577M 70.75 52.708C 70.751457 58.219727 66.283722 62.688637 60.771999 62.688637C 55.260269 62.688637 50.792542 58.219727 50.793999 52.707996M 78.867996 79.054001C 76.434669 71.223 69.200302 65.877388 61 65.850998L 60.774998 65.850998C 52.546864 65.878632 45.294891 71.259247 42.883003 79.126007M 60.637001 29.611L 40.945 38.374001L 60.715004 46.980999L 79 38.532997L 60.637001 29.611ZM 43.056999 39.912998L 43.056999 49.540001M 13 27.241001L 27.364 27.241001L 27.364 12.877M 50.793999 43.245998L 50.793999 52.708L 70.75 52.708L 70.75 43.245998"></path></g></g></g><g id="g-root-ic_app_dcbiwr1hbxypw-stroke" data-item-order="0" transform="translate(458, 322)"><g id="ic_app_dcbiwr1hbxypw-stroke" fill="none" stroke-linecap="round" stroke-linejoin="round" stroke-miterlimit="4" stroke="#2c2c2c" stroke-width="2"><g><path d="M 22.006001 38.5L 16.006001 32.5M 16.006001 38.5L 22.006001 32.5M 19.006001 16.75L 19.006001 24.25M 22.756001 20.5L 15.256 20.5M 33.256001 20.5L 40.756001 20.5M 33.256001 37L 40.756001 37M 33.256001 37L 40.756001 37M 33.256001 34L 40.756001 34M 28.006001 11.5L 28.006001 44.5M 11.506 28L 44.506001 28M 16.006001 11.5L 40.006001 11.5C 40.006001 11.5 44.506001 11.5 44.506001 16L 44.506001 40C 44.506001 40 44.506001 44.5 40.006001 44.5L 16.006001 44.5C 16.006001 44.5 11.506 44.5 11.506 40L 11.506 16C 11.506 16 11.506 11.5 16.006001 11.5"></path></g></g></g></g></g><path id="wzisu0b1ju2osu" d="M65.283 12.757a.35.35 0 0 0 .584.157l5.203-5.141-6.183 3.523.396 1.461zm-2.216-11.7a.35.35 0 0 0-.522.305v3.111l3.276-1.868-2.754-1.548zm3.728 2.105l-4.25 2.421v2.445l6.391-3.644-2.141-1.222zm4.708 3.303a.35.35 0 0 0 0-.609l-1.592-.9-7.365 4.199v1.782a.35.35 0 0 0 .523.305l8.435-4.777z M44.542 2.513c0-.433.355-.783.792-.783s.792.35.792.783-.355.783-.792.783-.792-.35-.792-.783zm59.171 0c0-.433.355-.783.792-.783s.792.35.792.783-.355.783-.792.783-.792-.35-.792-.783zm-85.951 7.636h-1.27v-.487c-.276.201-.864.609-1.881.609-1.202 0-2.274-.794-2.137-2.078.118-1.106 1.153-1.584 1.848-1.727l2.17-.345c0-.539-.29-.956-1.064-1.006s-1.21.305-1.571 1.017l-1.124-.605c1.218-2.631 5.029-1.764 5.029.414v4.207zm-1.27-2.86c.006.396-.062 1.112-.819 1.59-.587.37-1.841.299-1.903-.395-.049-.555.461-.791.906-.898l1.816-.297zm72.662 2.86h-1.27v-.487c-.276.201-.864.609-1.881.609-1.202 0-2.274-.794-2.137-2.078.118-1.106 1.153-1.584 1.848-1.727l2.17-.345c0-.539-.29-.956-1.064-1.006s-1.21.305-1.571 1.017l-1.124-.605c1.218-2.631 5.029-1.764 5.029.414v4.207zm-1.27-2.86c.006.396-.062 1.112-.82 1.59-.587.37-1.841.299-1.903-.395-.049-.555.461-.791.906-.898l1.816-.297zM99.096 10.149H97.85v-8.45h1.246v4.895l2.68-2.559h1.738l-2.633 2.535 2.715 3.578h-1.556l-2.077-2.707-.867.844v1.863zm6.053-6.114h-1.255v6.113h1.255V4.035zm-59.2 0h-1.255v6.113h1.255V4.035zm5.584 6.113V1.697h1.255v2.695c.361-.346 1-.485 1.47-.485 1.452 0 2.477 1.082 2.457 2.448v3.792h-1.27v-3.68c0-.408-.214-1.339-1.315-1.339-.968 0-1.342.756-1.342 1.339v3.681h-1.255zm-4.76-4.894V4.039h.621a.45.45 0 0 0 .45-.45v-.855h1.251v1.305h1.309v1.215h-1.309v3.109c0 .293.105.664.648.664.365 0 .531-.035.736-.07v1.137s-.361.113-.857.113c-1.398 0-1.777-1.051-1.777-1.788V5.254h-1.071zM36.528 4.039h-1.394l2.191 6.106h1.125l1.234-3.918 1.238 3.918h1.129l2.188-6.106h-1.383l-1.359 3.93-1.256-3.93h-1.124l-1.242 3.957-1.348-3.957zM26.212 7.141c-.02 1.566 1.187 3.129 3.223 3.129 1.566 0 2.383-.918 2.734-1.719L31.172 8c-.315.399-.801 1.094-1.738 1.094-1.145 0-1.825-.781-1.891-1.52h4.625c.074-.284.148-.995-.03-1.559-.336-1.064-1.221-2.102-2.839-2.102s-3.088 1.152-3.088 3.227zm1.363-.75h3.348c-.055-.43-.566-1.301-1.623-1.301a1.79 1.79 0 0 0-1.725 1.301zm-8.758.75c.038 1.758 1.277 3.133 3.145 3.133 1.074 0 1.723-.477 1.961-.672v.547h1.242V1.703h-1.258v2.888c-.414-.36-1.062-.68-1.93-.68-1.91 0-3.198 1.473-3.16 3.23zm1.309-.08c0 1.119.723 1.978 1.836 1.978a1.88 1.88 0 0 0 1.94-1.904c0-1.371-1.011-1.99-1.972-1.99s-1.805.798-1.805 1.916zm76.683-.028C96.771 5.275 95.532 3.9 93.664 3.9c-1.074 0-1.723.477-1.961.672v-.547h-1.242v8.22h1.258V9.583c.414.36 1.063.68 1.93.68 1.91 0 3.198-1.473 3.16-3.23zm-1.309.08c0-1.119-.723-1.978-1.836-1.978a1.88 1.88 0 0 0-1.94 1.904c0 1.371 1.011 1.99 1.972 1.99S95.5 8.231 95.5 7.113zM106.441 10.173V4.036h1.254v.382c.361-.346 1-.485 1.47-.485 1.452 0 2.477 1.082 2.457 2.448v3.792h-1.27V6.492c0-.408-.214-1.339-1.315-1.339-.969 0-1.342.756-1.342 1.339v3.681h-1.254zm-30.383-.021V1.824h1.084l4.215 5.777V1.824h1.32v8.328h-1.094l-4.207-5.796v5.796h-1.319zM5.24 10.149H4V2.377h1.014l2.664 3.597 2.654-3.592h1.03v7.766h-1.256V4.762L7.678 8.068 5.24 4.742v5.407z" transform="translate(560, 428)" fill="#ababab88" stroke="none"></path></svg>