<?xml version="1.0" encoding="utf-8" standalone="yes"?>
<!DOCTYPE svg PUBLIC "-//W3C//DTD SVG 1.1//EN" "http://www.w3.org/Graphics/SVG/1.1/DTD/svg11.dtd">
<svg width="873" height="898" viewBox="0 0 873 898" style="fill:none;stroke:none;fill-rule:evenodd;clip-rule:evenodd;stroke-linecap:round;stroke-linejoin:round;stroke-miterlimit:1.5;" version="1.1" xmlns="http://www.w3.org/2000/svg" xmlns:xlink="http://www.w3.org/1999/xlink"><style class="text-font-style fontImports" data-font-family="Shantell Sans">@import url('https://fonts.googleapis.com/css2?family=Shantell+Sans:wght@300..800&amp;display=block');</style><g id="items" style="isolation: isolate"><g id="blend" style="mix-blend-mode: normal"><g id="g-root-cp_5_g-5_924zy31otr5e7-fill" data-item-order="-570910" transform="translate(347.9530029296875, 530.830078125)"><g id="cp_5_g-5_924zy31otr5e7-fill" stroke="none" fill="#cb68f9"><g><path d="M 121.015 10.23C 119.92 13.71 119.313 17.34 119.313 21.09L 119.313 59.87C 119.313 66.06 114.623 71.25 108.47 71.69C 95.2278 72.65 80.9402 73.17 66.0453 73.17C 51.1503 73.17 36.1259 72.62 22.595 71.62C 16.4618 71.16 11.7822 65.98 11.7822 59.79L 11.7822 21.09C 11.7822 17.26 11.145 13.55 10 10C 28.1507 12.07 47.088 13.17 66.5431 13.17C 85.9981 13.17 103.4917 12.16 121.015 10.23Z"></path></g></g></g><g id="g-root-cp_4_g-4_6hzp71otr6yp-fill" data-item-order="-570906" transform="translate(298.1300048828125, 462.33984375)"><g id="cp_4_g-4_6hzp71otr6yp-fill" stroke="none" fill="#8769fd"><g><path d="M 221.59 10.38C 220.99 11.87 220.35 13.35 219.69 14.81C 215.43 24.18 209.95 32.86 203.43 40.67C 198.71 46.33 193.44 51.52 187.72 56.17C 180.36 62.16 174.38 69.92 171.58 78.72C 153.98 80.65 135.67 81.66 116.87 81.66C 98.07 81.66 78.31 80.56 60.08 78.49C 57.26 69.79 51.32 62.1 44.02 56.17C 38.22 51.46 32.89 46.18 28.12 40.44C 21.61 32.6 16.13 23.87 11.89 14.47C 11.23 13 10.59 11.51 10 10C 42.27 17.48 78.43 21.66 116.62 21.66C 154.81 21.66 189.74 17.62 221.59 10.38Z"></path></g></g></g><g id="g-root-cp_3_g-3_6hzp71otr6yr-fill" data-item-order="-570902" transform="translate(290, 400.83984375)"><g id="cp_3_g-3_6hzp71otr6yr-fill" stroke="none" fill="#1ac3fb"><g><path d="M 238 29.16C 238 35.01 237.56 40.76 236.71 46.37C 235.37 55.25 232.99 63.8 229.72 71.88C 197.87 79.12 162.29 83.16 124.75 83.16C 87.21 83.16 50.4 78.98 18.13 71.5C 14.88 63.4 12.54 54.84 11.23 45.94C 10.42 40.46 10 34.86 10 29.16C 10 22.63 10.55 16.23 11.61 10C 45.45 18.41 83.83 23.16 124.5 23.16C 165.17 23.16 202.83 18.5 236.43 10.24C 237.46 16.39 238 22.71 238 29.16Z"></path></g></g></g><g id="g-root-cp_2_g-2_1qbz1ff1otr7kd-fill" data-item-order="-570898" transform="translate(291.6099853515625, 346.33984375)"><g id="cp_2_g-2_1qbz1ff1otr7kd-fill" stroke="none" fill="#a6da37"><g><path d="M 234.82 64.74C 201.22 73 163.18 77.66 122.89 77.66C 82.6 77.66 43.84 72.91 10 64.5C 10.68 60.46 11.57 56.5 12.67 52.62C 14.88 44.78 17.91 37.29 21.65 30.24C 25.4 23.19 29.87 16.58 34.96 10.5C 35.1 10.33 35.24 10.17 35.39 10C 62.51 14.95 91.92 17.66 122.64 17.66C 153.36 17.66 182.45 14.98 209.46 10.08C 209.64 10.27 209.8 10.47 209.96 10.66C 220.14 22.86 227.82 37.22 232.21 52.95C 233.28 56.8 234.16 60.73 234.82 64.74Z"></path></g></g></g><g id="g-root-cp_1_g-1_1lws0e31otr56v-fill" data-item-order="-570894" transform="translate(317, 306)"><g id="cp_1_g-1_1lws0e31otr56v-fill" stroke="none" fill="#43dd93"><g><path d="M 184.07 50.42C 157.06 55.32 127.81 58 97.25 58C 66.69 58 37.12 55.29 10 50.34C 30.9 25.66 62.13 10 97 10C 114.6 10 131.26 13.99 146.14 21.11C 160.79 28.11 173.71 38.16 184.07 50.42Z"></path></g></g></g><g id="g-root-cp_0_g-0_1hgyi9n1otr5z5-fill" data-item-order="-570890" transform="translate(356.010009765625, 600.7490234375)"><g id="cp_0_g-0_1hgyi9n1otr5z5-fill" stroke="none" fill="#e8e8e8"><g><path d="M 16.4 10.0113C 29.73 10.8213 43.89 11.2513 58.56 11.2513C 73.23 11.2513 86.59 10.8413 99.59 10.0813C 103.05 9.8813 105.99 12.6213 105.99 16.0813C 105.99 19.2313 103.56 21.8413 100.42 22.0313C 87.18 22.8313 73.13 23.2513 58.57 23.2513C 44.01 23.2513 29.14 22.8013 15.56 21.9613C 12.43 21.7613 10 19.1613 10 16.0113C 10 12.5413 12.94 9.8013 16.41 10.0113L 16.4 10.0113ZM 16.4 30.0113C 29.73 30.8213 43.89 31.2513 58.56 31.2513C 73.23 31.2513 86.59 30.8413 99.59 30.0813C 103.05 29.8813 105.99 32.6213 105.99 36.0813C 105.99 39.2313 103.56 41.8413 100.42 42.0313C 87.18 42.8313 73.13 43.2513 58.57 43.2513C 44.01 43.2513 29.14 42.8013 15.56 41.9613C 12.43 41.7613 10 39.1613 10 36.0113C 10 32.5413 12.94 29.8013 16.41 30.0113L 16.4 30.0113ZM 29.99 50.691C 39.22 51.061 48.78 51.251 58.56 51.251C 68.34 51.251 77.12 51.071 86 50.731C 89.42 50.601 92.28 53.321 92.28 56.751C 92.28 59.951 89.77 62.591 86.57 62.711C 77.51 63.061 68.15 63.251 58.56 63.251C 48.97 63.251 38.82 63.051 29.4 62.671C 26.21 62.541 23.7 59.901 23.7 56.711C 23.7 53.281 26.57 50.561 29.99 50.691Z"></path></g></g></g><g id="g-root-ic_ink_145hzwb1ottybu-fill" data-item-order="-2304" transform="translate(194, 414)"><g id="ic_ink_145hzwb1ottybu-fill" stroke="none" fill="#1ac3fb"><g><path d="M 27 44.619999L 27 43C 27 42.447716 26.552284 42 26 42L 20 42C 19.447716 42 19 42.447716 19 43L 19 44.52C 14.37215 45.592365 10.830678 49.32272 10 53.999996C 9.799646 54.941044 9.971687 55.923107 10.48 56.740002C 11.00445 57.550976 11.91465 58.028831 12.88 58L 33.120003 58C 34.085854 57.974541 34.970337 57.452919 35.459999 56.619999C 35.981255 55.808315 36.174305 54.82877 36 53.880001C 34.996044 49.33783 31.51174 45.752869 26.999998 44.619999ZM 18 35L 28 35C 28 35 29 35 29 36L 29 39C 29 39 29 40 28 40L 18 40C 18 40 17 40 17 39L 17 36C 17 36 17 35 18 35M 58 11.3C 58.011097 10.951037 57.881359 10.612278 57.639999 10.36C 57.393864 10.121721 57.062485 9.992051 56.719997 10C 53.271191 10.124652 49.897385 11.041671 46.860001 12.68C 46.693638 12.779876 46.600082 12.966985 46.619999 13.16L 47.080002 19.700001C 47.087559 19.796055 47.041378 19.888414 46.959999 19.939999C 46.897186 19.972054 46.822815 19.972054 46.759998 19.939999L 43.860001 15.440001C 43.778332 15.31715 43.64658 15.236635 43.5 15.219999C 43.355545 15.199738 43.209446 15.243567 43.099998 15.34C 39.584644 18.574211 37.2658 22.901779 36.519997 27.619999C 36.52 27.860001 36.52 28.66 36.34 28.84L 32.220001 32.959999C 31.444553 33.740074 31.444553 34.999924 32.220001 35.779999C 33.000076 36.555447 34.259926 36.555447 35.040001 35.779999L 39.16 31.66C 43.972034 31.169769 48.473049 29.053305 51.920002 25.66C 55.669029 21.800694 57.837955 16.67803 58.000004 11.3Z"></path></g></g></g><g id="g-root-ic_1_1hbysqj1otejnx-fill" data-item-order="-2304" transform="translate(566, 306)"><g id="ic_1_1hbysqj1otejnx-fill" stroke="none" fill="#a6da37"><g><path d="M 32.099998 10C 23.894512 9.991536 16.496689 14.940434 13.37267 22.527964C 10.248652 30.115494 12.017323 38.838516 17.85 44.609997L 17.85 56.5C 17.85 57.327999 18.521999 58 19.35 58L 40.349998 58C 41.178429 58 41.849998 57.32843 41.849998 56.5L 41.849998 52L 43.349998 52C 47.492138 52.000004 50.850002 48.642139 50.850002 44.5L 50.849998 40L 53.150002 40L 53.153999 40C 54.141563 39.997551 55.064846 39.509865 55.623569 38.695541C 56.182293 37.881218 56.30508 36.844292 55.951996 35.921997C 55.531898 34.828484 55.116562 33.733139 54.706001 32.636002C 52.700001 27.299999 50.765999 22.144001 48 18.172001C 46.307999 15.738 44.264 13.674 41.638 12.23C 39.010002 10.78 35.884003 10 32.099998 10ZM 35.686001 19.624001C 37.31057 17.991938 39.950806 17.986565 41.582001 19.612C 42.451557 20.483593 42.891285 21.695036 42.783264 22.921467C 42.67524 24.1479 42.030525 25.263824 41.022003 25.970001L 43.950001 28.898001C 44.144524 29.093134 44.144524 29.408865 43.950001 29.604L 40.496002 33.057999C 40.402195 33.152042 40.274826 33.204895 40.141998 33.204895C 40.009171 33.204895 39.881805 33.152042 39.788002 33.057999C 38.664501 31.932808 36.841705 31.931017 35.716 33.054001C 34.594902 34.180027 34.597588 36.001282 35.722 37.124001C 35.81604 37.217804 35.868896 37.345173 35.868896 37.478001C 35.868896 37.610825 35.81604 37.738197 35.722 37.832001L 32.134003 41.417999C 31.938866 41.612526 31.623135 41.612526 31.427999 41.417999L 28.392 38.384003C 28.334 38.452 28.271999 38.517998 28.208 38.582001C 26.674 40.115997 24.172001 40.071999 22.619999 38.521999C 21.068001 36.968002 21.024 34.466 22.560001 32.931999C 22.622 32.868 22.688 32.806 22.756001 32.748001L 19.722 29.714001C 19.627958 29.620195 19.575108 29.492826 19.575108 29.360001C 19.575108 29.227173 19.627958 29.099804 19.722 29.006001L 23.172001 25.556C 23.367134 25.361475 23.682865 25.361475 23.878 25.556C 25.07 26.746 26.972 26.756001 28.128 25.596001C 29.284 24.442001 29.275999 22.540001 28.087999 21.348C 27.893475 21.152866 27.893475 20.837135 28.087999 20.642L 31.535999 17.191999C 31.629805 17.097958 31.757174 17.045107 31.889999 17.045107C 32.022827 17.045107 32.150196 17.097958 32.243999 17.191999L 35.223999 20.172001C 35.360001 19.98 35.514 19.796 35.686001 19.624001Z"></path></g></g></g><g id="g-root-ic_glob_1q6zbwb1othcst-fill" data-item-order="-2304" transform="translate(566, 486)"><g id="ic_glob_1q6zbwb1othcst-fill" stroke="none" fill="#8769fd"><g><path d="M 29.52 32.5L 38.48 32.5C 38.192226 28.125622 36.971558 23.863499 34.899998 20L 33.099998 20C 31.028442 23.863499 29.80777 28.125622 29.519999 32.5ZM 26.540001 32.5C 26.772587 28.443264 27.748804 24.463823 29.42 20.76C 24.264446 22.508911 20.590273 27.087975 20 32.5ZM 41.459999 32.5L 48 32.5C 47.423077 27.108057 43.784264 22.534214 38.660004 20.76C 40.303642 24.469101 41.252693 28.448332 41.459999 32.5ZM 41.459999 35.5C 41.227413 39.556736 40.251198 43.536175 38.580002 47.240002C 43.735558 45.491093 47.409729 40.912025 48 35.5ZM 26.540001 35.5L 20 35.5C 20.576923 40.891945 24.215738 45.465786 29.34 47.240002C 27.696358 43.530899 26.747309 39.551666 26.539999 35.5ZM 38.48 35.5L 29.52 35.5C 29.816862 39.872787 31.036997 44.133034 33.099998 48L 34.900002 48C 36.971558 44.136497 38.192226 39.874374 38.479996 35.5ZM 34 10C 32.343147 10 31 11.343145 31 13C 31 14.656855 32.343147 16 34 16C 35.656853 16 37 14.656855 37 13C 37 11.343145 35.656853 10 34 10ZM 34 52C 32.343147 52 31 53.343147 31 55C 31 56.656857 32.343147 58 34 58C 35.656853 58 37 56.656857 37 55C 37 53.343147 35.656853 52 34 52ZM 50.98 17.02C 50.117504 16.153088 48.817341 15.891877 47.686951 16.35841C 46.556557 16.824942 45.819088 17.92712 45.819088 19.15C 45.819088 20.372879 46.556557 21.475058 47.686951 21.941589C 48.817341 22.408123 50.117504 22.146914 50.98 21.279999C 52.141289 20.097427 52.141289 18.202572 50.98 17.02ZM 21.279999 46.720001C 20.417505 45.853085 19.11734 45.591877 17.98695 46.058411C 16.85656 46.52494 16.119089 47.627121 16.119089 48.849998C 16.119089 50.07288 16.85656 51.175056 17.98695 51.64159C 19.11734 52.108124 20.417505 51.846912 21.279999 50.98C 22.44129 49.797428 22.44129 47.902569 21.279999 46.719997ZM 58 34C 58 32.343147 56.656857 31 55 31C 53.343147 31 52 32.343147 52 34C 52 35.656853 53.343147 37 55 37C 56.656857 37 58 35.656853 58 34ZM 16 34C 16 32.343147 14.656855 31 13 31C 11.343146 31 10 32.343147 10 34C 10 35.656853 11.343145 37 13 37C 14.656855 37 16 35.656853 16 34ZM 50.98 50.98C 51.846912 50.117504 52.108124 48.817341 51.64159 47.686951C 51.175056 46.556557 50.07288 45.819088 48.849998 45.819088C 47.627121 45.819088 46.52494 46.556557 46.058411 47.686951C 45.591877 48.817341 45.853085 50.117504 46.720001 50.98C 47.902569 52.141289 49.797428 52.141289 50.98 50.98ZM 21.279999 21.279999C 22.146914 20.417505 22.408123 19.11734 21.941589 17.98695C 21.475058 16.85656 20.372879 16.119089 19.15 16.119089C 17.92712 16.119089 16.824942 16.85656 16.35841 17.98695C 15.891877 19.11734 16.153088 20.417505 17.02 21.279999C 18.202572 22.44129 20.097427 22.44129 21.279999 21.279999Z"></path></g></g></g><g id="g-root-ic_uneq_1qdugor1otr6ku-fill" data-item-order="-2304" transform="translate(194, 234)"><g id="ic_uneq_1qdugor1otr6ku-fill" stroke="none" fill="#43dd93"><g><path d="M 58 30.719999C 57.999996 30.449705 57.938442 30.182961 57.82 29.939999L 51.66 16C 51.609989 15.878269 51.609989 15.741731 51.66 15.62C 51.730953 15.492474 51.856071 15.404154 51.999996 15.379999L 53.32 14.860001C 54.347252 14.429218 54.830784 13.24725 54.400002 12.22C 53.969219 11.192751 52.787254 10.709218 51.760002 11.14L 36.68 17.139999C 36.536652 17.218256 36.363346 17.218256 36.220001 17.139999C 36.046452 17.028618 35.959084 16.822117 36 16.619999L 36 14C 36 12.895431 35.104568 12 34 12C 32.895432 12 32 12.895431 32 14L 32 18.6C 31.997347 18.804316 31.87064 18.986458 31.68 19.060001L 13.68 26.139999C 12.769165 26.497074 12.25033 27.460653 12.453625 28.417624C 12.656919 29.374594 13.522666 30.044041 14.5 30C 14.673492 29.99839 14.837193 30.08024 14.940001 30.220001C 15.009314 30.372492 15.009314 30.547506 14.94 30.699999L 10.18 41.68C 10.063484 41.923637 10.00203 42.189941 10 42.459999C 10 47.430565 14.029438 51.459999 19 51.459999C 23.970562 51.459999 28 47.430565 28 42.459999C 27.984947 42.176601 27.91712 41.898502 27.799999 41.639999L 21.68 27.879999C 21.618996 27.753645 21.618996 27.606356 21.68 27.48C 21.751638 27.352924 21.86454 27.254135 22 27.199999L 31.360001 23.52C 31.503347 23.441742 31.676651 23.441742 31.819998 23.52C 31.960176 23.637253 32.028515 23.819485 31.999998 24L 32 52.5C 32 52.776142 31.776142 53 31.5 53L 25.16 53C 24.055431 53 23.16 53.895432 23.16 55C 23.16 56.104568 24.055431 57 25.16 57L 42.779999 57C 43.884571 57 44.779999 56.104568 44.779999 55C 44.779999 53.895432 43.884571 53 42.779999 53L 36.5 53C 36.223858 53 36 52.776142 36 52.5L 36 22C 36.002655 21.795685 36.12936 21.613543 36.32 21.540001L 44.32 18.34C 44.508377 18.277767 44.71571 18.323841 44.860001 18.459999C 44.996922 18.612556 45.03566 18.829483 44.959999 19.02L 40.200001 30C 40.0821 30.251181 40.014175 30.52289 40 30.800001C 40 35.770561 44.029438 39.799999 49 39.799999C 53.970562 39.799999 58 35.770561 58 30.799999ZM 15.62 41C 15.452768 40.99847 15.296476 40.916603 15.2 40.779999C 15.130687 40.627506 15.130687 40.452492 15.2 40.299999L 18.58 32.720001C 18.658545 32.535622 18.839592 32.415958 19.040001 32.415958C 19.24041 32.415958 19.421455 32.535622 19.5 32.720001L 22.860001 40.299999C 22.929314 40.452492 22.929314 40.627506 22.860001 40.779999C 22.763523 40.916603 22.607231 40.99847 22.439999 41ZM 45.619999 29.24C 45.452766 29.23847 45.296474 29.156605 45.199997 29.019999C 45.130684 28.867506 45.130684 28.692492 45.199997 28.539999L 48.560001 20.959999C 48.638546 20.775623 48.819592 20.65596 49.02 20.65596C 49.220409 20.65596 49.401455 20.775623 49.48 20.959999L 52.860001 28.540001C 52.92931 28.692492 52.92931 28.867506 52.859997 29.019999C 52.763519 29.156605 52.607227 29.23847 52.439999 29.239998Z"></path></g></g></g><g id="g-root-ic_buil_zs6e4b1otwtfz-fill" data-item-order="-2304" transform="translate(194, 594)"><g id="ic_buil_zs6e4b1otwtfz-fill" stroke="none" fill="#cb68f9"><g><path d="M 10 10M 57.380001 15.08L 45.380001 10.08C 45.072361 9.953612 44.722019 9.988444 44.445286 10.172931C 44.168556 10.357418 44.001656 10.667416 44 11L 44 38C 44 38.552284 44.447716 39 45 39L 47 39C 47.552284 39 48 38.552284 48 38L 48 34C 48 33.447716 48.447716 33 49 33L 53 33C 53.552284 33 54 33.447716 54 34L 54 38C 54 38.552284 54.447716 39 55 39L 57 39C 57.552284 39 58 38.552284 58 38L 58 16C 57.997986 15.596298 57.753426 15.233404 57.380001 15.08ZM 54 26L 48 26C 47.447716 26 47 25.552284 47 25C 47 24.447716 47.447716 24 48 24L 54 24C 54.552284 24 55 24.447716 55 25C 55 25.552284 54.552284 26 54 26ZM 54 21L 48 21C 47.447716 21 47 20.552284 47 20C 47 19.447716 47.447716 19 48 19L 54 19C 54.552284 19 55 19.447716 55 20C 55 20.552284 54.552284 21 54 21ZM 10 10M 40.559998 14.1L 30.559999 19.1C 30.219868 19.271837 30.003889 19.618946 30 20L 30 25C 30 25.552284 30.447716 26 31 26L 36 26C 37.583984 26.01029 39.129257 26.49058 40.440002 27.379999C 40.748207 27.588362 41.146606 27.608402 41.474167 27.432024C 41.801727 27.255644 42.004299 26.912004 42 26.540001L 42 15C 42.00069 14.654498 41.822987 14.333115 41.529999 14.149999C 41.237015 13.966883 40.870262 13.947978 40.559998 14.1ZM 38 23L 34 23C 33.447716 23 33 22.552284 33 22C 33 21.447716 33.447716 21 34 21L 38 21C 38.552284 21 39 21.447716 39 22C 39 22.552284 38.552284 23 38 23ZM 36 28L 16 28C 12.686292 28 10 30.686293 10 34L 10 52C 10 55.313709 12.686292 58 16 58L 36 58C 39.313709 58 42 55.313709 42 52L 42 34C 42 30.686293 39.313709 28 36 28ZM 20.98 49.860001L 21.68 50.560001C 22.264908 51.145638 22.264908 52.094368 21.68 52.68C 21.094364 53.264908 20.145636 53.264908 19.560001 52.68L 18.860001 52C 18.765759 51.902225 18.635799 51.846989 18.5 51.846989C 18.364201 51.846989 18.234241 51.902225 18.139999 52L 17.440001 52.700001C 16.854366 53.284908 15.905636 53.284908 15.32 52.700001C 14.735094 52.114365 14.735094 51.165638 15.32 50.580002L 16 49.860001C 16.097776 49.765759 16.153013 49.635799 16.153013 49.5C 16.153013 49.364201 16.097776 49.234241 16 49.139999L 15.3 48.439999C 14.898695 48.066059 14.733503 47.502892 14.86923 46.971424C 15.004957 46.439957 15.419956 46.02496 15.951423 45.889233C 16.482889 45.753502 17.046059 45.918694 17.42 46.32L 18.119999 47.02C 18.214241 47.117775 18.3442 47.173012 18.48 47.173012C 18.615799 47.173012 18.745758 47.117775 18.84 47.02L 19.540001 46.32C 19.91394 45.918694 20.477112 45.753502 21.008577 45.889233C 21.540043 46.02496 21.955044 46.439957 22.090771 46.971424C 22.226498 47.502892 22.061306 48.066059 21.66 48.440002L 20.959999 49.139999C 20.864792 49.236931 20.813129 49.368435 20.816902 49.504253C 20.820675 49.640068 20.879557 49.768501 20.98 49.860001ZM 21.5 38L 20.5 38C 20.223858 38 20 38.223858 20 38.5L 20 39.5C 20 40.32843 19.328426 41 18.5 41C 17.671574 41 17 40.32843 17 39.5L 17 38.5C 17 38.223858 16.776142 38 16.5 38L 15.5 38C 14.671574 38 14 37.32843 14 36.5C 14 35.671574 14.671574 35 15.5 35L 16.5 35C 16.776142 35 17 34.776142 17 34.5L 17 33.5C 17 32.671574 17.671574 32 18.5 32C 19.328426 32 20 32.671574 20 33.5L 20 34.5C 20 34.776142 20.223858 35 20.5 35L 21.5 35C 22.328426 35 23 35.671574 23 36.5C 23 37.32843 22.328426 38 21.5 38ZM 36.5 53L 30.5 53C 29.671574 53 29 52.32843 29 51.5C 29 50.671574 29.671574 50 30.5 50L 36.5 50C 37.32843 50 38 50.671574 38 51.5C 38 52.32843 37.32843 53 36.5 53ZM 36.5 48L 30.5 48C 29.671574 48 29 47.328426 29 46.5C 29 45.671574 29.671574 45 30.5 45L 36.5 45C 37.32843 45 38 45.671574 38 46.5C 38 47.328426 37.32843 48 36.5 48ZM 36.5 38L 30.5 38C 29.671574 38 29 37.32843 29 36.5C 29 35.671574 29.671574 35 30.5 35L 36.5 35C 37.32843 35 38 35.671574 38 36.5C 38 37.32843 37.32843 38 36.5 38Z"></path></g></g></g><g id="g-root-tx_logicalr_zjfu2j1otejuz-fill" data-item-order="0" transform="translate(626, 306)"><g id="tx_logicalr_zjfu2j1otejuz-fill" stroke="none" fill="#a6da37"><g><text style="font: bold 20px &quot;Shantell Sans&quot;, cursive; white-space: pre;" font-weight="bold" font-size="20px" font-family="'Shantell Sans', cursive"><tspan x="12" y="34.75" dominant-baseline="ideographic">Logical </tspan><tspan x="12" y="58.75" dominant-baseline="ideographic">Reasoning</tspan></text></g></g></g><g id="g-root-tx_involves_hssanv1otej2c-fill" data-item-order="0" transform="translate(626, 366)"><g id="tx_involves_hssanv1otej2c-fill" stroke="none" fill="#91bb39"><g><text style="font: 15px &quot;Shantell Sans&quot;, cursive; white-space: pre;" font-size="15px" font-family="'Shantell Sans', cursive"><tspan x="12" y="28.77" dominant-baseline="ideographic">Involves critical </tspan><tspan x="12" y="46.77" dominant-baseline="ideographic">thinking and </tspan><tspan x="12" y="64.77" dominant-baseline="ideographic">problem-solving </tspan><tspan x="12" y="82.77" dominant-baseline="ideographic">skills</tspan></text></g></g></g><g id="g-root-tx_focuseso_hz0yd71otr6rx-fill" data-item-order="0" transform="translate(38, 294)"><g id="tx_focuseso_hz0yd71otr6rx-fill" stroke="none" fill="#3bc482"><g><text style="font: 15px &quot;Shantell Sans&quot;, cursive; white-space: pre;" font-size="15px" font-family="'Shantell Sans', cursive"><tspan x="73.31" y="28.77" dominant-baseline="ideographic">Focuses on </tspan><tspan x="13.63" y="46.77" dominant-baseline="ideographic">understanding and </tspan><tspan x="50.23" y="64.77" dominant-baseline="ideographic">applying legal </tspan><tspan x="84.21" y="82.77" dominant-baseline="ideographic">principles</tspan></text></g></g></g><g id="g-root-tx_englishl_dhc0zf1ottzbj-fill" data-item-order="0" transform="translate(74, 414)"><g id="tx_englishl_dhc0zf1ottzbj-fill" stroke="none" fill="#1ac3fb"><g><text style="font: bold 20px &quot;Shantell Sans&quot;, cursive; white-space: pre;" font-weight="bold" font-size="20px" font-family="'Shantell Sans', cursive"><tspan x="40.19" y="34.75" dominant-baseline="ideographic">English </tspan><tspan x="14.59" y="58.75" dominant-baseline="ideographic">Language</tspan></text></g></g></g><g id="g-root-tx_testspro_1qbz1ff1ottz40-fill" data-item-order="0" transform="translate(38, 474)"><g id="tx_testspro_1qbz1ff1ottz40-fill" stroke="none" fill="#1ac3fb"><g><text style="font: 15px &quot;Shantell Sans&quot;, cursive; white-space: pre;" font-size="15px" font-family="'Shantell Sans', cursive"><tspan x="13.97" y="28.77" dominant-baseline="ideographic">Tests proficiency in </tspan><tspan x="83.72" y="46.77" dominant-baseline="ideographic">grammar, </tspan><tspan x="34.97" y="64.77" dominant-baseline="ideographic">vocabulary, and </tspan><tspan x="44.01" y="82.77" dominant-baseline="ideographic">comprehension</tspan></text></g></g></g><g id="g-root-tx_assesses_1qegxrv1otwtfy-fill" data-item-order="0" transform="translate(38, 654)"><g id="tx_assesses_1qegxrv1otwtfy-fill" stroke="none" fill="#b95ce3"><g><text style="font: 15px &quot;Shantell Sans&quot;, cursive; white-space: pre;" font-size="15px" font-family="'Shantell Sans', cursive"><tspan x="46.88" y="28.77" dominant-baseline="ideographic">Assesses basic </tspan><tspan x="52.84" y="46.77" dominant-baseline="ideographic">mathematical </tspan><tspan x="13.25" y="64.77" dominant-baseline="ideographic">skills and problem-</tspan><tspan x="101.31" y="82.77" dominant-baseline="ideographic">solving</tspan></text></g></g></g><g id="g-root-tx_generalk_hs5tkr1othczv-fill" data-item-order="0" transform="translate(626, 486)"><g id="tx_generalk_hs5tkr1othczv-fill" stroke="none" fill="#8769fd"><g><text style="font: bold 20px &quot;Shantell Sans&quot;, cursive; white-space: pre;" font-weight="bold" font-size="20px" font-family="'Shantell Sans', cursive"><tspan x="12" y="34.75" dominant-baseline="ideographic">General </tspan><tspan x="12" y="58.75" dominant-baseline="ideographic">Knowledge &amp; </tspan><tspan x="12" y="82.75" dominant-baseline="ideographic">Current </tspan><tspan x="12" y="106.75" dominant-baseline="ideographic">Affairs</tspan></text></g></g></g><g id="g-root-tx_legalrea_vahgqj1otr570-fill" data-item-order="0" transform="translate(62, 234)"><g id="tx_legalrea_vahgqj1otr570-fill" stroke="none" fill="#43dd93"><g><text style="font: bold 20px &quot;Shantell Sans&quot;, cursive; white-space: pre;" font-weight="bold" font-size="20px" font-family="'Shantell Sans', cursive"><tspan x="71.76" y="34.75" dominant-baseline="ideographic">Legal </tspan><tspan x="19.21" y="58.75" dominant-baseline="ideographic">Reasoning</tspan></text></g></g></g><g id="g-root-tx_quantita_vb3xtn1otws25-fill" data-item-order="0" transform="translate(38, 594)"><g id="tx_quantita_vb3xtn1otws25-fill" stroke="none" fill="#cb68f9"><g><text style="font: bold 20px &quot;Shantell Sans&quot;, cursive; white-space: pre;" font-weight="bold" font-size="20px" font-family="'Shantell Sans', cursive"><tspan x="19.32" y="34.75" dominant-baseline="ideographic">Quantitative </tspan><tspan x="39.21" y="58.75" dominant-baseline="ideographic">Techniques</tspan></text></g></g></g><g id="g-root-tx_comprehe_18lbi0r1otr6rv-fill" data-item-order="0" transform="translate(68, 66)"><g id="tx_comprehe_18lbi0r1otr6rv-fill" stroke="none" fill="#f4f4f4"><g><text style="font: 30px &quot;Shantell Sans&quot;, cursive; white-space: pre;" font-size="30px" font-family="'Shantell Sans', cursive"><tspan x="22.96" y="65.55" dominant-baseline="ideographic">The Ultimate Law Exam Syllabus Breakdown</tspan></text></g></g></g><g id="g-root-tx_coversaw_4hbsaj1othbf0-fill" data-item-order="0" transform="translate(626, 594)"><g id="tx_coversaw_4hbsaj1othbf0-fill" stroke="none" fill="#8769fd"><g><text style="font: 15px &quot;Shantell Sans&quot;, cursive; white-space: pre;" font-size="15px" font-family="'Shantell Sans', cursive"><tspan x="12" y="31.77" dominant-baseline="ideographic">Covers awareness of </tspan><tspan x="12" y="49.77" dominant-baseline="ideographic">global and national </tspan><tspan x="12" y="67.77" dominant-baseline="ideographic">events</tspan></text></g></g></g><g id="g-root-cp_5_g-5_924zy31otr5e7-stroke" data-item-order="-570910" transform="translate(347.9530029296875, 530.830078125)"><g id="cp_5_g-5_924zy31otr5e7-stroke" fill="none" stroke-linecap="round" stroke-linejoin="round" stroke-miterlimit="4" stroke="#2c2c2c" stroke-width="2"><g><path d="M 121.0152 10.23C 119.92 13.71 119.3127 17.34 119.3127 21.09L 119.3127 59.87C 119.3127 66.06 114.6231 71.25 108.47 71.69C 95.2278 72.65 80.9402 73.17 66.0453 73.17C 51.1503 73.17 36.1259 72.62 22.595 71.62C 16.4618 71.16 11.7822 65.98 11.7822 59.79L 11.7822 21.09C 11.7822 17.26 11.145 13.55 10 10C 28.1507 12.07 47.088 13.17 66.5431 13.17C 85.9981 13.17 103.4917 12.16 121.0152 10.23Z"></path></g></g></g><g id="g-root-cp_4_g-4_6hzp71otr6yp-stroke" data-item-order="-570906" transform="translate(298.1300048828125, 462.33984375)"><g id="cp_4_g-4_6hzp71otr6yp-stroke" fill="none" stroke-linecap="round" stroke-linejoin="round" stroke-miterlimit="4" stroke="#2c2c2c" stroke-width="2"><g><path d="M 221.59 10.38C 220.99 11.87 220.35 13.35 219.69 14.81C 215.43 24.18 209.95 32.86 203.43 40.67C 198.71 46.33 193.44 51.52 187.72 56.17C 180.36 62.16 174.38 69.92 171.58 78.72C 153.98 80.65 135.67 81.66 116.87 81.66C 98.07 81.66 78.31 80.56 60.08 78.49C 57.26 69.79 51.32 62.1 44.02 56.17C 38.22 51.46 32.89 46.18 28.12 40.44C 21.61 32.6 16.13 23.87 11.89 14.47C 11.23 13 10.59 11.51 10 10C 42.27 17.48 78.43 21.66 116.62 21.66C 154.81 21.66 189.74 17.62 221.59 10.38Z"></path></g></g></g><g id="g-root-cp_3_g-3_6hzp71otr6yr-stroke" data-item-order="-570902" transform="translate(290, 400.83984375)"><g id="cp_3_g-3_6hzp71otr6yr-stroke" fill="none" stroke-linecap="round" stroke-linejoin="round" stroke-miterlimit="4" stroke="#2c2c2c" stroke-width="2"><g><path d="M 238 29.16C 238 35.01 237.56 40.76 236.71 46.37C 235.37 55.25 232.99 63.8 229.72 71.88C 197.87 79.12 162.29 83.16 124.75 83.16C 87.21 83.16 50.4 78.98 18.13 71.5C 14.88 63.4 12.54 54.84 11.23 45.94C 10.42 40.46 10 34.86 10 29.16C 10 22.63 10.55 16.23 11.61 10C 45.45 18.41 83.83 23.16 124.5 23.16C 165.17 23.16 202.83 18.5 236.43 10.24C 237.46 16.39 238 22.71 238 29.16Z"></path></g></g></g><g id="g-root-cp_2_g-2_1qbz1ff1otr7kd-stroke" data-item-order="-570898" transform="translate(291.6099853515625, 346.33984375)"><g id="cp_2_g-2_1qbz1ff1otr7kd-stroke" fill="none" stroke-linecap="round" stroke-linejoin="round" stroke-miterlimit="4" stroke="#2c2c2c" stroke-width="2"><g><path d="M 234.82 64.74C 201.22 73 163.18 77.66 122.89 77.66C 82.6 77.66 43.84 72.91 10 64.5C 10.68 60.46 11.57 56.5 12.67 52.62C 14.88 44.78 17.91 37.29 21.65 30.24C 25.4 23.19 29.87 16.58 34.96 10.5C 35.1 10.33 35.24 10.17 35.39 10C 62.51 14.95 91.92 17.66 122.64 17.66C 153.36 17.66 182.45 14.98 209.46 10.08C 209.64 10.27 209.8 10.47 209.96 10.66C 220.14 22.86 227.82 37.22 232.21 52.95C 233.28 56.8 234.16 60.73 234.82 64.74Z"></path></g></g></g><g id="g-root-cp_1_g-1_1lws0e31otr56v-stroke" data-item-order="-570894" transform="translate(317, 306)"><g id="cp_1_g-1_1lws0e31otr56v-stroke" fill="none" stroke-linecap="round" stroke-linejoin="round" stroke-miterlimit="4" stroke="#2c2c2c" stroke-width="2"><g><path d="M 184.07 50.42C 157.06 55.32 127.81 58 97.25 58C 66.69 58 37.12 55.29 10 50.34C 30.9 25.66 62.13 10 97 10C 114.6 10 131.26 13.99 146.14 21.11C 160.79 28.11 173.71 38.16 184.07 50.42Z"></path></g></g></g><g id="g-root-cp_0_g-0_1hgyi9n1otr5z5-stroke" data-item-order="-570890" transform="translate(356.010009765625, 600.7490234375)"><g id="cp_0_g-0_1hgyi9n1otr5z5-stroke" fill="none" stroke-linecap="round" stroke-linejoin="round" stroke-miterlimit="4" stroke="#2c2c2c" stroke-width="2"><g><path d="M 16.4 10.0113C 29.73 10.8213 43.89 11.2513 58.56 11.2513C 73.23 11.2513 86.59 10.8413 99.59 10.0813C 103.05 9.8813 105.99 12.6213 105.99 16.0813C 105.99 19.2313 103.56 21.8413 100.42 22.0313C 87.18 22.8313 73.13 23.2513 58.57 23.2513C 44.01 23.2513 29.14 22.8013 15.56 21.9613C 12.43 21.7613 10 19.1613 10 16.0113C 10 12.5413 12.94 9.8013 16.41 10.0113L 16.4 10.0113ZM 16.4 30.0113C 29.73 30.8213 43.89 31.2513 58.56 31.2513C 73.23 31.2513 86.59 30.8413 99.59 30.0813C 103.05 29.8813 105.99 32.6213 105.99 36.0813C 105.99 39.2313 103.56 41.8413 100.42 42.0313C 87.18 42.8313 73.13 43.2513 58.57 43.2513C 44.01 43.2513 29.14 42.8013 15.56 41.9613C 12.43 41.7613 10 39.1613 10 36.0113C 10 32.5413 12.94 29.8013 16.41 30.0113L 16.4 30.0113ZM 29.99 50.691C 39.22 51.061 48.78 51.251 58.56 51.251C 68.34 51.251 77.12 51.071 86 50.731C 89.42 50.601 92.28 53.321 92.28 56.751C 92.28 59.951 89.77 62.591 86.57 62.711C 77.51 63.061 68.15 63.251 58.56 63.251C 48.97 63.251 38.82 63.051 29.4 62.671C 26.21 62.541 23.7 59.901 23.7 56.711C 23.7 53.281 26.57 50.561 29.99 50.691Z"></path></g></g></g><g id="g-root-ic_ink_145hzwb1ottybu-stroke" data-item-order="-2304" transform="translate(194, 414)"></g><g id="g-root-ic_1_1hbysqj1otejnx-stroke" data-item-order="-2304" transform="translate(566, 306)"></g><g id="g-root-ic_glob_1q6zbwb1othcst-stroke" data-item-order="-2304" transform="translate(566, 486)"></g><g id="g-root-ic_uneq_1qdugor1otr6ku-stroke" data-item-order="-2304" transform="translate(194, 234)"></g><g id="g-root-ic_buil_zs6e4b1otwtfz-stroke" data-item-order="-2304" transform="translate(194, 594)"></g><g id="g-root-tx_logicalr_zjfu2j1otejuz-stroke" data-item-order="0" transform="translate(626, 306)"></g><g id="g-root-tx_involves_hssanv1otej2c-stroke" data-item-order="0" transform="translate(626, 366)"></g><g id="g-root-tx_focuseso_hz0yd71otr6rx-stroke" data-item-order="0" transform="translate(38, 294)"></g><g id="g-root-tx_englishl_dhc0zf1ottzbj-stroke" data-item-order="0" transform="translate(74, 414)"></g><g id="g-root-tx_testspro_1qbz1ff1ottz40-stroke" data-item-order="0" transform="translate(38, 474)"></g><g id="g-root-tx_assesses_1qegxrv1otwtfy-stroke" data-item-order="0" transform="translate(38, 654)"></g><g id="g-root-tx_generalk_hs5tkr1othczv-stroke" data-item-order="0" transform="translate(626, 486)"></g><g id="g-root-tx_legalrea_vahgqj1otr570-stroke" data-item-order="0" transform="translate(62, 234)"></g><g id="g-root-tx_quantita_vb3xtn1otws25-stroke" data-item-order="0" transform="translate(38, 594)"></g><g id="g-root-tx_comprehe_18lbi0r1otr6rv-stroke" data-item-order="0" transform="translate(68, 66)"></g><g id="g-root-tx_coversaw_4hbsaj1othbf0-stroke" data-item-order="0" transform="translate(626, 594)"></g></g></g></svg>