<?xml version="1.0" encoding="utf-8" standalone="yes"?>
<!DOCTYPE svg PUBLIC "-//W3C//DTD SVG 1.1//EN" "http://www.w3.org/Graphics/SVG/1.1/DTD/svg11.dtd">
<svg width="552" height="612" viewBox="0 0 552 612" style="fill:none;stroke:none;fill-rule:evenodd;clip-rule:evenodd;stroke-linecap:round;stroke-linejoin:round;stroke-miterlimit:1.5;" version="1.1" xmlns="http://www.w3.org/2000/svg" xmlns:xlink="http://www.w3.org/1999/xlink"><style class="text-font-style fontImports" data-font-family="Shantell Sans">@import url('https://fonts.googleapis.com/css2?family=Shantell+Sans:wght@300..800&amp;display=block');</style><g id="items" style="isolation: isolate"><g id="blend" style="mix-blend-mode: normal"><g id="g-root-cp_9-fill_g-9-fill_quo1og1u3b0ub-fill" data-item-order="-296340" transform="translate(226, 454)"><g id="cp_9-fill_g-9-fill_quo1og1u3b0ub-fill" stroke="none" fill="#b7b7b7"><g><path d="M 10 62C 10 59.7909 11.7909 58 14 58C 16.2091 58 18 59.7909 18 62C 18 64.1356 16.3263 65.8804 14.2191 65.9941C 14.1465 65.998 14.0735 66 14 66C 11.7909 66 10 64.2091 10 62ZM 28 30C 28 27.7909 29.7909 26 32 26C 33.1611 26 34.2066 26.4947 34.9373 27.2847C 35.5969 27.998 36 28.9519 36 30C 36 32.2091 34.2091 34 32 34C 30.7716 34 29.6726 33.4463 28.9388 32.5749C 28.353 31.8791 28 30.9808 28 30ZM 28 94C 28 93.0192 28.353 92.1209 28.9388 91.4251C 29.6726 90.5537 30.7716 90 32 90C 34.2091 90 36 91.7909 36 94C 36 95.0481 35.5969 96.002 34.9373 96.7152C 34.2066 97.5053 33.161 98 32 98C 29.7909 98 28 96.2091 28 94ZM 46 14C 46 11.7909 47.7909 10 50 10C 52.2091 10 54 11.7909 54 14C 54 16.2091 52.2091 18 50 18C 48.8055 18 47.7332 17.4764 47.0003 16.6461C 46.3778 15.941 46 15.0146 46 14ZM 14 78C 14 76.4375 14.8959 75.0842 16.202 74.4259C 16.7426 74.1534 17.3534 74 18 74C 20.2091 74 22 75.7909 22 78C 22 79.5675 21.0984 80.9243 19.7855 81.5804C 19.2481 81.8489 18.6417 82 18 82C 15.7909 82 14 80.2091 14 78ZM 14 46C 14 43.7909 15.7909 42 18 42C 18.6417 42 19.2481 42.1511 19.7855 42.4196C 21.0984 43.0756 22 44.4325 22 46C 22 48.2091 20.2091 50 18 50C 17.3534 50 16.7426 49.8466 16.202 49.5741C 14.8959 48.9158 14 47.5625 14 46Z"></path></g></g></g><g id="g-root-cp_9-lines_g-9-lines_8di0w1u3b0uc-fill" data-item-order="-296335" transform="translate(226, 454)"></g><g id="g-root-cp_8-fill_g-8-fill_zrk03k1u3b1fy-fill" data-item-order="-296330" transform="translate(280, 374)"><g id="cp_8-fill_g-8-fill_zrk03k1u3b1fy-fill" stroke="none" fill="#cb68f9"><g><path d="M 36 46C 36 48.2091 34.2091 50 32 50C 29.7909 50 28 48.2091 28 46C 28 43.8644 29.6737 42.1196 31.7809 42.0059C 31.8535 42.002 31.9265 42 32 42C 34.2091 42 36 43.7909 36 46ZM 18 78C 18 80.2091 16.2091 82 14 82C 12.839 82 11.7934 81.5053 11.0627 80.7152C 10.4031 80.002 10 79.0481 10 78C 10 75.7909 11.7909 74 14 74C 15.2284 74 16.3274 74.5537 17.0612 75.4251C 17.647 76.1209 18 77.0192 18 78ZM 18 14C 18 14.9808 17.647 15.8791 17.0612 16.5749C 16.3274 17.4463 15.2284 18 14 18C 11.7909 18 10 16.2091 10 14C 10 12.9519 10.4031 11.998 11.0627 11.2848C 11.7934 10.4947 12.8389 10 14 10C 16.2091 10 18 11.7909 18 14ZM 32 30C 32 31.5625 31.1041 32.9158 29.798 33.5741C 29.2574 33.8466 28.6466 34 28 34C 25.7909 34 24 32.2091 24 30C 24 28.4325 24.9016 27.0756 26.2145 26.4196C 26.7519 26.1511 27.3583 26 28 26C 30.2091 26 32 27.7909 32 30ZM 32 62C 32 64.2091 30.2091 66 28 66C 27.3583 66 26.7519 65.8489 26.2145 65.5804C 24.9016 64.9244 24 63.5675 24 62C 24 59.7909 25.7909 58 28 58C 28.6466 58 29.2574 58.1534 29.798 58.4259C 31.1041 59.0842 32 60.4375 32 62Z"></path></g></g></g><g id="g-root-cp_8-lines_g-8-lines_mg3hq81u3b30v-fill" data-item-order="-296325" transform="translate(269, 368)"></g><g id="g-root-cp_7-fill_g-7-fill_4pfybk1u3b289-fill" data-item-order="-296320" transform="translate(226, 358)"><g id="cp_7-fill_g-7-fill_4pfybk1u3b289-fill" stroke="none" fill="#8769fd"><g><path d="M 10 62C 10 59.7909 11.7909 58 14 58C 16.2091 58 18 59.7909 18 62C 18 64.1356 16.3263 65.8804 14.2191 65.9941C 14.1465 65.998 14.0735 66 14 66C 11.7909 66 10 64.2091 10 62ZM 28 30C 28 27.7909 29.7909 26 32 26C 33.1611 26 34.2066 26.4947 34.9373 27.2847C 35.5969 27.998 36 28.9519 36 30C 36 32.2091 34.2091 34 32 34C 30.7716 34 29.6726 33.4463 28.9388 32.5749C 28.353 31.8791 28 30.9808 28 30ZM 28 94C 28 93.0192 28.353 92.1209 28.9388 91.4251C 29.6726 90.5537 30.7716 90 32 90C 34.2091 90 36 91.7909 36 94C 36 95.0481 35.5969 96.002 34.9373 96.7152C 34.2066 97.5053 33.161 98 32 98C 29.7909 98 28 96.2091 28 94ZM 46 14C 46 11.7909 47.7909 10 50 10C 52.2091 10 54 11.7909 54 14C 54 16.2091 52.2091 18 50 18C 48.8055 18 47.7332 17.4764 47.0003 16.6461C 46.3778 15.941 46 15.0146 46 14ZM 14 78C 14 76.4375 14.8959 75.0842 16.202 74.4259C 16.7426 74.1534 17.3534 74 18 74C 20.2091 74 22 75.7909 22 78C 22 79.5675 21.0984 80.9243 19.7855 81.5804C 19.2481 81.8489 18.6417 82 18 82C 15.7909 82 14 80.2091 14 78ZM 14 46C 14 43.7909 15.7909 42 18 42C 18.6417 42 19.2481 42.1511 19.7855 42.4196C 21.0984 43.0756 22 44.4325 22 46C 22 48.2091 20.2091 50 18 50C 17.3534 50 16.7426 49.8466 16.202 49.5741C 14.8959 48.9158 14 47.5625 14 46Z"></path></g></g></g><g id="g-root-cp_7-lines_g-7-lines_1q5qdmo1u3cf0q-fill" data-item-order="-296315" transform="translate(226, 358)"></g><g id="g-root-cp_6-fill_g-6-fill_18egd4w1u3chdw-fill" data-item-order="-296310" transform="translate(280, 278)"><g id="cp_6-fill_g-6-fill_18egd4w1u3chdw-fill" stroke="none" fill="#f366bb"><g><path d="M 36 46C 36 48.2091 34.2091 50 32 50C 29.7909 50 28 48.2091 28 46C 28 43.8644 29.6737 42.1196 31.7809 42.0059C 31.8535 42.002 31.9265 42 32 42C 34.2091 42 36 43.7909 36 46ZM 18 78C 18 80.2091 16.2091 82 14 82C 12.839 82 11.7934 81.5053 11.0627 80.7152C 10.4031 80.002 10 79.0481 10 78C 10 75.7909 11.7909 74 14 74C 15.2284 74 16.3274 74.5537 17.0612 75.4251C 17.647 76.1209 18 77.0192 18 78ZM 18 14C 18 14.9808 17.647 15.8791 17.0612 16.5749C 16.3274 17.4463 15.2284 18 14 18C 11.7909 18 10 16.2091 10 14C 10 12.9519 10.4031 11.998 11.0627 11.2848C 11.7934 10.4947 12.8389 10 14 10C 16.2091 10 18 11.7909 18 14ZM 32 30C 32 31.5625 31.1041 32.9158 29.798 33.5741C 29.2574 33.8466 28.6466 34 28 34C 25.7909 34 24 32.2091 24 30C 24 28.4325 24.9016 27.0756 26.2145 26.4196C 26.7519 26.1511 27.3583 26 28 26C 30.2091 26 32 27.7909 32 30ZM 32 62C 32 64.2091 30.2091 66 28 66C 27.3583 66 26.7519 65.8489 26.2145 65.5804C 24.9016 64.9244 24 63.5675 24 62C 24 59.7909 25.7909 58 28 58C 28.6466 58 29.2574 58.1534 29.798 58.4259C 31.1041 59.0842 32 60.4375 32 62Z"></path></g></g></g><g id="g-root-cp_6-lines_g-6-lines_v3mbuo1u3cft1-fill" data-item-order="-296305" transform="translate(269, 272)"></g><g id="g-root-cp_5-fill_g-5-fill_8x5abk1u3cf0v-fill" data-item-order="-296300" transform="translate(226, 262)"><g id="cp_5-fill_g-5-fill_8x5abk1u3cf0v-fill" stroke="none" fill="#fb6762"><g><path d="M 10 62C 10 59.7909 11.7909 58 14 58C 16.2091 58 18 59.7909 18 62C 18 64.1356 16.3263 65.8804 14.2191 65.9941C 14.1465 65.998 14.0735 66 14 66C 11.7909 66 10 64.2091 10 62ZM 28 30C 28 27.7909 29.7909 26 32 26C 33.1611 26 34.2066 26.4947 34.9373 27.2847C 35.5969 27.998 36 28.9519 36 30C 36 32.2091 34.2091 34 32 34C 30.7716 34 29.6726 33.4463 28.9388 32.5749C 28.353 31.8791 28 30.9808 28 30ZM 28 94C 28 93.0192 28.353 92.1209 28.9388 91.4251C 29.6726 90.5537 30.7716 90 32 90C 34.2091 90 36 91.7909 36 94C 36 95.0481 35.5969 96.002 34.9373 96.7152C 34.2066 97.5053 33.161 98 32 98C 29.7909 98 28 96.2091 28 94ZM 46 14C 46 11.7909 47.7909 10 50 10C 52.2091 10 54 11.7909 54 14C 54 16.2091 52.2091 18 50 18C 48.8055 18 47.7332 17.4764 47.0003 16.6461C 46.3778 15.941 46 15.0146 46 14ZM 14 78C 14 76.4375 14.8959 75.0842 16.202 74.4259C 16.7426 74.1534 17.3534 74 18 74C 20.2091 74 22 75.7909 22 78C 22 79.5675 21.0984 80.9243 19.7855 81.5804C 19.2481 81.8489 18.6417 82 18 82C 15.7909 82 14 80.2091 14 78ZM 14 46C 14 43.7909 15.7909 42 18 42C 18.6417 42 19.2481 42.1511 19.7855 42.4196C 21.0984 43.0756 22 44.4325 22 46C 22 48.2091 20.2091 50 18 50C 17.3534 50 16.7426 49.8466 16.202 49.5741C 14.8959 48.9158 14 47.5625 14 46Z"></path></g></g></g><g id="g-root-cp_5-lines_g-5-lines_1q6zbsw1u3ch6w-fill" data-item-order="-296295" transform="translate(226, 262)"></g><g id="g-root-cp_4-fill_g-4-fill_18gbse81u3cgea-fill" data-item-order="-296290" transform="translate(280, 182)"><g id="cp_4-fill_g-4-fill_18gbse81u3cgea-fill" stroke="none" fill="#f79438"><g><path d="M 36 46C 36 48.2091 34.2091 50 32 50C 29.7909 50 28 48.2091 28 46C 28 43.8644 29.6737 42.1196 31.7809 42.0059C 31.8535 42.002 31.9265 42 32 42C 34.2091 42 36 43.7909 36 46ZM 18 78C 18 80.2091 16.2091 82 14 82C 12.839 82 11.7934 81.5053 11.0627 80.7152C 10.4031 80.002 10 79.0481 10 78C 10 75.7909 11.7909 74 14 74C 15.2284 74 16.3274 74.5537 17.0612 75.4251C 17.647 76.1209 18 77.0192 18 78ZM 18 14C 18 14.9808 17.647 15.8791 17.0612 16.5749C 16.3274 17.4463 15.2284 18 14 18C 11.7909 18 10 16.2091 10 14C 10 12.9519 10.4031 11.998 11.0627 11.2848C 11.7934 10.4947 12.8389 10 14 10C 16.2091 10 18 11.7909 18 14ZM 32 30C 32 31.5625 31.1041 32.9158 29.798 33.5741C 29.2574 33.8466 28.6466 34 28 34C 25.7909 34 24 32.2091 24 30C 24 28.4325 24.9016 27.0756 26.2145 26.4196C 26.7519 26.1511 27.3583 26 28 26C 30.2091 26 32 27.7909 32 30ZM 32 62C 32 64.2091 30.2091 66 28 66C 27.3583 66 26.7519 65.8489 26.2145 65.5804C 24.9016 64.9244 24 63.5675 24 62C 24 59.7909 25.7909 58 28 58C 28.6466 58 29.2574 58.1534 29.798 58.4259C 31.1041 59.0842 32 60.4375 32 62Z"></path></g></g></g><g id="g-root-cp_4-lines_g-4-lines_v5hr401u3cetf-fill" data-item-order="-296285" transform="translate(269, 176)"></g><g id="g-root-cp_3-fill_g-3-fill_8ye8hs1u3ch71-fill" data-item-order="-296280" transform="translate(226, 166)"><g id="cp_3-fill_g-3-fill_8ye8hs1u3ch71-fill" stroke="none" fill="#ffe711"><g><path d="M 10 62C 10 59.7909 11.7909 58 14 58C 16.2091 58 18 59.7909 18 62C 18 64.1356 16.3263 65.8804 14.2191 65.9941C 14.1465 65.998 14.0735 66 14 66C 11.7909 66 10 64.2091 10 62ZM 28 30C 28 27.7909 29.7909 26 32 26C 33.1611 26 34.2066 26.4947 34.9373 27.2847C 35.5969 27.998 36 28.9519 36 30C 36 32.2091 34.2091 34 32 34C 30.7716 34 29.6726 33.4463 28.9388 32.5749C 28.353 31.8791 28 30.9808 28 30ZM 28 94C 28 93.0192 28.353 92.1209 28.9388 91.4251C 29.6726 90.5537 30.7716 90 32 90C 34.2091 90 36 91.7909 36 94C 36 95.0481 35.5969 96.002 34.9373 96.7152C 34.2066 97.5053 33.161 98 32 98C 29.7909 98 28 96.2091 28 94ZM 46 14C 46 11.7909 47.7909 10 50 10C 52.2091 10 54 11.7909 54 14C 54 16.2091 52.2091 18 50 18C 48.8055 18 47.7332 17.4764 47.0003 16.6461C 46.3778 15.941 46 15.0146 46 14ZM 14 78C 14 76.4375 14.8959 75.0842 16.202 74.4259C 16.7426 74.1534 17.3534 74 18 74C 20.2091 74 22 75.7909 22 78C 22 79.5675 21.0984 80.9243 19.7855 81.5804C 19.2481 81.8489 18.6417 82 18 82C 15.7909 82 14 80.2091 14 78ZM 14 46C 14 43.7909 15.7909 42 18 42C 18.6417 42 19.2481 42.1511 19.7855 42.4196C 21.0984 43.0756 22 44.4325 22 46C 22 48.2091 20.2091 50 18 50C 17.3534 50 16.7426 49.8466 16.202 49.5741C 14.8959 48.9158 14 47.5625 14 46Z"></path></g></g></g><g id="g-root-cp_3-lines_g-3-lines_1uoo96o1u3cff2-fill" data-item-order="-296275" transform="translate(226, 166)"></g><g id="g-root-cp_2-fill_g-2-fill_1cy0ps01u3cemg-fill" data-item-order="-296270" transform="translate(280, 86)"><g id="cp_2-fill_g-2-fill_1cy0ps01u3cemg-fill" stroke="none" fill="#a6da37"><g><path d="M 36 46C 36 48.2091 34.2091 50 32 50C 29.7909 50 28 48.2091 28 46C 28 43.8644 29.6737 42.1196 31.7809 42.0059C 31.8535 42.002 31.9265 42 32 42C 34.2091 42 36 43.7909 36 46ZM 18 78C 18 80.2091 16.2091 82 14 82C 12.839 82 11.7934 81.5053 11.0627 80.7152C 10.4031 80.002 10 79.0481 10 78C 10 75.7909 11.7909 74 14 74C 15.2284 74 16.3274 74.5537 17.0612 75.4251C 17.647 76.1209 18 77.0192 18 78ZM 18 14C 18 14.9808 17.647 15.8791 17.0612 16.5749C 16.3274 17.4463 15.2284 18 14 18C 11.7909 18 10 16.2091 10 14C 10 12.9519 10.4031 11.998 11.0627 11.2848C 11.7934 10.4947 12.8389 10 14 10C 16.2091 10 18 11.7909 18 14ZM 32 30C 32 31.5625 31.1041 32.9158 29.798 33.5741C 29.2574 33.8466 28.6466 34 28 34C 25.7909 34 24 32.2091 24 30C 24 28.4325 24.9016 27.0756 26.2145 26.4196C 26.7519 26.1511 27.3583 26 28 26C 30.2091 26 32 27.7909 32 30ZM 32 62C 32 64.2091 30.2091 66 28 66C 27.3583 66 26.7519 65.8489 26.2145 65.5804C 24.9016 64.9244 24 63.5675 24 62C 24 59.7909 25.7909 58 28 58C 28.6466 58 29.2574 58.1534 29.798 58.4259C 31.1041 59.0842 32 60.4375 32 62Z"></path></g></g></g><g id="g-root-cp_2-lines_g-2-lines_zmk7eo1u3cg7d-fill" data-item-order="-296265" transform="translate(269, 80)"></g><g id="g-root-cp_1-fill_g-1-fill_hvwo001u3cfer-fill" data-item-order="-296260" transform="translate(226, 70)"><g id="cp_1-fill_g-1-fill_hvwo001u3cfer-fill" stroke="none" fill="#43dd93"><g><path d="M 10 62C 10 59.7909 11.7909 58 14 58C 16.2091 58 18 59.7909 18 62C 18 64.1356 16.3263 65.8804 14.2191 65.9941C 14.1465 65.998 14.0735 66 14 66C 11.7909 66 10 64.2091 10 62ZM 28 30C 28 27.7909 29.7909 26 32 26C 33.1611 26 34.2066 26.4947 34.9373 27.2847C 35.5969 27.998 36 28.9519 36 30C 36 32.2091 34.2091 34 32 34C 30.7716 34 29.6726 33.4463 28.9388 32.5749C 28.353 31.8791 28 30.9808 28 30ZM 28 94C 28 93.0192 28.353 92.1209 28.9388 91.4251C 29.6726 90.5537 30.7716 90 32 90C 34.2091 90 36 91.7909 36 94C 36 95.0481 35.5969 96.002 34.9373 96.7152C 34.2066 97.5053 33.161 98 32 98C 29.7909 98 28 96.2091 28 94ZM 46 14C 46 11.7909 47.7909 10 50 10C 52.2091 10 54 11.7909 54 14C 54 16.2091 52.2091 18 50 18C 48.8055 18 47.7332 17.4764 47.0003 16.6461C 46.3778 15.941 46 15.0146 46 14ZM 14 78C 14 76.4375 14.8959 75.0842 16.202 74.4259C 16.7426 74.1534 17.3534 74 18 74C 20.2091 74 22 75.7909 22 78C 22 79.5675 21.0984 80.9243 19.7855 81.5804C 19.2481 81.8489 18.6417 82 18 82C 15.7909 82 14 80.2091 14 78ZM 14 46C 14 43.7909 15.7909 42 18 42C 18.6417 42 19.2481 42.1511 19.7855 42.4196C 21.0984 43.0756 22 44.4325 22 46C 22 48.2091 20.2091 50 18 50C 17.3534 50 16.7426 49.8466 16.202 49.5741C 14.8959 48.9158 14 47.5625 14 46Z"></path></g></g></g><g id="g-root-cp_1-lines_g-1-lines_1qaq6bk1u3cf7o-fill" data-item-order="-296255" transform="translate(226, 70)"></g><g id="g-root-tx_understa_4jty0w1u3b01v-fill" data-item-order="0" transform="translate(38, 215)"><g id="tx_understa_4jty0w1u3b01v-fill" stroke="none" fill="#ffe711"><g><text style="font: 10px &quot;Shantell Sans&quot;, cursive; white-space: pre;" font-size="10px" font-family="'Shantell Sans', cursive"><tspan x="31.89" y="22.8" dominant-baseline="ideographic">Understanding of </tspan><tspan x="22.51" y="34.8" dominant-baseline="ideographic">drug classifications </tspan><tspan x="21.07" y="46.8" dominant-baseline="ideographic">and administration.</tspan></text></g></g></g><g id="g-root-tx_focusonn_1hi7mo01u3jhty-fill" data-item-order="0" transform="translate(386, 221)"><g id="tx_focusonn_1hi7mo01u3jhty-fill" stroke="none" fill="#f79438"><g><text style="font: 10px &quot;Shantell Sans&quot;, cursive; white-space: pre;" font-size="10px" font-family="'Shantell Sans', cursive"><tspan x="12" y="22.8" dominant-baseline="ideographic">Focus on national </tspan><tspan x="12" y="34.8" dominant-baseline="ideographic">health programs and </tspan><tspan x="12" y="46.8" dominant-baseline="ideographic">family welfare.</tspan></text></g></g></g><g id="g-root-ic_elbo_hrjce81u3jg8w-fill" data-item-order="0" transform="translate(338, 200)"></g><g id="g-root-ic_hand_1qaq9hc1u3qj9o-fill" data-item-order="0" transform="translate(158, 200)"></g><g id="g-root-tx_obstetri_1uqjxxc1u3b2tg-fill" data-item-order="0" transform="translate(62, 275)"><g id="tx_obstetri_1uqjxxc1u3b2tg-fill" stroke="none" fill="#fb6762"><g><text style="font: bold 11.7px &quot;Shantell Sans&quot;, cursive; white-space: pre;" font-weight="bold" font-size="11.7px" font-family="'Shantell Sans', cursive"><tspan x="17.41" y="28.51" dominant-baseline="ideographic">Obstetrics &amp; </tspan><tspan x="12.61" y="42.51" dominant-baseline="ideographic">Gynaecology</tspan></text></g></g></g><g id="g-root-tx_communit_dj7mgw1u3jh8t-fill" data-item-order="0" transform="translate(386, 179)"><g id="tx_communit_dj7mgw1u3jh8t-fill" stroke="none" fill="#f79438"><g><text style="font: bold 11.7px &quot;Shantell Sans&quot;, cursive; white-space: pre;" font-weight="bold" font-size="11.7px" font-family="'Shantell Sans', cursive"><tspan x="12" y="28.51" dominant-baseline="ideographic">Community </tspan><tspan x="12" y="42.51" dominant-baseline="ideographic">Health Nursing</tspan></text></g></g></g><g id="g-root-tx_pharmaco_1q7m2dc1u3b2fe-fill" data-item-order="0" transform="translate(50, 185)"><g id="tx_pharmaco_1q7m2dc1u3b2fe-fill" stroke="none" fill="#ffe711"><g><text style="font: bold 11.7px &quot;Shantell Sans&quot;, cursive; white-space: pre;" font-weight="bold" font-size="11.7px" font-family="'Shantell Sans', cursive"><tspan x="16.35" y="29.51" dominant-baseline="ideographic">Pharmacology</tspan></text></g></g></g><g id="g-root-tx_pediatri_9mjcw1u3jhtz-fill" data-item-order="0" transform="translate(386, 275)"><g id="tx_pediatri_9mjcw1u3jhtz-fill" stroke="none" fill="#f366bb"><g><text style="font: bold 11.7px &quot;Shantell Sans&quot;, cursive; white-space: pre;" font-weight="bold" font-size="11.7px" font-family="'Shantell Sans', cursive"><tspan x="12" y="29.51" dominant-baseline="ideographic">Pediatrics</tspan></text></g></g></g><g id="g-root-ic_preg_1lrsh341u3dvyl-fill" data-item-order="0" transform="translate(158, 296)"></g><g id="g-root-ic_diap_qp1rwg1u3p3pd-fill" data-item-order="0" transform="translate(338, 296)"></g><g id="g-root-tx_expertis_qtfczk1u3b18l-fill" data-item-order="0" transform="translate(38, 317)"><g id="tx_expertis_qtfczk1u3b18l-fill" stroke="none" fill="#fb6762"><g><text style="font: 10px &quot;Shantell Sans&quot;, cursive; white-space: pre;" font-size="10px" font-family="'Shantell Sans', cursive"><tspan x="59.55" y="22.8" dominant-baseline="ideographic">Expertise in </tspan><tspan x="19.59" y="34.8" dominant-baseline="ideographic">pregnancy care and </tspan><tspan x="19.09" y="46.8" dominant-baseline="ideographic">reproductive health.</tspan></text></g></g></g><g id="g-root-tx_knowledg_dcceio1u3kwzk-fill" data-item-order="0" transform="translate(386, 305)"><g id="tx_knowledg_dcceio1u3kwzk-fill" stroke="none" fill="#f366bb"><g><text style="font: 10px &quot;Shantell Sans&quot;, cursive; white-space: pre;" font-size="10px" font-family="'Shantell Sans', cursive"><tspan x="12" y="22.8" dominant-baseline="ideographic">Knowledge of child </tspan><tspan x="12" y="34.8" dominant-baseline="ideographic">growth, </tspan><tspan x="12" y="46.8" dominant-baseline="ideographic">development, and </tspan><tspan x="12" y="58.8" dominant-baseline="ideographic">illnesses.</tspan></text></g></g></g><g id="g-root-tx_mentalhe_hzns001u3b11i-fill" data-item-order="0" transform="translate(50, 365)"><g id="tx_mentalhe_hzns001u3b11i-fill" stroke="none" fill="#8769fd"><g><text style="font: bold 11.7px &quot;Shantell Sans&quot;, cursive; white-space: pre;" font-weight="bold" font-size="11.7px" font-family="'Shantell Sans', cursive"><tspan x="15.12" y="28.51" dominant-baseline="ideographic">Mental Health </tspan><tspan x="56.61" y="42.51" dominant-baseline="ideographic">Nursing</tspan></text></g></g></g><g id="g-root-tx_skillsin_1qbz7nk1u3ji10-fill" data-item-order="0" transform="translate(386, 119)"><g id="tx_skillsin_1qbz7nk1u3ji10-fill" stroke="none" fill="#a6da37"><g><text style="font: 10px &quot;Shantell Sans&quot;, cursive; white-space: pre;" font-size="10px" font-family="'Shantell Sans', cursive"><tspan x="12" y="22.8" dominant-baseline="ideographic">Skills in pre/post-</tspan><tspan x="12" y="34.8" dominant-baseline="ideographic">operative care and </tspan><tspan x="12" y="46.8" dominant-baseline="ideographic">disease </tspan><tspan x="12" y="58.8" dominant-baseline="ideographic">management.</tspan></text></g></g></g><g id="g-root-ic_1_mg3hq81u3ch73-fill" data-item-order="0" transform="translate(338, 107)"></g><g id="g-root-tx_foundati_18f33pc1u3b2mh-fill" data-item-order="0" transform="translate(38, 119)"><g id="tx_foundati_18f33pc1u3b2mh-fill" stroke="none" fill="#43dd93"><g><text style="font: 10px &quot;Shantell Sans&quot;, cursive; white-space: pre;" font-size="10px" font-family="'Shantell Sans', cursive"><tspan x="52.35" y="22.8" dominant-baseline="ideographic">Foundational </tspan><tspan x="22.87" y="34.8" dominant-baseline="ideographic">knowledge of body </tspan><tspan x="50.35" y="46.8" dominant-baseline="ideographic">structure and </tspan><tspan x="74.61" y="58.8" dominant-baseline="ideographic">function.</tspan></text></g></g></g><g id="g-root-ic_lipo_909qww1u3kv0j-fill" data-item-order="0" transform="translate(158, 104)"></g><g id="g-root-tx_microbio_18gbvk01u3kv7l-fill" data-item-order="0" transform="translate(386, 377)"><g id="tx_microbio_18gbvk01u3kv7l-fill" stroke="none" fill="#cb68f9"><g><text style="font: bold 11.7px &quot;Shantell Sans&quot;, cursive; white-space: pre;" font-weight="bold" font-size="11.7px" font-family="'Shantell Sans', cursive"><tspan x="12" y="29.51" dominant-baseline="ideographic">Microbiology</tspan></text></g></g></g><g id="g-root-ic_top_vbqoao1u3i1om-fill" data-item-order="0" transform="translate(158, 392)"></g><g id="g-root-ic_2_8z0sqo1u387wq-fill" data-item-order="0" transform="translate(338, 392)"></g><g id="g-root-tx_awarenes_zjg3gg1u3chkx-fill" data-item-order="0" transform="translate(62, 503)"><g id="tx_awarenes_zjg3gg1u3chkx-fill" stroke="none" fill="#fafafa"><g><text style="font: 10px &quot;Shantell Sans&quot;, cursive; white-space: pre;" font-size="10px" font-family="'Shantell Sans', cursive"><tspan x="26.23" y="22.8" dominant-baseline="ideographic">Awareness of </tspan><tspan x="22.4" y="34.8" dominant-baseline="ideographic">current health </tspan><tspan x="29.61" y="46.8" dominant-baseline="ideographic">schemes and </tspan><tspan x="37.08" y="58.8" dominant-baseline="ideographic">discoveries.</tspan></text></g></g></g><g id="g-root-tx_understa_4iktj41u3kwsi-fill" data-item-order="0" transform="translate(386, 407)"><g id="tx_understa_4iktj41u3kwsi-fill" stroke="none" fill="#cb68f9"><g><text style="font: 10px &quot;Shantell Sans&quot;, cursive; white-space: pre;" font-size="10px" font-family="'Shantell Sans', cursive"><tspan x="12" y="22.8" dominant-baseline="ideographic">Understanding of </tspan><tspan x="12" y="34.8" dominant-baseline="ideographic">microorganisms and </tspan><tspan x="12" y="46.8" dominant-baseline="ideographic">infection control.</tspan></text></g></g></g><g id="g-root-tx_generalk_1ulk58g1u3cgso-fill" data-item-order="0" transform="translate(74, 461)"><g id="tx_generalk_1ulk58g1u3cgso-fill" stroke="none" fill="#ffffff"><g><text style="font: bold 11.7px &quot;Shantell Sans&quot;, cursive; white-space: pre;" font-weight="bold" font-size="11.7px" font-family="'Shantell Sans', cursive"><tspan x="31.35" y="28.51" dominant-baseline="ideographic">General </tspan><tspan x="12.47" y="42.51" dominant-baseline="ideographic">Knowledge</tspan></text></g></g></g><g id="g-root-tx_medicals_mcz7gg1u3jhfv-fill" data-item-order="0" transform="translate(386, 77)"><g id="tx_medicals_mcz7gg1u3jhfv-fill" stroke="none" fill="#a6da37"><g><text style="font: bold 11.7px &quot;Shantell Sans&quot;, cursive; white-space: pre;" font-weight="bold" font-size="11.7px" font-family="'Shantell Sans', cursive"><tspan x="12" y="28.51" dominant-baseline="ideographic">Medical-Surgical </tspan><tspan x="12" y="42.51" dominant-baseline="ideographic">Nursing</tspan></text></g></g></g><g id="g-root-tx_anatomyp_9lds1u3b2tk-fill" data-item-order="0" transform="translate(74, 77)"><g id="tx_anatomyp_9lds1u3b2tk-fill" stroke="none" fill="#43dd93"><g><text style="font: bold 11.7px &quot;Shantell Sans&quot;, cursive; white-space: pre;" font-weight="bold" font-size="11.7px" font-family="'Shantell Sans', cursive"><tspan x="12.48" y="28.51" dominant-baseline="ideographic">Anatomy &amp; </tspan><tspan x="14.52" y="42.51" dominant-baseline="ideographic">Physiology</tspan></text></g></g></g><g id="g-root-ic_woma_1d159j41u3p3pr-fill" data-item-order="0" transform="translate(158, 488)"></g><g id="g-root-tx_skillsin_1hiua2o1u3b1n3-fill" data-item-order="0" transform="translate(38, 407)"><g id="tx_skillsin_1hiua2o1u3b1n3-fill" stroke="none" fill="#8769fd"><g><text style="font: 10px &quot;Shantell Sans&quot;, cursive; white-space: pre;" font-size="10px" font-family="'Shantell Sans', cursive"><tspan x="36.61" y="22.8" dominant-baseline="ideographic">Skills in treating </tspan><tspan x="12.15" y="34.8" dominant-baseline="ideographic">mental disorders and </tspan><tspan x="61.21" y="46.8" dominant-baseline="ideographic">therapeutic </tspan><tspan x="41.24" y="58.8" dominant-baseline="ideographic">communication.</tspan></text></g></g></g><g id="g-root-cp_9-fill_g-9-fill_quo1og1u3b0ub-stroke" data-item-order="-296340" transform="translate(226, 454)"></g><g id="g-root-cp_9-lines_g-9-lines_8di0w1u3b0uc-stroke" data-item-order="-296335" transform="translate(226, 454)"><g id="cp_9-lines_g-9-lines_8di0w1u3b0uc-stroke" fill="none" stroke-linecap="round" stroke-linejoin="round" stroke-miterlimit="4" stroke="#ffffff" stroke-width="2"><g><path d="M 10 62C 10 59.7909 11.7909 58 14 58C 16.2091 58 18 59.7909 18 62C 18 64.1356 16.3263 65.8804 14.2191 65.9941C 14.1465 65.998 14.0735 66 14 66C 11.7909 66 10 64.2091 10 62ZM 28 30C 28 27.7909 29.7909 26 32 26C 33.1611 26 34.2066 26.4947 34.9373 27.2847C 35.5969 27.998 36 28.9519 36 30C 36 32.2091 34.2091 34 32 34C 30.7716 34 29.6726 33.4463 28.9388 32.5749C 28.353 31.8791 28 30.9808 28 30ZM 28 94C 28 93.0192 28.353 92.1209 28.9388 91.4251C 29.6726 90.5537 30.7716 90 32 90C 34.2091 90 36 91.7909 36 94C 36 95.0481 35.5969 96.002 34.9373 96.7152C 34.2066 97.5053 33.161 98 32 98C 29.7909 98 28 96.2091 28 94ZM 46 14C 46 11.7909 47.7909 10 50 10C 52.2091 10 54 11.7909 54 14C 54 16.2091 52.2091 18 50 18C 48.8055 18 47.7332 17.4764 47.0003 16.6461C 46.3778 15.941 46 15.0146 46 14ZM 14 78C 14 76.4375 14.8959 75.0842 16.202 74.4259C 16.7426 74.1534 17.3534 74 18 74C 20.2091 74 22 75.7909 22 78C 22 79.5675 21.0984 80.9243 19.7855 81.5804C 19.2481 81.8489 18.6417 82 18 82C 15.7909 82 14 80.2091 14 78ZM 14 46C 14 43.7909 15.7909 42 18 42C 18.6417 42 19.2481 42.1511 19.7855 42.4196C 21.0984 43.0756 22 44.4325 22 46C 22 48.2091 20.2091 50 18 50C 17.3534 50 16.7426 49.8466 16.202 49.5741C 14.8959 48.9158 14 47.5625 14 46ZM 47 94L 36 94M 47 78L 22 78M 47 62L 18 62M 47 46L 22 46M 47 30L 36 30M 34.9373 27.2847L 47.0003 16.6461M 28.9388 32.5749L 26 35.1667C 23.6227 37.2944 21.5299 39.7334 19.7855 42.4196M 43.1973 103.9999L 34.9373 96.7152M 28.9388 91.4251L 26 88.8333C 23.6227 86.7055 21.5299 84.2666 19.7855 81.5804M 16.202 74.4259C 15.218 71.7501 14.5426 68.9251 14.2191 65.9941M 14.2197 58C 14.5435 55.0711 15.2186 52.2481 16.202 49.5741"></path></g></g></g><g id="g-root-cp_8-fill_g-8-fill_zrk03k1u3b1fy-stroke" data-item-order="-296330" transform="translate(280, 374)"></g><g id="g-root-cp_8-lines_g-8-lines_mg3hq81u3b30v-stroke" data-item-order="-296325" transform="translate(269, 368)"><g id="cp_8-lines_g-8-lines_mg3hq81u3b30v-stroke" fill="none" stroke-linecap="round" stroke-linejoin="round" stroke-miterlimit="4" stroke="#cb68f9" stroke-width="2"><g><path d="M 47.0003 51.9999C 47.0003 54.2091 45.2094 55.9999 43.0003 55.9999C 40.7911 55.9999 39.0003 54.2091 39.0003 51.9999C 39.0003 49.8643 40.674 48.1195 42.7812 48.0058C 42.8537 48.0019 42.9268 47.9999 43.0003 47.9999C 45.2094 47.9999 47.0003 49.7908 47.0003 51.9999ZM 29.0003 83.9999C 29.0003 86.209 27.2094 87.9999 25.0003 87.9999C 23.8392 87.9999 22.7937 87.5052 22.063 86.7152C 21.4034 86.0019 21.0003 85.048 21.0003 83.9999C 21.0003 81.7908 22.7911 79.9999 25.0003 79.9999C 26.2286 79.9999 27.3277 80.5536 28.0614 81.425C 28.6473 82.1208 29.0003 83.0191 29.0003 83.9999ZM 29.0003 19.9999C 29.0003 20.9807 28.6473 21.879 28.0614 22.5748C 27.3277 23.4462 26.2286 23.9999 25.0003 23.9999C 22.7911 23.9999 21.0003 22.2091 21.0003 19.9999C 21.0003 18.9518 21.4034 17.9979 22.063 17.2847C 22.7937 16.4946 23.8392 15.9999 25.0003 15.9999C 27.2094 15.9999 29.0003 17.7908 29.0003 19.9999ZM 43.0003 35.9999C 43.0003 37.5624 42.1044 38.9157 40.7982 39.574C 40.2577 39.8465 39.6469 39.9999 39.0003 39.9999C 36.7911 39.9999 35.0003 38.2091 35.0003 35.9999C 35.0003 34.4324 35.9019 33.0756 37.2148 32.4196C 37.7522 32.151 38.3586 31.9999 39.0003 31.9999C 41.2094 31.9999 43.0003 33.7908 43.0003 35.9999ZM 43.0003 67.9999C 43.0003 70.2091 41.2094 71.9999 39.0003 71.9999C 38.3586 71.9999 37.7522 71.8488 37.2148 71.5803C 35.9019 70.9243 35.0003 69.5674 35.0003 67.9999C 35.0003 65.7908 36.7911 63.9999 39.0003 63.9999C 39.6469 63.9999 40.2577 64.1533 40.7982 64.4258C 42.1044 65.0841 43.0003 66.4374 43.0003 67.9999ZM 10.0003 19.9999L 21.0003 19.9999M 10.0003 35.9999L 35.0003 35.9999M 10.0003 51.9999L 39.0003 51.9999M 10.0003 67.9999L 35.0003 67.9999M 10.0003 83.9999L 21.0003 83.9999M 22.063 86.7152L 10 97.3538M 28.0614 81.425L 31.0003 78.8332C 33.3776 76.7055 35.4704 74.2665 37.2148 71.5803M 13.803 10L 22.063 17.2847M 28.0614 22.5748L 31.0003 25.1666C 33.3776 27.2944 35.4704 29.7334 37.2148 32.4196M 40.7982 39.574C 41.7823 42.2498 42.4577 45.0748 42.7812 48.0058M 42.7806 55.9999C 42.4568 58.9288 41.7817 61.7518 40.7982 64.4258"></path></g></g></g><g id="g-root-cp_7-fill_g-7-fill_4pfybk1u3b289-stroke" data-item-order="-296320" transform="translate(226, 358)"></g><g id="g-root-cp_7-lines_g-7-lines_1q5qdmo1u3cf0q-stroke" data-item-order="-296315" transform="translate(226, 358)"><g id="cp_7-lines_g-7-lines_1q5qdmo1u3cf0q-stroke" fill="none" stroke-linecap="round" stroke-linejoin="round" stroke-miterlimit="4" stroke="#8769fd" stroke-width="2"><g><path d="M 10 62C 10 59.7909 11.7909 58 14 58C 16.2091 58 18 59.7909 18 62C 18 64.1356 16.3263 65.8804 14.2191 65.9941C 14.1465 65.998 14.0735 66 14 66C 11.7909 66 10 64.2091 10 62ZM 28 30C 28 27.7909 29.7909 26 32 26C 33.1611 26 34.2066 26.4947 34.9373 27.2847C 35.5969 27.998 36 28.9519 36 30C 36 32.2091 34.2091 34 32 34C 30.7716 34 29.6726 33.4463 28.9388 32.5749C 28.353 31.8791 28 30.9808 28 30ZM 28 94C 28 93.0192 28.353 92.1209 28.9388 91.4251C 29.6726 90.5537 30.7716 90 32 90C 34.2091 90 36 91.7909 36 94C 36 95.0481 35.5969 96.002 34.9373 96.7152C 34.2066 97.5053 33.161 98 32 98C 29.7909 98 28 96.2091 28 94ZM 46 14C 46 11.7909 47.7909 10 50 10C 52.2091 10 54 11.7909 54 14C 54 16.2091 52.2091 18 50 18C 48.8055 18 47.7332 17.4764 47.0003 16.6461C 46.3778 15.941 46 15.0146 46 14ZM 14 78C 14 76.4375 14.8959 75.0842 16.202 74.4259C 16.7426 74.1534 17.3534 74 18 74C 20.2091 74 22 75.7909 22 78C 22 79.5675 21.0984 80.9243 19.7855 81.5804C 19.2481 81.8489 18.6417 82 18 82C 15.7909 82 14 80.2091 14 78ZM 14 46C 14 43.7909 15.7909 42 18 42C 18.6417 42 19.2481 42.1511 19.7855 42.4196C 21.0984 43.0756 22 44.4325 22 46C 22 48.2091 20.2091 50 18 50C 17.3534 50 16.7426 49.8466 16.202 49.5741C 14.8959 48.9158 14 47.5625 14 46ZM 47 94L 36 94M 47 78L 22 78M 47 62L 18 62M 47 46L 22 46M 47 30L 36 30M 34.9373 27.2847L 47.0003 16.6461M 28.9388 32.5749L 26 35.1667C 23.6227 37.2944 21.5299 39.7334 19.7855 42.4196M 43.1973 103.9999L 34.9373 96.7152M 28.9388 91.4251L 26 88.8333C 23.6227 86.7055 21.5299 84.2666 19.7855 81.5804M 16.202 74.4259C 15.218 71.7501 14.5426 68.9251 14.2191 65.9941M 14.2197 58C 14.5435 55.0711 15.2186 52.2481 16.202 49.5741"></path></g></g></g><g id="g-root-cp_6-fill_g-6-fill_18egd4w1u3chdw-stroke" data-item-order="-296310" transform="translate(280, 278)"></g><g id="g-root-cp_6-lines_g-6-lines_v3mbuo1u3cft1-stroke" data-item-order="-296305" transform="translate(269, 272)"><g id="cp_6-lines_g-6-lines_v3mbuo1u3cft1-stroke" fill="none" stroke-linecap="round" stroke-linejoin="round" stroke-miterlimit="4" stroke="#f366bb" stroke-width="2"><g><path d="M 47.0003 51.9999C 47.0003 54.2091 45.2094 55.9999 43.0003 55.9999C 40.7911 55.9999 39.0003 54.2091 39.0003 51.9999C 39.0003 49.8643 40.674 48.1195 42.7812 48.0058C 42.8537 48.0019 42.9268 47.9999 43.0003 47.9999C 45.2094 47.9999 47.0003 49.7908 47.0003 51.9999ZM 29.0003 83.9999C 29.0003 86.209 27.2094 87.9999 25.0003 87.9999C 23.8392 87.9999 22.7937 87.5052 22.063 86.7152C 21.4034 86.0019 21.0003 85.048 21.0003 83.9999C 21.0003 81.7908 22.7911 79.9999 25.0003 79.9999C 26.2286 79.9999 27.3277 80.5536 28.0614 81.425C 28.6473 82.1208 29.0003 83.0191 29.0003 83.9999ZM 29.0003 19.9999C 29.0003 20.9807 28.6473 21.879 28.0614 22.5748C 27.3277 23.4462 26.2286 23.9999 25.0003 23.9999C 22.7911 23.9999 21.0003 22.2091 21.0003 19.9999C 21.0003 18.9518 21.4034 17.9979 22.063 17.2847C 22.7937 16.4946 23.8392 15.9999 25.0003 15.9999C 27.2094 15.9999 29.0003 17.7908 29.0003 19.9999ZM 43.0003 35.9999C 43.0003 37.5624 42.1044 38.9157 40.7982 39.574C 40.2577 39.8465 39.6469 39.9999 39.0003 39.9999C 36.7911 39.9999 35.0003 38.2091 35.0003 35.9999C 35.0003 34.4324 35.9019 33.0756 37.2148 32.4196C 37.7522 32.151 38.3586 31.9999 39.0003 31.9999C 41.2094 31.9999 43.0003 33.7908 43.0003 35.9999ZM 43.0003 67.9999C 43.0003 70.2091 41.2094 71.9999 39.0003 71.9999C 38.3586 71.9999 37.7522 71.8488 37.2148 71.5803C 35.9019 70.9243 35.0003 69.5674 35.0003 67.9999C 35.0003 65.7908 36.7911 63.9999 39.0003 63.9999C 39.6469 63.9999 40.2577 64.1533 40.7982 64.4258C 42.1044 65.0841 43.0003 66.4374 43.0003 67.9999ZM 10.0003 19.9999L 21.0003 19.9999M 10.0003 35.9999L 35.0003 35.9999M 10.0003 51.9999L 39.0003 51.9999M 10.0003 67.9999L 35.0003 67.9999M 10.0003 83.9999L 21.0003 83.9999M 22.063 86.7152L 10 97.3538M 28.0614 81.425L 31.0003 78.8332C 33.3776 76.7055 35.4704 74.2665 37.2148 71.5803M 13.803 10L 22.063 17.2847M 28.0614 22.5748L 31.0003 25.1666C 33.3776 27.2944 35.4704 29.7334 37.2148 32.4196M 40.7982 39.574C 41.7823 42.2498 42.4577 45.0748 42.7812 48.0058M 42.7806 55.9999C 42.4568 58.9288 41.7817 61.7518 40.7982 64.4258"></path></g></g></g><g id="g-root-cp_5-fill_g-5-fill_8x5abk1u3cf0v-stroke" data-item-order="-296300" transform="translate(226, 262)"></g><g id="g-root-cp_5-lines_g-5-lines_1q6zbsw1u3ch6w-stroke" data-item-order="-296295" transform="translate(226, 262)"><g id="cp_5-lines_g-5-lines_1q6zbsw1u3ch6w-stroke" fill="none" stroke-linecap="round" stroke-linejoin="round" stroke-miterlimit="4" stroke="#fb6762" stroke-width="2"><g><path d="M 10 62C 10 59.7909 11.7909 58 14 58C 16.2091 58 18 59.7909 18 62C 18 64.1356 16.3263 65.8804 14.2191 65.9941C 14.1465 65.998 14.0735 66 14 66C 11.7909 66 10 64.2091 10 62ZM 28 30C 28 27.7909 29.7909 26 32 26C 33.1611 26 34.2066 26.4947 34.9373 27.2847C 35.5969 27.998 36 28.9519 36 30C 36 32.2091 34.2091 34 32 34C 30.7716 34 29.6726 33.4463 28.9388 32.5749C 28.353 31.8791 28 30.9808 28 30ZM 28 94C 28 93.0192 28.353 92.1209 28.9388 91.4251C 29.6726 90.5537 30.7716 90 32 90C 34.2091 90 36 91.7909 36 94C 36 95.0481 35.5969 96.002 34.9373 96.7152C 34.2066 97.5053 33.161 98 32 98C 29.7909 98 28 96.2091 28 94ZM 46 14C 46 11.7909 47.7909 10 50 10C 52.2091 10 54 11.7909 54 14C 54 16.2091 52.2091 18 50 18C 48.8055 18 47.7332 17.4764 47.0003 16.6461C 46.3778 15.941 46 15.0146 46 14ZM 14 78C 14 76.4375 14.8959 75.0842 16.202 74.4259C 16.7426 74.1534 17.3534 74 18 74C 20.2091 74 22 75.7909 22 78C 22 79.5675 21.0984 80.9243 19.7855 81.5804C 19.2481 81.8489 18.6417 82 18 82C 15.7909 82 14 80.2091 14 78ZM 14 46C 14 43.7909 15.7909 42 18 42C 18.6417 42 19.2481 42.1511 19.7855 42.4196C 21.0984 43.0756 22 44.4325 22 46C 22 48.2091 20.2091 50 18 50C 17.3534 50 16.7426 49.8466 16.202 49.5741C 14.8959 48.9158 14 47.5625 14 46ZM 47 94L 36 94M 47 78L 22 78M 47 62L 18 62M 47 46L 22 46M 47 30L 36 30M 34.9373 27.2847L 47.0003 16.6461M 28.9388 32.5749L 26 35.1667C 23.6227 37.2944 21.5299 39.7334 19.7855 42.4196M 43.1973 103.9999L 34.9373 96.7152M 28.9388 91.4251L 26 88.8333C 23.6227 86.7055 21.5299 84.2666 19.7855 81.5804M 16.202 74.4259C 15.218 71.7501 14.5426 68.9251 14.2191 65.9941M 14.2197 58C 14.5435 55.0711 15.2186 52.2481 16.202 49.5741"></path></g></g></g><g id="g-root-cp_4-fill_g-4-fill_18gbse81u3cgea-stroke" data-item-order="-296290" transform="translate(280, 182)"></g><g id="g-root-cp_4-lines_g-4-lines_v5hr401u3cetf-stroke" data-item-order="-296285" transform="translate(269, 176)"><g id="cp_4-lines_g-4-lines_v5hr401u3cetf-stroke" fill="none" stroke-linecap="round" stroke-linejoin="round" stroke-miterlimit="4" stroke="#f79438" stroke-width="2"><g><path d="M 47.0003 51.9999C 47.0003 54.2091 45.2094 55.9999 43.0003 55.9999C 40.7911 55.9999 39.0003 54.2091 39.0003 51.9999C 39.0003 49.8643 40.674 48.1195 42.7812 48.0058C 42.8537 48.0019 42.9268 47.9999 43.0003 47.9999C 45.2094 47.9999 47.0003 49.7908 47.0003 51.9999ZM 29.0003 83.9999C 29.0003 86.209 27.2094 87.9999 25.0003 87.9999C 23.8392 87.9999 22.7937 87.5052 22.063 86.7152C 21.4034 86.0019 21.0003 85.048 21.0003 83.9999C 21.0003 81.7908 22.7911 79.9999 25.0003 79.9999C 26.2286 79.9999 27.3277 80.5536 28.0614 81.425C 28.6473 82.1208 29.0003 83.0191 29.0003 83.9999ZM 29.0003 19.9999C 29.0003 20.9807 28.6473 21.879 28.0614 22.5748C 27.3277 23.4462 26.2286 23.9999 25.0003 23.9999C 22.7911 23.9999 21.0003 22.2091 21.0003 19.9999C 21.0003 18.9518 21.4034 17.9979 22.063 17.2847C 22.7937 16.4946 23.8392 15.9999 25.0003 15.9999C 27.2094 15.9999 29.0003 17.7908 29.0003 19.9999ZM 43.0003 35.9999C 43.0003 37.5624 42.1044 38.9157 40.7982 39.574C 40.2577 39.8465 39.6469 39.9999 39.0003 39.9999C 36.7911 39.9999 35.0003 38.2091 35.0003 35.9999C 35.0003 34.4324 35.9019 33.0756 37.2148 32.4196C 37.7522 32.151 38.3586 31.9999 39.0003 31.9999C 41.2094 31.9999 43.0003 33.7908 43.0003 35.9999ZM 43.0003 67.9999C 43.0003 70.2091 41.2094 71.9999 39.0003 71.9999C 38.3586 71.9999 37.7522 71.8488 37.2148 71.5803C 35.9019 70.9243 35.0003 69.5674 35.0003 67.9999C 35.0003 65.7908 36.7911 63.9999 39.0003 63.9999C 39.6469 63.9999 40.2577 64.1533 40.7982 64.4258C 42.1044 65.0841 43.0003 66.4374 43.0003 67.9999ZM 10.0003 19.9999L 21.0003 19.9999M 10.0003 35.9999L 35.0003 35.9999M 10.0003 51.9999L 39.0003 51.9999M 10.0003 67.9999L 35.0003 67.9999M 10.0003 83.9999L 21.0003 83.9999M 22.063 86.7152L 10 97.3538M 28.0614 81.425L 31.0003 78.8332C 33.3776 76.7055 35.4704 74.2665 37.2148 71.5803M 13.803 10L 22.063 17.2847M 28.0614 22.5748L 31.0003 25.1666C 33.3776 27.2944 35.4704 29.7334 37.2148 32.4196M 40.7982 39.574C 41.7823 42.2498 42.4577 45.0748 42.7812 48.0058M 42.7806 55.9999C 42.4568 58.9288 41.7817 61.7518 40.7982 64.4258"></path></g></g></g><g id="g-root-cp_3-fill_g-3-fill_8ye8hs1u3ch71-stroke" data-item-order="-296280" transform="translate(226, 166)"></g><g id="g-root-cp_3-lines_g-3-lines_1uoo96o1u3cff2-stroke" data-item-order="-296275" transform="translate(226, 166)"><g id="cp_3-lines_g-3-lines_1uoo96o1u3cff2-stroke" fill="none" stroke-linecap="round" stroke-linejoin="round" stroke-miterlimit="4" stroke="#ffe711" stroke-width="2"><g><path d="M 10 62C 10 59.7909 11.7909 58 14 58C 16.2091 58 18 59.7909 18 62C 18 64.1356 16.3263 65.8804 14.2191 65.9941C 14.1465 65.998 14.0735 66 14 66C 11.7909 66 10 64.2091 10 62ZM 28 30C 28 27.7909 29.7909 26 32 26C 33.1611 26 34.2066 26.4947 34.9373 27.2847C 35.5969 27.998 36 28.9519 36 30C 36 32.2091 34.2091 34 32 34C 30.7716 34 29.6726 33.4463 28.9388 32.5749C 28.353 31.8791 28 30.9808 28 30ZM 28 94C 28 93.0192 28.353 92.1209 28.9388 91.4251C 29.6726 90.5537 30.7716 90 32 90C 34.2091 90 36 91.7909 36 94C 36 95.0481 35.5969 96.002 34.9373 96.7152C 34.2066 97.5053 33.161 98 32 98C 29.7909 98 28 96.2091 28 94ZM 46 14C 46 11.7909 47.7909 10 50 10C 52.2091 10 54 11.7909 54 14C 54 16.2091 52.2091 18 50 18C 48.8055 18 47.7332 17.4764 47.0003 16.6461C 46.3778 15.941 46 15.0146 46 14ZM 14 78C 14 76.4375 14.8959 75.0842 16.202 74.4259C 16.7426 74.1534 17.3534 74 18 74C 20.2091 74 22 75.7909 22 78C 22 79.5675 21.0984 80.9243 19.7855 81.5804C 19.2481 81.8489 18.6417 82 18 82C 15.7909 82 14 80.2091 14 78ZM 14 46C 14 43.7909 15.7909 42 18 42C 18.6417 42 19.2481 42.1511 19.7855 42.4196C 21.0984 43.0756 22 44.4325 22 46C 22 48.2091 20.2091 50 18 50C 17.3534 50 16.7426 49.8466 16.202 49.5741C 14.8959 48.9158 14 47.5625 14 46ZM 47 94L 36 94M 47 78L 22 78M 47 62L 18 62M 47 46L 22 46M 47 30L 36 30M 34.9373 27.2847L 47.0003 16.6461M 28.9388 32.5749L 26 35.1667C 23.6227 37.2944 21.5299 39.7334 19.7855 42.4196M 43.1973 103.9999L 34.9373 96.7152M 28.9388 91.4251L 26 88.8333C 23.6227 86.7055 21.5299 84.2666 19.7855 81.5804M 16.202 74.4259C 15.218 71.7501 14.5426 68.9251 14.2191 65.9941M 14.2197 58C 14.5435 55.0711 15.2186 52.2481 16.202 49.5741"></path></g></g></g><g id="g-root-cp_2-fill_g-2-fill_1cy0ps01u3cemg-stroke" data-item-order="-296270" transform="translate(280, 86)"></g><g id="g-root-cp_2-lines_g-2-lines_zmk7eo1u3cg7d-stroke" data-item-order="-296265" transform="translate(269, 80)"><g id="cp_2-lines_g-2-lines_zmk7eo1u3cg7d-stroke" fill="none" stroke-linecap="round" stroke-linejoin="round" stroke-miterlimit="4" stroke="#a6da37" stroke-width="2"><g><path d="M 47.0003 51.9999C 47.0003 54.2091 45.2094 55.9999 43.0003 55.9999C 40.7911 55.9999 39.0003 54.2091 39.0003 51.9999C 39.0003 49.8643 40.674 48.1195 42.7812 48.0058C 42.8537 48.0019 42.9268 47.9999 43.0003 47.9999C 45.2094 47.9999 47.0003 49.7908 47.0003 51.9999ZM 29.0003 83.9999C 29.0003 86.209 27.2094 87.9999 25.0003 87.9999C 23.8392 87.9999 22.7937 87.5052 22.063 86.7152C 21.4034 86.0019 21.0003 85.048 21.0003 83.9999C 21.0003 81.7908 22.7911 79.9999 25.0003 79.9999C 26.2286 79.9999 27.3277 80.5536 28.0614 81.425C 28.6473 82.1208 29.0003 83.0191 29.0003 83.9999ZM 29.0003 19.9999C 29.0003 20.9807 28.6473 21.879 28.0614 22.5748C 27.3277 23.4462 26.2286 23.9999 25.0003 23.9999C 22.7911 23.9999 21.0003 22.2091 21.0003 19.9999C 21.0003 18.9518 21.4034 17.9979 22.063 17.2847C 22.7937 16.4946 23.8392 15.9999 25.0003 15.9999C 27.2094 15.9999 29.0003 17.7908 29.0003 19.9999ZM 43.0003 35.9999C 43.0003 37.5624 42.1044 38.9157 40.7982 39.574C 40.2577 39.8465 39.6469 39.9999 39.0003 39.9999C 36.7911 39.9999 35.0003 38.2091 35.0003 35.9999C 35.0003 34.4324 35.9019 33.0756 37.2148 32.4196C 37.7522 32.151 38.3586 31.9999 39.0003 31.9999C 41.2094 31.9999 43.0003 33.7908 43.0003 35.9999ZM 43.0003 67.9999C 43.0003 70.2091 41.2094 71.9999 39.0003 71.9999C 38.3586 71.9999 37.7522 71.8488 37.2148 71.5803C 35.9019 70.9243 35.0003 69.5674 35.0003 67.9999C 35.0003 65.7908 36.7911 63.9999 39.0003 63.9999C 39.6469 63.9999 40.2577 64.1533 40.7982 64.4258C 42.1044 65.0841 43.0003 66.4374 43.0003 67.9999ZM 10.0003 19.9999L 21.0003 19.9999M 10.0003 35.9999L 35.0003 35.9999M 10.0003 51.9999L 39.0003 51.9999M 10.0003 67.9999L 35.0003 67.9999M 10.0003 83.9999L 21.0003 83.9999M 22.063 86.7152L 10 97.3538M 28.0614 81.425L 31.0003 78.8332C 33.3776 76.7055 35.4704 74.2665 37.2148 71.5803M 13.803 10L 22.063 17.2847M 28.0614 22.5748L 31.0003 25.1666C 33.3776 27.2944 35.4704 29.7334 37.2148 32.4196M 40.7982 39.574C 41.7823 42.2498 42.4577 45.0748 42.7812 48.0058M 42.7806 55.9999C 42.4568 58.9288 41.7817 61.7518 40.7982 64.4258"></path></g></g></g><g id="g-root-cp_1-fill_g-1-fill_hvwo001u3cfer-stroke" data-item-order="-296260" transform="translate(226, 70)"></g><g id="g-root-cp_1-lines_g-1-lines_1qaq6bk1u3cf7o-stroke" data-item-order="-296255" transform="translate(226, 70)"><g id="cp_1-lines_g-1-lines_1qaq6bk1u3cf7o-stroke" fill="none" stroke-linecap="round" stroke-linejoin="round" stroke-miterlimit="4" stroke="#43dd93" stroke-width="2"><g><path d="M 10 62C 10 59.7909 11.7909 58 14 58C 16.2091 58 18 59.7909 18 62C 18 64.1356 16.3263 65.8804 14.2191 65.9941C 14.1465 65.998 14.0735 66 14 66C 11.7909 66 10 64.2091 10 62ZM 28 30C 28 27.7909 29.7909 26 32 26C 33.1611 26 34.2066 26.4947 34.9373 27.2847C 35.5969 27.998 36 28.9519 36 30C 36 32.2091 34.2091 34 32 34C 30.7716 34 29.6726 33.4463 28.9388 32.5749C 28.353 31.8791 28 30.9808 28 30ZM 28 94C 28 93.0192 28.353 92.1209 28.9388 91.4251C 29.6726 90.5537 30.7716 90 32 90C 34.2091 90 36 91.7909 36 94C 36 95.0481 35.5969 96.002 34.9373 96.7152C 34.2066 97.5053 33.161 98 32 98C 29.7909 98 28 96.2091 28 94ZM 46 14C 46 11.7909 47.7909 10 50 10C 52.2091 10 54 11.7909 54 14C 54 16.2091 52.2091 18 50 18C 48.8055 18 47.7332 17.4764 47.0003 16.6461C 46.3778 15.941 46 15.0146 46 14ZM 14 78C 14 76.4375 14.8959 75.0842 16.202 74.4259C 16.7426 74.1534 17.3534 74 18 74C 20.2091 74 22 75.7909 22 78C 22 79.5675 21.0984 80.9243 19.7855 81.5804C 19.2481 81.8489 18.6417 82 18 82C 15.7909 82 14 80.2091 14 78ZM 14 46C 14 43.7909 15.7909 42 18 42C 18.6417 42 19.2481 42.1511 19.7855 42.4196C 21.0984 43.0756 22 44.4325 22 46C 22 48.2091 20.2091 50 18 50C 17.3534 50 16.7426 49.8466 16.202 49.5741C 14.8959 48.9158 14 47.5625 14 46ZM 47 94L 36 94M 47 78L 22 78M 47 62L 18 62M 47 46L 22 46M 47 30L 36 30M 34.9373 27.2847L 47.0003 16.6461M 28.9388 32.5749L 26 35.1667C 23.6227 37.2944 21.5299 39.7334 19.7855 42.4196M 43.1973 103.9999L 34.9373 96.7152M 28.9388 91.4251L 26 88.8333C 23.6227 86.7055 21.5299 84.2666 19.7855 81.5804M 16.202 74.4259C 15.218 71.7501 14.5426 68.9251 14.2191 65.9941M 14.2197 58C 14.5435 55.0711 15.2186 52.2481 16.202 49.5741"></path></g></g></g><g id="g-root-tx_understa_4jty0w1u3b01v-stroke" data-item-order="0" transform="translate(38, 215)"></g><g id="g-root-tx_focusonn_1hi7mo01u3jhty-stroke" data-item-order="0" transform="translate(386, 221)"></g><g id="g-root-ic_elbo_hrjce81u3jg8w-stroke" data-item-order="0" transform="translate(338, 200)"><g id="ic_elbo_hrjce81u3jg8w-stroke" fill="none" stroke-linecap="round" stroke-linejoin="round" stroke-miterlimit="4" stroke="#f79438" stroke-width="2"><g><path d="M 16.536459 36.948853C 19.395685 36.948853 21.713545 34.630901 21.713545 31.771749C 21.713545 28.912451 19.395685 26.59465 16.536459 26.59465C 13.677235 26.59465 11.359375 28.912451 11.359375 31.771749C 11.359375 34.630901 13.677235 36.948853 16.536459 36.948853ZM 15.35314 44.640549L 15.35314 43.1614C 15.35314 38.723949 19.051044 35.026001 23.488554 35.026001C 27.92605 35.026001 31.624001 38.723949 31.624001 43.1614L 31.624001 44.640549M 35.026001 21.713545C 37.8853 21.713545 40.203102 19.395685 40.203102 16.536459C 40.203102 13.677235 37.8853 11.359375 35.026001 11.359375C 32.166851 11.359375 29.8489 13.677235 29.8489 16.536459C 29.8489 19.395685 32.166851 21.713545 35.026001 21.713545ZM 29.405201 29.553101L 29.405201 25.115499C 29.405201 23.488449 28.07395 22.1572 26.446899 22.1572C 24.819759 22.1572 23.48851 23.488449 23.48851 25.115499L 23.48851 28.81345C 23.48851 31.919651 26.00305 34.43425 29.1094 34.43425C 31.7719 34.43425 33.842651 32.21545 33.842651 29.70085M 29.405201 25.5592C 31.032249 23.932165 33.251049 22.896761 35.765648 22.896761C 40.646801 22.896761 44.640549 26.89045 44.640549 31.771749L 44.640549 39.463448"></path></g></g></g><g id="g-root-ic_hand_1qaq9hc1u3qj9o-stroke" data-item-order="0" transform="translate(158, 200)"><g id="ic_hand_1qaq9hc1u3qj9o-stroke" fill="none" stroke-linecap="round" stroke-linejoin="round" stroke-miterlimit="4" stroke="#ffe711" stroke-width="2"><g><path d="M 32.516499 44.671001L 32.516499 43.329998C 32.517845 42.88792 32.659676 42.45771 32.921501 42.101501L 38.2645 34.8475C 39.182281 33.369583 39.047375 31.469423 37.93 30.136C 36.531254 29.061222 34.527218 29.317171 33.443497 30.708998L 33.443501 30.709L 31.0345 33.824501M 18.01 33.828999L 17.98 44.671001M 23.962 33.828999L 15.625 33.828999C 13.968145 33.828999 12.625 32.485855 12.625 30.828999L 12.625 14.329C 12.625 12.672146 13.968145 11.329 15.625 11.329L 40.375 11.329C 42.031857 11.329 43.375 12.672146 43.375 14.329L 43.375 30.828999C 43.375 32.485855 42.031857 33.828999 40.375 33.828999L 38.724998 33.828999M 16 18.079C 16 19.735855 17.343145 21.079 19 21.079C 20.656855 21.079 22 19.735855 22 18.079C 22 16.422146 20.656855 15.079 19 15.079C 17.343145 15.079 16 16.422146 16 18.079M 25 18.079C 25 19.735855 26.343145 21.079 28 21.079C 29.656855 21.079 31 19.735855 31 18.079C 31 16.422146 29.656855 15.079 28 15.079C 26.343145 15.079 25 16.422146 25 18.079M 34 18.079C 34 19.735855 35.343143 21.079 37 21.079C 38.656857 21.079 40 19.735855 40 18.079C 40 16.422146 38.656857 15.079 37 15.079C 35.343143 15.079 34 16.422146 34 18.079M 34 27.078999C 34 25.422146 35.343143 24.078999 37 24.078999C 38.656857 24.078999 40 25.422146 40 27.078999M 16 27.078999C 16 28.735853 17.343145 30.078999 19 30.078999C 20.656855 30.078999 22 28.735853 22 27.078999C 22 25.422146 20.656855 24.078999 19 24.078999C 17.343145 24.078999 16 25.422146 16 27.078999M 25 27.078999C 25 28.735853 26.343145 30.078999 28 30.078999C 29.656855 30.078999 31 28.735853 31 27.078999C 31 25.422146 29.656855 24.078999 28 24.078999C 26.343145 24.078999 25 25.422146 25 27.078999M 25.352499 39.488503C 25.351673 36.363087 27.885088 33.829002 31.010502 33.829002"></path></g></g></g><g id="g-root-tx_obstetri_1uqjxxc1u3b2tg-stroke" data-item-order="0" transform="translate(62, 275)"></g><g id="g-root-tx_communit_dj7mgw1u3jh8t-stroke" data-item-order="0" transform="translate(386, 179)"></g><g id="g-root-tx_pharmaco_1q7m2dc1u3b2fe-stroke" data-item-order="0" transform="translate(50, 185)"></g><g id="g-root-tx_pediatri_9mjcw1u3jhtz-stroke" data-item-order="0" transform="translate(386, 275)"></g><g id="g-root-ic_preg_1lrsh341u3dvyl-stroke" data-item-order="0" transform="translate(158, 296)"><g id="ic_preg_1lrsh341u3dvyl-stroke" fill="none" stroke-linecap="round" stroke-linejoin="round" stroke-miterlimit="4" stroke="#fb6762" stroke-width="2"><g><path d="M 39.1315 22.299999C 38.495201 24.483616 38.297401 26.77158 38.5495 29.032C 39.122501 34.952499 42.179497 35.913998 42.179497 44.889999M 18.615999 11.2C 17.709583 11.612913 16.835165 12.09274 16 12.6355C 14.077 14.41 16.869999 17.868999 19.761999 18.935499C 14.910604 21.532543 12.447295 27.096472 13.785838 32.433979C 15.124381 37.771484 19.921713 41.514587 25.4245 41.514999M 20.884001 40.620998L 20.884001 44.885498M 42.581501 11.1145C 38.831501 31.278999 28.245998 33.622002 24.431499 35.348499C 21.684999 34.448502 19.091499 33.585999 19.444 31.2985L 23.3575 29.630501L 22.543001 29.866001C 22.543001 29.866001 21.042999 29.959 20.719 29.035C 20.395 28.111 20.686001 27.163 22.397501 26.934999C 30.243999 25.885 33.375999 15.2245 33.8755 11.302M 31.463501 31.75C 33.076 37.074997 30.306999 41.129501 25.418501 41.5135M 14.29 25.024C 17.9995 21.050501 23.091999 21.25 27.071499 24.849998"></path></g></g></g><g id="g-root-ic_diap_qp1rwg1u3p3pd-stroke" data-item-order="0" transform="translate(338, 296)"><g id="ic_diap_qp1rwg1u3p3pd-stroke" fill="none" stroke-linecap="round" stroke-linejoin="round" stroke-miterlimit="4" stroke="#f366bb" stroke-width="2"><g><path d="M 28.585001 14.5C 28.585001 16.571068 30.263933 18.25 32.334999 18.25C 34.406067 18.25 36.084999 16.571068 36.084999 14.5C 36.084999 12.428932 34.406067 10.75 32.334999 10.75C 30.263933 10.75 28.585001 12.428932 28.585001 14.5M 29.5 25L 28.255001 24.880001C 27.362461 24.695377 26.669468 23.990541 26.5 23.095001L 25.555 17.844999C 25.407322 17.002556 24.78882 16.319872 23.965 16.09C 23.139584 15.852463 22.250824 16.102245 21.67 16.735001L 14.5 24.07C 13.902399 24.680717 13.442132 25.412029 13.15 26.215L 10.96 32.215C 10.876919 32.444801 10.910995 32.700668 11.051326 32.900711C 11.191656 33.100758 11.420643 33.219894 11.665 33.220001L 13.585 33.220001L 13.585 43C 13.585 44.242641 14.59236 45.25 15.835 45.25C 17.077641 45.25 18.085001 44.242641 18.085001 43L 18.084999 33.25L 20.68 33.25C 20.933451 33.250885 21.170204 33.123699 21.309395 32.911888C 21.448586 32.700077 21.471382 32.432293 21.369999 32.200001L 19.255001 27.43C 19.011156 26.88722 19.111204 26.251623 19.51 25.809999L 22 23.139999L 22.135 23.889999C 22.62603 26.619089 24.739523 28.768301 27.459999 29.305C 27.610001 29.305 27.58 29.305 29.17 29.485001C 29.835764 29.559462 30.499821 29.331358 30.9793 28.863504C 31.458776 28.395651 31.703106 27.737391 31.645 27.07C 31.513243 25.957701 30.616285 25.092104 29.500002 25.000002ZM 26.335001 43.75L 45.084999 43.75M 39.834999 36.625C 39.835003 38.074749 41.010254 39.25 42.460003 39.25C 43.909748 39.25 45.085003 38.074749 45.085003 36.625C 45.085003 35.175255 43.909748 34 42.460003 34C 41.010254 34 39.835003 35.175255 39.835003 36.625M 36.235001 40.75L 32.889999 40.75C 31.81185 40.747456 30.791105 40.263809 30.106325 39.431046C 29.421545 38.598286 29.144209 37.503334 29.35 36.445L 29.59 35.275002L 27.895 34.150002C 27.066574 33.599098 26.841599 32.480927 27.392502 31.652502C 27.943405 30.824074 29.061573 30.599098 29.890001 31.150002L 31.585001 32.290001C 33.294998 33.43 33.369999 33.654999 32.889999 36.07C 33.864998 37.360001 35.185001 37.57 36.084999 36.07L 36.084999 32.650002C 36.084999 31.614466 36.924465 30.775002 37.959999 30.775002C 38.995537 30.775002 39.834999 31.614466 39.834999 32.650002L 39.834999 37.150002C 39.834999 39.138226 38.223225 40.75 36.235001 40.75Z"></path></g></g></g><g id="g-root-tx_expertis_qtfczk1u3b18l-stroke" data-item-order="0" transform="translate(38, 317)"></g><g id="g-root-tx_knowledg_dcceio1u3kwzk-stroke" data-item-order="0" transform="translate(386, 305)"></g><g id="g-root-tx_mentalhe_hzns001u3b11i-stroke" data-item-order="0" transform="translate(50, 365)"></g><g id="g-root-tx_skillsin_1qbz7nk1u3ji10-stroke" data-item-order="0" transform="translate(386, 119)"></g><g id="g-root-ic_1_mg3hq81u3ch73-stroke" data-item-order="0" transform="translate(338, 107)"><g id="ic_1_mg3hq81u3ch73-stroke" fill="none" stroke-linecap="round" stroke-linejoin="round" stroke-miterlimit="4" stroke="#a6da37" stroke-width="2"><g><path d="M 12.025 44.875L 12.025 29.875M 12.025 32.875L 22.525002 32.875C 25.010283 32.875 27.025002 34.889717 27.025002 37.375L 36.025002 37.375C 38.510284 37.375 40.525002 39.389717 40.525002 41.875L 12.025 41.875ZM 27.025002 37.375L 22.525002 37.375M 27.775002 31.375C 27.773855 26.900684 31.400684 23.272924 35.875 23.272924C 40.349316 23.272924 43.976143 26.900684 43.974998 31.375ZM 41.774502 21.079C 41.127777 20.016418 40.805096 18.788244 40.846001 17.545L 40.846001 16.1005C 40.846001 13.355092 38.620407 11.1295 35.875 11.1295C 33.129593 11.1295 30.903999 13.355092 30.903999 16.1005L 30.903999 17.545C 30.944904 18.788244 30.622223 20.016418 29.9755 21.079M 30.903999 16.921C 32.813168 16.917549 34.626865 16.08568 35.875 14.641C 37.123131 16.08568 38.936829 16.917549 40.846001 16.921M 40.2565 16.9C 40.150299 19.242678 38.220085 21.087372 35.875 21.087372C 33.529915 21.087372 31.599701 19.242678 31.4935 16.9M 39.2215 24.1285L 35.724998 28.375L 32.2285 24.1285"></path></g></g></g><g id="g-root-tx_foundati_18f33pc1u3b2mh-stroke" data-item-order="0" transform="translate(38, 119)"></g><g id="g-root-ic_lipo_909qww1u3kv0j-stroke" data-item-order="0" transform="translate(158, 104)"><g id="ic_lipo_909qww1u3kv0j-stroke" fill="none" stroke-linecap="round" stroke-linejoin="round" stroke-miterlimit="4" stroke="#43dd93" stroke-width="2"><g><path d="M 12.25 10.75C 10 13 10.3555 17.950001 13.75 20.5C 16.75 22.75 18.25 24.25 18.25 30.25C 18.25 36.25 10.75 40 10.75 45.25M 43.75 10.75C 46 13 45.644501 17.950001 42.25 20.5C 39.25 22.75 37.75 24.25 37.75 30.25C 37.75 36.25 45.25 40 45.25 45.25M 16.299999 22.75C 21.549999 22.75 22.75 20.5 28 20.5C 33.25 20.5 32.950001 22.75 39.699997 22.75M 13.531 39.25C 17.281 39.25 22.75 42.25 28 42.25C 33.25 42.25 38.719002 39.25 42.469002 39.25M 28 37L 28 37.75M 25 10.75C 26.5 10.75 28 13 28 13C 28.445707 11.707019 29.63394 10.815843 31.000002 10.75"></path></g></g></g><g id="g-root-tx_microbio_18gbvk01u3kv7l-stroke" data-item-order="0" transform="translate(386, 377)"></g><g id="g-root-ic_top_vbqoao1u3i1om-stroke" data-item-order="0" transform="translate(158, 392)"><g id="ic_top_vbqoao1u3i1om-stroke" fill="none" stroke-linecap="round" stroke-linejoin="round" stroke-miterlimit="4" stroke="#8769fd" stroke-width="2"><g><path d="M 21.400015 19.524969C 23.719601 19.524969 25.599998 17.644585 25.599998 15.324985C 25.599998 13.005385 23.719601 11.125 21.400015 11.125C 19.080414 11.125 17.200001 13.005385 17.200001 15.324985C 17.200001 17.644585 19.080414 19.524969 21.400015 19.524969ZM 11.200005 37.375L 11.200005 27.625C 11.200005 23.874969 13.9 20.424925 17.5 19.974926C 20.5 19.524925 23.200014 20.874969 24.850016 23.124969C 26.349998 24.924969 27.099998 25.974998 28 27.174999C 28.900002 28.224998 28.75 29.875 27.700001 30.775002C 26.650002 31.674999 24.850016 31.974998 23.650015 30.625L 21.100016 27.775002M 33.700001 44.875C 32.349998 44.875 31.299999 43.824997 31.299999 42.474998C 31.299999 41.125 32.349998 40.074997 33.700001 40.074997M 33.700001 40.074997C 36.0196 40.074997 37.900002 38.194599 37.900002 35.875C 37.900002 33.555401 36.0196 31.674999 33.700001 31.674999C 31.3804 31.674999 29.5 33.555401 29.5 35.875C 29.5 38.194599 31.3804 40.074997 33.700001 40.074997ZM 29.950001 33.775002C 26.049999 35.425003 22.450001 39.175003 22.450001 41.875C 22.450001 44.875 23.950001 44.875 33.700001 44.875C 43.449997 44.875 44.949997 44.875 44.949997 41.875C 44.949997 39.025002 41.199997 35.275002 37.300003 33.625"></path></g></g></g><g id="g-root-ic_2_8z0sqo1u387wq-stroke" data-item-order="0" transform="translate(338, 392)"><g id="ic_2_8z0sqo1u387wq-stroke" fill="none" stroke-linecap="round" stroke-linejoin="round" stroke-miterlimit="4" stroke="#cb68f9" stroke-width="2"><g><path d="M 17.091038 20.453451C 17.766098 22.411415 19.371714 23.633755 20.677282 23.183624C 21.982851 22.733496 22.49398 20.781351 21.818922 18.823389C 21.143862 16.865427 19.538244 15.643087 18.232676 16.093216C 16.927107 16.543346 16.415977 18.495491 17.091038 20.453451M 19.951 25.814501C 19.981224 26.013308 20.02891 26.209064 20.0935 26.399502C 20.525501 27.652 21.552999 28.434999 22.3885 28.146999C 23.223999 27.859001 23.5495 26.609501 23.1175 25.357C 23.050945 25.166977 22.967617 24.983253 22.8685 24.807999ZM 29.316315 30.477276C 30.621885 30.927404 32.227505 29.705067 32.902565 27.747103C 33.577621 25.789143 33.066494 23.836998 31.760925 23.386868C 30.455355 22.936737 28.849737 24.159077 28.174677 26.117039C 27.499617 28.075001 28.010748 30.027145 29.316317 30.477276M 30.0415 33.107498C 30.009012 33.306576 29.958813 33.502354 29.8915 33.692501C 29.459499 34.946503 28.431999 35.728001 27.598 35.439999C 26.764 35.152 26.435499 33.9025 26.8675 32.650002C 26.934322 32.460083 27.017639 32.276382 27.116499 32.100998ZM 10.75 25C 10.75 32.870056 17.129942 39.25 25 39.25C 32.870056 39.25 39.25 32.870056 39.25 25C 39.25 17.129942 32.870056 10.75 25 10.75C 17.129942 10.75 10.75 17.129942 10.75 25M 35.077 35.077L 45.25 45.25"></path></g></g></g><g id="g-root-tx_awarenes_zjg3gg1u3chkx-stroke" data-item-order="0" transform="translate(62, 503)"></g><g id="g-root-tx_understa_4iktj41u3kwsi-stroke" data-item-order="0" transform="translate(386, 407)"></g><g id="g-root-tx_generalk_1ulk58g1u3cgso-stroke" data-item-order="0" transform="translate(74, 461)"></g><g id="g-root-tx_medicals_mcz7gg1u3jhfv-stroke" data-item-order="0" transform="translate(386, 77)"></g><g id="g-root-tx_anatomyp_9lds1u3b2tk-stroke" data-item-order="0" transform="translate(74, 77)"></g><g id="g-root-ic_woma_1d159j41u3p3pr-stroke" data-item-order="0" transform="translate(158, 488)"><g id="ic_woma_1d159j41u3p3pr-stroke" fill="none" stroke-linecap="round" stroke-linejoin="round" stroke-miterlimit="4" stroke="#ffffff" stroke-width="2"><g><path d="M 20.860001 23.5C 20.629869 22.771816 20.50856 22.013634 20.5 21.25L 20.5 18.25C 20.5 14.107864 23.857864 10.75 28 10.75C 32.142136 10.75 35.5 14.107864 35.5 18.25L 35.5 21.25C 35.500954 22.087921 35.358917 22.919861 35.079998 23.709999M 20.5 19C 20.5 19 23.5 19.75 26.5 16C 26.5 16 28.75 19 35.5 19M 24.25 20.875C 24.457108 20.875 24.625 21.042892 24.625 21.25C 24.625 21.457108 24.457108 21.625 24.25 21.625C 24.042892 21.625 23.875 21.457108 23.875 21.25C 23.875 21.042892 24.042892 20.875 24.25 20.875M 31.75 20.875C 31.957108 20.875 32.125 21.042892 32.125 21.25C 32.125 21.457108 31.957108 21.625 31.75 21.625C 31.542892 21.625 31.375 21.457108 31.375 21.25C 31.375 21.042892 31.542892 20.875 31.75 20.875M 13.75 34.704998L 13.75 40.345001C 13.727799 41.04665 14.1952 41.669849 14.875 41.845001L 28 45.25L 28 28.75L 15.7 24.865C 15.245337 24.722012 14.74978 24.803606 14.364964 25.084818C 13.980147 25.366032 13.751877 25.813385 13.75 26.289999L 13.75 28.795M 28 28.75L 40.300003 24.865C 40.754662 24.722012 41.250221 24.803606 41.635036 25.084818C 42.019852 25.366032 42.248123 25.813385 42.25 26.289999L 42.25 28.795M 42.25 34.704998L 42.25 40.345001C 42.272202 41.04665 41.804798 41.669849 41.125 41.845001L 28 45.25M 10.75 31.75C 10.75 34 12.85 34.75 14.5 34.75C 14.914213 34.75 15.25 34.414215 15.25 34L 15.25 29.5C 15.25 29.085787 14.914213 28.75 14.5 28.75C 12.85 28.75 10.75 29.5 10.75 31.75ZM 45.25 31.75C 45.25 34 43.150002 34.75 41.5 34.75C 41.085785 34.75 40.75 34.414215 40.75 34L 40.75 29.5C 40.75 29.085787 41.085785 28.75 41.5 28.75C 43.150002 28.75 45.25 29.5 45.25 31.75Z"></path></g></g></g><g id="g-root-tx_skillsin_1hiua2o1u3b1n3-stroke" data-item-order="0" transform="translate(38, 407)"></g></g></g></svg>