<?xml version="1.0" encoding="utf-8" standalone="yes"?>
<!DOCTYPE svg PUBLIC "-//W3C//DTD SVG 1.1//EN" "http://www.w3.org/Graphics/SVG/1.1/DTD/svg11.dtd">
<svg width="828" height="720" viewBox="0 0 828 720" style="fill:none;stroke:none;fill-rule:evenodd;clip-rule:evenodd;stroke-linecap:round;stroke-linejoin:round;stroke-miterlimit:1.5;" version="1.1" xmlns="http://www.w3.org/2000/svg" xmlns:xlink="http://www.w3.org/1999/xlink"><style class="text-font-style fontImports" data-font-family="Shantell Sans">@import url('https://fonts.googleapis.com/css2?family=Shantell+Sans:wght@300..800&amp;display=block');</style><g id="items" style="isolation: isolate"><g id="blend" style="mix-blend-mode: normal"><g id="g-root-cp_5_g-5_dgq2q31ko5pmx-fill" data-item-order="-486670" transform="translate(347.9530029296875, 424.830078125)"><g id="cp_5_g-5_dgq2q31ko5pmx-fill" stroke="none" fill="#f79438"><g><path d="M 121.015 10.23C 119.92 13.71 119.313 17.34 119.313 21.09L 119.313 59.87C 119.313 66.06 114.623 71.25 108.47 71.69C 95.2278 72.65 80.9402 73.17 66.0453 73.17C 51.1503 73.17 36.1259 72.62 22.595 71.62C 16.4618 71.16 11.7822 65.98 11.7822 59.79L 11.7822 21.09C 11.7822 17.26 11.145 13.55 10 10C 28.1507 12.07 47.088 13.17 66.5431 13.17C 85.9981 13.17 103.4917 12.16 121.015 10.23Z"></path></g></g></g><g id="g-root-cp_4_g-4_1hfq2x71ko5q83-fill" data-item-order="-486666" transform="translate(298.1300048828125, 356.340087890625)"><g id="cp_4_g-4_1hfq2x71ko5q83-fill" stroke="none" fill="#ffe711"><g><path d="M 221.59 10.38C 220.99 11.87 220.35 13.35 219.69 14.81C 215.43 24.18 209.95 32.86 203.43 40.67C 198.71 46.33 193.44 51.52 187.72 56.17C 180.36 62.16 174.38 69.92 171.58 78.72C 153.98 80.65 135.67 81.66 116.87 81.66C 98.07 81.66 78.31 80.56 60.08 78.49C 57.26 69.79 51.32 62.1 44.02 56.17C 38.22 51.46 32.89 46.18 28.12 40.44C 21.61 32.6 16.13 23.87 11.89 14.47C 11.23 13 10.59 11.51 10 10C 42.27 17.48 78.43 21.66 116.62 21.66C 154.81 21.66 189.74 17.62 221.59 10.38Z"></path></g></g></g><g id="g-root-cp_3_g-3_v991e31ko5pfx-fill" data-item-order="-486662" transform="translate(290, 294.840087890625)"><g id="cp_3_g-3_v991e31ko5pfx-fill" stroke="none" fill="#a6da37"><g><path d="M 238 29.16C 238 35.01 237.56 40.76 236.71 46.37C 235.37 55.25 232.99 63.8 229.72 71.88C 197.87 79.12 162.29 83.16 124.75 83.16C 87.21 83.16 50.4 78.98 18.13 71.5C 14.88 63.4 12.54 54.84 11.23 45.94C 10.42 40.46 10 34.86 10 29.16C 10 22.63 10.55 16.23 11.61 10C 45.45 18.41 83.83 23.16 124.5 23.16C 165.17 23.16 202.83 18.5 236.43 10.24C 237.46 16.39 238 22.71 238 29.16Z"></path></g></g></g><g id="g-root-cp_2_g-2_1qcm1cb1ko5qtr-fill" data-item-order="-486658" transform="translate(291.6099853515625, 240.340087890625)"><g id="cp_2_g-2_1qcm1cb1ko5qtr-fill" stroke="none" fill="#43dd93"><g><path d="M 234.82 64.74C 201.22 73 163.18 77.66 122.89 77.66C 82.6 77.66 43.84 72.91 10 64.5C 10.68 60.46 11.57 56.5 12.67 52.62C 14.88 44.78 17.91 37.29 21.65 30.24C 25.4 23.19 29.87 16.58 34.96 10.5C 35.1 10.33 35.24 10.17 35.39 10C 62.51 14.95 91.92 17.66 122.64 17.66C 153.36 17.66 182.45 14.98 209.46 10.08C 209.64 10.27 209.8 10.47 209.96 10.66C 220.14 22.86 227.82 37.22 232.21 52.95C 233.28 56.8 234.16 60.73 234.82 64.74Z"></path></g></g></g><g id="g-root-cp_1_g-1_1464zt71ko5qtd-fill" data-item-order="-486654" transform="translate(317, 200)"><g id="cp_1_g-1_1464zt71ko5qtd-fill" stroke="none" fill="#1ac3fb"><g><path d="M 184.07 50.42C 157.06 55.32 127.81 58 97.25 58C 66.69 58 37.12 55.29 10 50.34C 30.9 25.66 62.13 10 97 10C 114.6 10 131.26 13.99 146.14 21.11C 160.79 28.11 173.71 38.16 184.07 50.42Z"></path></g></g></g><g id="g-root-cp_0_g-0_hznya31ko5q17-fill" data-item-order="-486650" transform="translate(356.010009765625, 494.7490234375)"><g id="cp_0_g-0_hznya31ko5q17-fill" stroke="none" fill="#e8e8e8"><g><path d="M 16.4 10.0113C 29.73 10.8213 43.89 11.2513 58.56 11.2513C 73.23 11.2513 86.59 10.8413 99.59 10.0813C 103.05 9.8813 105.99 12.6213 105.99 16.0813C 105.99 19.2313 103.56 21.8413 100.42 22.0313C 87.18 22.8313 73.13 23.2513 58.57 23.2513C 44.01 23.2513 29.14 22.8013 15.56 21.9613C 12.43 21.7613 10 19.1613 10 16.0113C 10 12.5413 12.94 9.8013 16.41 10.0113L 16.4 10.0113ZM 16.4 30.0113C 29.73 30.8213 43.89 31.2513 58.56 31.2513C 73.23 31.2513 86.59 30.8413 99.59 30.0813C 103.05 29.8813 105.99 32.6213 105.99 36.0813C 105.99 39.2313 103.56 41.8413 100.42 42.0313C 87.18 42.8313 73.13 43.2513 58.57 43.2513C 44.01 43.2513 29.14 42.8013 15.56 41.9613C 12.43 41.7613 10 39.1613 10 36.0113C 10 32.5413 12.94 29.8013 16.41 30.0113L 16.4 30.0113ZM 29.99 50.691C 39.22 51.061 48.78 51.251 58.56 51.251C 68.34 51.251 77.12 51.071 86 50.731C 89.42 50.601 92.28 53.321 92.28 56.751C 92.28 59.951 89.77 62.591 86.57 62.711C 77.51 63.061 68.15 63.251 58.56 63.251C 48.97 63.251 38.82 63.051 29.4 62.671C 26.21 62.541 23.7 59.901 23.7 56.711C 23.7 53.281 26.57 50.561 29.99 50.691Z"></path></g></g></g><g id="g-root-tx_generali_m7byvf1kxk74e-fill" data-item-order="0" transform="translate(38, 158)"><g id="tx_generali_m7byvf1kxk74e-fill" stroke="none" fill="#1ac3fb"><g><text style="font: bold 20px &quot;Shantell Sans&quot;, cursive; white-space: pre;" font-weight="bold" font-size="20px" font-family="'Shantell Sans', cursive"><tspan x="68.85" y="34.75" dominant-baseline="ideographic">General </tspan><tspan x="26.36" y="58.75" dominant-baseline="ideographic">Intelligence </tspan><tspan x="22.53" y="82.75" dominant-baseline="ideographic">&amp; Reasoning</tspan></text></g></g></g><g id="g-root-ic_1_m8kx1n1kxk9ag-fill" data-item-order="0" transform="translate(194, 158)"></g><g id="g-root-tx_testslog_1q6bz2j1kxk7pj-fill" data-item-order="0" transform="translate(50, 242)"><g id="tx_testslog_1q6bz2j1kxk7pj-fill" stroke="none" fill="#1ac3fb"><g><text style="font: 15px &quot;Shantell Sans&quot;, cursive; white-space: pre;" font-size="15px" font-family="'Shantell Sans', cursive"><tspan x="17.51" y="28.77" dominant-baseline="ideographic">Tests logical and </tspan><tspan x="27.2" y="46.77" dominant-baseline="ideographic">analytical skills</tspan></text></g></g></g><g id="g-root-ic_app_18jfgi31ky12j1-fill" data-item-order="0" transform="translate(566, 230)"></g><g id="g-root-tx_quantita_1q6ymh71ky12x5-fill" data-item-order="0" transform="translate(626, 230)"><g id="tx_quantita_1q6ymh71ky12x5-fill" stroke="none" fill="#43dd93"><g><text style="font: bold 20px &quot;Shantell Sans&quot;, cursive; white-space: pre;" font-weight="bold" font-size="20px" font-family="'Shantell Sans', cursive"><tspan x="12" y="34.75" dominant-baseline="ideographic">Quantitative </tspan><tspan x="12" y="58.75" dominant-baseline="ideographic">Aptitude</tspan></text></g></g></g><g id="g-root-tx_coversar_1hd71hn1ky12q3-fill" data-item-order="0" transform="translate(626, 290)"><g id="tx_coversar_1hd71hn1ky12q3-fill" stroke="none" fill="#43dd93"><g><text style="font: 15px &quot;Shantell Sans&quot;, cursive; white-space: pre;" font-size="15px" font-family="'Shantell Sans', cursive"><tspan x="12" y="31.77" dominant-baseline="ideographic">Covers arithmetic </tspan><tspan x="12" y="49.77" dominant-baseline="ideographic">and advanced </tspan><tspan x="12" y="67.77" dominant-baseline="ideographic">math</tspan></text></g></g></g><g id="g-root-tx_englishl_v4uedn1kxsnpm-fill" data-item-order="0" transform="translate(74, 326)"><g id="tx_englishl_v4uedn1kxsnpm-fill" stroke="none" fill="#a6da37"><g><text style="font: bold 20px &quot;Shantell Sans&quot;, cursive; white-space: pre;" font-weight="bold" font-size="20px" font-family="'Shantell Sans', cursive"><tspan x="40.19" y="34.75" dominant-baseline="ideographic">English </tspan><tspan x="14.59" y="58.75" dominant-baseline="ideographic">Language</tspan></text></g></g></g><g id="g-root-ic_edit_143ls231kxsnbh-fill" data-item-order="0" transform="translate(194, 326)"></g><g id="g-root-tx_focuseso_1cxdd1n1kxsnij-fill" data-item-order="0" transform="translate(62, 386)"><g id="tx_focuseso_1cxdd1n1kxsnij-fill" stroke="none" fill="#a6da37"><g><text style="font: 15px &quot;Shantell Sans&quot;, cursive; white-space: pre;" font-size="15px" font-family="'Shantell Sans', cursive"><tspan x="49.31" y="31.77" dominant-baseline="ideographic">Focuses on </tspan><tspan x="28.53" y="49.77" dominant-baseline="ideographic">grammar and </tspan><tspan x="20.01" y="67.77" dominant-baseline="ideographic">comprehension</tspan></text></g></g></g><g id="g-root-ic_glob_dbp83v1kxsoaz-fill" data-item-order="0" transform="translate(566, 398)"></g><g id="g-root-tx_generala_1d1qy4r1kxr9xl-fill" data-item-order="0" transform="translate(626, 398)"><g id="tx_generala_1d1qy4r1kxr9xl-fill" stroke="none" fill="#ffe711"><g><text style="font: bold 20px &quot;Shantell Sans&quot;, cursive; white-space: pre;" font-weight="bold" font-size="20px" font-family="'Shantell Sans', cursive"><tspan x="12" y="34.75" dominant-baseline="ideographic">General </tspan><tspan x="12" y="58.75" dominant-baseline="ideographic">Awareness</tspan></text></g></g></g><g id="g-root-tx_includes_1uu9wsr1kxr9qi-fill" data-item-order="0" transform="translate(626, 458)"><g id="tx_includes_1uu9wsr1kxr9qi-fill" stroke="none" fill="#ffe711"><g><text style="font: 15px &quot;Shantell Sans&quot;, cursive; white-space: pre;" font-size="15px" font-family="'Shantell Sans', cursive"><tspan x="12" y="31.77" dominant-baseline="ideographic">Includes history, </tspan><tspan x="12" y="49.77" dominant-baseline="ideographic">geography, and </tspan><tspan x="12" y="67.77" dominant-baseline="ideographic">economics</tspan></text></g></g></g><g id="g-root-tx_computer_1qbby2z1kxsooy-fill" data-item-order="0" transform="translate(62, 494)"><g id="tx_computer_1qbby2z1kxsooy-fill" stroke="none" fill="#f79438"><g><text style="font: bold 20px &quot;Shantell Sans&quot;, cursive; white-space: pre;" font-weight="bold" font-size="20px" font-family="'Shantell Sans', cursive"><tspan x="28.52" y="34.75" dominant-baseline="ideographic">Computer </tspan><tspan x="12.6" y="58.75" dominant-baseline="ideographic">Knowledge</tspan></text></g></g></g><g id="g-root-ic_comp_vb3bkb1kxsnpo-fill" data-item-order="0" transform="translate(194, 494)"></g><g id="g-root-tx_coversba_7qbm31kxsmbv-fill" data-item-order="0" transform="translate(38, 554)"><g id="tx_coversba_7qbm31kxsmbv-fill" stroke="none" fill="#f79438"><g><text style="font: 15px &quot;Shantell Sans&quot;, cursive; white-space: pre;" font-size="15px" font-family="'Shantell Sans', cursive"><tspan x="22.25" y="28.77" dominant-baseline="ideographic">Covers basics and </tspan><tspan x="40.84" y="46.77" dominant-baseline="ideographic">MS Office skills</tspan></text></g></g></g><g id="g-root-cp_5_g-5_dgq2q31ko5pmx-stroke" data-item-order="-486670" transform="translate(347.9530029296875, 424.830078125)"><g id="cp_5_g-5_dgq2q31ko5pmx-stroke" fill="none" stroke-linecap="round" stroke-linejoin="round" stroke-miterlimit="4" stroke="#2c2c2c" stroke-width="2"><g><path d="M 121.0152 10.23C 119.92 13.71 119.3127 17.34 119.3127 21.09L 119.3127 59.87C 119.3127 66.06 114.6231 71.25 108.47 71.69C 95.2278 72.65 80.9402 73.17 66.0453 73.17C 51.1503 73.17 36.1259 72.62 22.595 71.62C 16.4618 71.16 11.7822 65.98 11.7822 59.79L 11.7822 21.09C 11.7822 17.26 11.145 13.55 10 10C 28.1507 12.07 47.088 13.17 66.5431 13.17C 85.9981 13.17 103.4917 12.16 121.0152 10.23Z"></path></g></g></g><g id="g-root-cp_4_g-4_1hfq2x71ko5q83-stroke" data-item-order="-486666" transform="translate(298.1300048828125, 356.340087890625)"><g id="cp_4_g-4_1hfq2x71ko5q83-stroke" fill="none" stroke-linecap="round" stroke-linejoin="round" stroke-miterlimit="4" stroke="#2c2c2c" stroke-width="2"><g><path d="M 221.59 10.38C 220.99 11.87 220.35 13.35 219.69 14.81C 215.43 24.18 209.95 32.86 203.43 40.67C 198.71 46.33 193.44 51.52 187.72 56.17C 180.36 62.16 174.38 69.92 171.58 78.72C 153.98 80.65 135.67 81.66 116.87 81.66C 98.07 81.66 78.31 80.56 60.08 78.49C 57.26 69.79 51.32 62.1 44.02 56.17C 38.22 51.46 32.89 46.18 28.12 40.44C 21.61 32.6 16.13 23.87 11.89 14.47C 11.23 13 10.59 11.51 10 10C 42.27 17.48 78.43 21.66 116.62 21.66C 154.81 21.66 189.74 17.62 221.59 10.38Z"></path></g></g></g><g id="g-root-cp_3_g-3_v991e31ko5pfx-stroke" data-item-order="-486662" transform="translate(290, 294.840087890625)"><g id="cp_3_g-3_v991e31ko5pfx-stroke" fill="none" stroke-linecap="round" stroke-linejoin="round" stroke-miterlimit="4" stroke="#2c2c2c" stroke-width="2"><g><path d="M 238 29.16C 238 35.01 237.56 40.76 236.71 46.37C 235.37 55.25 232.99 63.8 229.72 71.88C 197.87 79.12 162.29 83.16 124.75 83.16C 87.21 83.16 50.4 78.98 18.13 71.5C 14.88 63.4 12.54 54.84 11.23 45.94C 10.42 40.46 10 34.86 10 29.16C 10 22.63 10.55 16.23 11.61 10C 45.45 18.41 83.83 23.16 124.5 23.16C 165.17 23.16 202.83 18.5 236.43 10.24C 237.46 16.39 238 22.71 238 29.16Z"></path></g></g></g><g id="g-root-cp_2_g-2_1qcm1cb1ko5qtr-stroke" data-item-order="-486658" transform="translate(291.6099853515625, 240.340087890625)"><g id="cp_2_g-2_1qcm1cb1ko5qtr-stroke" fill="none" stroke-linecap="round" stroke-linejoin="round" stroke-miterlimit="4" stroke="#2c2c2c" stroke-width="2"><g><path d="M 234.82 64.74C 201.22 73 163.18 77.66 122.89 77.66C 82.6 77.66 43.84 72.91 10 64.5C 10.68 60.46 11.57 56.5 12.67 52.62C 14.88 44.78 17.91 37.29 21.65 30.24C 25.4 23.19 29.87 16.58 34.96 10.5C 35.1 10.33 35.24 10.17 35.39 10C 62.51 14.95 91.92 17.66 122.64 17.66C 153.36 17.66 182.45 14.98 209.46 10.08C 209.64 10.27 209.8 10.47 209.96 10.66C 220.14 22.86 227.82 37.22 232.21 52.95C 233.28 56.8 234.16 60.73 234.82 64.74Z"></path></g></g></g><g id="g-root-cp_1_g-1_1464zt71ko5qtd-stroke" data-item-order="-486654" transform="translate(317, 200)"><g id="cp_1_g-1_1464zt71ko5qtd-stroke" fill="none" stroke-linecap="round" stroke-linejoin="round" stroke-miterlimit="4" stroke="#2c2c2c" stroke-width="2"><g><path d="M 184.07 50.42C 157.06 55.32 127.81 58 97.25 58C 66.69 58 37.12 55.29 10 50.34C 30.9 25.66 62.13 10 97 10C 114.6 10 131.26 13.99 146.14 21.11C 160.79 28.11 173.71 38.16 184.07 50.42Z"></path></g></g></g><g id="g-root-cp_0_g-0_hznya31ko5q17-stroke" data-item-order="-486650" transform="translate(356.010009765625, 494.7490234375)"><g id="cp_0_g-0_hznya31ko5q17-stroke" fill="none" stroke-linecap="round" stroke-linejoin="round" stroke-miterlimit="4" stroke="#2c2c2c" stroke-width="2"><g><path d="M 16.4 10.0113C 29.73 10.8213 43.89 11.2513 58.56 11.2513C 73.23 11.2513 86.59 10.8413 99.59 10.0813C 103.05 9.8813 105.99 12.6213 105.99 16.0813C 105.99 19.2313 103.56 21.8413 100.42 22.0313C 87.18 22.8313 73.13 23.2513 58.57 23.2513C 44.01 23.2513 29.14 22.8013 15.56 21.9613C 12.43 21.7613 10 19.1613 10 16.0113C 10 12.5413 12.94 9.8013 16.41 10.0113L 16.4 10.0113ZM 16.4 30.0113C 29.73 30.8213 43.89 31.2513 58.56 31.2513C 73.23 31.2513 86.59 30.8413 99.59 30.0813C 103.05 29.8813 105.99 32.6213 105.99 36.0813C 105.99 39.2313 103.56 41.8413 100.42 42.0313C 87.18 42.8313 73.13 43.2513 58.57 43.2513C 44.01 43.2513 29.14 42.8013 15.56 41.9613C 12.43 41.7613 10 39.1613 10 36.0113C 10 32.5413 12.94 29.8013 16.41 30.0113L 16.4 30.0113ZM 29.99 50.691C 39.22 51.061 48.78 51.251 58.56 51.251C 68.34 51.251 77.12 51.071 86 50.731C 89.42 50.601 92.28 53.321 92.28 56.751C 92.28 59.951 89.77 62.591 86.57 62.711C 77.51 63.061 68.15 63.251 58.56 63.251C 48.97 63.251 38.82 63.051 29.4 62.671C 26.21 62.541 23.7 59.901 23.7 56.711C 23.7 53.281 26.57 50.561 29.99 50.691Z"></path></g></g></g><g id="g-root-tx_generali_m7byvf1kxk74e-stroke" data-item-order="0" transform="translate(38, 158)"></g><g id="g-root-ic_1_m8kx1n1kxk9ag-stroke" data-item-order="0" transform="translate(194, 158)"><g id="ic_1_m8kx1n1kxk9ag-stroke" fill="none" stroke-linecap="round" stroke-linejoin="round" stroke-miterlimit="4" stroke="#1ac3fb" stroke-width="2"><g><path d="M 19.350719 56.5L 19.350719 43.970001C 16.587181 41.409798 14.65988 38.075798 13.82048 34.4034C 12.9811 30.731001 13.26862 26.89068 14.64554 23.384159C 16.02244 19.87764 18.424721 16.8678 21.538681 14.7477C 24.652641 12.6276 28.33354 11.495768 32.1008 11.500012C 46.378799 11.500012 49.4608 23.25602 54.5508 36.459999C 54.638 36.687401 54.668598 36.9324 54.639999 37.174202C 54.611401 37.416 54.524601 37.647202 54.386799 37.848C 54.249001 38.048599 54.064602 38.212799 53.849201 38.326401C 53.633801 38.440002 53.394199 38.499599 53.150799 38.5L 49.3508 38.5L 49.3508 44.5C 49.3508 46.0914 48.718601 47.617401 47.593399 48.742599C 46.468201 49.867802 44.942001 50.5 43.3508 50.5L 40.3508 50.5L 40.3508 56.5M 41.253201 25.137981C 40.951 25.440159 40.6096 25.67922 40.2458 25.85512L 43.641998 29.25144L 40.174202 32.7192C 38.848 31.393 36.699799 31.3908 35.3764 32.714401C 34.052799 34.038002 34.055 36.186001 35.381203 37.512199L 31.7796 41.113998L 28.320761 37.655197C 28.18668 37.872398 28.025681 38.0774 27.837681 38.2654C 26.501261 39.601799 24.3069 39.5742 22.93642 38.2038C 21.565941 36.833199 21.538319 34.638802 22.874741 33.302399C 23.06274 33.114403 23.267719 32.9534 23.48498 32.819401L 20.02636 29.3608L 23.490181 25.89698C 24.87608 27.28282 27.104259 27.30158 28.46698 25.93886C 29.8297 24.576141 29.81094 22.34798 28.4251 20.962059L 31.8888 17.498301L 35.3386 20.947941C 35.5144 20.58396 35.753403 20.242661 36.055599 19.940479C 37.4972 18.49894 39.829201 18.493839 41.264603 19.9291C 42.699799 21.364361 42.694599 23.696461 41.253201 25.137981Z"></path></g></g></g><g id="g-root-tx_testslog_1q6bz2j1kxk7pj-stroke" data-item-order="0" transform="translate(50, 242)"></g><g id="g-root-ic_app_18jfgi31ky12j1-stroke" data-item-order="0" transform="translate(566, 230)"><g id="ic_app_18jfgi31ky12j1-stroke" fill="none" stroke-linecap="round" stroke-linejoin="round" stroke-miterlimit="4" stroke="#43dd93" stroke-width="2"><g><path d="M 26.007999 48L 18.007999 40M 18.007999 48L 26.007999 40M 22.007999 19L 22.007999 29M 27.007999 24L 17.007999 24M 41.007999 24L 51.007999 24M 41.007999 46L 51.007999 46M 41.007999 46L 51.007999 46M 41.007999 42L 51.007999 42M 34.007999 12L 34.007999 56M 12.007999 34L 56.007999 34M 18.007999 12L 50.007999 12C 50.007999 12 56.007999 12 56.007999 18L 56.007999 50C 56.007999 50 56.007999 56 50.007999 56L 18.007999 56C 18.007999 56 12.007999 56 12.007999 50L 12.007999 18C 12.007999 18 12.007999 12 18.007999 12"></path></g></g></g><g id="g-root-tx_quantita_1q6ymh71ky12x5-stroke" data-item-order="0" transform="translate(626, 230)"></g><g id="g-root-tx_coversar_1hd71hn1ky12q3-stroke" data-item-order="0" transform="translate(626, 290)"></g><g id="g-root-tx_englishl_v4uedn1kxsnpm-stroke" data-item-order="0" transform="translate(74, 326)"></g><g id="g-root-ic_edit_143ls231kxsnbh-stroke" data-item-order="0" transform="translate(194, 326)"><g id="ic_edit_143ls231kxsnbh-stroke" fill="none" stroke-linecap="round" stroke-linejoin="round" stroke-miterlimit="4" stroke="#a6da37" stroke-width="2"><g><path d="M 32 47L 13 47C 11.895431 47 11 46.104568 11 45L 11 13C 11 11.895431 11.895431 11 13 11L 43 11C 44.104568 11 45 11.895431 45 13L 45 33M 41.400002 54.599998L 33 57L 35.400002 48.599998L 49.757999 34.242001C 51.414852 32.585144 54.101143 32.585144 55.757999 34.241997C 57.414852 35.898853 57.414852 38.585144 55.757999 40.241997ZM 47.958 36.042L 53.958 42.042M 35.400002 48.599998L 41.400002 54.599998M 22 19L 36 19M 18 25L 36 25M 18 31L 36 31M 18 37L 31 37"></path></g></g></g><g id="g-root-tx_focuseso_1cxdd1n1kxsnij-stroke" data-item-order="0" transform="translate(62, 386)"></g><g id="g-root-ic_glob_dbp83v1kxsoaz-stroke" data-item-order="0" transform="translate(566, 398)"><g id="ic_glob_dbp83v1kxsoaz-stroke" fill="none" stroke-linecap="round" stroke-linejoin="round" stroke-miterlimit="4" stroke="#ffe711" stroke-width="2"><g><path d="M 20 34C 20 41.731987 26.268015 48 34 48C 41.731987 48 48 41.731987 48 34C 48 26.268015 41.731987 20 34 20C 26.268015 20 20 26.268015 20 34M 34 20C 41 29.333334 41 38.666664 34 48M 34 20C 27 29.333334 27 38.666664 34 48M 20.92 29L 47.077999 29M 20.92 39L 47.080002 39M 33 12C 33 12.552284 33.447716 13 34 13C 34.552284 13 35 12.552284 35 12C 35 11.447716 34.552284 11 34 11C 33.447716 11 33 11.447716 33 12M 48.349998 18.65C 48.349998 19.202286 48.797714 19.65 49.349998 19.65C 49.902287 19.65 50.349998 19.202286 50.349998 18.65C 50.349998 18.097715 49.902287 17.65 49.349998 17.65C 48.797714 17.65 48.349998 18.097715 48.349998 18.65M 55 34C 55 34.552284 55.447716 35 56 35C 56.552284 35 57 34.552284 57 34C 57 33.447716 56.552284 33 56 33C 55.447716 33 55 33.447716 55 34M 48.349998 49.349998C 48.349998 49.902287 48.797714 50.349998 49.349998 50.349998C 49.902287 50.349998 50.349998 49.902287 50.349998 49.349998C 50.349998 48.797714 49.902287 48.349998 49.349998 48.349998C 48.797714 48.349998 48.349998 48.797714 48.349998 49.349998M 33 56C 33 56.552284 33.447716 57 34 57C 34.552284 57 35 56.552284 35 56C 35 55.447716 34.552284 55 34 55C 33.447716 55 33 55.447716 33 56M 17.65 49.349998C 17.65 49.902287 18.097715 50.349998 18.65 50.349998C 19.202286 50.349998 19.65 49.902287 19.65 49.349998C 19.65 48.797714 19.202286 48.349998 18.65 48.349998C 18.097715 48.349998 17.65 48.797714 17.65 49.349998M 11 34C 11 34.552284 11.447716 35 12 35C 12.552284 35 13 34.552284 13 34C 13 33.447716 12.552284 33 12 33C 11.447716 33 11 33.447716 11 34M 17.65 18.65C 17.65 19.202286 18.097715 19.65 18.65 19.65C 19.202286 19.65 19.65 19.202286 19.65 18.65C 19.65 18.097715 19.202286 17.65 18.65 17.65C 18.097715 17.65 17.65 18.097715 17.65 18.65"></path></g></g></g><g id="g-root-tx_generala_1d1qy4r1kxr9xl-stroke" data-item-order="0" transform="translate(626, 398)"></g><g id="g-root-tx_includes_1uu9wsr1kxr9qi-stroke" data-item-order="0" transform="translate(626, 458)"></g><g id="g-root-tx_computer_1qbby2z1kxsooy-stroke" data-item-order="0" transform="translate(62, 494)"></g><g id="g-root-ic_comp_vb3bkb1kxsnpo-stroke" data-item-order="0" transform="translate(194, 494)"><g id="ic_comp_vb3bkb1kxsnpo-stroke" fill="none" stroke-linecap="round" stroke-linejoin="round" stroke-miterlimit="4" stroke="#f79438" stroke-width="2"><g><path d="M 13 11L 55 11C 55 11 57 11 57 13L 57 37C 57 37 57 39 55 39L 13 39C 13 39 11 39 11 37L 11 13C 11 13 11 11 13 11M 53.694 55.757999C 53.768486 56.056641 53.701294 56.372944 53.511845 56.61552C 53.322392 56.858097 53.031792 56.999916 52.723999 57L 15.285999 57C 14.97821 56.999916 14.687607 56.858097 14.498156 56.61552C 14.308704 56.372944 14.241514 56.056641 14.316 55.757999L 16.816 45.757999C 16.927071 45.312672 17.32703 45.000126 17.785999 45L 50.223999 45C 50.682972 45.000126 51.082928 45.312672 51.194 45.757999ZM 11 33L 57 33M 21 49L 23 49M 19 53L 21 53M 27 49L 29 49M 33 49L 35 49M 39 49L 41 49M 45 49L 47 49M 25 53L 43 53M 47 53L 49 53"></path></g></g></g><g id="g-root-tx_coversba_7qbm31kxsmbv-stroke" data-item-order="0" transform="translate(38, 554)"></g></g></g><path id="wmb2wnv1knkoap" d="M65.283 12.757a.35.35 0 0 0 .584.157l5.203-5.141-6.183 3.523.396 1.461zm-2.216-11.7a.35.35 0 0 0-.522.305v3.111l3.276-1.868-2.754-1.548zm3.728 2.105l-4.25 2.421v2.445l6.391-3.644-2.141-1.222zm4.708 3.303a.35.35 0 0 0 0-.609l-1.592-.9-7.365 4.199v1.782a.35.35 0 0 0 .523.305l8.435-4.777z M44.542 2.513c0-.433.355-.783.792-.783s.792.35.792.783-.355.783-.792.783-.792-.35-.792-.783zm59.171 0c0-.433.355-.783.792-.783s.792.35.792.783-.355.783-.792.783-.792-.35-.792-.783zm-85.951 7.636h-1.27v-.487c-.276.201-.864.609-1.881.609-1.202 0-2.274-.794-2.137-2.078.118-1.106 1.153-1.584 1.848-1.727l2.17-.345c0-.539-.29-.956-1.064-1.006s-1.21.305-1.571 1.017l-1.124-.605c1.218-2.631 5.029-1.764 5.029.414v4.207zm-1.27-2.86c.006.396-.062 1.112-.819 1.59-.587.37-1.841.299-1.903-.395-.049-.555.461-.791.906-.898l1.816-.297zm72.662 2.86h-1.27v-.487c-.276.201-.864.609-1.881.609-1.202 0-2.274-.794-2.137-2.078.118-1.106 1.153-1.584 1.848-1.727l2.17-.345c0-.539-.29-.956-1.064-1.006s-1.21.305-1.571 1.017l-1.124-.605c1.218-2.631 5.029-1.764 5.029.414v4.207zm-1.27-2.86c.006.396-.062 1.112-.82 1.59-.587.37-1.841.299-1.903-.395-.049-.555.461-.791.906-.898l1.816-.297zM99.096 10.149H97.85v-8.45h1.246v4.895l2.68-2.559h1.738l-2.633 2.535 2.715 3.578h-1.556l-2.077-2.707-.867.844v1.863zm6.053-6.114h-1.255v6.113h1.255V4.035zm-59.2 0h-1.255v6.113h1.255V4.035zm5.584 6.113V1.697h1.255v2.695c.361-.346 1-.485 1.47-.485 1.452 0 2.477 1.082 2.457 2.448v3.792h-1.27v-3.68c0-.408-.214-1.339-1.315-1.339-.968 0-1.342.756-1.342 1.339v3.681h-1.255zm-4.76-4.894V4.039h.621a.45.45 0 0 0 .45-.45v-.855h1.251v1.305h1.309v1.215h-1.309v3.109c0 .293.105.664.648.664.365 0 .531-.035.736-.07v1.137s-.361.113-.857.113c-1.398 0-1.777-1.051-1.777-1.788V5.254h-1.071zM36.528 4.039h-1.394l2.191 6.106h1.125l1.234-3.918 1.238 3.918h1.129l2.188-6.106h-1.383l-1.359 3.93-1.256-3.93h-1.124l-1.242 3.957-1.348-3.957zM26.212 7.141c-.02 1.566 1.187 3.129 3.223 3.129 1.566 0 2.383-.918 2.734-1.719L31.172 8c-.315.399-.801 1.094-1.738 1.094-1.145 0-1.825-.781-1.891-1.52h4.625c.074-.284.148-.995-.03-1.559-.336-1.064-1.221-2.102-2.839-2.102s-3.088 1.152-3.088 3.227zm1.363-.75h3.348c-.055-.43-.566-1.301-1.623-1.301a1.79 1.79 0 0 0-1.725 1.301zm-8.758.75c.038 1.758 1.277 3.133 3.145 3.133 1.074 0 1.723-.477 1.961-.672v.547h1.242V1.703h-1.258v2.888c-.414-.36-1.062-.68-1.93-.68-1.91 0-3.198 1.473-3.16 3.23zm1.309-.08c0 1.119.723 1.978 1.836 1.978a1.88 1.88 0 0 0 1.94-1.904c0-1.371-1.011-1.99-1.972-1.99s-1.805.798-1.805 1.916zm76.683-.028C96.771 5.275 95.532 3.9 93.664 3.9c-1.074 0-1.723.477-1.961.672v-.547h-1.242v8.22h1.258V9.583c.414.36 1.063.68 1.93.68 1.91 0 3.198-1.473 3.16-3.23zm-1.309.08c0-1.119-.723-1.978-1.836-1.978a1.88 1.88 0 0 0-1.94 1.904c0 1.371 1.011 1.99 1.972 1.99S95.5 8.231 95.5 7.113zM106.441 10.173V4.036h1.254v.382c.361-.346 1-.485 1.47-.485 1.452 0 2.477 1.082 2.457 2.448v3.792h-1.27V6.492c0-.408-.214-1.339-1.315-1.339-.969 0-1.342.756-1.342 1.339v3.681h-1.254zm-30.383-.021V1.824h1.084l4.215 5.777V1.824h1.32v8.328h-1.094l-4.207-5.796v5.796h-1.319zM5.24 10.149H4V2.377h1.014l2.664 3.597 2.654-3.592h1.03v7.766h-1.256V4.762L7.678 8.068 5.24 4.742v5.407z" transform="translate(692, 686)" fill="#ababab88" stroke="none"></path></svg>