<?xml version="1.0" encoding="utf-8" standalone="yes"?>
<!DOCTYPE svg PUBLIC "-//W3C//DTD SVG 1.1//EN" "http://www.w3.org/Graphics/SVG/1.1/DTD/svg11.dtd">
<svg width="912" height="768" viewBox="0 0 912 768" style="fill:none;stroke:none;fill-rule:evenodd;clip-rule:evenodd;stroke-linecap:round;stroke-linejoin:round;stroke-miterlimit:1.5;" version="1.1" xmlns="http://www.w3.org/2000/svg" xmlns:xlink="http://www.w3.org/1999/xlink"><style class="text-font-style fontImports" data-font-family="Roboto">@import url('https://fonts.googleapis.com/css2?family=Roboto:wght@400;700&amp;display=block');</style><style class="text-font-style fontImports" data-font-family="Shantell Sans">@import url('https://fonts.googleapis.com/css2?family=Shantell+Sans:wght@300..800&amp;display=block');</style><g id="items" style="isolation: isolate"><g id="blend" style="mix-blend-mode: normal"><g id="g-root-cp_1_g-1_dkghje1hbxwjx-fill" data-item-order="-580594" transform="translate(392, 110)"><g id="cp_1_g-1_dkghje1hbxwjx-fill" stroke="none" fill="#4f91fc"><g><path d="M 52 94C 75.196 94 94 75.196 94 52C 94 28.804 75.196 10 52 10C 28.804 10 10 28.804 10 52C 10 75.196 28.804 94 52 94ZM 52 78.25C 66.4975 78.25 78.25 66.4975 78.25 52C 78.25 37.5025 66.4975 25.75 52 25.75C 37.5025 25.75 25.75 37.5025 25.75 52C 25.75 66.4975 37.5025 78.25 52 78.25Z"></path></g></g></g><g id="g-root-sy_1_Subtract_94mzey1hbxxc7-fill" data-item-order="-580587" transform="translate(476, 152)"></g><g id="g-root-sy_1_Subtract-start_4othai1hbxy4g-fill" data-item-order="-580585" transform="translate(515.375, 149.375)"></g><g id="g-root-sy_1_Subtract_1_1uuaj0q1hbxyq1-fill" data-item-order="-580581" transform="translate(353, 152)"></g><g id="g-root-sy_1_Subtract-start_1_1uuaj0q1hbxyq2-fill" data-item-order="-580579" transform="translate(347, 149)"></g><g id="g-root-cp_1_lines_1qf3hze1hbxwcj-fill" data-item-order="-580566" transform="translate(426, 193.25)"><g id="cp_1_lines_1qf3hze1hbxwcj-fill" stroke="none" fill="#4f91fc"><g><path d="M 18 10.7871C 15.2656 10.7871 12.5913 10.5167 10 10L 10 16L 26 16L 26 10.000001C 23.4087 10.5167 20.7344 10.7871 18 10.7871ZM 18 46.7129C 15.2656 46.7129 12.5913 46.9833 10 47.5L 10 41.5L 26 41.5L 26 47.5C 23.4087 46.9833 20.7344 46.7129 18 46.7129ZM 26 41.5L 26 16L 10 16L 10 41.5L 26 41.5Z"></path></g></g></g><g id="g-root-cp_2_g-2_1hjghqi1hbxx59-fill" data-item-order="-580536" transform="translate(392, 230)"><g id="cp_2_g-2_1hjghqi1hbxx59-fill" stroke="none" fill="#43dd93"><g><path d="M 52 94C 75.196 94 94 75.196 94 52C 94 28.804 75.196 10 52 10C 28.804 10 10 28.804 10 52C 10 75.196 28.804 94 52 94ZM 52 78.25C 66.4975 78.25 78.25 66.4975 78.25 52C 78.25 37.5025 66.4975 25.75 52 25.75C 37.5025 25.75 25.75 37.5025 25.75 52C 25.75 66.4975 37.5025 78.25 52 78.25Z"></path></g></g></g><g id="g-root-sy_2_Subtract_1d3mzm21hbxxxj-fill" data-item-order="-580529" transform="translate(476, 272)"></g><g id="g-root-sy_2_Subtract-start_1d3mzm21hbxxxk-fill" data-item-order="-580527" transform="translate(515.375, 269.375)"></g><g id="g-root-sy_2_Subtract_1_18nthhm1hbxypt-fill" data-item-order="-580523" transform="translate(353, 272)"></g><g id="g-root-sy_2_Subtract-start_1_18nthhm1hbxypu-fill" data-item-order="-580521" transform="translate(347, 269)"></g><g id="g-root-cp_2_lines_1_zitcy21hbzax7-fill" data-item-order="-580514" transform="translate(426, 313.25)"><g id="cp_2_lines_1_zitcy21hbzax7-fill" stroke="none" fill="#43dd93"><g><path d="M 18 10.7871C 15.2656 10.7871 12.5913 10.5167 10 10L 10 16L 26 16L 26 10.000001C 23.4087 10.5167 20.7344 10.7871 18 10.7871ZM 18 46.7129C 15.2656 46.7129 12.5913 46.9833 10 47.5L 10 41.5L 26 41.5L 26 47.5C 23.4087 46.9833 20.7344 46.7129 18 46.7129ZM 26 41.5L 26 16L 10 16L 10 41.5L 26 41.5Z"></path></g></g></g><g id="g-root-cp_3_g-3_v2zutm1hbzbph-fill" data-item-order="-580492" transform="translate(392, 350)"><g id="cp_3_g-3_v2zutm1hbzbph-fill" stroke="none" fill="#f79438"><g><path d="M 52 94C 75.196 94 94 75.196 94 52C 94 28.804 75.196 10 52 10C 28.804 10 10 28.804 10 52C 10 75.196 28.804 94 52 94ZM 52 78.25C 66.4975 78.25 78.25 66.4975 78.25 52C 78.25 37.5025 66.4975 25.75 52 25.75C 37.5025 25.75 25.75 37.5025 25.75 52C 25.75 66.4975 37.5025 78.25 52 78.25Z"></path></g></g></g><g id="g-root-sy_3_Subtract_4gpb621hbzbpj-fill" data-item-order="-580485" transform="translate(476, 392)"></g><g id="g-root-sy_3_Subtract-start_vt1m1hbzchs-fill" data-item-order="-580483" transform="translate(515.375, 389.375)"></g><g id="g-root-sy_3_Subtract_1_1cvithm1hbzbih-fill" data-item-order="-580479" transform="translate(353, 392)"></g><g id="g-root-sy_3_Subtract-start_1_1cvithm1hbzbii-fill" data-item-order="-580477" transform="translate(347, 389)"></g><g id="g-root-cp_3_lines_2_18fpbd61hbzcar-fill" data-item-order="-580464" transform="translate(426, 433.25)"><g id="cp_3_lines_2_18fpbd61hbzcar-fill" stroke="none" fill="#f79438"><g><path d="M 18 10.7871C 15.2656 10.7871 12.5913 10.5167 10 10L 10 16L 26 16L 26 10.000001C 23.4087 10.5167 20.7344 10.7871 18 10.7871ZM 18 46.7129C 15.2656 46.7129 12.5913 46.9833 10 47.5L 10 41.5L 26 41.5L 26 47.5C 23.4087 46.9833 20.7344 46.7129 18 46.7129ZM 26 41.5L 26 16L 10 16L 10 41.5L 26 41.5Z"></path></g></g></g><g id="g-root-cp_4_g-4_zk2b4a1hbzd3h-fill" data-item-order="-580436" transform="translate(392, 470)"><g id="cp_4_g-4_zk2b4a1hbzd3h-fill" stroke="none" fill="#ffe711"><g><path d="M 52 94C 75.196 94 94 75.196 94 52C 94 28.804 75.196 10 52 10C 28.804 10 10 28.804 10 52C 10 75.196 28.804 94 52 94ZM 52 78.25C 66.4975 78.25 78.25 66.4975 78.25 52C 78.25 37.5025 66.4975 25.75 52 25.75C 37.5025 25.75 25.75 37.5025 25.75 52C 25.75 66.4975 37.5025 78.25 52 78.25Z"></path></g></g></g><g id="g-root-sy_4_Subtract_v4va2y1hbzapz-fill" data-item-order="-580429" transform="translate(476, 512)"></g><g id="g-root-sy_4_Subtract-start_qp1ryi1hbzbi8-fill" data-item-order="-580427" transform="translate(515.375, 509.375)"></g><g id="g-root-sy_4_Subtract_1_qp1ryi1hbzbi9-fill" data-item-order="-580423" transform="translate(353, 512)"></g><g id="g-root-sy_4_Subtract-start_1_hterpm1hbzcay-fill" data-item-order="-580421" transform="translate(347, 509)"></g><g id="g-root-cp_4_lines_3_hterpm1hbzcaz-fill" data-item-order="-580414" transform="translate(426, 553.25)"><g id="cp_4_lines_3_hterpm1hbzcaz-fill" stroke="none" fill="#ffe711"><g><path d="M 18 10.7871C 15.2656 10.7871 12.5913 10.5167 10 10L 10 16L 26 16L 26 10.000001C 23.4087 10.5167 20.7344 10.7871 18 10.7871ZM 18 46.7129C 15.2656 46.7129 12.5913 46.9833 10 47.5L 10 41.5L 26 41.5L 26 47.5C 23.4087 46.9833 20.7344 46.7129 18 46.7129ZM 26 41.5L 26 16L 10 16L 10 41.5L 26 41.5Z"></path></g></g></g><g id="g-root-cp_5_g-5_ddl9l61hbzd39-fill" data-item-order="-580392" transform="translate(392, 590)"><g id="cp_5_g-5_ddl9l61hbzd39-fill" stroke="none" fill="#cb68f9"><g><path d="M 52 94C 75.196 94 94 75.196 94 52C 94 28.804 75.196 10 52 10C 28.804 10 10 28.804 10 52C 10 75.196 28.804 94 52 94ZM 52 78.25C 66.4975 78.25 78.25 66.4975 78.25 52C 78.25 37.5025 66.4975 25.75 52 25.75C 37.5025 25.75 25.75 37.5025 25.75 52C 25.75 66.4975 37.5025 78.25 52 78.25Z"></path></g></g></g><g id="g-root-sy_5_Subtract_4ikqfe1hbzaq7-fill" data-item-order="-580385" transform="translate(476, 632)"></g><g id="g-root-sy_5_Subtract-start_8ye8ju1hbzaps-fill" data-item-order="-580383" transform="translate(515.375, 629.375)"></g><g id="g-root-sy_5_Subtract_1_2r8ay1hbzbih-fill" data-item-order="-580379" transform="translate(353, 632)"></g><g id="g-root-sy_5_Subtract-start_1_2r8ay1hbzbii-fill" data-item-order="-580377" transform="translate(347, 629)"></g><g id="g-root-tx_practice_902bu1hc7r4f-fill" data-item-order="0" transform="translate(590, 362)"><g id="tx_practice_902bu1hc7r4f-fill" stroke="none" fill="#f79438"><g><text style="font: bold 20px &quot;Shantell Sans&quot;, cursive; white-space: pre;" font-weight="bold" font-size="20px" font-family="'Shantell Sans', cursive"><tspan x="12" y="34.75" dominant-baseline="ideographic">Practice Time</tspan></text></g></g></g><g id="g-root-ic_load_qn6fuy1hc94p5-fill" data-item-order="0" transform="translate(530, 362)"></g><g id="g-root-tx_solvemcq_1d3n2ru1hc7qww-fill" data-item-order="0" transform="translate(590, 398)"><g id="tx_solvemcq_1d3n2ru1hc7qww-fill" stroke="none" fill="#f79438"><g><text style="font: 15px &quot;Shantell Sans&quot;, cursive; white-space: pre;" font-size="15px" font-family="'Shantell Sans', cursive"><tspan x="12" y="28.77" dominant-baseline="ideographic">Solve MCQs and previous year </tspan><tspan x="12" y="46.77" dominant-baseline="ideographic">questions</tspan></text></g></g></g><g id="g-root-tx_3_meupxm1hbxywy-fill" data-item-order="0" transform="translate(422, 374)"><g id="tx_3_meupxm1hbxywy-fill" stroke="none" fill="#f79438"><g><text style="font: bold 30px Roboto, sans-serif; white-space: pre;" font-weight="bold" font-size="30px" font-family="Roboto, sans-serif"><tspan x="13.39" y="45.84" dominant-baseline="ideographic">3</tspan></text></g></g></g><g id="g-root-tx_mocktest_8doei1hbxy4r-fill" data-item-order="0" transform="translate(146, 482)"><g id="tx_mocktest_8doei1hbxy4r-fill" stroke="none" fill="#ffe711"><g><text style="font: bold 20px &quot;Shantell Sans&quot;, cursive; white-space: pre;" font-weight="bold" font-size="20px" font-family="'Shantell Sans', cursive"><tspan x="22.92" y="34.75" dominant-baseline="ideographic">Mock Tests</tspan></text></g></g></g><g id="g-root-ic_cloc_4g30ei1hbzax9-fill" data-item-order="0" transform="translate(290, 482)"></g><g id="g-root-tx_9am12pm_1czw8961hc7swc-fill" data-item-order="0" transform="translate(530, 260)"><g id="tx_9am12pm_1czw8961hc7swc-fill" stroke="none" fill="#3bc482"><g><text style="font: 15px &quot;Shantell Sans&quot;, cursive; white-space: pre;" font-size="15px" font-family="'Shantell Sans', cursive"><tspan x="12" y="31.77" dominant-baseline="ideographic">9 AM – 12 PM</tspan></text></g></g></g><g id="g-root-tx_4_1430czu1hc7r41-fill" data-item-order="0" transform="translate(422, 494)"><g id="tx_4_1430czu1hc7r41-fill" stroke="none" fill="#ffe711"><g><text style="font: bold 30px Roboto, sans-serif; white-space: pre;" font-weight="bold" font-size="30px" font-family="Roboto, sans-serif"><tspan x="13.39" y="45.84" dominant-baseline="ideographic">4</tspan></text></g></g></g><g id="g-root-tx_takefull_1hiu6yy1hbxx50-fill" data-item-order="0" transform="translate(50, 518)"><g id="tx_takefull_1hiu6yy1hbxx50-fill" stroke="none" fill="#ffe711"><g><text style="font: 15px &quot;Shantell Sans&quot;, cursive; white-space: pre;" font-size="15px" font-family="'Shantell Sans', cursive"><tspan x="12.89" y="28.77" dominant-baseline="ideographic">Take full-length mock tests for </tspan><tspan x="117.68" y="46.77" dominant-baseline="ideographic">exam simulation</tspan></text></g></g></g><g id="g-root-tx_focusonm_13zvwei1hbzb42-fill" data-item-order="0" transform="translate(50, 278)"><g id="tx_focusonm_13zvwei1hbzb42-fill" stroke="none" fill="#43dd93"><g><text style="font: 15px &quot;Shantell Sans&quot;, cursive; white-space: pre;" font-size="15px" font-family="'Shantell Sans', cursive"><tspan x="18.51" y="28.77" dominant-baseline="ideographic">Focus on main subjects for in-</tspan><tspan x="129.37" y="46.77" dominant-baseline="ideographic">depth learning</tspan></text></g></g></g><g id="g-root-ic_buil_qofe161hbzcoz-fill" data-item-order="0" transform="translate(290, 242)"></g><g id="g-root-tx_corestud_8vwfd61hbzcw1-fill" data-item-order="0" transform="translate(158, 242)"><g id="tx_corestud_8vwfd61hbzcw1-fill" stroke="none" fill="#43dd93"><g><text style="font: bold 20px &quot;Shantell Sans&quot;, cursive; white-space: pre;" font-weight="bold" font-size="20px" font-family="'Shantell Sans', cursive"><tspan x="15.28" y="34.75" dominant-baseline="ideographic">Core Study</tspan></text></g></g></g><g id="g-root-tx_4pm6pm_deue2y1hc7s3s-fill" data-item-order="0" transform="translate(530, 500)"><g id="tx_4pm6pm_deue2y1hc7s3s-fill" stroke="none" fill="#f0d80d"><g><text style="font: 15px &quot;Shantell Sans&quot;, cursive; white-space: pre;" font-size="15px" font-family="'Shantell Sans', cursive"><tspan x="12" y="31.77" dominant-baseline="ideographic">4 PM – 6 PM</tspan></text></g></g></g><g id="g-root-tx_reviewno_1lua7621hbzbwm-fill" data-item-order="0" transform="translate(590, 158)"><g id="tx_reviewno_1lua7621hbzbwm-fill" stroke="none" fill="#4f91fc"><g><text style="font: 15px &quot;Shantell Sans&quot;, cursive; white-space: pre;" font-size="15px" font-family="'Shantell Sans', cursive"><tspan x="12" y="28.77" dominant-baseline="ideographic">Review notes or current affairs </tspan><tspan x="12" y="46.77" dominant-baseline="ideographic">to start the day</tspan></text></g></g></g><g id="g-root-tx_6am8am_dfgoui1hbzc3o-fill" data-item-order="0" transform="translate(230, 140)"><g id="tx_6am8am_dfgoui1hbzc3o-fill" stroke="none" fill="#4e88e6"><g><text style="font: 15px &quot;Shantell Sans&quot;, cursive; white-space: pre;" font-size="15px" font-family="'Shantell Sans', cursive"><tspan x="13.6" y="31.77" dominant-baseline="ideographic">6 AM – 8 AM</tspan></text></g></g></g><g id="g-root-tx_5_5vv7u1hc258u-fill" data-item-order="0" transform="translate(422, 614)"><g id="tx_5_5vv7u1hc258u-fill" stroke="none" fill="#cb68f9"><g><text style="font: bold 30px Roboto, sans-serif; white-space: pre;" font-weight="bold" font-size="30px" font-family="Roboto, sans-serif"><tspan x="13.39" y="45.84" dominant-baseline="ideographic">5</tspan></text></g></g></g><g id="g-root-ic_read_1czwbey1hc7rpp-fill" data-item-order="0" transform="translate(530, 602)"></g><g id="g-root-tx_eveningr_4l2t3e1hc7rwr-fill" data-item-order="0" transform="translate(590, 602)"><g id="tx_eveningr_4l2t3e1hc7rwr-fill" stroke="none" fill="#cb68f9"><g><text style="font: bold 20px &quot;Shantell Sans&quot;, cursive; white-space: pre;" font-weight="bold" font-size="20px" font-family="'Shantell Sans', cursive"><tspan x="12" y="34.75" dominant-baseline="ideographic">Evening Review</tspan></text></g></g></g><g id="g-root-tx_7pm9pm_hwjbgq1hc7qbu-fill" data-item-order="0" transform="translate(230, 620)"><g id="tx_7pm9pm_hwjbgq1hc7qbu-fill" stroke="none" fill="#b95ce3"><g><text style="font: 15px &quot;Shantell Sans&quot;, cursive; white-space: pre;" font-size="15px" font-family="'Shantell Sans', cursive"><tspan x="17.87" y="31.77" dominant-baseline="ideographic">7 PM – 9 PM</tspan></text></g></g></g><g id="g-root-tx_useflash_1qbctsa1hc7q4s-fill" data-item-order="0" transform="translate(590, 638)"><g id="tx_useflash_1qbctsa1hc7q4s-fill" stroke="none" fill="#cb68f9"><g><text style="font: 15px &quot;Shantell Sans&quot;, cursive; white-space: pre;" font-size="15px" font-family="'Shantell Sans', cursive"><tspan x="12" y="28.77" dominant-baseline="ideographic">Use flashcards and clarify </tspan><tspan x="12" y="46.77" dominant-baseline="ideographic">doubts</tspan></text></g></g></g><g id="g-root-tx_morningr_406h61hbzdol-fill" data-item-order="0" transform="translate(590, 122)"><g id="tx_morningr_406h61hbzdol-fill" stroke="none" fill="#4f91fc"><g><text style="font: bold 20px &quot;Shantell Sans&quot;, cursive; white-space: pre;" font-weight="bold" font-size="20px" font-family="'Shantell Sans', cursive"><tspan x="12" y="34.75" dominant-baseline="ideographic">Morning Revision</tspan></text></g></g></g><g id="g-root-ic_book_18itosq1hbzdhj-fill" data-item-order="0" transform="translate(530, 122)"></g><g id="g-root-tx_1_qwjk5m1hbxz48-fill" data-item-order="0" transform="translate(422, 134)"><g id="tx_1_qwjk5m1hbxz48-fill" stroke="none" fill="#4f91fc"><g><text style="font: bold 30px Roboto, sans-serif; white-space: pre;" font-weight="bold" font-size="30px" font-family="Roboto, sans-serif"><tspan x="13.39" y="45.84" dominant-baseline="ideographic">1</tspan></text></g></g></g><g id="g-root-tx_1pm3pm_1qd85vu1hc7qbq-fill" data-item-order="0" transform="translate(230, 380)"><g id="tx_1pm3pm_1qd85vu1hc7qbq-fill" stroke="none" fill="#de8431"><g><text style="font: 15px &quot;Shantell Sans&quot;, cursive; white-space: pre;" font-size="15px" font-family="'Shantell Sans', cursive"><tspan x="22.11" y="31.77" dominant-baseline="ideographic">1 PM – 3 PM</tspan></text></g></g></g><g id="g-root-tx_2_mdlolm1hc7swd-fill" data-item-order="0" transform="translate(422, 254)"><g id="tx_2_mdlolm1hc7swd-fill" stroke="none" fill="#43dd93"><g><text style="font: bold 30px Roboto, sans-serif; white-space: pre;" font-weight="bold" font-size="30px" font-family="Roboto, sans-serif"><tspan x="13.39" y="45.84" dominant-baseline="ideographic">2</tspan></text></g></g></g><g id="g-root-cp_1_g-1_dkghje1hbxwjx-stroke" data-item-order="-580594" transform="translate(392, 110)"><g id="cp_1_g-1_dkghje1hbxwjx-stroke" fill="none" stroke-linecap="round" stroke-linejoin="round" stroke-miterlimit="4" stroke="#2c2c2c" stroke-width="2"><g><path d="M 52 94C 75.196 94 94 75.196 94 52C 94 28.804 75.196 10 52 10C 28.804 10 10 28.804 10 52C 10 75.196 28.804 94 52 94ZM 52 78.25C 66.4975 78.25 78.25 66.4975 78.25 52C 78.25 37.5025 66.4975 25.75 52 25.75C 37.5025 25.75 25.75 37.5025 25.75 52C 25.75 66.4975 37.5025 78.25 52 78.25Z"></path></g></g></g><g id="g-root-sy_1_Subtract_94mzey1hbxxc7-stroke" data-item-order="-580587" transform="translate(476, 152)"><g id="sy_1_Subtract_94mzey1hbxxc7-stroke" fill="none" stroke-linecap="round" stroke-linejoin="round" stroke-miterlimit="4" stroke="#4f91fc" stroke-width="2"><g><path d="M 49.375 10L 10 10"></path></g></g></g><g id="g-root-sy_1_Subtract-start_4othai1hbxy4g-stroke" data-item-order="-580585" transform="translate(515.375, 149.375)"><g id="sy_1_Subtract-start_4othai1hbxy4g-stroke" fill="none" stroke-linecap="round" stroke-linejoin="round" stroke-miterlimit="4" stroke="#4f91fc" stroke-width="2"><g><path d="M 12.625 10C 14.0738 10 15.25 11.1762 15.25 12.625C 15.25 14.0738 14.0738 15.25 12.625 15.25C 11.1762 15.25 10 14.0738 10 12.625C 10 11.1762 11.1762 10 12.625 10Z"></path></g></g></g><g id="g-root-sy_1_Subtract_1_1uuaj0q1hbxyq1-stroke" data-item-order="-580581" transform="translate(353, 152)"><g id="sy_1_Subtract_1_1uuaj0q1hbxyq1-stroke" fill="none" stroke-linecap="round" stroke-linejoin="round" stroke-miterlimit="4" stroke="#4f91fc" stroke-width="2"><g><path d="M 10 10L 49 10"></path></g></g></g><g id="g-root-sy_1_Subtract-start_1_1uuaj0q1hbxyq2-stroke" data-item-order="-580579" transform="translate(347, 149)"><g id="sy_1_Subtract-start_1_1uuaj0q1hbxyq2-stroke" fill="none" stroke-linecap="round" stroke-linejoin="round" stroke-miterlimit="4" stroke="#4f91fc" stroke-width="2"><g><path d="M 13 10C 11.3443 10 10 11.3443 10 13C 10 14.6557 11.3443 16 13 16C 14.6557 16 16 14.6557 16 13C 16 11.3443 14.6557 10 13 10Z"></path></g></g></g><g id="g-root-cp_1_lines_1qf3hze1hbxwcj-stroke" data-item-order="-580566" transform="translate(426, 193.25)"><g id="cp_1_lines_1qf3hze1hbxwcj-stroke" fill="none" stroke-linecap="round" stroke-linejoin="round" stroke-miterlimit="4" stroke="#2c2c2c" stroke-width="2"><g><path d="M 10 16L 10 10C 12.5913 10.5167 15.2656 10.7871 18 10.7871C 20.7344 10.7871 23.4087 10.5167 26 10.000001L 26 16M 26 41.5L 26 47.5C 23.4087 46.9833 20.7344 46.7129 18 46.7129C 15.2656 46.7129 12.5913 46.9833 10 47.5L 10 41.5M 26 41.5L 26 16M 10 16L 10 41.5"></path></g></g></g><g id="g-root-cp_2_g-2_1hjghqi1hbxx59-stroke" data-item-order="-580536" transform="translate(392, 230)"><g id="cp_2_g-2_1hjghqi1hbxx59-stroke" fill="none" stroke-linecap="round" stroke-linejoin="round" stroke-miterlimit="4" stroke="#2c2c2c" stroke-width="2"><g><path d="M 52 94C 75.196 94 94 75.196 94 52C 94 28.804 75.196 10 52 10C 28.804 10 10 28.804 10 52C 10 75.196 28.804 94 52 94ZM 52 78.25C 66.4975 78.25 78.25 66.4975 78.25 52C 78.25 37.5025 66.4975 25.75 52 25.75C 37.5025 25.75 25.75 37.5025 25.75 52C 25.75 66.4975 37.5025 78.25 52 78.25Z"></path></g></g></g><g id="g-root-sy_2_Subtract_1d3mzm21hbxxxj-stroke" data-item-order="-580529" transform="translate(476, 272)"><g id="sy_2_Subtract_1d3mzm21hbxxxj-stroke" fill="none" stroke-linecap="round" stroke-linejoin="round" stroke-miterlimit="4" stroke="#43dd93" stroke-width="2"><g><path d="M 49.375 10L 10 10"></path></g></g></g><g id="g-root-sy_2_Subtract-start_1d3mzm21hbxxxk-stroke" data-item-order="-580527" transform="translate(515.375, 269.375)"><g id="sy_2_Subtract-start_1d3mzm21hbxxxk-stroke" fill="none" stroke-linecap="round" stroke-linejoin="round" stroke-miterlimit="4" stroke="#43dd93" stroke-width="2"><g><path d="M 12.625 10C 14.0738 10 15.25 11.1762 15.25 12.625C 15.25 14.0738 14.0738 15.25 12.625 15.25C 11.1762 15.25 10 14.0738 10 12.625C 10 11.1762 11.1762 10 12.625 10Z"></path></g></g></g><g id="g-root-sy_2_Subtract_1_18nthhm1hbxypt-stroke" data-item-order="-580523" transform="translate(353, 272)"><g id="sy_2_Subtract_1_18nthhm1hbxypt-stroke" fill="none" stroke-linecap="round" stroke-linejoin="round" stroke-miterlimit="4" stroke="#43dd93" stroke-width="2"><g><path d="M 10 10L 49 10"></path></g></g></g><g id="g-root-sy_2_Subtract-start_1_18nthhm1hbxypu-stroke" data-item-order="-580521" transform="translate(347, 269)"><g id="sy_2_Subtract-start_1_18nthhm1hbxypu-stroke" fill="none" stroke-linecap="round" stroke-linejoin="round" stroke-miterlimit="4" stroke="#43dd93" stroke-width="2"><g><path d="M 13 10C 11.3443 10 10 11.3443 10 13C 10 14.6557 11.3443 16 13 16C 14.6557 16 16 14.6557 16 13C 16 11.3443 14.6557 10 13 10Z"></path></g></g></g><g id="g-root-cp_2_lines_1_zitcy21hbzax7-stroke" data-item-order="-580514" transform="translate(426, 313.25)"><g id="cp_2_lines_1_zitcy21hbzax7-stroke" fill="none" stroke-linecap="round" stroke-linejoin="round" stroke-miterlimit="4" stroke="#2c2c2c" stroke-width="2"><g><path d="M 10 16L 10 10C 12.5913 10.5167 15.2656 10.7871 18 10.7871C 20.7344 10.7871 23.4087 10.5167 26 10.000001L 26 16M 26 41.5L 26 47.5C 23.4087 46.9833 20.7344 46.7129 18 46.7129C 15.2656 46.7129 12.5913 46.9833 10 47.5L 10 41.5M 26 41.5L 26 16M 10 16L 10 41.5"></path></g></g></g><g id="g-root-cp_3_g-3_v2zutm1hbzbph-stroke" data-item-order="-580492" transform="translate(392, 350)"><g id="cp_3_g-3_v2zutm1hbzbph-stroke" fill="none" stroke-linecap="round" stroke-linejoin="round" stroke-miterlimit="4" stroke="#2c2c2c" stroke-width="2"><g><path d="M 52 94C 75.196 94 94 75.196 94 52C 94 28.804 75.196 10 52 10C 28.804 10 10 28.804 10 52C 10 75.196 28.804 94 52 94ZM 52 78.25C 66.4975 78.25 78.25 66.4975 78.25 52C 78.25 37.5025 66.4975 25.75 52 25.75C 37.5025 25.75 25.75 37.5025 25.75 52C 25.75 66.4975 37.5025 78.25 52 78.25Z"></path></g></g></g><g id="g-root-sy_3_Subtract_4gpb621hbzbpj-stroke" data-item-order="-580485" transform="translate(476, 392)"><g id="sy_3_Subtract_4gpb621hbzbpj-stroke" fill="none" stroke-linecap="round" stroke-linejoin="round" stroke-miterlimit="4" stroke="#f79438" stroke-width="2"><g><path d="M 49.375 10L 10 10"></path></g></g></g><g id="g-root-sy_3_Subtract-start_vt1m1hbzchs-stroke" data-item-order="-580483" transform="translate(515.375, 389.375)"><g id="sy_3_Subtract-start_vt1m1hbzchs-stroke" fill="none" stroke-linecap="round" stroke-linejoin="round" stroke-miterlimit="4" stroke="#f79438" stroke-width="2"><g><path d="M 12.625 10C 14.0738 10 15.25 11.1762 15.25 12.625C 15.25 14.0738 14.0738 15.25 12.625 15.25C 11.1762 15.25 10 14.0738 10 12.625C 10 11.1762 11.1762 10 12.625 10Z"></path></g></g></g><g id="g-root-sy_3_Subtract_1_1cvithm1hbzbih-stroke" data-item-order="-580479" transform="translate(353, 392)"><g id="sy_3_Subtract_1_1cvithm1hbzbih-stroke" fill="none" stroke-linecap="round" stroke-linejoin="round" stroke-miterlimit="4" stroke="#f79438" stroke-width="2"><g><path d="M 10 10L 49 10"></path></g></g></g><g id="g-root-sy_3_Subtract-start_1_1cvithm1hbzbii-stroke" data-item-order="-580477" transform="translate(347, 389)"><g id="sy_3_Subtract-start_1_1cvithm1hbzbii-stroke" fill="none" stroke-linecap="round" stroke-linejoin="round" stroke-miterlimit="4" stroke="#f79438" stroke-width="2"><g><path d="M 13 10C 11.3443 10 10 11.3443 10 13C 10 14.6557 11.3443 16 13 16C 14.6557 16 16 14.6557 16 13C 16 11.3443 14.6557 10 13 10Z"></path></g></g></g><g id="g-root-cp_3_lines_2_18fpbd61hbzcar-stroke" data-item-order="-580464" transform="translate(426, 433.25)"><g id="cp_3_lines_2_18fpbd61hbzcar-stroke" fill="none" stroke-linecap="round" stroke-linejoin="round" stroke-miterlimit="4" stroke="#2c2c2c" stroke-width="2"><g><path d="M 10 16L 10 10C 12.5913 10.5167 15.2656 10.7871 18 10.7871C 20.7344 10.7871 23.4087 10.5167 26 10.000001L 26 16M 26 41.5L 26 47.5C 23.4087 46.9833 20.7344 46.7129 18 46.7129C 15.2656 46.7129 12.5913 46.9833 10 47.5L 10 41.5M 26 41.5L 26 16M 10 16L 10 41.5"></path></g></g></g><g id="g-root-cp_4_g-4_zk2b4a1hbzd3h-stroke" data-item-order="-580436" transform="translate(392, 470)"><g id="cp_4_g-4_zk2b4a1hbzd3h-stroke" fill="none" stroke-linecap="round" stroke-linejoin="round" stroke-miterlimit="4" stroke="#2c2c2c" stroke-width="2"><g><path d="M 52 94C 75.196 94 94 75.196 94 52C 94 28.804 75.196 10 52 10C 28.804 10 10 28.804 10 52C 10 75.196 28.804 94 52 94ZM 52 78.25C 66.4975 78.25 78.25 66.4975 78.25 52C 78.25 37.5025 66.4975 25.75 52 25.75C 37.5025 25.75 25.75 37.5025 25.75 52C 25.75 66.4975 37.5025 78.25 52 78.25Z"></path></g></g></g><g id="g-root-sy_4_Subtract_v4va2y1hbzapz-stroke" data-item-order="-580429" transform="translate(476, 512)"><g id="sy_4_Subtract_v4va2y1hbzapz-stroke" fill="none" stroke-linecap="round" stroke-linejoin="round" stroke-miterlimit="4" stroke="#ffe711" stroke-width="2"><g><path d="M 49.375 10L 10 10"></path></g></g></g><g id="g-root-sy_4_Subtract-start_qp1ryi1hbzbi8-stroke" data-item-order="-580427" transform="translate(515.375, 509.375)"><g id="sy_4_Subtract-start_qp1ryi1hbzbi8-stroke" fill="none" stroke-linecap="round" stroke-linejoin="round" stroke-miterlimit="4" stroke="#ffe711" stroke-width="2"><g><path d="M 12.625 10C 14.0738 10 15.25 11.1762 15.25 12.625C 15.25 14.0738 14.0738 15.25 12.625 15.25C 11.1762 15.25 10 14.0738 10 12.625C 10 11.1762 11.1762 10 12.625 10Z"></path></g></g></g><g id="g-root-sy_4_Subtract_1_qp1ryi1hbzbi9-stroke" data-item-order="-580423" transform="translate(353, 512)"><g id="sy_4_Subtract_1_qp1ryi1hbzbi9-stroke" fill="none" stroke-linecap="round" stroke-linejoin="round" stroke-miterlimit="4" stroke="#ffe711" stroke-width="2"><g><path d="M 10 10L 49 10"></path></g></g></g><g id="g-root-sy_4_Subtract-start_1_hterpm1hbzcay-stroke" data-item-order="-580421" transform="translate(347, 509)"><g id="sy_4_Subtract-start_1_hterpm1hbzcay-stroke" fill="none" stroke-linecap="round" stroke-linejoin="round" stroke-miterlimit="4" stroke="#ffe711" stroke-width="2"><g><path d="M 13 10C 11.3443 10 10 11.3443 10 13C 10 14.6557 11.3443 16 13 16C 14.6557 16 16 14.6557 16 13C 16 11.3443 14.6557 10 13 10Z"></path></g></g></g><g id="g-root-cp_4_lines_3_hterpm1hbzcaz-stroke" data-item-order="-580414" transform="translate(426, 553.25)"><g id="cp_4_lines_3_hterpm1hbzcaz-stroke" fill="none" stroke-linecap="round" stroke-linejoin="round" stroke-miterlimit="4" stroke="#2c2c2c" stroke-width="2"><g><path d="M 10 16L 10 10C 12.5913 10.5167 15.2656 10.7871 18 10.7871C 20.7344 10.7871 23.4087 10.5167 26 10.000001L 26 16M 26 41.5L 26 47.5C 23.4087 46.9833 20.7344 46.7129 18 46.7129C 15.2656 46.7129 12.5913 46.9833 10 47.5L 10 41.5M 26 41.5L 26 16M 10 16L 10 41.5"></path></g></g></g><g id="g-root-cp_5_g-5_ddl9l61hbzd39-stroke" data-item-order="-580392" transform="translate(392, 590)"><g id="cp_5_g-5_ddl9l61hbzd39-stroke" fill="none" stroke-linecap="round" stroke-linejoin="round" stroke-miterlimit="4" stroke="#2c2c2c" stroke-width="2"><g><path d="M 52 94C 75.196 94 94 75.196 94 52C 94 28.804 75.196 10 52 10C 28.804 10 10 28.804 10 52C 10 75.196 28.804 94 52 94ZM 52 78.25C 66.4975 78.25 78.25 66.4975 78.25 52C 78.25 37.5025 66.4975 25.75 52 25.75C 37.5025 25.75 25.75 37.5025 25.75 52C 25.75 66.4975 37.5025 78.25 52 78.25Z"></path></g></g></g><g id="g-root-sy_5_Subtract_4ikqfe1hbzaq7-stroke" data-item-order="-580385" transform="translate(476, 632)"><g id="sy_5_Subtract_4ikqfe1hbzaq7-stroke" fill="none" stroke-linecap="round" stroke-linejoin="round" stroke-miterlimit="4" stroke="#cb68f9" stroke-width="2"><g><path d="M 49.375 10L 10 10"></path></g></g></g><g id="g-root-sy_5_Subtract-start_8ye8ju1hbzaps-stroke" data-item-order="-580383" transform="translate(515.375, 629.375)"><g id="sy_5_Subtract-start_8ye8ju1hbzaps-stroke" fill="none" stroke-linecap="round" stroke-linejoin="round" stroke-miterlimit="4" stroke="#cb68f9" stroke-width="2"><g><path d="M 12.625 10C 14.0738 10 15.25 11.1762 15.25 12.625C 15.25 14.0738 14.0738 15.25 12.625 15.25C 11.1762 15.25 10 14.0738 10 12.625C 10 11.1762 11.1762 10 12.625 10Z"></path></g></g></g><g id="g-root-sy_5_Subtract_1_2r8ay1hbzbih-stroke" data-item-order="-580379" transform="translate(353, 632)"><g id="sy_5_Subtract_1_2r8ay1hbzbih-stroke" fill="none" stroke-linecap="round" stroke-linejoin="round" stroke-miterlimit="4" stroke="#cb68f9" stroke-width="2"><g><path d="M 10 10L 49 10"></path></g></g></g><g id="g-root-sy_5_Subtract-start_1_2r8ay1hbzbii-stroke" data-item-order="-580377" transform="translate(347, 629)"><g id="sy_5_Subtract-start_1_2r8ay1hbzbii-stroke" fill="none" stroke-linecap="round" stroke-linejoin="round" stroke-miterlimit="4" stroke="#cb68f9" stroke-width="2"><g><path d="M 13 10C 11.3443 10 10 11.3443 10 13C 10 14.6557 11.3443 16 13 16C 14.6557 16 16 14.6557 16 13C 16 11.3443 14.6557 10 13 10Z"></path></g></g></g><g id="g-root-tx_practice_902bu1hc7r4f-stroke" data-item-order="0" transform="translate(590, 362)"></g><g id="g-root-ic_load_qn6fuy1hc94p5-stroke" data-item-order="0" transform="translate(530, 362)"><g id="ic_load_qn6fuy1hc94p5-stroke" fill="none" stroke-linecap="round" stroke-linejoin="round" stroke-miterlimit="4" stroke="#f79438" stroke-width="2"><g><path d="M 44.5 56.5C 51.127399 56.5 56.5 51.127399 56.5 44.5C 56.5 37.872601 51.127399 32.5 44.5 32.5C 37.872601 32.5 32.5 37.872601 32.5 44.5C 32.5 51.127399 37.872601 56.5 44.5 56.5ZM 49.700001 44.500198L 44.5 44.500198L 44.5 39.099998M 25.2694 52.897999L 11.5 56.5L 15.09202 42.6926M 25.2694 52.897999L 15.09202 42.6926M 25.2694 52.897999L 27.06542 51.097M 15.09202 42.6926L 44.027802 13.67682C 46.821602 10.875308 51.4114 10.675198 54.404598 13.67682C 57.198399 16.47834 57.198399 21.08074 54.404598 24.08238L 51.012199 27.48424M 43.229401 14.4772L 53.6208 24.86846M 45.025398 26.684019L 38.041 19.68022"></path></g></g></g><g id="g-root-tx_solvemcq_1d3n2ru1hc7qww-stroke" data-item-order="0" transform="translate(590, 398)"></g><g id="g-root-tx_3_meupxm1hbxywy-stroke" data-item-order="0" transform="translate(422, 374)"></g><g id="g-root-tx_mocktest_8doei1hbxy4r-stroke" data-item-order="0" transform="translate(146, 482)"></g><g id="g-root-ic_cloc_4g30ei1hbzax9-stroke" data-item-order="0" transform="translate(290, 482)"><g id="ic_cloc_4g30ei1hbzax9-stroke" fill="none" stroke-linecap="round" stroke-linejoin="round" stroke-miterlimit="4" stroke="#ffe711" stroke-width="2"><g><path d="M 39 28.982L 39 20.982L 17 20.982L 17 46.98L 27 46.981998M 45 26.982L 45 16.982C 45 15.87743 44.104568 14.982 43 14.982L 34.104 14.982C 33.043873 12.558297 30.649412 10.992139 28.004 10.992139C 25.358589 10.992139 22.964127 12.558297 21.903999 14.982L 13 14.982C 11.895431 14.982 11 15.87743 11 16.982L 11 50.981998C 11 52.086571 11.895431 52.981998 13 52.981998L 29 52.981998M 23 26.982L 33 26.982M 23 32.982002L 33 32.982002M 23 38.982002L 29 38.982002M 33 44.981998C 33 51.609417 38.372581 56.982002 45 56.982002C 51.627419 56.982002 57 51.609417 57 44.982002C 57 38.354584 51.627419 32.982002 45 32.982002C 38.372581 32.982002 33 38.354584 33 44.982002ZM 49 44.981998L 45 44.981998L 45 38.982002"></path></g></g></g><g id="g-root-tx_9am12pm_1czw8961hc7swc-stroke" data-item-order="0" transform="translate(530, 260)"></g><g id="g-root-tx_4_1430czu1hc7r41-stroke" data-item-order="0" transform="translate(422, 494)"></g><g id="g-root-tx_takefull_1hiu6yy1hbxx50-stroke" data-item-order="0" transform="translate(50, 518)"></g><g id="g-root-tx_focusonm_13zvwei1hbzb42-stroke" data-item-order="0" transform="translate(50, 278)"></g><g id="g-root-ic_buil_qofe161hbzcoz-stroke" data-item-order="0" transform="translate(290, 242)"><g id="ic_buil_qofe161hbzcoz-stroke" fill="none" stroke-linecap="round" stroke-linejoin="round" stroke-miterlimit="4" stroke="#43dd93" stroke-width="2"><g><path d="M 53 11L 21 11C 18.790861 11 17 12.790861 17 15C 17 17.209139 18.790861 19 21 19L 53 19L 53 56C 53 56.552284 52.552284 57 52 57L 21 57C 18.790861 57 17 55.209141 17 53L 17 15M 21 15L 51 15M 15 25L 19 25M 15 31L 19 31M 15 37L 19 37M 15 43L 19 43M 15 49L 19 49M 37 47L 28 47C 27.447716 47 27 46.552284 27 46L 27 28.618C 27.000011 28.271273 27.17963 27.949293 27.474657 27.767143C 27.769686 27.584991 28.138014 27.568666 28.448 27.724001L 37 32ZM 37 35L 46 35C 46.552284 35 47 35.447716 47 36L 47 46C 47 46.552284 46.552284 47 46 47L 37 47M 27 35L 32 35M 27 39L 32 39M 37 32L 37 27M 45 35L 45 30M 37 39L 42 39M 37 43L 42 43"></path></g></g></g><g id="g-root-tx_corestud_8vwfd61hbzcw1-stroke" data-item-order="0" transform="translate(158, 242)"></g><g id="g-root-tx_4pm6pm_deue2y1hc7s3s-stroke" data-item-order="0" transform="translate(530, 500)"></g><g id="g-root-tx_reviewno_1lua7621hbzbwm-stroke" data-item-order="0" transform="translate(590, 158)"></g><g id="g-root-tx_6am8am_dfgoui1hbzc3o-stroke" data-item-order="0" transform="translate(230, 140)"></g><g id="g-root-tx_5_5vv7u1hc258u-stroke" data-item-order="0" transform="translate(422, 614)"></g><g id="g-root-ic_read_1czwbey1hc7rpp-stroke" data-item-order="0" transform="translate(530, 602)"><g id="ic_read_1czwbey1hc7rpp-stroke" fill="none" stroke-linecap="round" stroke-linejoin="round" stroke-miterlimit="4" stroke="#cb68f9" stroke-width="2"><g><path d="M 29.614 31.128C 31.014 30.612 30.775999 26.982 30.16 26.304001C 28.175339 24.154495 27.203136 21.259718 27.487999 18.348C 27.309784 16.494543 27.909979 14.650401 29.144955 13.256882C 30.37993 11.863361 32.138561 11.045857 34 11C 35.861443 11.045857 37.620071 11.863361 38.855049 13.256882C 40.090023 14.650401 40.690216 16.494543 40.512001 18.348C 40.797119 21.259747 39.824883 24.154627 37.839996 26.303999C 37.223999 26.982 36.996002 30.614 38.386002 31.128M 17 32.412003C 17.000416 32.087841 17.157932 31.783993 17.422594 31.596821C 17.687256 31.409649 18.026226 31.362379 18.332001 31.469999L 34 37L 34 57L 17.667999 51.236C 17.268208 51.095287 17.000542 50.717831 17 50.293999ZM 51 32.412003C 50.999584 32.087841 50.842068 31.783993 50.577404 31.596821C 50.312744 31.409649 49.973774 31.362379 49.667999 31.469999L 34 37L 34 57L 50.332001 51.236C 50.731792 51.095287 50.999458 50.717831 51 50.293999ZM 21.018 37.416L 30.014 40.591999M 21.007999 42.414001L 30.007999 45.59M 25.015999 48.827999L 29.945999 50.568001M 46.98 37.416L 37.986 40.591999M 46.990002 42.414001L 37.992001 45.59M 42.984001 48.827999L 38.054001 50.568001"></path></g></g></g><g id="g-root-tx_eveningr_4l2t3e1hc7rwr-stroke" data-item-order="0" transform="translate(590, 602)"></g><g id="g-root-tx_7pm9pm_hwjbgq1hc7qbu-stroke" data-item-order="0" transform="translate(230, 620)"></g><g id="g-root-tx_useflash_1qbctsa1hc7q4s-stroke" data-item-order="0" transform="translate(590, 638)"></g><g id="g-root-tx_morningr_406h61hbzdol-stroke" data-item-order="0" transform="translate(590, 122)"></g><g id="g-root-ic_book_18itosq1hbzdhj-stroke" data-item-order="0" transform="translate(530, 122)"><g id="ic_book_18itosq1hbzdhj-stroke" fill="none" stroke-linecap="round" stroke-linejoin="round" stroke-miterlimit="4" stroke="#4f91fc" stroke-width="2"><g><path d="M 37.900002 44.818001C 34.008614 44.825146 30.723536 41.927799 30.24444 38.06601C 29.765345 34.204224 32.242836 30.59197 36.017998 29.648001C 36.789856 29.456814 37.586273 29.383984 38.379997 29.431999C 38.838612 29.461689 39.258415 29.174976 39.397621 28.736996C 39.536831 28.299015 39.359596 27.822538 38.968002 27.582001C 34.959541 25.277176 29.937618 25.72517 26.400423 28.703125C 22.863228 31.681078 21.56596 36.553192 23.153952 40.895798C 24.741943 45.238407 28.876158 48.124352 33.5 48.118C 35.410515 48.12112 37.288155 47.621014 38.944 46.667999C 39.348274 46.436897 39.539524 45.957336 39.405235 45.511456C 39.270943 45.065571 38.846657 44.771397 38.382 44.801998C 38.222 44.812 38.062 44.818001 37.900002 44.818001ZM 45.5 39.118L 41.5 34.945999M 41.5 38.945999L 45.5 35.118M 52 11L 20 11C 17.790861 11 16 12.790861 16 15C 16 17.209139 17.790861 19 20 19L 51 19C 51.552284 19 52 19.447716 52 20L 52 56C 52 56.552284 51.552284 57 51 57L 20 57C 17.790861 57 16 55.209141 16 53L 16 15M 20 15L 50 15"></path></g></g></g><g id="g-root-tx_1_qwjk5m1hbxz48-stroke" data-item-order="0" transform="translate(422, 134)"></g><g id="g-root-tx_1pm3pm_1qd85vu1hc7qbq-stroke" data-item-order="0" transform="translate(230, 380)"></g><g id="g-root-tx_2_mdlolm1hc7swd-stroke" data-item-order="0" transform="translate(422, 254)"></g></g></g><path id="w18iu1h71k3mw3u" d="M65.283 12.757a.35.35 0 0 0 .584.157l5.203-5.141-6.183 3.523.396 1.461zm-2.216-11.7a.35.35 0 0 0-.522.305v3.111l3.276-1.868-2.754-1.548zm3.728 2.105l-4.25 2.421v2.445l6.391-3.644-2.141-1.222zm4.708 3.303a.35.35 0 0 0 0-.609l-1.592-.9-7.365 4.199v1.782a.35.35 0 0 0 .523.305l8.435-4.777z M44.542 2.513c0-.433.355-.783.792-.783s.792.35.792.783-.355.783-.792.783-.792-.35-.792-.783zm59.171 0c0-.433.355-.783.792-.783s.792.35.792.783-.355.783-.792.783-.792-.35-.792-.783zm-85.951 7.636h-1.27v-.487c-.276.201-.864.609-1.881.609-1.202 0-2.274-.794-2.137-2.078.118-1.106 1.153-1.584 1.848-1.727l2.17-.345c0-.539-.29-.956-1.064-1.006s-1.21.305-1.571 1.017l-1.124-.605c1.218-2.631 5.029-1.764 5.029.414v4.207zm-1.27-2.86c.006.396-.062 1.112-.819 1.59-.587.37-1.841.299-1.903-.395-.049-.555.461-.791.906-.898l1.816-.297zm72.662 2.86h-1.27v-.487c-.276.201-.864.609-1.881.609-1.202 0-2.274-.794-2.137-2.078.118-1.106 1.153-1.584 1.848-1.727l2.17-.345c0-.539-.29-.956-1.064-1.006s-1.21.305-1.571 1.017l-1.124-.605c1.218-2.631 5.029-1.764 5.029.414v4.207zm-1.27-2.86c.006.396-.062 1.112-.82 1.59-.587.37-1.841.299-1.903-.395-.049-.555.461-.791.906-.898l1.816-.297zM99.096 10.149H97.85v-8.45h1.246v4.895l2.68-2.559h1.738l-2.633 2.535 2.715 3.578h-1.556l-2.077-2.707-.867.844v1.863zm6.053-6.114h-1.255v6.113h1.255V4.035zm-59.2 0h-1.255v6.113h1.255V4.035zm5.584 6.113V1.697h1.255v2.695c.361-.346 1-.485 1.47-.485 1.452 0 2.477 1.082 2.457 2.448v3.792h-1.27v-3.68c0-.408-.214-1.339-1.315-1.339-.968 0-1.342.756-1.342 1.339v3.681h-1.255zm-4.76-4.894V4.039h.621a.45.45 0 0 0 .45-.45v-.855h1.251v1.305h1.309v1.215h-1.309v3.109c0 .293.105.664.648.664.365 0 .531-.035.736-.07v1.137s-.361.113-.857.113c-1.398 0-1.777-1.051-1.777-1.788V5.254h-1.071zM36.528 4.039h-1.394l2.191 6.106h1.125l1.234-3.918 1.238 3.918h1.129l2.188-6.106h-1.383l-1.359 3.93-1.256-3.93h-1.124l-1.242 3.957-1.348-3.957zM26.212 7.141c-.02 1.566 1.187 3.129 3.223 3.129 1.566 0 2.383-.918 2.734-1.719L31.172 8c-.315.399-.801 1.094-1.738 1.094-1.145 0-1.825-.781-1.891-1.52h4.625c.074-.284.148-.995-.03-1.559-.336-1.064-1.221-2.102-2.839-2.102s-3.088 1.152-3.088 3.227zm1.363-.75h3.348c-.055-.43-.566-1.301-1.623-1.301a1.79 1.79 0 0 0-1.725 1.301zm-8.758.75c.038 1.758 1.277 3.133 3.145 3.133 1.074 0 1.723-.477 1.961-.672v.547h1.242V1.703h-1.258v2.888c-.414-.36-1.062-.68-1.93-.68-1.91 0-3.198 1.473-3.16 3.23zm1.309-.08c0 1.119.723 1.978 1.836 1.978a1.88 1.88 0 0 0 1.94-1.904c0-1.371-1.011-1.99-1.972-1.99s-1.805.798-1.805 1.916zm76.683-.028C96.771 5.275 95.532 3.9 93.664 3.9c-1.074 0-1.723.477-1.961.672v-.547h-1.242v8.22h1.258V9.583c.414.36 1.063.68 1.93.68 1.91 0 3.198-1.473 3.16-3.23zm-1.309.08c0-1.119-.723-1.978-1.836-1.978a1.88 1.88 0 0 0-1.94 1.904c0 1.371 1.011 1.99 1.972 1.99S95.5 8.231 95.5 7.113zM106.441 10.173V4.036h1.254v.382c.361-.346 1-.485 1.47-.485 1.452 0 2.477 1.082 2.457 2.448v3.792h-1.27V6.492c0-.408-.214-1.339-1.315-1.339-.969 0-1.342.756-1.342 1.339v3.681h-1.254zm-30.383-.021V1.824h1.084l4.215 5.777V1.824h1.32v8.328h-1.094l-4.207-5.796v5.796h-1.319zM5.24 10.149H4V2.377h1.014l2.664 3.597 2.654-3.592h1.03v7.766h-1.256V4.762L7.678 8.068 5.24 4.742v5.407z" transform="translate(776, 734)" fill="#ababab88" stroke="none"></path></svg>