<?xml version="1.0" encoding="utf-8" standalone="yes"?>
<!DOCTYPE svg PUBLIC "-//W3C//DTD SVG 1.1//EN" "http://www.w3.org/Graphics/SVG/1.1/DTD/svg11.dtd">
<svg width="1046" height="992" viewBox="0 0 1046 992" style="fill:none;stroke:none;fill-rule:evenodd;clip-rule:evenodd;stroke-linecap:round;stroke-linejoin:round;stroke-miterlimit:1.5;" version="1.1" xmlns="http://www.w3.org/2000/svg" xmlns:xlink="http://www.w3.org/1999/xlink"><style class="text-font-style fontImports" data-font-family="Shantell Sans">@import url('https://fonts.googleapis.com/css2?family=Shantell+Sans:wght@300..800&amp;display=block');</style><style class="text-font-style fontImports" data-font-family="Roboto">@import url('https://fonts.googleapis.com/css2?family=Roboto:wght@400;700&amp;display=block');</style><g id="items" style="isolation: isolate"><g id="blend" style="mix-blend-mode: normal"><g id="g-root-cp_0_g-0_1ur59vv1kdmgi5-fill" data-item-order="999168686" transform="translate(507, 512)"><g id="cp_0_g-0_1ur59vv1kdmgi5-fill" stroke="none" fill="#e8e8e8"><g><path d="M 21.231 27.1473C 38.2711 6.8397 68.5473 4.1909 88.8549 21.231C 109.1625 38.2711 111.8113 68.5473 94.7712 88.8549C 77.7312 109.1625 47.4549 111.8113 27.1473 94.7712C 6.8397 77.7312 4.1909 47.4549 21.231 27.1473Z"></path></g></g></g><g id="g-root-cp_10_g-10_1qbbrrf1kdmhaf-fill" data-item-order="999168691" transform="translate(308.0000305175781, 312.070068359375)"></g><g id="g-root-cp_10_g-10_1_1lw4qq31kdmewx-fill" data-item-order="999168694" transform="translate(519, 217)"><g id="cp_10_g-10_1_1lw4qq31kdmewx-fill" stroke="none" fill="#b7b7b7"><g><path d="M 50.5495 108.81C 48.4195 111.3484 44.635 111.6795 42.0965 109.5495C 39.5581 107.4195 39.227 103.635 41.357 101.0965C 43.487 98.5581 47.2715 98.227 49.81 100.357C 52.3484 102.487 52.6795 106.2715 50.5495 108.81ZM 71.3456 20.4344C 57.2261 6.4364 34.4324 6.5349 20.4344 20.6544C 6.4364 34.7739 6.5349 57.5676 20.6544 71.5656C 25.5776 76.4464 31.5554 79.6134 37.8472 81.0698L 46.2032 93.0288L 54.4555 80.9981C 60.7345 79.4874 66.6848 76.2688 71.5656 71.3456C 85.5636 57.2261 85.4651 34.4324 71.3456 20.4344Z"></path></g></g></g><g id="g-root-cp_9_g-9_1d0hqh71kdmfpn-fill" data-item-order="999168699" transform="translate(328, 346.8399658203125)"></g><g id="g-root-cp_9_g-9_1_18ko8cr1kdmghx-fill" data-item-order="999168702" transform="translate(362.74200439453125, 286.22998046875)"><g id="cp_9_g-9_1_18ko8cr1kdmghx-fill" stroke="none" fill="#8769fd"><g><path d="M 93.8542 89.6264C 91.7242 92.1648 87.9397 92.4959 85.4012 90.3659C 82.8628 88.2359 82.5317 84.4514 84.6617 81.9129C 86.7917 79.3745 90.5762 79.0434 93.1147 81.1734C 95.6531 83.3034 95.9842 87.0879 93.8542 89.6264ZM 44.1537 10.0483C 24.2976 11.0685 9.0281 27.992 10.0483 47.848C 11.0685 67.7041 27.992 82.9736 47.848 81.9534C 54.7715 81.5977 61.1373 79.3085 66.4493 75.6356L 80.9181 77.5055L 77.5752 63.3046C 80.6844 57.644 82.3091 51.0771 81.9534 44.1537C 80.9333 24.2976 64.0097 9.0281 44.1537 10.0483Z"></path></g></g></g><g id="g-root-cp_8_g-8_me76tn1kdmfpr-fill" data-item-order="999168707" transform="translate(347.5000305175781, 352.5)"></g><g id="g-root-cp_8_g-8_1_hydop71kdmgi1-fill" data-item-order="999168710" transform="translate(290.0119934082031, 404.1600341796875)"><g id="cp_8_g-8_1_hydop71kdmgi1-fill" stroke="none" fill="#cb68f9"><g><path d="M 109.5847 49.6967C 107.4547 52.2352 103.6701 52.5663 101.1317 50.4362C 98.5933 48.3062 98.2621 44.5217 100.3922 41.9833C 102.5222 39.4448 106.3067 39.1137 108.8451 41.2437C 111.3836 43.3737 111.7147 47.1583 109.5847 49.6967ZM 20.7147 20.3748C 6.5622 34.3395 6.4101 57.1329 20.3748 71.2853C 34.3395 85.4377 57.1329 85.5899 71.2853 71.6252C 76.22 66.756 79.4526 60.8134 80.978 54.538L 93.0282 46.314L 81.0889 37.9299C 79.6474 31.6346 76.4944 25.6493 71.6252 20.7147C 57.6605 6.5622 34.8671 6.4101 20.7147 20.3748Z"></path></g></g></g><g id="g-root-cp_7_g-7_hydop71kdmgi3-fill" data-item-order="999168715" transform="translate(367.70098876953125, 372.5)"></g><g id="g-root-cp_7_g-7_1_dik6kr1kdmhad-fill" data-item-order="999168718" transform="translate(276.0039978027344, 561.1719970703125)"><g id="cp_7_g-7_1_dik6kr1kdmhad-fill" stroke="none" fill="#f366bb"><g><path d="M 109.5925 51.185C 107.4625 53.7234 103.678 54.0545 101.1395 51.9245C 98.6011 49.7945 98.27 46.01 100.4 43.4715C 102.53 40.9331 106.3145 40.602 108.853 42.732C 111.3914 44.862 111.7225 48.6465 109.5925 51.185ZM 21.3242 19.7875C 6.8474 33.4156 6.1594 56.1992 19.7875 70.676C 33.4156 85.1528 56.1992 85.8408 70.676 72.2127C 75.7238 67.4608 79.0951 61.5959 80.7677 55.358L 93.0079 47.4196L 81.2691 38.7571C 79.9759 32.4297 76.9646 26.372 72.2127 21.3242C 58.5846 6.8474 35.801 6.1594 21.3242 19.7875Z"></path></g></g></g><g id="g-root-cp_6_g-6_7q5aj1kdmfpj-fill" data-item-order="999168723" transform="translate(386.9999694824219, 392)"></g><g id="g-root-cp_6_g-6_1_1ut0p571kdmgap-fill" data-item-order="999168726" transform="translate(371.2029724121094, 678)"><g id="cp_6_g-6_1_1ut0p571kdmgap-fill" stroke="none" fill="#fb6762"><g><path d="M 10.378231 68.8447C 13.235031 88.5207 31.501331 102.1553 51.177231 99.2986C 70.853231 96.4419 84.487931 78.1755 81.631131 58.4996C 80.635131 51.639 77.765531 45.5128 73.616031 40.5642L 74.136331 25.9844L 60.306531 30.6295C 54.382131 28.0585 47.692831 27.0496 40.832131 28.0457C 21.156231 30.9024 7.521531 49.1688 10.378231 68.8447ZM 85.393331 19.8569C 83.263331 22.3953 79.478731 22.7264 76.940331 20.5964C 74.401831 18.4664 74.070731 14.6819 76.200731 12.1434C 78.330831 9.605 82.115331 9.2739 84.653731 11.4039C 87.192231 13.5339 87.523331 17.3184 85.393331 19.8569Z"></path></g></g></g><g id="g-root-cp_5_g-5_1lxdowb1kdmh3f-fill" data-item-order="999168731" transform="translate(406.9999694824219, 412)"></g><g id="g-root-cp_5_g-5_1_1hi6nuz1kdmepx-fill" data-item-order="999168734" transform="translate(518.8280029296875, 702)"><g id="cp_5_g-5_1_1hi6nuz1kdmepx-fill" stroke="none" fill="#f79438"><g><path d="M 50.7683 19.8569C 48.6383 22.3953 44.8537 22.7264 42.3153 20.5964C 39.7768 18.4664 39.4457 14.6819 41.5757 12.1434C 43.7058 9.605 47.4903 9.2739 50.0287 11.4039C 52.5672 13.5339 52.8983 17.3184 50.7683 19.8569ZM 20.4327 100.4313C 34.4298 114.5517 57.2235 114.6517 71.3439 100.6547C 85.4643 86.6576 85.5643 63.8639 71.5673 49.7435C 66.6868 44.82 60.7368 41.601 54.4579 40.0899L 46.2064 28.0586L 37.8496 40.017C 31.5577 41.473 25.5796 44.6396 20.6561 49.5201C 6.5357 63.5172 6.4357 86.3109 20.4327 100.4313Z"></path></g></g></g><g id="g-root-cp_4_g-4_18mjnm31kdmfin-fill" data-item-order="999168739" transform="translate(427, 459.9219970703125)"></g><g id="g-root-cp_4_g-4_1_1d2d5qj1kdmfi9-fill" data-item-order="999168742" transform="translate(633.1740112304688, 650)"><g id="cp_4_g-4_1_1d2d5qj1kdmfi9-fill" stroke="none" fill="#ffe711"><g><path d="M 20.9226 19.8569C 18.7926 22.3953 15.008 22.7264 12.4696 20.5964C 9.9311 18.4664 9.6 14.6819 11.73 12.1434C 13.8601 9.605 17.6446 9.2739 20.183 11.4039C 22.7215 13.5339 23.0526 17.3184 20.9226 19.8569ZM 37.5234 100.6298C 56.8455 105.3159 76.308 93.4511 80.9941 74.129C 85.6802 54.8069 73.8154 35.3444 54.4933 30.6583C 47.756 29.0243 41.0017 29.4026 34.8627 31.4076L 21.5284 25.4883L 20.6816 40.0527C 16.087 44.5912 12.6565 50.4218 11.0225 57.1591C 6.3364 76.4812 18.2013 95.9437 37.5234 100.6298Z"></path></g></g></g><g id="g-root-cp_3_g-3_146q5hn1kdmgaz-fill" data-item-order="999168747" transform="translate(447, 452)"></g><g id="g-root-cp_3_g-3_1_zqwnd71kdmh39-fill" data-item-order="999168750" transform="translate(652, 554.3909912109375)"><g id="cp_3_g-3_1_zqwnd71kdmh39-fill" stroke="none" fill="#a6da37"><g><path d="M 20.5964 51.4662C 18.4664 54.0047 14.6819 54.3358 12.1434 52.2058C 9.605 50.0758 9.2739 46.2912 11.4039 43.7528C 13.5339 41.2143 17.3184 40.8832 19.8569 43.0132C 22.3953 45.1433 22.7264 48.9278 20.5964 51.4662ZM 100.8467 70.5231C 114.3904 55.9672 113.5698 33.1881 99.0139 19.6444C 84.4581 6.1008 61.6789 6.9213 48.1352 21.4772C 43.4128 26.5525 40.4368 32.6277 39.1805 38.9625L 27.4922 47.6931L 39.7784 55.5602C 41.4872 61.7882 44.8927 67.6335 49.968 72.3559C 64.5239 85.8995 87.3031 85.079 100.8467 70.5231Z"></path></g></g></g><g id="g-root-cp_2_g-2_qvw47f1kdmeq7-fill" data-item-order="999168755" transform="translate(467, 472)"></g><g id="g-root-cp_2_g-2_1_mg2m2z1kdmfih-fill" data-item-order="999168758" transform="translate(631.5, 462.366943359375)"><g id="cp_2_g-2_1_mg2m2z1kdmfih-fill" stroke="none" fill="#43dd93"><g><path d="M 20.5964 80.4897C 18.4664 83.0281 14.6819 83.3592 12.1434 81.2292C 9.605 79.0992 9.2739 75.3147 11.4039 72.7762C 13.5339 70.2378 17.3184 69.9067 19.8569 72.0367C 22.3953 74.1667 22.7264 77.9512 20.5964 80.4897ZM 74.1372 10.8208C 93.5703 15.0231 105.9173 34.1834 101.715 53.6165C 97.5126 73.0496 78.3523 85.3965 58.9193 81.1942C 52.1433 79.7289 46.2289 76.4451 41.5772 71.9652L 26.9961 71.4822L 32.5807 58.0044C 30.4231 51.9173 29.8763 45.1745 31.3416 38.3985C 35.5439 18.9655 54.7042 6.6185 74.1372 10.8208Z"></path></g></g></g><g id="g-root-cp_1_g-1_i093yj1kdmgar-fill" data-item-order="999168763" transform="translate(491.29901123046875, 492)"></g><g id="g-root-cp_1_g-1_1_1qf2ma31kdmg3p-fill" data-item-order="999168766" transform="translate(567.4979858398438, 411.4959716796875)"><g id="cp_1_g-1_1_1qf2ma31kdmg3p-fill" stroke="none" fill="#1ac3fb"><g><path d="M 20.5964 97.3608C 18.4664 99.8992 14.6819 100.2303 12.1434 98.1003C 9.605 95.9703 9.2739 92.1858 11.4039 89.6473C 13.5339 87.1089 17.3184 86.7778 19.8569 88.9078C 22.3953 91.0378 22.7264 94.8223 20.5964 97.3608ZM 45.5022 10.4276C 65.1511 7.3906 83.5417 20.8572 86.5787 40.5061C 89.6157 60.155 76.1491 78.5456 56.5002 81.5826C 49.649 82.6416 42.9508 81.694 37.0031 79.1776L 23.2164 83.9492L 23.603 69.3653C 19.4082 64.4549 16.4826 58.3553 15.4237 51.5041C 12.3866 31.8552 25.8533 13.4646 45.5022 10.4276Z"></path></g></g></g><g id="g-root-tx_1_dg2a8b1kduvb6-fill" data-item-order="1000000000" transform="translate(596.5, 429.5)"><g id="tx_1_dg2a8b1kduvb6-fill" stroke="none" fill="#2c2c2c"><g><text style="font: bold 30px Roboto, sans-serif; white-space: pre;" font-weight="bold" font-size="30px" font-family="Roboto, sans-serif"><tspan x="13.39" y="45.84" dominant-baseline="ideographic">1</tspan></text></g></g></g><g id="g-root-tx_includes_1ha2hqj1kdw9vr-fill" data-item-order="1000000000" transform="translate(820, 422)"><g id="tx_includes_1ha2hqj1kdw9vr-fill" stroke="none" fill="#43dd93"><g><text style="font: 15px &quot;Shantell Sans&quot;, cursive; white-space: pre;" font-size="15px" font-family="'Shantell Sans', cursive"><tspan x="12" y="28.77" dominant-baseline="ideographic">Includes physical, </tspan><tspan x="12" y="46.77" dominant-baseline="ideographic">human, and economic </tspan><tspan x="12" y="64.77" dominant-baseline="ideographic">geography of India </tspan><tspan x="12" y="82.77" dominant-baseline="ideographic">and the world</tspan></text></g></g></g><g id="g-root-tx_emphasiz_dg2a8b1kdw9hf-fill" data-item-order="1000000000" transform="translate(123, 446)"><g id="tx_emphasiz_dg2a8b1kdw9hf-fill" stroke="none" fill="#b95ce3"><g><text style="font: 15px &quot;Shantell Sans&quot;, cursive; white-space: pre;" font-size="15px" font-family="'Shantell Sans', cursive"><tspan x="14" y="31.77" dominant-baseline="ideographic">Emphasizes ethical </tspan><tspan x="45.17" y="49.77" dominant-baseline="ideographic">standards and </tspan><tspan x="50.19" y="67.77" dominant-baseline="ideographic">aptitude skills</tspan></text></g></g></g><g id="g-root-tx_8_4o64i31kduu4h-fill" data-item-order="1000000000" transform="translate(314, 422.5)"><g id="tx_8_4o64i31kduu4h-fill" stroke="none" fill="#2c2c2c"><g><text style="font: bold 30px Roboto, sans-serif; white-space: pre;" font-weight="bold" font-size="30px" font-family="Roboto, sans-serif"><tspan x="13.39" y="45.84" dominant-baseline="ideographic">8</tspan></text></g></g></g><g id="g-root-tx_geograph_1uuw4ej1kduww6-fill" data-item-order="1000000000" transform="translate(820, 386)"><g id="tx_geograph_1uuw4ej1kduww6-fill" stroke="none" fill="#43dd93"><g><text style="font: bold 20px &quot;Shantell Sans&quot;, cursive; white-space: pre;" font-weight="bold" font-size="20px" font-family="'Shantell Sans', cursive"><tspan x="12" y="34.75" dominant-baseline="ideographic">Geography</tspan></text></g></g></g><g id="g-root-tx_ethicsin_qqwbij1kdwb2a-fill" data-item-order="1000000000" transform="translate(63, 374)"><g id="tx_ethicsin_qqwbij1kdwb2a-fill" stroke="none" fill="#cb68f9"><g><text style="font: bold 20px &quot;Shantell Sans&quot;, cursive; white-space: pre;" font-weight="bold" font-size="20px" font-family="'Shantell Sans', cursive"><tspan x="33.8" y="40.75" dominant-baseline="ideographic">Ethics, Integrity, </tspan><tspan x="73.37" y="64.75" dominant-baseline="ideographic">and Aptitude</tspan></text></g></g></g><g id="g-root-tx_9_1qdto3v1kduvia-fill" data-item-order="1000000000" transform="translate(387, 305)"><g id="tx_9_1qdto3v1kduvia-fill" stroke="none" fill="#2c2c2c"><g><text style="font: bold 30px Roboto, sans-serif; white-space: pre;" font-weight="bold" font-size="30px" font-family="Roboto, sans-serif"><tspan x="13.39" y="45.84" dominant-baseline="ideographic">9</tspan></text></g></g></g><g id="g-root-tx_coversan_958ksr1kduvid-fill" data-item-order="1000000000" transform="translate(747, 296)"><g id="tx_coversan_958ksr1kduvid-fill" stroke="none" fill="#1ac3fb"><g><text style="font: 15px &quot;Shantell Sans&quot;, cursive; white-space: pre;" font-size="15px" font-family="'Shantell Sans', cursive"><tspan x="12" y="31.77" dominant-baseline="ideographic">Covers ancient, </tspan><tspan x="12" y="49.77" dominant-baseline="ideographic">medieval, modern, </tspan><tspan x="12" y="67.77" dominant-baseline="ideographic">and world history</tspan></text></g></g></g><g id="g-root-tx_2_18jfa6j1kduwoz-fill" data-item-order="1000000000" transform="translate(675.5, 480)"><g id="tx_2_18jfa6j1kduwoz-fill" stroke="none" fill="#2c2c2c"><g><text style="font: bold 30px Roboto, sans-serif; white-space: pre;" font-weight="bold" font-size="30px" font-family="Roboto, sans-serif"><tspan x="13.39" y="45.84" dominant-baseline="ideographic">2</tspan></text></g></g></g><g id="g-root-tx_develops_18jfa6j1kdwav9-fill" data-item-order="1000000000" transform="translate(171, 296)"><g id="tx_develops_18jfa6j1kdwav9-fill" stroke="none" fill="#4e88e6"><g><text style="font: 15px &quot;Shantell Sans&quot;, cursive; white-space: pre;" font-size="15px" font-family="'Shantell Sans', cursive"><tspan x="53.39" y="31.77" dominant-baseline="ideographic">Develops skills in </tspan><tspan x="12.59" y="49.77" dominant-baseline="ideographic">writing comprehensive </tspan><tspan x="128.47" y="67.77" dominant-baseline="ideographic">essays</tspan></text></g></g></g><g id="g-root-ic_2_hs4xu31kdntvk-fill" data-item-order="1000000000" transform="translate(530.906005859375, 536.133056640625)"></g><g id="g-root-tx_polityco_zjeybv1kdw934-fill" data-item-order="1000000000" transform="translate(819, 530)"><g id="tx_polityco_zjeybv1kdw934-fill" stroke="none" fill="#a6da37"><g><text style="font: bold 20px &quot;Shantell Sans&quot;, cursive; white-space: pre;" font-weight="bold" font-size="20px" font-family="'Shantell Sans', cursive"><tspan x="12" y="34.75" dominant-baseline="ideographic">Polity &amp; </tspan><tspan x="12" y="58.75" dominant-baseline="ideographic">Constitution</tspan></text></g></g></g><g id="g-root-tx_history_qvw47f1kduwb0-fill" data-item-order="1000000000" transform="translate(747, 260)"><g id="tx_history_qvw47f1kduwb0-fill" stroke="none" fill="#1ac3fb"><g><text style="font: bold 20px &quot;Shantell Sans&quot;, cursive; white-space: pre;" font-weight="bold" font-size="20px" font-family="'Shantell Sans', cursive"><tspan x="12" y="34.75" dominant-baseline="ideographic">History</tspan></text></g></g></g><g id="g-root-tx_essaywri_4lruz1kdwb2c-fill" data-item-order="1000000000" transform="translate(183, 260)"><g id="tx_essaywri_4lruz1kdwb2c-fill" stroke="none" fill="#4f91fc"><g><text style="font: bold 20px &quot;Shantell Sans&quot;, cursive; white-space: pre;" font-weight="bold" font-size="20px" font-family="'Shantell Sans', cursive"><tspan x="19.4" y="34.75" dominant-baseline="ideographic">Essay Writing</tspan></text></g></g></g><g id="g-root-tx_7_vago5n1kduu4g-fill" data-item-order="1000000000" transform="translate(300, 578)"><g id="tx_7_vago5n1kduu4g-fill" stroke="none" fill="#2c2c2c"><g><text style="font: bold 30px Roboto, sans-serif; white-space: pre;" font-weight="bold" font-size="30px" font-family="Roboto, sans-serif"><tspan x="13.39" y="45.84" dominant-baseline="ideographic">7</tspan></text></g></g></g><g id="g-root-tx_3_hx4qiz1kduwp0-fill" data-item-order="1000000000" transform="translate(705, 572)"><g id="tx_3_hx4qiz1kduwp0-fill" stroke="none" fill="#2c2c2c"><g><text style="font: bold 30px Roboto, sans-serif; white-space: pre;" font-weight="bold" font-size="30px" font-family="Roboto, sans-serif"><tspan x="13.39" y="45.84" dominant-baseline="ideographic">3</tspan></text></g></g></g><g id="g-root-tx_environm_1hd6v631kdwb28-fill" data-item-order="1000000000" transform="translate(87, 590)"><g id="tx_environm_1hd6v631kdwb28-fill" stroke="none" fill="#dd57a8"><g><text style="font: bold 20px &quot;Shantell Sans&quot;, cursive; white-space: pre;" font-weight="bold" font-size="20px" font-family="'Shantell Sans', cursive"><tspan x="22.36" y="34.75" dominant-baseline="ideographic">Environment &amp; </tspan><tspan x="94.6" y="58.75" dominant-baseline="ideographic">Ecology</tspan></text></g></g></g><g id="g-root-tx_focuseso_dcbfpn1kdwbgp-fill" data-item-order="1000000000" transform="translate(819, 590)"><g id="tx_focuseso_dcbfpn1kdwbgp-fill" stroke="none" fill="#a6da37"><g><text style="font: 15px &quot;Shantell Sans&quot;, cursive; white-space: pre;" font-size="15px" font-family="'Shantell Sans', cursive"><tspan x="12" y="28.77" dominant-baseline="ideographic">Focuses on political </tspan><tspan x="12" y="46.77" dominant-baseline="ideographic">systems and </tspan><tspan x="12" y="64.77" dominant-baseline="ideographic">constitutional </tspan><tspan x="12" y="82.77" dominant-baseline="ideographic">frameworks</tspan></text></g></g></g><g id="g-root-tx_focuseso_142ctvv1kdw9hd-fill" data-item-order="1000000000" transform="translate(82.5, 638)"><g id="tx_focuseso_142ctvv1kdw9hd-fill" stroke="none" fill="#f366bb"><g><text style="font: 15px &quot;Shantell Sans&quot;, cursive; white-space: pre;" font-size="15px" font-family="'Shantell Sans', cursive"><tspan x="12.16" y="37.77" dominant-baseline="ideographic">Focuses on environmental </tspan><tspan x="73.73" y="55.77" dominant-baseline="ideographic">conservation and </tspan><tspan x="66.09" y="73.77" dominant-baseline="ideographic">ecological balance</tspan></text></g></g></g><g id="g-root-tx_10_147cmkr1kduuq3-fill" data-item-order="1000000000" transform="translate(531, 235)"><g id="tx_10_147cmkr1kduuq3-fill" stroke="none" fill="#2c2c2c"><g><text style="font: bold 30px Roboto, sans-serif; white-space: pre;" font-weight="bold" font-size="30px" font-family="Roboto, sans-serif"><tspan x="16.79" y="45.84" dominant-baseline="ideographic">10</tspan></text></g></g></g><g id="g-root-tx_keepscan_hx4qiz1kdwavb-fill" data-item-order="1000000000" transform="translate(453, 134)"><g id="tx_keepscan_hx4qiz1kdwavb-fill" stroke="none" fill="#fb6762"><g><text style="font: 15px &quot;Shantell Sans&quot;, cursive; white-space: pre;" font-size="15px" font-family="'Shantell Sans', cursive"><tspan x="13.79" y="31.77" dominant-baseline="ideographic">Keeps candidates updated </tspan><tspan x="32.03" y="49.77" dominant-baseline="ideographic">on recent events and </tspan><tspan x="59.58" y="67.77" dominant-baseline="ideographic">developments</tspan></text></g></g></g><g id="g-root-tx_4_4map8r1kduv45-fill" data-item-order="1000000000" transform="translate(656.5, 687.5)"><g id="tx_4_4map8r1kduv45-fill" stroke="none" fill="#2c2c2c"><g><text style="font: bold 30px Roboto, sans-serif; white-space: pre;" font-weight="bold" font-size="30px" font-family="Roboto, sans-serif"><tspan x="13.39" y="45.84" dominant-baseline="ideographic">4</tspan></text></g></g></g><g id="g-root-tx_6_145h7bf1kduvpr-fill" data-item-order="1000000000" transform="translate(396, 713)"><g id="tx_6_145h7bf1kduvpr-fill" stroke="none" fill="#2c2c2c"><g><text style="font: bold 30px Roboto, sans-serif; white-space: pre;" font-weight="bold" font-size="30px" font-family="Roboto, sans-serif"><tspan x="13.39" y="45.84" dominant-baseline="ideographic">6</tspan></text></g></g></g><g id="g-root-tx_currenta_v8l8wb1kdw9ae-fill" data-item-order="1000000000" transform="translate(471, 98)"><g id="tx_currenta_v8l8wb1kdw9ae-fill" stroke="none" fill="#fb6762"><g><text style="font: bold 20px &quot;Shantell Sans&quot;, cursive; white-space: pre;" font-weight="bold" font-size="20px" font-family="'Shantell Sans', cursive"><tspan x="15.25" y="34.75" dominant-baseline="ideographic">Current Affairs</tspan></text></g></g></g><g id="g-root-tx_governan_1heff1kdw9vu-fill" data-item-order="1000000000" transform="translate(783, 710)"><g id="tx_governan_1heff1kdw9vu-fill" stroke="none" fill="#ffe711"><g><text style="font: bold 20px &quot;Shantell Sans&quot;, cursive; white-space: pre;" font-weight="bold" font-size="20px" font-family="'Shantell Sans', cursive"><tspan x="12" y="34.75" dominant-baseline="ideographic">Governance &amp; </tspan><tspan x="12" y="58.75" dominant-baseline="ideographic">Social Justice</tspan></text></g></g></g><g id="g-root-tx_dealswit_qpndcb1kdw8w5-fill" data-item-order="1000000000" transform="translate(459, 866)"><g id="tx_dealswit_qpndcb1kdw8w5-fill" stroke="none" fill="#f79438"><g><text style="font: 15px &quot;Shantell Sans&quot;, cursive; white-space: pre;" font-size="15px" font-family="'Shantell Sans', cursive"><tspan x="28.72" y="31.77" dominant-baseline="ideographic">Deals with economic </tspan><tspan x="13.05" y="49.77" dominant-baseline="ideographic">principles and budgetary </tspan><tspan x="68.85" y="67.77" dominant-baseline="ideographic">processes</tspan></text></g></g></g><g id="g-root-tx_addresse_1hbxwzv1kdw8w3-fill" data-item-order="1000000000" transform="translate(783, 770)"><g id="tx_addresse_1hbxwzv1kdw8w3-fill" stroke="none" fill="#ffe711"><g><text style="font: 15px &quot;Shantell Sans&quot;, cursive; white-space: pre;" font-size="15px" font-family="'Shantell Sans', cursive"><tspan x="12" y="31.77" dominant-baseline="ideographic">Addresses governance </tspan><tspan x="12" y="49.77" dominant-baseline="ideographic">structures and social </tspan><tspan x="12" y="67.77" dominant-baseline="ideographic">justice issues</tspan></text></g></g></g><g id="g-root-tx_coverssc_1q8tvez1kdw9hr-fill" data-item-order="1000000000" transform="translate(130.5, 790)"><g id="tx_coverssc_1q8tvez1kdw9hr-fill" stroke="none" fill="#fb6762"><g><text style="font: 15px &quot;Shantell Sans&quot;, cursive; white-space: pre;" font-size="15px" font-family="'Shantell Sans', cursive"><tspan x="34.25" y="46.77" dominant-baseline="ideographic">Covers scientific advancements </tspan><tspan x="41.28" y="64.77" dominant-baseline="ideographic">and technological innovations</tspan></text></g></g></g><g id="g-root-tx_sciencet_4ijuq31kdwb9q-fill" data-item-order="1000000000" transform="translate(189, 778)"><g id="tx_sciencet_4ijuq31kdwb9q-fill" stroke="none" fill="#e45752"><g><text style="font: bold 20px &quot;Shantell Sans&quot;, cursive; white-space: pre;" font-weight="bold" font-size="20px" font-family="'Shantell Sans', cursive"><tspan x="15" y="34.75" dominant-baseline="ideographic">Science &amp; Tech</tspan></text></g></g></g><g id="g-root-tx_economyb_140hemj1kdwah0-fill" data-item-order="1000000000" transform="translate(453, 830)"><g id="tx_economyb_140hemj1kdwah0-fill" stroke="none" fill="#f79438"><g><text style="font: bold 20px &quot;Shantell Sans&quot;, cursive; white-space: pre;" font-weight="bold" font-size="20px" font-family="'Shantell Sans', cursive"><tspan x="15.4" y="34.75" dominant-baseline="ideographic">Economy &amp; Budget</tspan></text></g></g></g><g id="g-root-tx_5_1hgxpor1kduu4u-fill" data-item-order="1000000000" transform="translate(543, 749)"><g id="tx_5_1hgxpor1kduu4u-fill" stroke="none" fill="#2c2c2c"><g><text style="font: bold 30px Roboto, sans-serif; white-space: pre;" font-weight="bold" font-size="30px" font-family="Roboto, sans-serif"><tspan x="13.39" y="45.84" dominant-baseline="ideographic">5</tspan></text></g></g></g><g id="g-root-cp_0_g-0_1ur59vv1kdmgi5-stroke" data-item-order="999168686" transform="translate(507, 512)"><g id="cp_0_g-0_1ur59vv1kdmgi5-stroke" fill="none" stroke-linecap="round" stroke-linejoin="round" stroke-miterlimit="4" stroke="#2c2c2c" stroke-width="2"><g><path d="M 21.231 27.1473C 38.2711 6.8397 68.5473 4.1909 88.8549 21.231C 109.1625 38.2711 111.8113 68.5473 94.7712 88.8549C 77.7312 109.1625 47.4549 111.8113 27.1473 94.7712C 6.8397 77.7312 4.1909 47.4549 21.231 27.1473Z"></path></g></g></g><g id="g-root-cp_10_g-10_1qbbrrf1kdmhaf-stroke" data-item-order="999168691" transform="translate(308.0000305175781, 312.070068359375)"><g id="cp_10_g-10_1qbbrrf1kdmhaf-stroke" fill="none" stroke-linecap="round" stroke-linejoin="round" stroke-miterlimit="4" stroke="#b7b7b7" stroke-width="2"><g><path d="M 55.203969 114.4945C 57.733569 110.9108 60.362769 107.3885 63.089969 103.932C 79.831269 82.7138 99.840869 64.5115 122.238769 49.9297M 133.610569 42.9562C 149.354369 33.8772 166.133469 26.5165 183.671769 21.064C 205.603869 14.2455 228.249769 10.5581 250.954469 10.0023M 10.011569 259.3202C 9.950869 253.0528 10.128669 246.7696 10.548069 240.4839C 12.072969 217.6308 16.758469 195.2357 24.371369 173.9049M 21.175369 330.3838C 26.851369 348.6068 34.650369 366.2068 44.482269 382.8058M 262.952369 10C 285.568069 10.5451 308.127569 14.1973 329.983269 20.957C 377.645369 35.6983 419.726269 64.5272 450.686169 103.6484C 481.646069 142.7696 500.033469 190.3492 503.427769 240.1233C 506.822069 289.8974 495.064169 339.5327 469.701969 382.4948C 444.339669 425.4568 406.562069 459.7316 361.342469 480.8069"></path></g></g></g><g id="g-root-cp_10_g-10_1_1lw4qq31kdmewx-stroke" data-item-order="999168694" transform="translate(519, 217)"><g id="cp_10_g-10_1_1lw4qq31kdmewx-stroke" fill="none" stroke-linecap="round" stroke-linejoin="round" stroke-miterlimit="4" stroke="#2c2c2c" stroke-width="2"><g><path d="M 50.5495 108.81C 48.4195 111.3484 44.635 111.6795 42.0965 109.5495C 39.5581 107.4195 39.227 103.635 41.357 101.0965C 43.487 98.5581 47.2715 98.227 49.81 100.357C 52.3484 102.487 52.6795 106.2715 50.5495 108.81ZM 71.3456 20.4344C 57.2261 6.4364 34.4324 6.5349 20.4344 20.6544C 6.4364 34.7739 6.5349 57.5676 20.6544 71.5656C 25.5776 76.4464 31.5554 79.6134 37.8472 81.0698L 46.2032 93.0288L 54.4555 80.9981C 60.7345 79.4874 66.6848 76.2688 71.5656 71.3456C 85.5636 57.2261 85.4651 34.4324 71.3456 20.4344Z"></path></g></g></g><g id="g-root-cp_9_g-9_1d0hqh71kdmfpn-stroke" data-item-order="999168699" transform="translate(328, 346.8399658203125)"><g id="cp_9_g-9_1d0hqh71kdmfpn-stroke" fill="none" stroke-linecap="round" stroke-linejoin="round" stroke-miterlimit="4" stroke="#8769fd" stroke-width="2"><g><path d="M 129.2965 22.3391C 137.9762 17.6608 146.9857 13.5347 156.2757 10M 118.8897 28.3086C 90.8666 45.3827 66.7318 68.4207 48.3066 95.9722C 47.8611 96.6383 47.4194 97.3066 46.9813 97.9768M 10.078 228.1105C 9.2195 195.3624 15.4609 162.9885 28.1795 133.15M 19.1807 286.0659C 26.8418 312.1784 39.1808 336.8546 55.7563 358.8354C 58.4091 362.3534 61.1582 365.7859 63.999 369.13M 118.4925 415.7721C 134.0649 425.304 150.8174 432.9757 168.4212 438.5547C 180.3839 442.3459 192.5819 445.1206 204.8887 446.8792M 268.7402 446.9319C 281.4687 445.1346 294.0811 442.2508 306.4375 438.2807C 351.2994 423.8669 390.5639 395.8496 418.785 358.1147C 447.0061 320.3799 462.7848 274.798 463.9327 227.6915C 465.0806 180.5849 451.5406 134.2886 425.191 95.224"></path></g></g></g><g id="g-root-cp_9_g-9_1_18ko8cr1kdmghx-stroke" data-item-order="999168702" transform="translate(362.74200439453125, 286.22998046875)"><g id="cp_9_g-9_1_18ko8cr1kdmghx-stroke" fill="none" stroke-linecap="round" stroke-linejoin="round" stroke-miterlimit="4" stroke="#2c2c2c" stroke-width="2"><g><path d="M 93.8542 89.6264C 91.7242 92.1648 87.9397 92.4959 85.4012 90.3659C 82.8628 88.2359 82.5317 84.4514 84.6617 81.9129C 86.7917 79.3745 90.5762 79.0434 93.1147 81.1734C 95.6531 83.3034 95.9842 87.0879 93.8542 89.6264ZM 44.1537 10.0483C 24.2976 11.0685 9.0281 27.992 10.0483 47.848C 11.0685 67.7041 27.992 82.9736 47.848 81.9534C 54.7715 81.5977 61.1373 79.3085 66.4493 75.6356L 80.9181 77.5055L 77.5752 63.3046C 80.6844 57.644 82.3091 51.0771 81.9534 44.1537C 80.9333 24.2976 64.0097 9.0281 44.1537 10.0483Z"></path></g></g></g><g id="g-root-cp_8_g-8_me76tn1kdmfpr-stroke" data-item-order="999168707" transform="translate(347.5000305175781, 352.5)"><g id="cp_8_g-8_me76tn1kdmfpr-stroke" fill="none" stroke-linecap="round" stroke-linejoin="round" stroke-miterlimit="4" stroke="#cb68f9" stroke-width="2"><g><path d="M 51.499969 92.9999C 74.984069 61.6872 106.893569 37.5978 143.590669 23.6092C 183.325669 8.4626 226.754769 5.8898 268.000169 16.2391C 309.245469 26.5883 346.315269 49.3598 374.192269 81.4714C 402.069269 113.5831 419.407269 153.4843 423.859569 195.7745C 428.311869 238.0647 419.663469 280.7018 399.085069 317.9148C 390.425069 333.5752 379.828269 347.9566 367.612469 360.7568M 320.797869 397.4608C 316.879969 399.7096 312.880969 401.8349 308.805869 403.8317M 44.598969 102.7765C 21.518669 137.5607 9.456869 178.5151 10.018769 220.2908C 10.148269 229.9178 10.946669 239.483 12.392669 248.9218M 14.569369 260.8069C 20.525769 288.7165 32.207769 315.2458 49.040769 338.6518"></path></g></g></g><g id="g-root-cp_8_g-8_1_hydop71kdmgi1-stroke" data-item-order="999168710" transform="translate(290.0119934082031, 404.1600341796875)"><g id="cp_8_g-8_1_hydop71kdmgi1-stroke" fill="none" stroke-linecap="round" stroke-linejoin="round" stroke-miterlimit="4" stroke="#2c2c2c" stroke-width="2"><g><path d="M 109.5847 49.6967C 107.4547 52.2352 103.6701 52.5663 101.1317 50.4362C 98.5933 48.3062 98.2621 44.5217 100.3922 41.9833C 102.5222 39.4448 106.3067 39.1137 108.8451 41.2437C 111.3836 43.3737 111.7147 47.1583 109.5847 49.6967ZM 20.7147 20.3748C 6.5622 34.3395 6.4101 57.1329 20.3748 71.2853C 34.3395 85.4377 57.1329 85.5899 71.2853 71.6252C 76.22 66.756 79.4526 60.8134 80.978 54.538L 93.0282 46.314L 81.0889 37.9299C 79.6474 31.6346 76.4944 25.6493 71.6252 20.7147C 57.6605 6.5622 34.8671 6.4101 20.7147 20.3748Z"></path></g></g></g><g id="g-root-cp_7_g-7_hydop71kdmgi3-stroke" data-item-order="999168715" transform="translate(367.70098876953125, 372.5)"><g id="cp_7_g-7_hydop71kdmgi3-stroke" fill="none" stroke-linecap="round" stroke-linejoin="round" stroke-miterlimit="4" stroke="#f366bb" stroke-width="2"><g><path d="M 196.7015 10.001C 233.4414 9.8838 269.4061 20.563 300.1283 40.7121C 330.8504 60.8611 354.976 89.592 369.5083 123.3359C 380.4285 148.6925 385.5699 176.04 384.7061 203.4142M 10 206.1724C 10.3717 214.201 11.2577 222.1671 12.6417 230.0245M 15.0927 241.7383C 20.861 265.4959 31.2485 288.0121 45.7868 307.9545C 52.6989 317.436 60.4521 326.2023 68.9253 334.1616M 374.0321 260.1243C 366.2603 282.0567 354.451 302.4141 339.1529 320.1125M 226.0693 382.7797C 230.5317 382.0868 234.9779 381.2312 239.3992 380.2125C 254.3568 376.766 268.7536 371.5154 282.2945 364.6289M 77.5761 341.8004C 93.6625 355.1469 111.9521 365.78 131.7395 373.1649C 143.6053 377.5934 155.8295 380.7864 168.2215 382.7316"></path></g></g></g><g id="g-root-cp_7_g-7_1_dik6kr1kdmhad-stroke" data-item-order="999168718" transform="translate(276.0039978027344, 561.1719970703125)"><g id="cp_7_g-7_1_dik6kr1kdmhad-stroke" fill="none" stroke-linecap="round" stroke-linejoin="round" stroke-miterlimit="4" stroke="#2c2c2c" stroke-width="2"><g><path d="M 109.5925 51.185C 107.4625 53.7234 103.678 54.0545 101.1395 51.9245C 98.6011 49.7945 98.27 46.01 100.4 43.4715C 102.53 40.9331 106.3145 40.602 108.853 42.732C 111.3914 44.862 111.7225 48.6465 109.5925 51.185ZM 21.3242 19.7875C 6.8474 33.4156 6.1594 56.1992 19.7875 70.676C 33.4156 85.1528 56.1992 85.8408 70.676 72.2127C 75.7238 67.4608 79.0951 61.5959 80.7677 55.358L 93.0079 47.4196L 81.2691 38.7571C 79.9759 32.4297 76.9646 26.372 72.2127 21.3242C 58.5846 6.8474 35.801 6.1594 21.3242 19.7875Z"></path></g></g></g><g id="g-root-cp_6_g-6_7q5aj1kdmfpj-stroke" data-item-order="999168723" transform="translate(386.9999694824219, 392)"><g id="cp_6_g-6_7q5aj1kdmfpj-stroke" fill="none" stroke-linecap="round" stroke-linejoin="round" stroke-miterlimit="4" stroke="#fb6762" stroke-width="2"><g><path d="M 60.480131 298.0545C 47.615231 285.4611 36.795931 270.8209 28.503731 254.6475C 14.123531 226.5997 7.923631 195.0723 10.612531 163.6679C 13.301531 132.2635 24.770731 102.2489 43.709731 77.054C 62.648731 51.8592 88.293431 32.5003 117.713431 21.1896C 147.133431 9.8789 179.141831 7.0727 210.081131 13.0916M 69.347831 306.1356C 76.389431 312.1065 83.939531 317.5108 91.933331 322.2793C 116.411331 336.8812 144.157531 344.9898 172.546831 345.9116M 183.421131 345.9126C 208.152331 345.1142 232.332331 338.8656 254.260731 327.6942"></path></g></g></g><g id="g-root-cp_6_g-6_1_1ut0p571kdmgap-stroke" data-item-order="999168726" transform="translate(371.2029724121094, 678)"><g id="cp_6_g-6_1_1ut0p571kdmgap-stroke" fill="none" stroke-linecap="round" stroke-linejoin="round" stroke-miterlimit="4" stroke="#2c2c2c" stroke-width="2"><g><path d="M 10.378231 68.8447C 13.235031 88.5207 31.501331 102.1553 51.177231 99.2986C 70.853231 96.4419 84.487931 78.1755 81.631131 58.4996C 80.635131 51.639 77.765531 45.5128 73.616031 40.5642L 74.136331 25.9844L 60.306531 30.6295C 54.382131 28.0585 47.692831 27.0496 40.832131 28.0457C 21.156231 30.9024 7.521531 49.1688 10.378231 68.8447ZM 85.393331 19.8569C 83.263331 22.3953 79.478731 22.7264 76.940331 20.5964C 74.401831 18.4664 74.070731 14.6819 76.200731 12.1434C 78.330831 9.605 82.115331 9.2739 84.653731 11.4039C 87.192231 13.5339 87.523331 17.3184 85.393331 19.8569Z"></path></g></g></g><g id="g-root-cp_5_g-5_1lxdowb1kdmh3f-stroke" data-item-order="999168731" transform="translate(406.9999694824219, 412)"><g id="cp_5_g-5_1lxdowb1kdmh3f-stroke" fill="none" stroke-linecap="round" stroke-linejoin="round" stroke-miterlimit="4" stroke="#f79438" stroke-width="2"><g><path d="M 152.001231 305.8784C 135.559831 305.2114 119.251731 301.8036 103.768931 295.7062C 75.894631 284.7288 52.007831 265.5507 35.266431 240.7071C 18.524931 215.8634 9.717031 186.5241 10.006931 156.5675C 10.296931 126.6108 19.671131 97.4475 36.890431 72.9326C 54.109731 48.4177 78.363231 29.7056 106.444831 19.2698C 134.309931 8.9146 164.642531 7.1923 193.491731 14.3186M 247.044331 39.7835C 255.047231 45.8115 262.457231 52.6666 269.141131 60.2675C 270.532731 61.85 271.888231 63.4595 273.207031 65.0949M 303.365631 130.1996C 304.015831 133.5996 304.548131 137.0294 304.959731 140.4831M 163.999031 305.8785C 173.176431 305.5063 182.343031 304.2787 191.378931 302.1869"></path></g></g></g><g id="g-root-cp_5_g-5_1_1hi6nuz1kdmepx-stroke" data-item-order="999168734" transform="translate(518.8280029296875, 702)"><g id="cp_5_g-5_1_1hi6nuz1kdmepx-stroke" fill="none" stroke-linecap="round" stroke-linejoin="round" stroke-miterlimit="4" stroke="#2c2c2c" stroke-width="2"><g><path d="M 50.7683 19.8569C 48.6383 22.3953 44.8537 22.7264 42.3153 20.5964C 39.7768 18.4664 39.4457 14.6819 41.5757 12.1434C 43.7058 9.605 47.4903 9.2739 50.0287 11.4039C 52.5672 13.5339 52.8983 17.3184 50.7683 19.8569ZM 20.4327 100.4313C 34.4298 114.5517 57.2235 114.6517 71.3439 100.6547C 85.4643 86.6576 85.5643 63.8639 71.5673 49.7435C 66.6868 44.82 60.7368 41.601 54.4579 40.0899L 46.2064 28.0586L 37.8496 40.017C 31.5577 41.473 25.5796 44.6396 20.6561 49.5201C 6.5357 63.5172 6.4357 86.3109 20.4327 100.4313Z"></path></g></g></g><g id="g-root-cp_4_g-4_18mjnm31kdmfin-stroke" data-item-order="999168739" transform="translate(427, 459.9219970703125)"><g id="cp_4_g-4_18mjnm31kdmfin-stroke" fill="none" stroke-linecap="round" stroke-linejoin="round" stroke-miterlimit="4" stroke="#ffe711" stroke-width="2"><g><path d="M 217.9743 210.018C 212.4967 214.4014 206.6441 218.346 200.4658 221.8004C 178.1178 234.2954 152.5362 239.8012 127.0265 237.6062C 101.5169 235.4111 77.2518 225.6162 57.3668 209.4871C 37.4819 193.358 22.891 171.6361 15.4797 147.1283C 8.0684 122.6205 8.1773 96.4533 15.7923 72.008C 23.4073 47.5628 38.1785 25.963 58.197 10M 226.983 202.0884C 237.2812 192.1291 245.8912 180.4568 252.39 167.5137C 255.671 160.9792 258.3709 154.2066 260.4764 147.2736M 263.7983 133.716C 266.2802 120.5076 266.6805 106.9176 264.9147 93.4443C 264.4807 90.1329 263.9185 86.8484 263.2311 83.5976M 239.1712 31.6656C 237.4334 29.4235 235.6177 27.2348 233.726 25.1038"></path></g></g></g><g id="g-root-cp_4_g-4_1_1d2d5qj1kdmfi9-stroke" data-item-order="999168742" transform="translate(633.1740112304688, 650)"><g id="cp_4_g-4_1_1d2d5qj1kdmfi9-stroke" fill="none" stroke-linecap="round" stroke-linejoin="round" stroke-miterlimit="4" stroke="#2c2c2c" stroke-width="2"><g><path d="M 20.9226 19.8569C 18.7926 22.3953 15.008 22.7264 12.4696 20.5964C 9.9311 18.4664 9.6 14.6819 11.73 12.1434C 13.8601 9.605 17.6446 9.2739 20.183 11.4039C 22.7215 13.5339 23.0526 17.3184 20.9226 19.8569ZM 37.5234 100.6298C 56.8455 105.3159 76.308 93.4511 80.9941 74.129C 85.6802 54.8069 73.8154 35.3444 54.4933 30.6583C 47.756 29.0243 41.0017 29.4026 34.8627 31.4076L 21.5284 25.4883L 20.6816 40.0527C 16.087 44.5912 12.6565 50.4218 11.0225 57.1591C 6.3364 76.4812 18.2013 95.9437 37.5234 100.6298Z"></path></g></g></g><g id="g-root-cp_3_g-3_146q5hn1kdmgaz-stroke" data-item-order="999168747" transform="translate(447, 452)"><g id="cp_3_g-3_146q5hn1kdmgaz-stroke" fill="none" stroke-linecap="round" stroke-linejoin="round" stroke-miterlimit="4" stroke="#a6da37" stroke-width="2"><g><path d="M 136.0064 11.5117C 115.6248 8.0651 94.6498 10.5365 75.587 18.6767C 55.2729 27.3512 38.1071 42.046 26.404 60.7797C 14.701 79.5134 9.0237 101.385 10.1374 123.4456C 11.2512 145.5063 19.1025 166.6949 32.6328 184.1547M 189.2474 36.8346C 191.7742 39.0527 194.2037 41.3943 196.5262 43.854C 204.3771 52.1686 210.8103 61.626 215.6412 71.8459M 219.8682 82.1268C 222.1391 88.5753 223.8037 95.2565 224.8212 102.0865C 226.9265 116.2187 226.1961 130.5488 222.7584 144.262M 219.1973 155.7246C 217.892 159.226 216.4016 162.6687 214.7284 166.0378C 204.9035 185.8212 189.2487 202.1163 169.8749 212.726"></path></g></g></g><g id="g-root-cp_3_g-3_1_zqwnd71kdmh39-stroke" data-item-order="999168750" transform="translate(652, 554.3909912109375)"><g id="cp_3_g-3_1_zqwnd71kdmh39-stroke" fill="none" stroke-linecap="round" stroke-linejoin="round" stroke-miterlimit="4" stroke="#2c2c2c" stroke-width="2"><g><path d="M 20.5964 51.4662C 18.4664 54.0047 14.6819 54.3358 12.1434 52.2058C 9.605 50.0758 9.2739 46.2912 11.4039 43.7528C 13.5339 41.2143 17.3184 40.8832 19.8569 43.0132C 22.3953 45.1433 22.7264 48.9278 20.5964 51.4662ZM 100.8467 70.5231C 114.3904 55.9672 113.5698 33.1881 99.0139 19.6444C 84.4581 6.1008 61.6789 6.9213 48.1352 21.4772C 43.4128 26.5525 40.4368 32.6277 39.1805 38.9625L 27.4922 47.6931L 39.7784 55.5602C 41.4872 61.7882 44.8927 67.6335 49.968 72.3559C 64.5239 85.8995 87.3031 85.079 100.8467 70.5231Z"></path></g></g></g><g id="g-root-cp_2_g-2_qvw47f1kdmeq7-stroke" data-item-order="999168755" transform="translate(467, 472)"><g id="cp_2_g-2_qvw47f1kdmeq7-stroke" fill="none" stroke-linecap="round" stroke-linejoin="round" stroke-miterlimit="4" stroke="#43dd93" stroke-width="2"><g><path d="M 141.5789 174.452C 125.1857 183.7964 106.223 187.624 87.4887 185.3701C 68.7544 183.1161 51.2407 174.9001 37.5316 161.9341C 23.8226 148.9682 14.6442 131.9391 11.3508 113.3593C 8.0574 94.7795 10.8234 75.6332 19.2406 58.7452C 27.6579 41.8572 41.2805 28.122 58.0987 19.5662C 74.9169 11.0103 94.0399 8.087 112.6461 11.2274C 116.492 11.8766 120.2738 12.7777 123.969 13.919M 136.6824 18.9578C 145.8676 23.453 154.2574 29.5431 161.4347 37.0078C 168.371 44.2219 173.98 52.5171 178.0778 61.5095M 182.293 72.7269C 183.6631 77.2968 184.6659 81.9922 185.2807 86.7704"></path></g></g></g><g id="g-root-cp_2_g-2_1_mg2m2z1kdmfih-stroke" data-item-order="999168758" transform="translate(631.5, 462.366943359375)"><g id="cp_2_g-2_1_mg2m2z1kdmfih-stroke" fill="none" stroke-linecap="round" stroke-linejoin="round" stroke-miterlimit="4" stroke="#2c2c2c" stroke-width="2"><g><path d="M 20.5964 80.4897C 18.4664 83.0281 14.6819 83.3592 12.1434 81.2292C 9.605 79.0992 9.2739 75.3147 11.4039 72.7762C 13.5339 70.2378 17.3184 69.9067 19.8569 72.0367C 22.3953 74.1667 22.7264 77.9512 20.5964 80.4897ZM 74.1372 10.8208C 93.5703 15.0231 105.9173 34.1834 101.715 53.6165C 97.5126 73.0496 78.3523 85.3965 58.9193 81.1942C 52.1433 79.7289 46.2289 76.4451 41.5772 71.9652L 26.9961 71.4822L 32.5807 58.0044C 30.4231 51.9173 29.8763 45.1745 31.3416 38.3985C 35.5439 18.9655 54.7042 6.6185 74.1372 10.8208Z"></path></g></g></g><g id="g-root-cp_1_g-1_i093yj1kdmgar-stroke" data-item-order="999168763" transform="translate(491.29901123046875, 492)"><g id="cp_1_g-1_i093yj1kdmgar-stroke" fill="none" stroke-linecap="round" stroke-linejoin="round" stroke-miterlimit="4" stroke="#1ac3fb" stroke-width="2"><g><path d="M 86.4735 11.2101C 83.3177 10.6066 80.1099 10.2251 76.8731 10.074C 62.8266 9.4182 48.9222 13.1332 37.0746 20.7073M 98.0142 14.4949C 104.2654 16.8881 110.1658 20.2051 115.5076 24.3692C 126.598 33.0142 134.7355 44.8849 138.7997 58.3465C 142.8638 71.8082 142.6547 86.1987 138.2012 99.5366C 133.7476 112.8745 125.2686 124.5037 113.9318 132.8229C 102.5949 141.1421 88.9578 145.7421 74.8982 145.9895C 60.8386 146.2369 47.0481 142.1196 35.4255 134.2044C 23.803 126.2892 14.9201 114.9655 10 101.7926"></path></g></g></g><g id="g-root-cp_1_g-1_1_1qf2ma31kdmg3p-stroke" data-item-order="999168766" transform="translate(567.4979858398438, 411.4959716796875)"><g id="cp_1_g-1_1_1qf2ma31kdmg3p-stroke" fill="none" stroke-linecap="round" stroke-linejoin="round" stroke-miterlimit="4" stroke="#2c2c2c" stroke-width="2"><g><path d="M 20.5964 97.3608C 18.4664 99.8992 14.6819 100.2303 12.1434 98.1003C 9.605 95.9703 9.2739 92.1858 11.4039 89.6473C 13.5339 87.1089 17.3184 86.7778 19.8569 88.9078C 22.3953 91.0378 22.7264 94.8223 20.5964 97.3608ZM 45.5022 10.4276C 65.1511 7.3906 83.5417 20.8572 86.5787 40.5061C 89.6157 60.155 76.1491 78.5456 56.5002 81.5826C 49.649 82.6416 42.9508 81.694 37.0031 79.1776L 23.2164 83.9492L 23.603 69.3653C 19.4082 64.4549 16.4826 58.3553 15.4237 51.5041C 12.3866 31.8552 25.8533 13.4646 45.5022 10.4276Z"></path></g></g></g><g id="g-root-tx_1_dg2a8b1kduvb6-stroke" data-item-order="1000000000" transform="translate(596.5, 429.5)"></g><g id="g-root-tx_includes_1ha2hqj1kdw9vr-stroke" data-item-order="1000000000" transform="translate(820, 422)"></g><g id="g-root-tx_emphasiz_dg2a8b1kdw9hf-stroke" data-item-order="1000000000" transform="translate(123, 446)"></g><g id="g-root-tx_8_4o64i31kduu4h-stroke" data-item-order="1000000000" transform="translate(314, 422.5)"></g><g id="g-root-tx_geograph_1uuw4ej1kduww6-stroke" data-item-order="1000000000" transform="translate(820, 386)"></g><g id="g-root-tx_ethicsin_qqwbij1kdwb2a-stroke" data-item-order="1000000000" transform="translate(63, 374)"></g><g id="g-root-tx_9_1qdto3v1kduvia-stroke" data-item-order="1000000000" transform="translate(387, 305)"></g><g id="g-root-tx_coversan_958ksr1kduvid-stroke" data-item-order="1000000000" transform="translate(747, 296)"></g><g id="g-root-tx_2_18jfa6j1kduwoz-stroke" data-item-order="1000000000" transform="translate(675.5, 480)"></g><g id="g-root-tx_develops_18jfa6j1kdwav9-stroke" data-item-order="1000000000" transform="translate(171, 296)"></g><g id="g-root-ic_2_hs4xu31kdntvk-stroke" data-item-order="1000000000" transform="translate(530.906005859375, 536.133056640625)"><g id="ic_2_hs4xu31kdntvk-stroke" fill="none" stroke-linecap="round" stroke-linejoin="round" stroke-miterlimit="4" stroke="#2c2c2c" stroke-width="2"><g><path d="M 53.299999 56.400002L 18.89996 56.400002C 16.49996 56.400002 14.5 54.400002 14.5 52C 14.5 49.599998 16.49996 47.599998 18.89996 47.599998L 50.5 47.599998M 50.5 47.599998C 52.099998 47.599998 53.5 46.200001 53.5 44.599998L 53.5 14.6C 53.5 13 52.099998 11.600006 50.5 11.600006L 18.5 11.600006C 16.299999 11.600006 14.5 13.4 14.5 15.6L 14.5 52.599998M 50.5 47.599998L 50.5 56.400002M 36.900002 22.6C 41.299999 23.799999 44.5 28.000019 44.5 32.799999L 44.5 34.200001M 30.9 34.200001L 30.9 19.80002C 30.9 18.600021 31.700001 17.80002 32.900002 17.80002L 34.900002 17.80002C 36.099998 17.80002 36.900002 18.600021 36.900002 19.80002L 36.900002 34.200001M 47.299999 38.200001C 47.299999 39.400002 46.5 40.200001 45.299999 40.200001L 22.300041 40.200001C 21.10004 40.200001 20.300041 39.400002 20.300041 38.200001L 20.300041 36.200001C 20.300041 35 21.10004 34.200001 22.300041 34.200001L 45.299999 34.200001C 46.5 34.200001 47.299999 35 47.299999 36.200001L 47.299999 38.200001ZM 30.9 22.6C 26.500019 23.799999 23.300041 28.000019 23.300041 32.799999L 23.300041 34.200001"></path></g></g></g><g id="g-root-tx_polityco_zjeybv1kdw934-stroke" data-item-order="1000000000" transform="translate(819, 530)"></g><g id="g-root-tx_history_qvw47f1kduwb0-stroke" data-item-order="1000000000" transform="translate(747, 260)"></g><g id="g-root-tx_essaywri_4lruz1kdwb2c-stroke" data-item-order="1000000000" transform="translate(183, 260)"></g><g id="g-root-tx_7_vago5n1kduu4g-stroke" data-item-order="1000000000" transform="translate(300, 578)"></g><g id="g-root-tx_3_hx4qiz1kduwp0-stroke" data-item-order="1000000000" transform="translate(705, 572)"></g><g id="g-root-tx_environm_1hd6v631kdwb28-stroke" data-item-order="1000000000" transform="translate(87, 590)"></g><g id="g-root-tx_focuseso_dcbfpn1kdwbgp-stroke" data-item-order="1000000000" transform="translate(819, 590)"></g><g id="g-root-tx_focuseso_142ctvv1kdw9hd-stroke" data-item-order="1000000000" transform="translate(82.5, 638)"></g><g id="g-root-tx_10_147cmkr1kduuq3-stroke" data-item-order="1000000000" transform="translate(531, 235)"></g><g id="g-root-tx_keepscan_hx4qiz1kdwavb-stroke" data-item-order="1000000000" transform="translate(453, 134)"></g><g id="g-root-tx_4_4map8r1kduv45-stroke" data-item-order="1000000000" transform="translate(656.5, 687.5)"></g><g id="g-root-tx_6_145h7bf1kduvpr-stroke" data-item-order="1000000000" transform="translate(396, 713)"></g><g id="g-root-tx_currenta_v8l8wb1kdw9ae-stroke" data-item-order="1000000000" transform="translate(471, 98)"></g><g id="g-root-tx_governan_1heff1kdw9vu-stroke" data-item-order="1000000000" transform="translate(783, 710)"></g><g id="g-root-tx_dealswit_qpndcb1kdw8w5-stroke" data-item-order="1000000000" transform="translate(459, 866)"></g><g id="g-root-tx_addresse_1hbxwzv1kdw8w3-stroke" data-item-order="1000000000" transform="translate(783, 770)"></g><g id="g-root-tx_coverssc_1q8tvez1kdw9hr-stroke" data-item-order="1000000000" transform="translate(130.5, 790)"></g><g id="g-root-tx_sciencet_4ijuq31kdwb9q-stroke" data-item-order="1000000000" transform="translate(189, 778)"></g><g id="g-root-tx_economyb_140hemj1kdwah0-stroke" data-item-order="1000000000" transform="translate(453, 830)"></g><g id="g-root-tx_5_1hgxpor1kduu4u-stroke" data-item-order="1000000000" transform="translate(543, 749)"></g></g></g><path id="w1czw53f1ig8yyt" d="M65.283 12.757a.35.35 0 0 0 .584.157l5.203-5.141-6.183 3.523.396 1.461zm-2.216-11.7a.35.35 0 0 0-.522.305v3.111l3.276-1.868-2.754-1.548zm3.728 2.105l-4.25 2.421v2.445l6.391-3.644-2.141-1.222zm4.708 3.303a.35.35 0 0 0 0-.609l-1.592-.9-7.365 4.199v1.782a.35.35 0 0 0 .523.305l8.435-4.777z M44.542 2.513c0-.433.355-.783.792-.783s.792.35.792.783-.355.783-.792.783-.792-.35-.792-.783zm59.171 0c0-.433.355-.783.792-.783s.792.35.792.783-.355.783-.792.783-.792-.35-.792-.783zm-85.951 7.636h-1.27v-.487c-.276.201-.864.609-1.881.609-1.202 0-2.274-.794-2.137-2.078.118-1.106 1.153-1.584 1.848-1.727l2.17-.345c0-.539-.29-.956-1.064-1.006s-1.21.305-1.571 1.017l-1.124-.605c1.218-2.631 5.029-1.764 5.029.414v4.207zm-1.27-2.86c.006.396-.062 1.112-.819 1.59-.587.37-1.841.299-1.903-.395-.049-.555.461-.791.906-.898l1.816-.297zm72.662 2.86h-1.27v-.487c-.276.201-.864.609-1.881.609-1.202 0-2.274-.794-2.137-2.078.118-1.106 1.153-1.584 1.848-1.727l2.17-.345c0-.539-.29-.956-1.064-1.006s-1.21.305-1.571 1.017l-1.124-.605c1.218-2.631 5.029-1.764 5.029.414v4.207zm-1.27-2.86c.006.396-.062 1.112-.82 1.59-.587.37-1.841.299-1.903-.395-.049-.555.461-.791.906-.898l1.816-.297zM99.096 10.149H97.85v-8.45h1.246v4.895l2.68-2.559h1.738l-2.633 2.535 2.715 3.578h-1.556l-2.077-2.707-.867.844v1.863zm6.053-6.114h-1.255v6.113h1.255V4.035zm-59.2 0h-1.255v6.113h1.255V4.035zm5.584 6.113V1.697h1.255v2.695c.361-.346 1-.485 1.47-.485 1.452 0 2.477 1.082 2.457 2.448v3.792h-1.27v-3.68c0-.408-.214-1.339-1.315-1.339-.968 0-1.342.756-1.342 1.339v3.681h-1.255zm-4.76-4.894V4.039h.621a.45.45 0 0 0 .45-.45v-.855h1.251v1.305h1.309v1.215h-1.309v3.109c0 .293.105.664.648.664.365 0 .531-.035.736-.07v1.137s-.361.113-.857.113c-1.398 0-1.777-1.051-1.777-1.788V5.254h-1.071zM36.528 4.039h-1.394l2.191 6.106h1.125l1.234-3.918 1.238 3.918h1.129l2.188-6.106h-1.383l-1.359 3.93-1.256-3.93h-1.124l-1.242 3.957-1.348-3.957zM26.212 7.141c-.02 1.566 1.187 3.129 3.223 3.129 1.566 0 2.383-.918 2.734-1.719L31.172 8c-.315.399-.801 1.094-1.738 1.094-1.145 0-1.825-.781-1.891-1.52h4.625c.074-.284.148-.995-.03-1.559-.336-1.064-1.221-2.102-2.839-2.102s-3.088 1.152-3.088 3.227zm1.363-.75h3.348c-.055-.43-.566-1.301-1.623-1.301a1.79 1.79 0 0 0-1.725 1.301zm-8.758.75c.038 1.758 1.277 3.133 3.145 3.133 1.074 0 1.723-.477 1.961-.672v.547h1.242V1.703h-1.258v2.888c-.414-.36-1.062-.68-1.93-.68-1.91 0-3.198 1.473-3.16 3.23zm1.309-.08c0 1.119.723 1.978 1.836 1.978a1.88 1.88 0 0 0 1.94-1.904c0-1.371-1.011-1.99-1.972-1.99s-1.805.798-1.805 1.916zm76.683-.028C96.771 5.275 95.532 3.9 93.664 3.9c-1.074 0-1.723.477-1.961.672v-.547h-1.242v8.22h1.258V9.583c.414.36 1.063.68 1.93.68 1.91 0 3.198-1.473 3.16-3.23zm-1.309.08c0-1.119-.723-1.978-1.836-1.978a1.88 1.88 0 0 0-1.94 1.904c0 1.371 1.011 1.99 1.972 1.99S95.5 8.231 95.5 7.113zM106.441 10.173V4.036h1.254v.382c.361-.346 1-.485 1.47-.485 1.452 0 2.477 1.082 2.457 2.448v3.792h-1.27V6.492c0-.408-.214-1.339-1.315-1.339-.969 0-1.342.756-1.342 1.339v3.681h-1.254zm-30.383-.021V1.824h1.084l4.215 5.777V1.824h1.32v8.328h-1.094l-4.207-5.796v5.796h-1.319zM5.24 10.149H4V2.377h1.014l2.664 3.597 2.654-3.592h1.03v7.766h-1.256V4.762L7.678 8.068 5.24 4.742v5.407z" transform="translate(910, 958)" fill="#ababab88" stroke="none"></path></svg>