<?xml version="1.0" encoding="utf-8" standalone="yes"?>
<!DOCTYPE svg PUBLIC "-//W3C//DTD SVG 1.1//EN" "http://www.w3.org/Graphics/SVG/1.1/DTD/svg11.dtd">
<svg width="997" height="948" viewBox="0 0 997 948" style="fill:none;stroke:none;fill-rule:evenodd;clip-rule:evenodd;stroke-linecap:round;stroke-linejoin:round;stroke-miterlimit:1.5;" version="1.1" xmlns="http://www.w3.org/2000/svg" xmlns:xlink="http://www.w3.org/1999/xlink"><style class="text-font-style fontImports" data-font-family="Shantell Sans">@import url('https://fonts.googleapis.com/css2?family=Shantell+Sans:wght@300..800&amp;display=block');</style><g id="items" style="isolation: isolate"><g id="blend" style="mix-blend-mode: normal"><g id="g-root-cp_0_g-0_91hthk1i60ydi-fill" data-item-order="-808538" transform="translate(458, 488)"><g id="cp_0_g-0_91hthk1i60ydi-fill" stroke="none" fill="#2c2c2c"><g><path d="M 21.231 27.1473C 38.2711 6.8397 68.5473 4.1909 88.8549 21.231C 109.1625 38.2711 111.8113 68.5473 94.7712 88.8549C 77.7312 109.1625 47.4549 111.8113 27.1473 94.7712C 6.8397 77.7312 4.1909 47.4549 21.231 27.1473Z"></path></g></g></g><g id="g-root-cp_10_g-10_4masg81i60w00-fill" data-item-order="-808533" transform="translate(259.0000305175781, 288.070068359375)"></g><g id="g-root-cp_10_g-10_1_1qbyc201i60xdu-fill" data-item-order="-808530" transform="translate(470, 193)"><g id="cp_10_g-10_1_1qbyc201i60xdu-fill" stroke="none" fill="#2c2c2c"><g><path d="M 50.5495 108.81C 48.4195 111.3484 44.635 111.6795 42.0965 109.5495C 39.5581 107.4195 39.227 103.635 41.357 101.0965C 43.487 98.5581 47.2715 98.227 49.81 100.357C 52.3484 102.487 52.6795 106.2715 50.5495 108.81ZM 71.3456 20.4344C 57.2261 6.4364 34.4324 6.5349 20.4344 20.6544C 6.4364 34.7739 6.5349 57.5676 20.6544 71.5656C 25.5776 76.4464 31.5554 79.6134 37.8472 81.0698L 46.2032 93.0288L 54.4555 80.9981C 60.7345 79.4874 66.6848 76.2688 71.5656 71.3456C 85.5636 57.2261 85.4651 34.4324 71.3456 20.4344Z"></path></g></g></g><g id="g-root-cp_9_g-9_145haiw1i60wlo-fill" data-item-order="-808525" transform="translate(279, 322.840087890625)"></g><g id="g-root-cp_9_g-9_1_dj6qvc1i60wlq-fill" data-item-order="-808522" transform="translate(313.74200439453125, 262.22998046875)"><g id="cp_9_g-9_1_dj6qvc1i60wlq-fill" stroke="none" fill="#2c2c2c"><g><path d="M 93.8542 89.6264C 91.7242 92.1648 87.9397 92.4959 85.4012 90.3659C 82.8628 88.2359 82.5317 84.4514 84.6617 81.9129C 86.7917 79.3745 90.5762 79.0434 93.1147 81.1734C 95.6531 83.3034 95.9842 87.0879 93.8542 89.6264ZM 44.1537 10.0483C 24.2976 11.0685 9.0281 27.992 10.0483 47.848C 11.0685 67.7041 27.992 82.9736 47.848 81.9534C 54.7715 81.5977 61.1373 79.3085 66.4493 75.6356L 80.9181 77.5055L 77.5752 63.3046C 80.6844 57.644 82.3091 51.0771 81.9534 44.1537C 80.9333 24.2976 64.0097 9.0281 44.1537 10.0483Z"></path></g></g></g><g id="g-root-cp_8_g-8_93d8qw1i60xe0-fill" data-item-order="-808517" transform="translate(298.5000305175781, 328.5)"></g><g id="g-root-cp_8_g-8_1_4njqmg1i60y6a-fill" data-item-order="-808514" transform="translate(241.01199340820312, 380.159912109375)"><g id="cp_8_g-8_1_4njqmg1i60y6a-fill" stroke="none" fill="#2c2c2c"><g><path d="M 109.5847 49.6967C 107.4547 52.2352 103.6701 52.5663 101.1317 50.4362C 98.5933 48.3062 98.2621 44.5217 100.3922 41.9833C 102.5222 39.4448 106.3067 39.1137 108.8451 41.2437C 111.3836 43.3737 111.7147 47.1583 109.5847 49.6967ZM 20.7147 20.3748C 6.5622 34.3395 6.4101 57.1329 20.3748 71.2853C 34.3395 85.4377 57.1329 85.5899 71.2853 71.6252C 76.22 66.756 79.4526 60.8134 80.978 54.538L 93.0282 46.314L 81.0889 37.9299C 79.6474 31.6346 76.4944 25.6493 71.6252 20.7147C 57.6605 6.5622 34.8671 6.4101 20.7147 20.3748Z"></path></g></g></g><g id="g-root-cp_7_g-7_1ut0sco1i60yrw-fill" data-item-order="-808509" transform="translate(318.70098876953125, 348.5)"></g><g id="g-root-cp_7_g-7_1_1ut0sco1i60yry-fill" data-item-order="-808506" transform="translate(227.00399780273438, 537.172119140625)"><g id="cp_7_g-7_1_1ut0sco1i60yry-fill" stroke="none" fill="#2c2c2c"><g><path d="M 109.5925 51.185C 107.4625 53.7234 103.678 54.0545 101.1395 51.9245C 98.6011 49.7945 98.27 46.01 100.4 43.4715C 102.53 40.9331 106.3145 40.602 108.853 42.732C 111.3914 44.862 111.7225 48.6465 109.5925 51.185ZM 21.3242 19.7875C 6.8474 33.4156 6.1594 56.1992 19.7875 70.676C 33.4156 85.1528 56.1992 85.8408 70.676 72.2127C 75.7238 67.4608 79.0951 61.5959 80.7677 55.358L 93.0079 47.4196L 81.2691 38.7571C 79.9759 32.4297 76.9646 26.372 72.2127 21.3242C 58.5846 6.8474 35.801 6.1594 21.3242 19.7875Z"></path></g></g></g><g id="g-root-cp_6_g-6_1qdtrbc1i60weg-fill" data-item-order="-808501" transform="translate(337.9999694824219, 368)"></g><g id="g-root-cp_6_g-6_1_1ly096w1i60x6q-fill" data-item-order="-808498" transform="translate(322.2029724121094, 654)"><g id="cp_6_g-6_1_1ly096w1i60x6q-fill" stroke="none" fill="#2c2c2c"><g><path d="M 10.378231 68.8447C 13.235031 88.5207 31.501331 102.1553 51.177231 99.2986C 70.853231 96.4419 84.487931 78.1755 81.631131 58.4996C 80.635131 51.639 77.765531 45.5128 73.616031 40.5642L 74.136331 25.9844L 60.306531 30.6295C 54.382131 28.0585 47.692831 27.0496 40.832131 28.0457C 21.156231 30.9024 7.521531 49.1688 10.378231 68.8447ZM 85.393331 19.8569C 83.263331 22.3953 79.478731 22.7264 76.940331 20.5964C 74.401831 18.4664 74.070731 14.6819 76.200731 12.1434C 78.330831 9.605 82.115331 9.2739 84.653731 11.4039C 87.192231 13.5339 87.523331 17.3184 85.393331 19.8569Z"></path></g></g></g><g id="g-root-cp_5_g-5_1d2d8y01i60xzg-fill" data-item-order="-808493" transform="translate(357.9999694824219, 388)"></g><g id="g-root-cp_5_g-5_1_1d2d8y01i60xzi-fill" data-item-order="-808490" transform="translate(469.8280029296875, 678)"><g id="cp_5_g-5_1_1d2d8y01i60xzi-fill" stroke="none" fill="#2c2c2c"><g><path d="M 50.7683 19.8569C 48.6383 22.3953 44.8537 22.7264 42.3153 20.5964C 39.7768 18.4664 39.4457 14.6819 41.5757 12.1434C 43.7058 9.605 47.4903 9.2739 50.0287 11.4039C 52.5672 13.5339 52.8983 17.3184 50.7683 19.8569ZM 20.4327 100.4313C 34.4298 114.5517 57.2235 114.6517 71.3439 100.6547C 85.4643 86.6576 85.5643 63.8639 71.5673 49.7435C 66.6868 44.82 60.7368 41.601 54.4579 40.0899L 46.2064 28.0586L 37.8496 40.017C 31.5577 41.473 25.5796 44.6396 20.6561 49.5201C 6.5357 63.5172 6.4357 86.3109 20.4327 100.4313Z"></path></g></g></g><g id="g-root-cp_4_g-4_18mjqtk1i60yrs-fill" data-item-order="-808485" transform="translate(378.0000305175781, 435.922119140625)"></g><g id="g-root-cp_4_g-4_1_147cps81i60wea-fill" data-item-order="-808482" transform="translate(584.1740112304688, 626)"><g id="cp_4_g-4_1_147cps81i60wea-fill" stroke="none" fill="#2c2c2c"><g><path d="M 20.9226 19.8569C 18.7926 22.3953 15.008 22.7264 12.4696 20.5964C 9.9311 18.4664 9.6 14.6819 11.73 12.1434C 13.8601 9.605 17.6446 9.2739 20.183 11.4039C 22.7215 13.5339 23.0526 17.3184 20.9226 19.8569ZM 37.5234 100.6298C 56.8455 105.3159 76.308 93.4511 80.9941 74.129C 85.6802 54.8069 73.8154 35.3444 54.4933 30.6583C 47.756 29.0243 41.0017 29.4026 34.8627 31.4076L 21.5284 25.4883L 20.6816 40.0527C 16.087 44.5912 12.6565 50.4218 11.0225 57.1591C 6.3364 76.4812 18.2013 95.9437 37.5234 100.6298Z"></path></g></g></g><g id="g-root-cp_3_g-3_vbppjc1i60x70-fill" data-item-order="-808477" transform="translate(398, 428)"></g><g id="g-root-cp_3_g-3_1_vbppjc1i60x72-fill" data-item-order="-808474" transform="translate(603, 530.390869140625)"><g id="cp_3_g-3_1_vbppjc1i60x72-fill" stroke="none" fill="#2c2c2c"><g><path d="M 20.5964 51.4662C 18.4664 54.0047 14.6819 54.3358 12.1434 52.2058C 9.605 50.0758 9.2739 46.2912 11.4039 43.7528C 13.5339 41.2143 17.3184 40.8832 19.8569 43.0132C 22.3953 45.1433 22.7264 48.9278 20.5964 51.4662ZM 100.8467 70.5231C 114.3904 55.9672 113.5698 33.1881 99.0139 19.6444C 84.4581 6.1008 61.6789 6.9213 48.1352 21.4772C 43.4128 26.5525 40.4368 32.6277 39.1805 38.9625L 27.4922 47.6931L 39.7784 55.5602C 41.4872 61.7882 44.8927 67.6335 49.968 72.3559C 64.5239 85.8995 87.3031 85.079 100.8467 70.5231Z"></path></g></g></g><g id="g-root-cp_2_g-2_qvw7ew1i60xzc-fill" data-item-order="-808469" transform="translate(417.9999694824219, 448)"></g><g id="g-root-cp_2_g-2_1_mg2pag1i60yrm-fill" data-item-order="-808466" transform="translate(582.5, 438.366943359375)"><g id="cp_2_g-2_1_mg2pag1i60yrm-fill" stroke="none" fill="#2c2c2c"><g><path d="M 20.5964 80.4897C 18.4664 83.0281 14.6819 83.3592 12.1434 81.2292C 9.605 79.0992 9.2739 75.3147 11.4039 72.7762C 13.5339 70.2378 17.3184 69.9067 19.8569 72.0367C 22.3953 74.1667 22.7264 77.9512 20.5964 80.4897ZM 74.1372 10.8208C 93.5703 15.0231 105.9173 34.1834 101.715 53.6165C 97.5126 73.0496 78.3523 85.3965 58.9193 81.1942C 52.1433 79.7289 46.2289 76.4451 41.5772 71.9652L 26.9961 71.4822L 32.5807 58.0044C 30.4231 51.9173 29.8763 45.1745 31.3416 38.3985C 35.5439 18.9655 54.7042 6.6185 74.1372 10.8208Z"></path></g></g></g><g id="g-root-cp_1_g-1_dl264o1i60wek-fill" data-item-order="-808461" transform="translate(442.29901123046875, 468)"></g><g id="g-root-cp_1_g-1_1_dl264o1i60wem-fill" data-item-order="-808458" transform="translate(518.4979858398438, 387.49609375)"><g id="cp_1_g-1_1_dl264o1i60wem-fill" stroke="none" fill="#2c2c2c"><g><path d="M 20.5964 97.3608C 18.4664 99.8992 14.6819 100.2303 12.1434 98.1003C 9.605 95.9703 9.2739 92.1858 11.4039 89.6473C 13.5339 87.1089 17.3184 86.7778 19.8569 88.9078C 22.3953 91.0378 22.7264 94.8223 20.5964 97.3608ZM 45.5022 10.4276C 65.1511 7.3906 83.5417 20.8572 86.5787 40.5061C 89.6157 60.155 76.1491 78.5456 56.5002 81.5826C 49.649 82.6416 42.9508 81.694 37.0031 79.1776L 23.2164 83.9492L 23.603 69.3653C 19.4082 64.4549 16.4826 58.3553 15.4237 51.5041C 12.3866 31.8552 25.8533 13.4646 45.5022 10.4276Z"></path></g></g></g><g id="g-root-tx_shortrev_145hdoo1i60xs3-fill" data-item-order="0" transform="translate(50, 416)"><g id="tx_shortrev_145hdoo1i60xs3-fill" stroke="none" fill="#2c2c2c"><g><text style="font: 15px &quot;Shantell Sans&quot;, cursive; white-space: pre;" font-size="15px" font-family="'Shantell Sans', cursive"><tspan x="25.57" y="28.77" dominant-baseline="ideographic">Short reviews before </tspan><tspan x="15.8" y="46.77" dominant-baseline="ideographic">sleep using flashcards</tspan></text></g></g></g><g id="g-root-tx_1_v6q0081i5zk02-fill" data-item-order="0" transform="translate(547.5, 405.5)"><g id="tx_1_v6q0081i5zk02-fill" stroke="none" fill="#f4f4f4"><g><text style="font: bold 30px &quot;Shantell Sans&quot;, cursive; white-space: pre;" font-weight="bold" font-size="30px" font-family="'Shantell Sans', cursive"><tspan x="15.17" y="47.55" dominant-baseline="ideographic">1</tspan></text></g></g></g><g id="g-root-tx_50minute_8x4l1k1i60w7j-fill" data-item-order="0" transform="translate(771, 404)"><g id="tx_50minute_8x4l1k1i60w7j-fill" stroke="none" fill="#2c2c2c"><g><text style="font: 15px &quot;Shantell Sans&quot;, cursive; white-space: pre;" font-size="15px" font-family="'Shantell Sans', cursive"><tspan x="12" y="31.77" dominant-baseline="ideographic">50 minutes of study </tspan><tspan x="12" y="49.77" dominant-baseline="ideographic">followed by a 10-</tspan><tspan x="12" y="67.77" dominant-baseline="ideographic">minute break</tspan></text></g></g></g><g id="g-root-tx_8_147csy01i5zim9-fill" data-item-order="0" transform="translate(259, 398.5)"><g id="tx_8_147csy01i5zim9-fill" stroke="none" fill="#f4f4f4"><g><text style="font: bold 30px &quot;Shantell Sans&quot;, cursive; white-space: pre;" font-weight="bold" font-size="30px" font-family="'Shantell Sans', cursive"><tspan x="17.5" y="47.55" dominant-baseline="ideographic">8</tspan></text></g></g></g><g id="g-root-tx_5010rule_v3lmko1i60wzq-fill" data-item-order="0" transform="translate(771, 368)"><g id="tx_5010rule_v3lmko1i60wzq-fill" stroke="none" fill="#2c2c2c"><g><text style="font: bold 20px &quot;Shantell Sans&quot;, cursive; white-space: pre;" font-weight="bold" font-size="20px" font-family="'Shantell Sans', cursive"><tspan x="12" y="34.75" dominant-baseline="ideographic">50-10 Rule</tspan></text></g></g></g><g id="g-root-tx_dailyrev_1hgxw201i60w76-fill" data-item-order="0" transform="translate(50, 380)"><g id="tx_dailyrev_1hgxw201i60w76-fill" stroke="none" fill="#2c2c2c"><g><text style="font: bold 20px &quot;Shantell Sans&quot;, cursive; white-space: pre;" font-weight="bold" font-size="20px" font-family="'Shantell Sans', cursive"><tspan x="19.93" y="34.75" dominant-baseline="ideographic">Daily Revisions</tspan></text></g></g></g><g id="g-root-tx_consiste_18efnuw1i60ykl-fill" data-item-order="0" transform="translate(698, 284)"><g id="tx_consiste_18efnuw1i60ykl-fill" stroke="none" fill="#2c2c2c"><g><text style="font: 15px &quot;Shantell Sans&quot;, cursive; white-space: pre;" font-size="15px" font-family="'Shantell Sans', cursive"><tspan x="12" y="28.77" dominant-baseline="ideographic">Consistent daily slots </tspan><tspan x="12" y="46.77" dominant-baseline="ideographic">to reduce stress</tspan></text></g></g></g><g id="g-root-tx_9_i0vrew1i5zhu2-fill" data-item-order="0" transform="translate(332, 281)"><g id="tx_9_i0vrew1i5zhu2-fill" stroke="none" fill="#f4f4f4"><g><text style="font: bold 30px &quot;Shantell Sans&quot;, cursive; white-space: pre;" font-weight="bold" font-size="30px" font-family="'Shantell Sans', cursive"><tspan x="17.5" y="47.55" dominant-baseline="ideographic">9</tspan></text></g></g></g><g id="g-root-tx_2_1uqiz601i5zhfv-fill" data-item-order="0" transform="translate(620.5, 456)"><g id="tx_2_1uqiz601i5zhfv-fill" stroke="none" fill="#f4f4f4"><g><text style="font: bold 30px &quot;Shantell Sans&quot;, cursive; white-space: pre;" font-weight="bold" font-size="30px" font-family="'Shantell Sans', cursive"><tspan x="17.5" y="47.55" dominant-baseline="ideographic">2</tspan></text></g></g></g><g id="g-root-tx_userelia_4njts81i60ykt-fill" data-item-order="0" transform="translate(134, 284)"><g id="tx_userelia_4njts81i60ykt-fill" stroke="none" fill="#2c2c2c"><g><text style="font: 15px &quot;Shantell Sans&quot;, cursive; white-space: pre;" font-size="15px" font-family="'Shantell Sans', cursive"><tspan x="34.35" y="31.77" dominant-baseline="ideographic">Use reliable study </tspan><tspan x="11.79" y="49.77" dominant-baseline="ideographic">materials like NCERT </tspan><tspan x="121.32" y="67.77" dominant-baseline="ideographic">books</tspan></text></g></g></g><g id="g-root-ic_flip_dcbix41i62d55-fill" data-item-order="0" transform="translate(481.906005859375, 512.133056640625)"></g><g id="g-root-tx_prioriti_8ydj7s1i60ydk-fill" data-item-order="0" transform="translate(770, 512)"><g id="tx_prioriti_8ydj7s1i60ydk-fill" stroke="none" fill="#2c2c2c"><g><text style="font: bold 20px &quot;Shantell Sans&quot;, cursive; white-space: pre;" font-weight="bold" font-size="20px" font-family="'Shantell Sans', cursive"><tspan x="12" y="34.75" dominant-baseline="ideographic">Prioritize </tspan><tspan x="12" y="58.75" dominant-baseline="ideographic">Topics</tspan></text></g></g></g><g id="g-root-tx_sleepfit_924dqg1i60we8-fill" data-item-order="0" transform="translate(38, 536)"><g id="tx_sleepfit_924dqg1i60we8-fill" stroke="none" fill="#2c2c2c"><g><text style="font: bold 20px &quot;Shantell Sans&quot;, cursive; white-space: pre;" font-weight="bold" font-size="20px" font-family="'Shantell Sans', cursive"><tspan x="20.57" y="34.75" dominant-baseline="ideographic">Sleep &amp; Fitness</tspan></text></g></g></g><g id="g-root-tx_weeklyro_1lpw6881i60wzo-fill" data-item-order="0" transform="translate(698, 248)"><g id="tx_weeklyro_1lpw6881i60wzo-fill" stroke="none" fill="#2c2c2c"><g><text style="font: bold 20px &quot;Shantell Sans&quot;, cursive; white-space: pre;" font-weight="bold" font-size="20px" font-family="'Shantell Sans', cursive"><tspan x="12" y="34.75" dominant-baseline="ideographic">Weekly Routine</tspan></text></g></g></g><g id="g-root-tx_trustedr_hz0c5k1i60wzw-fill" data-item-order="0" transform="translate(170, 224)"><g id="tx_trustedr_hz0c5k1i60wzw-fill" stroke="none" fill="#2c2c2c"><g><text style="font: bold 20px &quot;Shantell Sans&quot;, cursive; white-space: pre;" font-weight="bold" font-size="20px" font-family="'Shantell Sans', cursive"><tspan x="48.13" y="34.75" dominant-baseline="ideographic">Trusted </tspan><tspan x="22.43" y="58.75" dominant-baseline="ideographic">Resources</tspan></text></g></g></g><g id="g-root-tx_7_1hi6u881i5zk74-fill" data-item-order="0" transform="translate(245, 554)"><g id="tx_7_1hi6u881i5zk74-fill" stroke="none" fill="#f4f4f4"><g><text style="font: bold 30px &quot;Shantell Sans&quot;, cursive; white-space: pre;" font-weight="bold" font-size="30px" font-family="'Shantell Sans', cursive"><tspan x="17.5" y="47.55" dominant-baseline="ideographic">7</tspan></text></g></g></g><g id="g-root-tx_3_1448fig1i5zhfw-fill" data-item-order="0" transform="translate(650, 548)"><g id="tx_3_1448fig1i5zhfw-fill" stroke="none" fill="#f4f4f4"><g><text style="font: bold 30px &quot;Shantell Sans&quot;, cursive; white-space: pre;" font-weight="bold" font-size="30px" font-family="'Shantell Sans', cursive"><tspan x="17.5" y="47.55" dominant-baseline="ideographic">3</tspan></text></g></g></g><g id="g-root-tx_reflecto_1upwi2w1i60yrp-fill" data-item-order="0" transform="translate(404, 842)"><g id="tx_reflecto_1upwi2w1i60yrp-fill" stroke="none" fill="#2c2c2c"><g><text style="font: 15px &quot;Shantell Sans&quot;, cursive; white-space: pre;" font-size="15px" font-family="'Shantell Sans', cursive"><tspan x="16.92" y="28.77" dominant-baseline="ideographic">Reflect on progress every </tspan><tspan x="82.96" y="46.77" dominant-baseline="ideographic">Sunday</tspan></text></g></g></g><g id="g-root-tx_focusonk_1q8u1s81i60xdt-fill" data-item-order="0" transform="translate(770, 572)"><g id="tx_focusonk_1q8u1s81i60xdt-fill" stroke="none" fill="#2c2c2c"><g><text style="font: 15px &quot;Shantell Sans&quot;, cursive; white-space: pre;" font-size="15px" font-family="'Shantell Sans', cursive"><tspan x="12" y="31.77" dominant-baseline="ideographic">Focus on key subjects </tspan><tspan x="12" y="49.77" dominant-baseline="ideographic">like Polity, Science, </tspan><tspan x="12" y="67.77" dominant-baseline="ideographic">Reasoning, Quant</tspan></text></g></g></g><g id="g-root-tx_10_4pf91k1i5zjez-fill" data-item-order="0" transform="translate(482, 211)"><g id="tx_10_4pf91k1i5zjez-fill" stroke="none" fill="#f4f4f4"><g><text style="font: bold 30px &quot;Shantell Sans&quot;, cursive; white-space: pre;" font-weight="bold" font-size="30px" font-family="'Shantell Sans', cursive"><tspan x="17.12" y="47.55" dominant-baseline="ideographic">10</tspan></text></g></g></g><g id="g-root-tx_stayconn_18n6b2g1i60w07-fill" data-item-order="0" transform="translate(404, 134)"><g id="tx_stayconn_18n6b2g1i60w07-fill" stroke="none" fill="#2c2c2c"><g><text style="font: 15px &quot;Shantell Sans&quot;, cursive; white-space: pre;" font-size="15px" font-family="'Shantell Sans', cursive"><tspan x="12.87" y="28.77" dominant-baseline="ideographic">Stay connected with peers </tspan><tspan x="57.67" y="46.77" dominant-baseline="ideographic">for motivation</tspan></text></g></g></g><g id="g-root-tx_4_924dqg1i5zi85-fill" data-item-order="0" transform="translate(601.5, 663.5)"><g id="tx_4_924dqg1i5zi85-fill" stroke="none" fill="#f4f4f4"><g><text style="font: bold 30px &quot;Shantell Sans&quot;, cursive; white-space: pre;" font-weight="bold" font-size="30px" font-family="'Shantell Sans', cursive"><tspan x="17.5" y="47.55" dominant-baseline="ideographic">4</tspan></text></g></g></g><g id="g-root-tx_limitdis_18jfgjs1i60xzi-fill" data-item-order="0" transform="translate(158, 686)"><g id="tx_limitdis_18jfgjs1i60xzi-fill" stroke="none" fill="#2c2c2c"><g><text style="font: bold 20px &quot;Shantell Sans&quot;, cursive; white-space: pre;" font-weight="bold" font-size="20px" font-family="'Shantell Sans', cursive"><tspan x="89.43" y="34.75" dominant-baseline="ideographic">Limit </tspan><tspan x="13.24" y="58.75" dominant-baseline="ideographic">Distractions</tspan></text></g></g></g><g id="g-root-tx_6_1qdtuh41i5zimn-fill" data-item-order="0" transform="translate(341, 689)"><g id="tx_6_1qdtuh41i5zimn-fill" stroke="none" fill="#f4f4f4"><g><text style="font: bold 30px &quot;Shantell Sans&quot;, cursive; white-space: pre;" font-weight="bold" font-size="30px" font-family="'Shantell Sans', cursive"><tspan x="17.5" y="47.55" dominant-baseline="ideographic">6</tspan></text></g></g></g><g id="g-root-tx_studygro_1ly0cco1i60xl2-fill" data-item-order="0" transform="translate(428, 98)"><g id="tx_studygro_1ly0cco1i60xl2-fill" stroke="none" fill="#2c2c2c"><g><text style="font: bold 20px &quot;Shantell Sans&quot;, cursive; white-space: pre;" font-weight="bold" font-size="20px" font-family="'Shantell Sans', cursive"><tspan x="17.71" y="34.75" dominant-baseline="ideographic">Study Groups</tspan></text></g></g></g><g id="g-root-tx_setweekl_142d0941i60wlm-fill" data-item-order="0" transform="translate(734, 686)"><g id="tx_setweekl_142d0941i60wlm-fill" stroke="none" fill="#2c2c2c"><g><text style="font: bold 20px &quot;Shantell Sans&quot;, cursive; white-space: pre;" font-weight="bold" font-size="20px" font-family="'Shantell Sans', cursive"><tspan x="12" y="34.75" dominant-baseline="ideographic">Set Weekly </tspan><tspan x="12" y="58.75" dominant-baseline="ideographic">Goals</tspan></text></g></g></g><g id="g-root-tx_5_4njts81i5zkem-fill" data-item-order="0" transform="translate(494, 725)"><g id="tx_5_4njts81i5zkem-fill" stroke="none" fill="#f4f4f4"><g><text style="font: bold 30px &quot;Shantell Sans&quot;, cursive; white-space: pre;" font-weight="bold" font-size="30px" font-family="'Shantell Sans', cursive"><tspan x="12.63" y="47.55" dominant-baseline="ideographic">5</tspan></text></g></g></g><g id="g-root-tx_minimize_qsrx541i60x6v-fill" data-item-order="0" transform="translate(110, 746)"><g id="tx_minimize_qsrx541i60x6v-fill" stroke="none" fill="#2c2c2c"><g><text style="font: 15px &quot;Shantell Sans&quot;, cursive; white-space: pre;" font-size="15px" font-family="'Shantell Sans', cursive"><tspan x="24.17" y="31.77" dominant-baseline="ideographic">Minimize interruptions </tspan><tspan x="19.45" y="49.77" dominant-baseline="ideographic">with visuals like locked </tspan><tspan x="143.83" y="67.77" dominant-baseline="ideographic">phone</tspan></text></g></g></g><g id="g-root-tx_establis_qqwhvs1i60y6j-fill" data-item-order="0" transform="translate(734, 746)"><g id="tx_establis_qqwhvs1i60y6j-fill" stroke="none" fill="#2c2c2c"><g><text style="font: 15px &quot;Shantell Sans&quot;, cursive; white-space: pre;" font-size="15px" font-family="'Shantell Sans', cursive"><tspan x="12" y="31.77" dominant-baseline="ideographic">Establish clear </tspan><tspan x="12" y="49.77" dominant-baseline="ideographic">objectives for the </tspan><tspan x="12" y="67.77" dominant-baseline="ideographic">week</tspan></text></g></g></g><g id="g-root-tx_selfrevi_908yh41i60xdw-fill" data-item-order="0" transform="translate(440, 806)"><g id="tx_selfrevi_908yh41i60xdw-fill" stroke="none" fill="#2c2c2c"><g><text style="font: bold 20px &quot;Shantell Sans&quot;, cursive; white-space: pre;" font-weight="bold" font-size="20px" font-family="'Shantell Sans', cursive"><tspan x="15.95" y="34.75" dominant-baseline="ideographic">Self-Review</tspan></text></g></g></g><g id="g-root-tx_ensuread_1urrxc81i60xs1-fill" data-item-order="0" transform="translate(38, 572)"><g id="tx_ensuread_1urrxc81i60xs1-fill" stroke="none" fill="#2c2c2c"><g><text style="font: 15px &quot;Shantell Sans&quot;, cursive; white-space: pre;" font-size="15px" font-family="'Shantell Sans', cursive"><tspan x="20.95" y="28.77" dominant-baseline="ideographic">Ensure adequate rest </tspan><tspan x="25.93" y="46.77" dominant-baseline="ideographic">and physical activity</tspan></text></g></g></g><g id="g-root-cp_0_g-0_91hthk1i60ydi-stroke" data-item-order="-808538" transform="translate(458, 488)"><g id="cp_0_g-0_91hthk1i60ydi-stroke" fill="none" stroke-linecap="round" stroke-linejoin="round" stroke-miterlimit="4" stroke="#2c2c2c" stroke-width="4"><g><path d="M 21.2 27.1C 29.2 16.5 41.6 11.2 53.9 10.2C 66.1 9.2 77.7 14.1 88.9 21.2C 111.2 35.5 112.2 68.9 94.8 88.9C 86.3 98.6 74.7 102.9 63 105.7C 50.8 108.7 36.5 104.6 27.1 94.8C 18.2 85.4 12.7 74.8 10.3 63.1C 7.7 50.7 12.6 37.6 21.2 27.1"></path><path d="M 21.231 27.1473C 38.2711 6.8397 68.5473 4.1909 88.8549 21.231C 109.1625 38.2711 111.8113 68.5473 94.7712 88.8549C 77.7312 109.1625 47.4549 111.8113 27.1473 94.7712C 6.8397 77.7312 4.1909 47.4549 21.231 27.1473Z"></path></g></g></g><g id="g-root-cp_10_g-10_4masg81i60w00-stroke" data-item-order="-808533" transform="translate(259.0000305175781, 288.070068359375)"><g id="cp_10_g-10_4masg81i60w00-stroke" fill="none" stroke-linecap="round" stroke-linejoin="round" stroke-miterlimit="4" stroke="#2c2c2c" stroke-width="2"><g><path d="M 55.199969 114.5C 58.399969 111.5 60.899969 107.8 63.099969 103.9C 69.899969 92.1 80.399969 83 90.699969 74.3C 100.899969 65.7 110.399969 56 122.199969 49.9M 133.599969 43C 149.199969 33.6 166.799969 28.3 183.699969 21.1C 204.799969 12 228.199969 9.7 250.999969 10M 9.999969 259.3C 10.799969 253.1 9.499969 246.7 10.499969 240.5C 14.399969 217.9 15.299969 194.7 24.399969 173.9M 21.199969 330.4C 28.399969 348 33.499969 366.9 44.499969 382.8M 262.999969 10C 285.499969 11.4 308.499969 13 329.999969 21C 341.399969 25.2 352.799969 29.2 363.799969 34.2C 374.899969 39.3 384.999969 46.3 395.499969 52.4C 406.999969 59.2 416.799969 68.6 426.699969 77.5C 435.499969 85.3 443.399969 94.3 450.699969 103.6C 466.499969 123.8 479.699969 145.8 488.099969 169.6C 495.999969 192.3 500.099969 216 503.399969 240.1C 506.799969 264 503.899969 288.4 497.899969 311.5C 491.499969 336.2 482.499969 360.1 469.699969 382.5C 456.599969 405.3 438.299969 424.1 419.899969 442.6C 403.499969 459.1 382.299969 470 361.299969 480.8"></path><path d="M 55.203969 114.4945C 57.733569 110.9108 60.362769 107.3885 63.089969 103.932C 79.831269 82.7138 99.840869 64.5115 122.238769 49.9297M 133.610569 42.9562C 149.354369 33.8772 166.133469 26.5165 183.671769 21.064C 205.603869 14.2455 228.249769 10.5581 250.954469 10.0023M 10.011569 259.3202C 9.950869 253.0528 10.128669 246.7696 10.548069 240.4839C 12.072969 217.6308 16.758469 195.2357 24.371369 173.9049M 21.175369 330.3838C 26.851369 348.6068 34.650369 366.2068 44.482269 382.8058M 262.952369 10C 285.568069 10.5451 308.127569 14.1973 329.983269 20.957C 377.645369 35.6983 419.726269 64.5272 450.686169 103.6484C 481.646069 142.7696 500.033469 190.3492 503.427769 240.1233C 506.822069 289.8974 495.064169 339.5327 469.701969 382.4948C 444.339669 425.4568 406.562069 459.7316 361.342469 480.8069"></path></g></g></g><g id="g-root-cp_10_g-10_1_1qbyc201i60xdu-stroke" data-item-order="-808530" transform="translate(470, 193)"><g id="cp_10_g-10_1_1qbyc201i60xdu-stroke" fill="none" stroke-linecap="round" stroke-linejoin="round" stroke-miterlimit="4" stroke="#2c2c2c" stroke-width="4"><g><path d="M 50.5 108.8C 48.2 111.2 44.5 111.8 42.1 109.5C 39.7 107.3 39.3 103.7 41.4 101.1C 43.5 98.5 47.1 98.4 49.8 100.4C 52.5 102.3 52.2 105.9 50.5 108.8M 71.3 20.4C 65.4 13.3 56.2 9.4 47.6 10C 37.8 10.8 27.8 13.1 20.4 20.7C 6.6 34.9 7 57.1 20.7 71.6C 25.4 76.6 31.7 79.2 37.8 81.1C 41.2 84.6 44.2 88.6 46.2 93C 48 88.5 52.2 85.3 54.5 81C 60.9 80.8 66.8 76.4 71.6 71.3C 85.1 56.8 85.9 34 71.3 20.4"></path><path d="M 50.5495 108.81C 48.4195 111.3484 44.635 111.6795 42.0965 109.5495C 39.5581 107.4195 39.227 103.635 41.357 101.0965C 43.487 98.5581 47.2715 98.227 49.81 100.357C 52.3484 102.487 52.6795 106.2715 50.5495 108.81ZM 71.3456 20.4344C 57.2261 6.4364 34.4324 6.5349 20.4344 20.6544C 6.4364 34.7739 6.5349 57.5676 20.6544 71.5656C 25.5776 76.4464 31.5554 79.6134 37.8472 81.0698L 46.2032 93.0288L 54.4555 80.9981C 60.7345 79.4874 66.6848 76.2688 71.5656 71.3456C 85.5636 57.2261 85.4651 34.4324 71.3456 20.4344Z"></path></g></g></g><g id="g-root-cp_9_g-9_145haiw1i60wlo-stroke" data-item-order="-808525" transform="translate(279, 322.840087890625)"><g id="cp_9_g-9_145haiw1i60wlo-stroke" fill="none" stroke-linecap="round" stroke-linejoin="round" stroke-miterlimit="4" stroke="#2c2c2c" stroke-width="2"><g><path d="M 129.3 22.3C 138.3 18.3 147 13.5 156.3 10M 118.9 28.3C 105.4 36.3 92 45.1 81.5 56.8C 70.1 69.5 56.7 80.9 48.3 96C 47.9 96.7 47.5 97.4 47 98M 10.1 228.1C 9.5 195.4 15.5 163 28.2 133.2M 19.2 286.1C 24.5 298.4 26.4 312.4 33.9 323.6C 41.7 335 46.3 348.6 55.8 358.8C 58.7 362.1 62.2 365.1 64 369.1M 118.5 415.8C 134.1 425.3 150.7 433.3 168.4 438.6C 180.5 442.1 192.5 446.9 204.9 446.9M 268.7 446.9C 281.3 444.2 294.1 442.3 306.4 438.3C 326.7 431.6 346.1 422.7 363.4 410.7C 384.3 396.2 403.6 379 418.8 358.1C 433.4 338.1 446.1 316.6 452.7 293C 458.6 271.8 464.6 250 463.9 227.7C 463.2 202.7 462.9 177.3 453.7 154.5C 445.5 134.1 438.5 112.9 425.2 95.2"></path><path d="M 129.2965 22.3391C 137.9762 17.6608 146.9857 13.5347 156.2757 10M 118.8897 28.3086C 90.8666 45.3827 66.7318 68.4207 48.3066 95.9722C 47.8611 96.6383 47.4194 97.3066 46.9813 97.9768M 10.078 228.1105C 9.2195 195.3624 15.4609 162.9885 28.1795 133.15M 19.1807 286.0659C 26.8418 312.1784 39.1808 336.8546 55.7563 358.8354C 58.4091 362.3534 61.1582 365.7859 63.999 369.13M 118.4925 415.7721C 134.0649 425.304 150.8174 432.9757 168.4212 438.5547C 180.3839 442.3459 192.5819 445.1206 204.8887 446.8792M 268.7402 446.9319C 281.4687 445.1346 294.0811 442.2508 306.4375 438.2807C 351.2994 423.8669 390.5639 395.8496 418.785 358.1147C 447.0061 320.3799 462.7848 274.798 463.9327 227.6915C 465.0806 180.5849 451.5406 134.2886 425.191 95.224"></path></g></g></g><g id="g-root-cp_9_g-9_1_dj6qvc1i60wlq-stroke" data-item-order="-808522" transform="translate(313.74200439453125, 262.22998046875)"><g id="cp_9_g-9_1_dj6qvc1i60wlq-stroke" fill="none" stroke-linecap="round" stroke-linejoin="round" stroke-miterlimit="4" stroke="#2c2c2c" stroke-width="4"><g><path d="M 93.9 89.6C 91.9 92.3 87.5 92.9 85.4 90.4C 83.3 87.8 82.5 84.4 84.7 81.9C 86.8 79.4 91.4 78.3 93.1 81.2C 94.8 84 95.8 86.9 93.9 89.6M 44.2 10C 24.3 10.9 9.9 28 10 47.8C 10.2 67.7 28.1 84.4 47.8 82C 54.7 81.1 61.7 80 66.4 75.6C 70.9 77.6 76.4 75.8 80.9 77.5C 80.5 72.7 79.1 67.9 77.6 63.3C 80.5 57.5 81.5 51.1 82 44.2C 83.2 24.3 64 9.9 44.2 10"></path><path d="M 93.8542 89.6264C 91.7242 92.1648 87.9397 92.4959 85.4012 90.3659C 82.8628 88.2359 82.5317 84.4514 84.6617 81.9129C 86.7917 79.3745 90.5762 79.0434 93.1147 81.1734C 95.6531 83.3034 95.9842 87.0879 93.8542 89.6264ZM 44.1537 10.0483C 24.2976 11.0685 9.0281 27.992 10.0483 47.848C 11.0685 67.7041 27.992 82.9736 47.848 81.9534C 54.7715 81.5977 61.1373 79.3085 66.4493 75.6356L 80.9181 77.5055L 77.5752 63.3046C 80.6844 57.644 82.3091 51.0771 81.9534 44.1537C 80.9333 24.2976 64.0097 9.0281 44.1537 10.0483Z"></path></g></g></g><g id="g-root-cp_8_g-8_93d8qw1i60xe0-stroke" data-item-order="-808517" transform="translate(298.5000305175781, 328.5)"><g id="cp_8_g-8_93d8qw1i60xe0-stroke" fill="none" stroke-linecap="round" stroke-linejoin="round" stroke-miterlimit="4" stroke="#2c2c2c" stroke-width="2"><g><path d="M 51.499969 93C 63.599969 78.2 76.799969 64.4 91.599969 52.6C 107.099969 40.2 124.299969 29.1 143.599969 23.6C 164.899969 17.6 185.899969 9.8 207.799969 10.2C 227.999969 10.6 247.999969 12.4 267.999969 16.2C 290.699969 20.6 311.299969 31.7 330.799969 43.7C 347.099969 53.7 361.299969 67 374.199969 81.5C 384.299969 92.8 392.899969 105.4 399.999969 118.7C 406.499969 131 412.299969 143.8 415.999969 157.2C 419.499969 169.8 421.999969 182.7 423.899969 195.8C 425.799969 208.9 425.199969 222.2 424.199969 235.3C 423.199969 249.3 421.499969 263.6 416.399969 276.7C 410.899969 290.5 407.499969 305.4 399.099969 317.9C 389.099969 332.8 379.199969 347.4 367.599969 360.8M 320.799969 397.5C 316.899969 399.8 312.399969 401.1 308.799969 403.8M 44.599969 102.8C 32.499969 119.9 23.499969 139.2 18.299969 159.3C 13.199969 179.2 10.399969 199.6 9.999969 220.3C 9.799969 229.9 10.699969 239.5 12.399969 248.9M 14.599969 260.8C 19.499969 288.9 31.199969 316 48.999969 338.7"></path><path d="M 51.499969 92.9999C 74.984069 61.6872 106.893569 37.5978 143.590669 23.6092C 183.325669 8.4626 226.754769 5.8898 268.000169 16.2391C 309.245469 26.5883 346.315269 49.3598 374.192269 81.4714C 402.069269 113.5831 419.407269 153.4843 423.859569 195.7745C 428.311869 238.0647 419.663469 280.7018 399.085069 317.9148C 390.425069 333.5752 379.828269 347.9566 367.612469 360.7568M 320.797869 397.4608C 316.879969 399.7096 312.880969 401.8349 308.805869 403.8317M 44.598969 102.7765C 21.518669 137.5607 9.456869 178.5151 10.018769 220.2908C 10.148269 229.9178 10.946669 239.483 12.392669 248.9218M 14.569369 260.8069C 20.525769 288.7165 32.207769 315.2458 49.040769 338.6518"></path></g></g></g><g id="g-root-cp_8_g-8_1_4njqmg1i60y6a-stroke" data-item-order="-808514" transform="translate(241.01199340820312, 380.159912109375)"><g id="cp_8_g-8_1_4njqmg1i60y6a-stroke" fill="none" stroke-linecap="round" stroke-linejoin="round" stroke-miterlimit="4" stroke="#2c2c2c" stroke-width="4"><g><path d="M 109.6 49.7C 107.9 52.5 103.1 53.1 101.1 50.4C 99.2 47.8 98.2 44.5 100.4 42C 102.6 39.5 106.2 39.3 108.8 41.2C 111.5 43.2 112.4 47.9 109.6 49.7M 20.7 20.4C 5.8 33.6 6.4 57.1 20.4 71.3C 34.3 85.4 56.5 84.9 71.3 71.6C 76.5 67 79.7 60.9 81 54.5C 85 51.8 89.1 49.2 93 46.3C 88.9 43.8 85.2 40.5 81.1 37.9C 80.9 31.5 76.5 25.6 71.6 20.7C 57.6 6.6 34.1 5.7 20.7 20.4"></path><path d="M 109.5847 49.6967C 107.4547 52.2352 103.6701 52.5663 101.1317 50.4362C 98.5933 48.3062 98.2621 44.5217 100.3922 41.9833C 102.5222 39.4448 106.3067 39.1137 108.8451 41.2437C 111.3836 43.3737 111.7147 47.1583 109.5847 49.6967ZM 20.7147 20.3748C 6.5622 34.3395 6.4101 57.1329 20.3748 71.2853C 34.3395 85.4377 57.1329 85.5899 71.2853 71.6252C 76.22 66.756 79.4526 60.8134 80.978 54.538L 93.0282 46.314L 81.0889 37.9299C 79.6474 31.6346 76.4944 25.6493 71.6252 20.7147C 57.6605 6.5622 34.8671 6.4101 20.7147 20.3748Z"></path></g></g></g><g id="g-root-cp_7_g-7_1ut0sco1i60yrw-stroke" data-item-order="-808509" transform="translate(318.70098876953125, 348.5)"><g id="cp_7_g-7_1ut0sco1i60yrw-stroke" fill="none" stroke-linecap="round" stroke-linejoin="round" stroke-miterlimit="4" stroke="#2c2c2c" stroke-width="2"><g><path d="M 196.7 10C 209.7 9.5 222.7 11.1 235.3 13.9C 247.8 16.7 259.7 21.8 272 25.5C 282.2 28.6 292 33.8 300.1 40.7C 313.6 52.1 329.2 61.2 339.5 75.3C 350.7 90.5 362.1 105.7 369.5 123.3C 375 136.6 379.9 150.1 381.8 164.2C 383.6 177.2 386.1 190.3 384.7 203.4M 10 206.2C 11.8 214 11.2 222.2 12.6 230M 15.1 241.7C 18.8 254.3 22.7 266.7 28.2 278.5C 33 288.9 38.8 298.8 45.8 308C 52.9 317.3 60.3 326.4 68.9 334.2M 374 260.1C 367.7 282.5 355.2 303.1 339.2 320.1M 226.1 382.8C 230.6 382.7 234.9 381 239.4 380.2C 254.5 377.4 268.7 371.5 282.3 364.6M 77.6 341.8C 92.4 356.5 112.2 365.1 131.7 373.2C 143.4 378 156.3 379 168.2 382.7"></path><path d="M 196.7015 10.001C 233.4414 9.8838 269.4061 20.563 300.1283 40.7121C 330.8504 60.8611 354.976 89.592 369.5083 123.3359C 380.4285 148.6925 385.5699 176.04 384.7061 203.4142M 10 206.1724C 10.3717 214.201 11.2577 222.1671 12.6417 230.0245M 15.0927 241.7383C 20.861 265.4959 31.2485 288.0121 45.7868 307.9545C 52.6989 317.436 60.4521 326.2023 68.9253 334.1616M 374.0321 260.1243C 366.2603 282.0567 354.451 302.4141 339.1529 320.1125M 226.0693 382.7797C 230.5317 382.0868 234.9779 381.2312 239.3992 380.2125C 254.3568 376.766 268.7536 371.5154 282.2945 364.6289M 77.5761 341.8004C 93.6625 355.1469 111.9521 365.78 131.7395 373.1649C 143.6053 377.5934 155.8295 380.7864 168.2215 382.7316"></path></g></g></g><g id="g-root-cp_7_g-7_1_1ut0sco1i60yry-stroke" data-item-order="-808506" transform="translate(227.00399780273438, 537.172119140625)"><g id="cp_7_g-7_1_1ut0sco1i60yry-stroke" fill="none" stroke-linecap="round" stroke-linejoin="round" stroke-miterlimit="4" stroke="#2c2c2c" stroke-width="4"><g><path d="M 109.6 51.2C 108.1 54.1 103.7 54 101.1 51.9C 98.6 49.8 98.1 45.9 100.4 43.5C 102.7 41.1 106.6 40.3 108.9 42.7C 111.1 45.2 111.9 48.8 109.6 51.2M 21.3 19.8C 5.7 32 6.9 55.5 19.8 70.7C 32.7 85.8 56.8 86.5 70.7 72.2C 75.5 67.2 79.8 61.7 80.8 55.4C 84.2 52 88.7 49.6 93 47.4C 88.7 45.1 85.4 41.3 81.3 38.8C 79.6 32.5 76.6 26.7 72.2 21.3C 59.6 6 35.9 6.2 21.3 19.8"></path><path d="M 109.5925 51.185C 107.4625 53.7234 103.678 54.0545 101.1395 51.9245C 98.6011 49.7945 98.27 46.01 100.4 43.4715C 102.53 40.9331 106.3145 40.602 108.853 42.732C 111.3914 44.862 111.7225 48.6465 109.5925 51.185ZM 21.3242 19.7875C 6.8474 33.4156 6.1594 56.1992 19.7875 70.676C 33.4156 85.1528 56.1992 85.8408 70.676 72.2127C 75.7238 67.4608 79.0951 61.5959 80.7677 55.358L 93.0079 47.4196L 81.2691 38.7571C 79.9759 32.4297 76.9646 26.372 72.2127 21.3242C 58.5846 6.8474 35.801 6.1594 21.3242 19.7875Z"></path></g></g></g><g id="g-root-cp_6_g-6_1qdtrbc1i60weg-stroke" data-item-order="-808501" transform="translate(337.9999694824219, 368)"><g id="cp_6_g-6_1qdtrbc1i60weg-stroke" fill="none" stroke-linecap="round" stroke-linejoin="round" stroke-miterlimit="4" stroke="#2c2c2c" stroke-width="2"><g><path d="M 60.500031 298.1C 46.600031 286.6 35.400031 271.5 28.500031 254.6C 16.500031 225.5 8.600031 195.1 10.600031 163.7C 11.500031 149.4 16.200031 135.8 19.600031 122C 23.800031 105.5 33.400031 90.8 43.700031 77.1C 52.900031 64.9 62.600031 52.5 75.600031 44.8C 89.500031 36.6 103.200031 28.6 117.700031 21.2C 130.800031 14.5 145.700031 11.5 160.200031 10.9C 176.900031 10.4 193.500031 10.4 210.100031 13.1M 69.300031 306.1C 76.000031 312.5 85.100031 315.9 91.900031 322.3C 112.800031 341.7 144.200031 344.4 172.500031 345.9M 183.400031 345.9C 208.100031 344.9 232.600031 339.3 254.300031 327.7"></path><path d="M 60.480131 298.0545C 47.615231 285.4611 36.795931 270.8209 28.503731 254.6475C 14.123531 226.5997 7.923631 195.0723 10.612531 163.6679C 13.301531 132.2635 24.770731 102.2489 43.709731 77.054C 62.648731 51.8592 88.293431 32.5003 117.713431 21.1896C 147.133431 9.8789 179.141831 7.0727 210.081131 13.0916M 69.347831 306.1356C 76.389431 312.1065 83.939531 317.5108 91.933331 322.2793C 116.411331 336.8812 144.157531 344.9898 172.546831 345.9116M 183.421131 345.9126C 208.152331 345.1142 232.332331 338.8656 254.260731 327.6942"></path></g></g></g><g id="g-root-cp_6_g-6_1_1ly096w1i60x6q-stroke" data-item-order="-808498" transform="translate(322.2029724121094, 654)"><g id="cp_6_g-6_1_1ly096w1i60x6q-stroke" fill="none" stroke-linecap="round" stroke-linejoin="round" stroke-miterlimit="4" stroke="#2c2c2c" stroke-width="4"><g><path d="M 10.400031 68.8C 12.000031 88.7 31.400031 101.4 51.200031 99.3C 70.900031 97.2 83.400031 78.3 81.600031 58.5C 81.000031 51.6 76.400031 46.4 73.600031 40.6C 73.100031 35.7 73.100031 30.7 74.100031 26C 69.400031 27.2 65.200031 30.4 60.300031 30.6C 54.200031 28.6 47.500031 26.2 40.800031 28C 21.600031 33.3 7.000031 49.3 10.400031 68.8M 85.400031 19.9C 83.400031 22.5 80.000031 21.9 76.900031 20.6C 73.900031 19.3 74.900031 15.2 76.200031 12.1C 77.500031 9.1 82.500031 8.9 84.700031 11.4C 86.800031 13.9 87.800031 17.6 85.400031 19.9"></path><path d="M 10.378231 68.8447C 13.235031 88.5207 31.501331 102.1553 51.177231 99.2986C 70.853231 96.4419 84.487931 78.1755 81.631131 58.4996C 80.635131 51.639 77.765531 45.5128 73.616031 40.5642L 74.136331 25.9844L 60.306531 30.6295C 54.382131 28.0585 47.692831 27.0496 40.832131 28.0457C 21.156231 30.9024 7.521531 49.1688 10.378231 68.8447ZM 85.393331 19.8569C 83.263331 22.3953 79.478731 22.7264 76.940331 20.5964C 74.401831 18.4664 74.070731 14.6819 76.200731 12.1434C 78.330831 9.605 82.115331 9.2739 84.653731 11.4039C 87.192231 13.5339 87.523331 17.3184 85.393331 19.8569Z"></path></g></g></g><g id="g-root-cp_5_g-5_1d2d8y01i60xzg-stroke" data-item-order="-808493" transform="translate(357.9999694824219, 388)"><g id="cp_5_g-5_1d2d8y01i60xzg-stroke" fill="none" stroke-linecap="round" stroke-linejoin="round" stroke-miterlimit="4" stroke="#2c2c2c" stroke-width="2"><g><path d="M 152.000031 305.9C 135.600031 304.8 119.700031 300.6 103.800031 295.7C 89.100031 291.1 76.400031 281.9 64.300031 272.6C 53.000031 263.8 42.100031 253.5 35.300031 240.7C 21.100031 214.3 11.500031 186.5 10.000031 156.6C 9.300031 143 13.000031 129.8 15.900031 116.8C 19.300031 100.9 25.900031 85.1 36.900031 72.9C 56.900031 50.6 78.100031 28.9 106.400031 19.3C 134.600031 9.7 164.600031 7.3 193.500031 14.3M 247.000031 39.8C 255.300031 45.4 262.400031 52.7 269.100031 60.3C 270.500031 61.8 272.500031 63.1 273.200031 65.1M 303.400031 130.2C 303.100031 133.7 304.300031 137.1 305.000031 140.5M 164.000031 305.9C 173.200031 305.2 183.000031 306.1 191.400031 302.2"></path><path d="M 152.001231 305.8784C 135.559831 305.2114 119.251731 301.8036 103.768931 295.7062C 75.894631 284.7288 52.007831 265.5507 35.266431 240.7071C 18.524931 215.8634 9.717031 186.5241 10.006931 156.5675C 10.296931 126.6108 19.671131 97.4475 36.890431 72.9326C 54.109731 48.4177 78.363231 29.7056 106.444831 19.2698C 134.309931 8.9146 164.642531 7.1923 193.491731 14.3186M 247.044331 39.7835C 255.047231 45.8115 262.457231 52.6666 269.141131 60.2675C 270.532731 61.85 271.888231 63.4595 273.207031 65.0949M 303.365631 130.1996C 304.015831 133.5996 304.548131 137.0294 304.959731 140.4831M 163.999031 305.8785C 173.176431 305.5063 182.343031 304.2787 191.378931 302.1869"></path></g></g></g><g id="g-root-cp_5_g-5_1_1d2d8y01i60xzi-stroke" data-item-order="-808490" transform="translate(469.8280029296875, 678)"><g id="cp_5_g-5_1_1d2d8y01i60xzi-stroke" fill="none" stroke-linecap="round" stroke-linejoin="round" stroke-miterlimit="4" stroke="#2c2c2c" stroke-width="4"><g><path d="M 50.8 19.9C 49 22.7 45 22.5 42.3 20.6C 39.6 18.7 38.8 13.9 41.6 12.1C 44.4 10.4 48.1 8.7 50 11.4C 51.9 14.1 53.2 17.6 50.8 19.9M 20.4 100.4C 34.8 114.2 57.3 114.7 71.3 100.7C 85.4 86.6 86.5 62.9 71.6 49.7C 66.4 45.2 60.9 40.7 54.5 40.1C 52.3 35.7 48.7 32.2 46.2 28.1C 42.9 31.7 40.8 36.1 37.8 40C 31.4 40 25.6 44.6 20.7 49.5C 6.5 63.5 6.9 85.9 20.4 100.4"></path><path d="M 50.7683 19.8569C 48.6383 22.3953 44.8537 22.7264 42.3153 20.5964C 39.7768 18.4664 39.4457 14.6819 41.5757 12.1434C 43.7058 9.605 47.4903 9.2739 50.0287 11.4039C 52.5672 13.5339 52.8983 17.3184 50.7683 19.8569ZM 20.4327 100.4313C 34.4298 114.5517 57.2235 114.6517 71.3439 100.6547C 85.4643 86.6576 85.5643 63.8639 71.5673 49.7435C 66.6868 44.82 60.7368 41.601 54.4579 40.0899L 46.2064 28.0586L 37.8496 40.017C 31.5577 41.473 25.5796 44.6396 20.6561 49.5201C 6.5357 63.5172 6.4357 86.3109 20.4327 100.4313Z"></path></g></g></g><g id="g-root-cp_4_g-4_18mjqtk1i60yrs-stroke" data-item-order="-808485" transform="translate(378.0000305175781, 435.922119140625)"><g id="cp_4_g-4_18mjqtk1i60yrs-stroke" fill="none" stroke-linecap="round" stroke-linejoin="round" stroke-miterlimit="4" stroke="#2c2c2c" stroke-width="2"><g><path d="M 217.999969 210C 212.999969 215 206.899969 218.8 200.499969 221.8C 177.399969 232.8 152.399969 240.8 126.999969 237.6C 114.899969 236.1 102.799969 234 91.599969 229.4C 79.399969 224.3 67.299969 218.4 57.399969 209.5C 38.299969 192.4 21.499969 172 15.499969 147.1C 9.399969 122.2 8.099969 96.4 15.799969 72C 23.499969 47.6 37.499969 25.1 58.199969 10M 226.999969 202.1C 237.199969 192 246.899969 180.9 252.399969 167.5C 255.199969 160.7 258.499969 154.3 260.499969 147.3M 263.799969 133.7C 266.499969 120.6 267.999969 106.7 264.899969 93.4C 264.199969 90.2 264.699969 86.6 263.199969 83.6M 239.199969 31.7C 237.599969 29.3 234.699969 27.8 233.699969 25.1"></path><path d="M 217.974269 210.018C 212.496669 214.4014 206.644069 218.346 200.465769 221.8004C 178.117769 234.2954 152.536169 239.8012 127.026469 237.6062C 101.516869 235.4111 77.251769 225.6162 57.366769 209.4871C 37.481869 193.358 22.890969 171.6361 15.479669 147.1283C 8.068369 122.6205 8.177269 96.4533 15.792269 72.008C 23.407269 47.5628 38.178469 25.963 58.196969 10M 226.982969 202.0884C 237.281169 192.1291 245.891169 180.4568 252.389969 167.5137C 255.670969 160.9792 258.370869 154.2066 260.476369 147.2736M 263.798269 133.716C 266.280169 120.5076 266.680469 106.9176 264.914669 93.4443C 264.480669 90.1329 263.918469 86.8484 263.231069 83.5976M 239.171169 31.6656C 237.433369 29.4235 235.617669 27.2348 233.725969 25.1038"></path></g></g></g><g id="g-root-cp_4_g-4_1_147cps81i60wea-stroke" data-item-order="-808482" transform="translate(584.1740112304688, 626)"><g id="cp_4_g-4_1_147cps81i60wea-stroke" fill="none" stroke-linecap="round" stroke-linejoin="round" stroke-miterlimit="4" stroke="#2c2c2c" stroke-width="4"><g><path d="M 20.9 19.9C 18.5 22.1 15.1 22.6 12.5 20.6C 9.8 18.6 9.8 14.8 11.7 12.1C 13.7 9.5 18.1 8.8 20.2 11.4C 22.2 14 22 16.7 20.9 19.9M 37.5 100.6C 48 102.9 59.4 102.1 66.6 95.2C 72.7 89.3 77.6 82.7 81 74.1C 88.3 55.6 74.2 33.4 54.5 30.7C 47.6 29.7 41.3 30.5 34.9 31.4C 30.5 29.4 26 27.5 21.5 25.5C 21 30.3 20.4 35.2 20.7 40.1C 15.8 44.2 12.4 50.4 11 57.2C 7 76.6 17.9 97.7 37.5 100.6"></path><path d="M 20.9226 19.8569C 18.7926 22.3953 15.008 22.7264 12.4696 20.5964C 9.9311 18.4664 9.6 14.6819 11.73 12.1434C 13.8601 9.605 17.6446 9.2739 20.183 11.4039C 22.7215 13.5339 23.0526 17.3184 20.9226 19.8569ZM 37.5234 100.6298C 56.8455 105.3159 76.308 93.4511 80.9941 74.129C 85.6802 54.8069 73.8154 35.3444 54.4933 30.6583C 47.756 29.0243 41.0017 29.4026 34.8627 31.4076L 21.5284 25.4883L 20.6816 40.0527C 16.087 44.5912 12.6565 50.4218 11.0225 57.1591C 6.3364 76.4812 18.2013 95.9437 37.5234 100.6298Z"></path></g></g></g><g id="g-root-cp_3_g-3_vbppjc1i60x70-stroke" data-item-order="-808477" transform="translate(398, 428)"><g id="cp_3_g-3_vbppjc1i60x70-stroke" fill="none" stroke-linecap="round" stroke-linejoin="round" stroke-miterlimit="4" stroke="#2c2c2c" stroke-width="2"><g><path d="M 136 11.5C 115.5 8.8 95.2 11.8 75.6 18.7C 54.7 26 38 42 26.4 60.8C 14.8 79.6 10.1 101.4 10.1 123.4C 10.2 145.5 18.9 166.9 32.6 184.2M 189.2 36.8C 191.8 39.1 194.6 41 196.5 43.9C 202.9 53.4 211.7 61.2 215.6 71.8M 219.9 82.1C 223.2 88.1 222.8 95.5 224.8 102.1C 229.1 115.7 227 130.8 222.8 144.3M 219.2 155.7C 217.2 158.9 216.4 162.7 214.7 166C 204.7 185.7 190.1 203.9 169.9 212.7"></path><path d="M 136.0064 11.5117C 115.6248 8.0651 94.6498 10.5365 75.587 18.6767C 55.2729 27.3512 38.1071 42.046 26.404 60.7797C 14.701 79.5134 9.0237 101.385 10.1374 123.4456C 11.2512 145.5063 19.1025 166.6949 32.6328 184.1547M 189.2474 36.8346C 191.7742 39.0527 194.2037 41.3943 196.5262 43.854C 204.3771 52.1686 210.8103 61.626 215.6412 71.8459M 219.8682 82.1268C 222.1391 88.5753 223.8037 95.2565 224.8212 102.0865C 226.9265 116.2187 226.1961 130.5488 222.7584 144.262M 219.1973 155.7246C 217.892 159.226 216.4016 162.6687 214.7284 166.0378C 204.9035 185.8212 189.2487 202.1163 169.8749 212.726"></path></g></g></g><g id="g-root-cp_3_g-3_1_vbppjc1i60x72-stroke" data-item-order="-808474" transform="translate(603, 530.390869140625)"><g id="cp_3_g-3_1_vbppjc1i60x72-stroke" fill="none" stroke-linecap="round" stroke-linejoin="round" stroke-miterlimit="4" stroke="#2c2c2c" stroke-width="4"><g><path d="M 20.6 51.5C 18 53.6 14.2 54.8 12.1 52.2C 10.1 49.6 8.7 45.6 11.4 43.8C 14.1 41.9 16.7 41.9 19.9 43C 23 44.1 22.9 49 20.6 51.5M 100.8 70.5C 115.2 56.8 113.8 33 99 19.6C 84.2 6.3 61.2 6.5 48.1 21.5C 43.6 26.7 38.9 32.5 39.2 39C 34.9 41.3 31.3 44.6 27.5 47.7C 32 49.5 35.3 53.6 39.8 55.6C 41 61.9 45 67.5 50 72.4C 64.2 86.2 87.2 84.9 100.8 70.5"></path><path d="M 20.5964 51.4662C 18.4664 54.0047 14.6819 54.3358 12.1434 52.2058C 9.605 50.0758 9.2739 46.2912 11.4039 43.7528C 13.5339 41.2143 17.3184 40.8832 19.8569 43.0132C 22.3953 45.1433 22.7264 48.9278 20.5964 51.4662ZM 100.8467 70.5231C 114.3904 55.9672 113.5698 33.1881 99.0139 19.6444C 84.4581 6.1008 61.6789 6.9213 48.1352 21.4772C 43.4128 26.5525 40.4368 32.6277 39.1805 38.9625L 27.4922 47.6931L 39.7784 55.5602C 41.4872 61.7882 44.8927 67.6335 49.968 72.3559C 64.5239 85.8995 87.3031 85.079 100.8467 70.5231Z"></path></g></g></g><g id="g-root-cp_2_g-2_qvw7ew1i60xzc-stroke" data-item-order="-808469" transform="translate(417.9999694824219, 448)"><g id="cp_2_g-2_qvw7ew1i60xzc-stroke" fill="none" stroke-linecap="round" stroke-linejoin="round" stroke-miterlimit="4" stroke="#2c2c2c" stroke-width="2"><g><path d="M 141.600031 174.5C 126.100031 185.3 106.300031 186.6 87.500031 185.4C 68.700031 184.1 50.600031 175.5 37.500031 161.9C 24.400031 148.3 14.700031 131.9 11.400031 113.4C 8.000031 94.8 10.300031 75.4 19.200031 58.7C 28.100031 42.1 42.000031 29.4 58.100031 19.6C 74.200031 9.8 94.300031 6.6 112.600031 11.2C 116.400031 12.2 120.100031 14.2 124.000031 13.9M 136.700031 19C 146.600031 21.6 154.700031 29.1 161.400031 37C 167.900031 44.6 173.300031 52.9 178.100031 61.5M 182.300031 72.7C 182.700031 77.5 184.600031 82 185.300031 86.8"></path><path d="M 141.578931 174.452C 125.185731 183.7964 106.223031 187.624 87.488731 185.3701C 68.754431 183.1161 51.240731 174.9001 37.531631 161.9341C 23.822631 148.9682 14.644231 131.9391 11.350831 113.3593C 8.057431 94.7795 10.823431 75.6332 19.240631 58.7452C 27.657931 41.8572 41.280531 28.122 58.098731 19.5662C 74.916931 11.0103 94.039931 8.087 112.646131 11.2274C 116.492031 11.8766 120.273831 12.7777 123.969031 13.919M 136.682431 18.9578C 145.867631 23.453 154.257431 29.5431 161.434731 37.0078C 168.371031 44.2219 173.980031 52.5171 178.077831 61.5095M 182.293031 72.7269C 183.663131 77.2968 184.665931 81.9922 185.280731 86.7704"></path></g></g></g><g id="g-root-cp_2_g-2_1_mg2pag1i60yrm-stroke" data-item-order="-808466" transform="translate(582.5, 438.366943359375)"><g id="cp_2_g-2_1_mg2pag1i60yrm-stroke" fill="none" stroke-linecap="round" stroke-linejoin="round" stroke-miterlimit="4" stroke="#2c2c2c" stroke-width="4"><g><path d="M 20.6 80.5C 18.4 83 14.1 83.9 12.1 81.2C 10.2 78.5 9.1 75.1 11.4 72.8C 13.7 70.4 18 69.3 19.9 72C 21.8 74.8 22.5 77.8 20.6 80.5M 74.1 10.8C 93.6 14.8 107.5 34.6 101.7 53.6C 95.9 72.6 78.3 85.8 58.9 81.2C 52.2 79.6 46 76.7 41.6 72C 36.8 71.3 31.9 71.7 27 71.5C 29.6 67.4 30.7 62.5 32.6 58C 31 51.7 30.1 45.2 31.3 38.4C 34.9 18.8 54.5 7.7 74.1 10.8"></path><path d="M 20.5964 80.4897C 18.4664 83.0281 14.6819 83.3592 12.1434 81.2292C 9.605 79.0992 9.2739 75.3147 11.4039 72.7762C 13.5339 70.2378 17.3184 69.9067 19.8569 72.0367C 22.3953 74.1667 22.7264 77.9512 20.5964 80.4897ZM 74.1372 10.8208C 93.5703 15.0231 105.9173 34.1834 101.715 53.6165C 97.5126 73.0496 78.3523 85.3965 58.9193 81.1942C 52.1433 79.7289 46.2289 76.4451 41.5772 71.9652L 26.9961 71.4822L 32.5807 58.0044C 30.4231 51.9173 29.8763 45.1745 31.3416 38.3985C 35.5439 18.9655 54.7042 6.6185 74.1372 10.8208Z"></path></g></g></g><g id="g-root-cp_1_g-1_dl264o1i60wek-stroke" data-item-order="-808461" transform="translate(442.29901123046875, 468)"><g id="cp_1_g-1_dl264o1i60wek-stroke" fill="none" stroke-linecap="round" stroke-linejoin="round" stroke-miterlimit="4" stroke="#2c2c2c" stroke-width="2"><g><path d="M 86.5 11.2C 83.3 11.4 80 10.9 76.9 10.1C 63.3 6.3 48.6 12.7 37.1 20.7M 98 14.5C 104.5 16.2 110 20.4 115.5 24.4C 126.9 32.7 136.7 44.5 138.8 58.3C 140.9 72.2 141.4 85.8 138.2 99.5C 135 113.2 124.8 123.9 113.9 132.8C 103.1 141.8 88.9 147.1 74.9 146C 60.9 144.9 46.2 143.3 35.4 134.2C 24.7 125.1 14 115.3 10 101.8"></path><path d="M 86.4735 11.2101C 83.3177 10.6066 80.1099 10.2251 76.8731 10.074C 62.8266 9.4182 48.9222 13.1332 37.0746 20.7073M 98.0142 14.4949C 104.2654 16.8881 110.1658 20.2051 115.5076 24.3692C 126.598 33.0142 134.7355 44.8849 138.7997 58.3465C 142.8638 71.8082 142.6547 86.1987 138.2012 99.5366C 133.7476 112.8745 125.2686 124.5037 113.9318 132.8229C 102.5949 141.1421 88.9578 145.7421 74.8982 145.9895C 60.8386 146.2369 47.0481 142.1196 35.4255 134.2044C 23.803 126.2892 14.9201 114.9655 10 101.7926"></path></g></g></g><g id="g-root-cp_1_g-1_1_dl264o1i60wem-stroke" data-item-order="-808458" transform="translate(518.4979858398438, 387.49609375)"><g id="cp_1_g-1_1_dl264o1i60wem-stroke" fill="none" stroke-linecap="round" stroke-linejoin="round" stroke-miterlimit="4" stroke="#2c2c2c" stroke-width="4"><g><path d="M 20.6 97.4C 17.7 99.1 14.9 99.9 12.1 98.1C 9.4 96.3 9.2 92.1 11.4 89.6C 13.6 87.2 16.7 87.8 19.9 88.9C 23 90 23.1 95.2 20.6 97.4M 45.5 10.4C 65.1 7.1 85.4 20.7 86.6 40.5C 87.7 60.4 76.1 78.1 56.5 81.6C 49.7 82.8 43.3 80.7 37 79.2C 32.5 80.9 28 83.2 23.2 83.9C 22.4 79.2 23.7 74.2 23.6 69.4C 18.9 64.9 17.8 58 15.4 51.5C 8.5 32.9 25.9 13.9 45.5 10.4"></path><path d="M 20.5964 97.3608C 18.4664 99.8992 14.6819 100.2303 12.1434 98.1003C 9.605 95.9703 9.2739 92.1858 11.4039 89.6473C 13.5339 87.1089 17.3184 86.7778 19.8569 88.9078C 22.3953 91.0378 22.7264 94.8223 20.5964 97.3608ZM 45.5022 10.4276C 65.1511 7.3906 83.5417 20.8572 86.5787 40.5061C 89.6157 60.155 76.1491 78.5456 56.5002 81.5826C 49.649 82.6416 42.9508 81.694 37.0031 79.1776L 23.2164 83.9492L 23.603 69.3653C 19.4082 64.4549 16.4826 58.3553 15.4237 51.5041C 12.3866 31.8552 25.8533 13.4646 45.5022 10.4276Z"></path></g></g></g><g id="g-root-tx_shortrev_145hdoo1i60xs3-stroke" data-item-order="0" transform="translate(50, 416)"></g><g id="g-root-tx_1_v6q0081i5zk02-stroke" data-item-order="0" transform="translate(547.5, 405.5)"></g><g id="g-root-tx_50minute_8x4l1k1i60w7j-stroke" data-item-order="0" transform="translate(771, 404)"></g><g id="g-root-tx_8_147csy01i5zim9-stroke" data-item-order="0" transform="translate(259, 398.5)"></g><g id="g-root-tx_5010rule_v3lmko1i60wzq-stroke" data-item-order="0" transform="translate(771, 368)"></g><g id="g-root-tx_dailyrev_1hgxw201i60w76-stroke" data-item-order="0" transform="translate(50, 380)"></g><g id="g-root-tx_consiste_18efnuw1i60ykl-stroke" data-item-order="0" transform="translate(698, 284)"></g><g id="g-root-tx_9_i0vrew1i5zhu2-stroke" data-item-order="0" transform="translate(332, 281)"></g><g id="g-root-tx_2_1uqiz601i5zhfv-stroke" data-item-order="0" transform="translate(620.5, 456)"></g><g id="g-root-tx_userelia_4njts81i60ykt-stroke" data-item-order="0" transform="translate(134, 284)"></g><g id="g-root-ic_flip_dcbix41i62d55-stroke" data-item-order="0" transform="translate(481.906005859375, 512.133056640625)"><g id="ic_flip_dcbix41i62d55-stroke" fill="none" stroke-linecap="round" stroke-linejoin="round" stroke-miterlimit="4" stroke="#f4f4f4" stroke-width="2"><g><path d="M 45 45C 44 44.799999 43.200001 46 43 47C 42.400002 50.200001 44.200001 54 43 57C 33.799999 55.799999 24.4 56.799999 15 57C 13.8 57 13.2 56 13 55C 10 42.599998 13.8 29.6 13 17C 13 15.8 14 14.6 15 15C 27 19.200001 40.599998 12.8 53 15C 54 15.2 55.400002 16 55 17C 52 25.799999 55.200001 35.599998 55 45C 51.799999 44 48.200001 44.599998 45 45M 55 45C 52.799999 50.200001 46.599998 52.599998 43 57M 19 11C 18.4 14 19 17 19 20M 29 11C 28.799999 14 28 17.200001 29 20M 39 11C 39.599998 14 39.400002 17 39 20M 49 11C 49.200001 14 48.599998 17 49 20M 29 25C 27.200001 27.200001 25.6 30 23 31C 22.200001 30 20.799999 29.200001 20 28M 29 36C 27.4 38.400002 25.4 40.400002 23 42C 22.200001 40.799999 20.799999 40.200001 20 39M 33 29C 37.200001 28.6 41.799999 29.6 46 29M 33 39C 37.200001 37.799999 41.599998 38.799999 46 39"></path><path d="M 45 45C 43.895432 45 43 45.895432 43 47L 43 57L 15 57C 13.895431 57 13 56.104568 13 55L 13 17C 13 15.895431 13.895431 15 15 15L 53 15C 54.104568 15 55 15.895431 55 17L 55 45ZM 55 45L 43 57M 19 11L 19 20M 29 11L 29 20M 39 11L 39 20M 49 11L 49 20M 29 25L 23 31L 20 28M 29 36L 23 42L 20 39M 33 29L 46 29M 33 39L 46 39"></path></g></g></g><g id="g-root-tx_prioriti_8ydj7s1i60ydk-stroke" data-item-order="0" transform="translate(770, 512)"></g><g id="g-root-tx_sleepfit_924dqg1i60we8-stroke" data-item-order="0" transform="translate(38, 536)"></g><g id="g-root-tx_weeklyro_1lpw6881i60wzo-stroke" data-item-order="0" transform="translate(698, 248)"></g><g id="g-root-tx_trustedr_hz0c5k1i60wzw-stroke" data-item-order="0" transform="translate(170, 224)"></g><g id="g-root-tx_7_1hi6u881i5zk74-stroke" data-item-order="0" transform="translate(245, 554)"></g><g id="g-root-tx_3_1448fig1i5zhfw-stroke" data-item-order="0" transform="translate(650, 548)"></g><g id="g-root-tx_reflecto_1upwi2w1i60yrp-stroke" data-item-order="0" transform="translate(404, 842)"></g><g id="g-root-tx_focusonk_1q8u1s81i60xdt-stroke" data-item-order="0" transform="translate(770, 572)"></g><g id="g-root-tx_10_4pf91k1i5zjez-stroke" data-item-order="0" transform="translate(482, 211)"></g><g id="g-root-tx_stayconn_18n6b2g1i60w07-stroke" data-item-order="0" transform="translate(404, 134)"></g><g id="g-root-tx_4_924dqg1i5zi85-stroke" data-item-order="0" transform="translate(601.5, 663.5)"></g><g id="g-root-tx_limitdis_18jfgjs1i60xzi-stroke" data-item-order="0" transform="translate(158, 686)"></g><g id="g-root-tx_6_1qdtuh41i5zimn-stroke" data-item-order="0" transform="translate(341, 689)"></g><g id="g-root-tx_studygro_1ly0cco1i60xl2-stroke" data-item-order="0" transform="translate(428, 98)"></g><g id="g-root-tx_setweekl_142d0941i60wlm-stroke" data-item-order="0" transform="translate(734, 686)"></g><g id="g-root-tx_5_4njts81i5zkem-stroke" data-item-order="0" transform="translate(494, 725)"></g><g id="g-root-tx_minimize_qsrx541i60x6v-stroke" data-item-order="0" transform="translate(110, 746)"></g><g id="g-root-tx_establis_qqwhvs1i60y6j-stroke" data-item-order="0" transform="translate(734, 746)"></g><g id="g-root-tx_selfrevi_908yh41i60xdw-stroke" data-item-order="0" transform="translate(440, 806)"></g><g id="g-root-tx_ensuread_1urrxc81i60xs1-stroke" data-item-order="0" transform="translate(38, 572)"></g></g></g></svg>